<svg width="1920" height="1080" viewBox="0 0 1920 1080" fill="none" xmlns="http://www.w3.org/2000/svg">
<g clip-path="url(#clip0_50_524)">
<g opacity="0.26">
<path d="M365.853 -65.9244L988.53 296.791L594.071 531.257L168.748 280.537L111.086 319.688L536.489 561.592L372.438 665.901L-259.095 307.513L135.404 68.6399L556.36 314.911L618.43 275.8L201.842 33.9768L365.853 -65.9244Z" fill="#E5E5E5"/>
<path d="M388.983 683.448L992.885 321.988V332.576V546.799L388.983 908.258V683.448Z" fill="#E5E5E5"/>
<path d="M388.983 983.195L992.885 621.735V632.323V846.546L388.983 1208.01V983.195Z" fill="#E5E5E5"/>
<path d="M388.983 1282.94L992.885 921.482V932.07V1146.29L388.983 1507.75V1282.94Z" fill="#E5E5E5"/>
<path fill-rule="evenodd" clip-rule="evenodd" d="M366.942 683.448L-254.592 335.213V1157.31L366.942 1503.34V683.448ZM255.326 1222.08L153.941 1036.95L202.43 1001.68L4.06787 851.807L26.1081 1125.11L74.5966 1094.25L158.349 1257.35L-145.806 1089.84V560.876V556.468L255.326 781.279V1222.08Z" fill="#E5E5E5"/>
</g>
<g opacity="0.26">
<path d="M1618.8 -65.9244L996.123 296.791L1390.58 531.257L1815.91 280.537L1873.57 319.688L1448.16 561.592L1612.21 665.901L2243.75 307.513L1849.25 68.6399L1428.29 314.911L1366.22 275.8L1782.81 33.9768L1618.8 -65.9244Z" fill="#E5E5E5"/>
<path d="M1595.67 683.448L991.769 321.988V332.576V546.799L1595.67 908.258V683.448Z" fill="#E5E5E5"/>
<path d="M1595.67 983.195L991.769 621.735V632.323V846.546L1595.67 1208.01V983.195Z" fill="#E5E5E5"/>
<path d="M1595.67 1282.94L991.769 921.482V932.07V1146.29L1595.67 1507.75V1282.94Z" fill="#E5E5E5"/>
<path fill-rule="evenodd" clip-rule="evenodd" d="M1617.71 683.448L2239.25 335.213V1157.31L1617.71 1503.34V683.448ZM1729.33 1222.08L1830.71 1036.95L1782.22 1001.68L1980.59 851.807L1958.55 1125.11L1910.06 1094.25L1826.3 1257.35L2130.46 1089.84V560.876V556.468L1729.33 781.279V1222.08Z" fill="#E5E5E5"/>
</g>
</g>
<defs>
<clipPath id="clip0_50_524">
<rect width="1920" height="1080" fill="white"/>
</clipPath>
</defs>
</svg>
