<svg width="158" height="148" viewBox="0 0 158 148" fill="none" xmlns="http://www.w3.org/2000/svg">
<g clip-path="url(#clip0_232_728)">
<path d="M30.9455 148H126.162C130.106 148 133.303 144.988 133.303 141.273V65.0303C133.303 61.3151 130.106 58.303 126.162 58.303H119.021V38.1212C119.021 17.1012 100.867 0 78.5538 0C56.2403 0 38.0867 17.1012 38.0867 38.1212V58.303H30.9455C27.0016 58.303 23.8042 61.3151 23.8042 65.0303V141.273C23.8042 144.988 27.0016 148 30.9455 148ZM85.6951 105.388V114.364C85.6951 118.079 82.4977 121.091 78.5538 121.091C74.61 121.091 71.4126 118.079 71.4126 114.364V105.388C68.5237 103.34 66.6517 100.085 66.6517 96.4242C66.6517 90.2419 71.991 85.2121 78.5538 85.2121C85.1167 85.2121 90.4559 90.2419 90.4559 96.4242C90.4559 100.085 88.584 103.34 85.6951 105.388ZM52.3692 38.1212C52.3692 24.52 64.1156 13.4545 78.5538 13.4545C92.992 13.4545 104.738 24.52 104.738 38.1212V58.303H52.3692V38.1212Z" fill="black"/>
</g>
<defs>
<clipPath id="clip0_232_728">
<rect width="157.108" height="148" fill="white"/>
</clipPath>
</defs>
</svg>
