<svg width="1786" height="287" viewBox="0 0 1786 287" fill="none" xmlns="http://www.w3.org/2000/svg">
<path d="M346.426 286.106V261.686H337.083V259.881H357.734V261.686H348.391V286.106H346.426ZM361.517 286.106V259.881H363.482V271.871H382.329V259.881H384.294V286.106H382.329V273.675H363.482V286.106H361.517ZM389.673 286.106V259.881H408.881V261.686H391.638V271.871H406.555V273.675H391.638V284.302H408.881V286.106H389.673ZM431.835 286.628C426.462 286.628 422.652 283.62 422.652 278.888C422.652 275.36 424.697 273.034 427.905 272.152V272.071C425.299 271.229 423.655 269.264 423.655 266.257C423.655 262.006 427.023 259.36 431.835 259.36C436.647 259.36 440.016 262.006 440.016 266.257C440.016 269.264 438.372 271.229 435.765 272.071V272.152C438.933 273.034 441.018 275.36 441.018 278.888C441.018 283.62 437.209 286.628 431.835 286.628ZM431.394 271.35H432.276C435.845 271.35 438.171 269.585 438.171 266.297C438.171 263.45 436.046 261.044 431.835 261.044C427.625 261.044 425.499 263.45 425.499 266.297C425.499 269.585 427.825 271.35 431.394 271.35ZM431.835 284.944C436.687 284.944 439.133 282.137 439.133 278.768C439.133 275.079 436.447 272.914 432.276 272.914H431.394C427.224 272.914 424.537 275.079 424.537 278.768C424.537 282.137 426.983 284.944 431.835 284.944ZM452.746 286.106V261.686H443.403V259.881H464.054V261.686H454.711V286.106H452.746ZM467.837 286.106V259.881H469.802V271.871H488.649V259.881H490.614V286.106H488.649V273.675H469.802V286.106H467.837ZM506.645 286.106V259.881H525.853V261.686H508.61V271.871H523.527V273.675H508.61V284.302H525.853V286.106H506.645ZM530.376 286.106V259.881H539.799C548.822 259.881 553.674 265.134 553.674 272.994C553.674 280.853 548.822 286.106 539.799 286.106H530.376ZM532.341 284.302H539.799C547.739 284.302 551.709 279.771 551.709 272.994C551.709 266.217 547.739 261.686 539.799 261.686H532.341V284.302ZM557.87 286.106V259.881H559.835V286.106H557.87ZM573.085 286.106V261.686H563.742V259.881H584.393V261.686H575.05V286.106H573.085ZM588.336 286.106V259.881H590.301V286.106H588.336ZM608.444 286.628C600.263 286.628 594.489 280.853 594.489 272.994C594.489 265.134 600.263 259.36 608.444 259.36C616.624 259.36 622.399 265.134 622.399 272.994C622.399 280.853 616.624 286.628 608.444 286.628ZM608.444 284.823C615.501 284.823 620.434 279.811 620.434 272.994C620.434 266.177 615.501 261.164 608.444 261.164C601.386 261.164 596.454 266.177 596.454 272.994C596.454 279.811 601.386 284.823 608.444 284.823ZM625.834 286.106V270.107C625.834 263.53 629.724 259.36 636.781 259.36C643.839 259.36 647.729 263.53 647.729 270.107V286.106H645.764V270.107C645.764 264.613 642.636 261.164 636.781 261.164C630.967 261.164 627.799 264.613 627.799 270.107V286.106H625.834ZM675.799 286.628C667.619 286.628 661.844 280.853 661.844 272.994C661.844 265.134 667.619 259.36 675.799 259.36C683.98 259.36 689.754 265.134 689.754 272.994C689.754 280.853 683.98 286.628 675.799 286.628ZM675.799 284.823C682.857 284.823 687.789 279.811 687.789 272.994C687.789 266.177 682.857 261.164 675.799 261.164C668.742 261.164 663.809 266.177 663.809 272.994C663.809 279.811 668.742 284.823 675.799 284.823ZM693.791 286.106V259.881H712.678V261.686H695.756V271.871H710.352V273.675H695.756V286.106H693.791ZM1193.69 286.695C1187.31 286.695 1183.14 283.39 1183.01 277.911H1185.18C1185.31 282.167 1188.57 284.657 1193.69 284.657C1198.9 284.657 1202.2 282.077 1202.2 277.911C1202.2 273.428 1198.08 272.794 1193.74 272.16C1188.85 271.481 1183.73 270.666 1183.73 264.553C1183.73 259.391 1187.71 255.905 1193.74 255.905C1199.67 255.905 1203.61 259.21 1203.79 264.281H1201.62C1201.43 260.297 1198.45 257.942 1193.74 257.942C1189.03 257.942 1185.9 260.387 1185.9 264.508C1185.9 268.9 1190.02 269.534 1194.37 270.168C1199.26 270.938 1204.42 271.707 1204.42 277.865C1204.42 283.299 1200.17 286.695 1193.69 286.695ZM1223.44 286.695C1214.2 286.695 1207.68 280.175 1207.68 271.3C1207.68 262.425 1214.2 255.905 1223.44 255.905C1232.67 255.905 1239.19 262.425 1239.19 271.3C1239.19 280.175 1232.67 286.695 1223.44 286.695ZM1223.44 284.657C1231.4 284.657 1236.97 278.997 1236.97 271.3C1236.97 263.602 1231.4 257.942 1223.44 257.942C1215.47 257.942 1209.9 263.602 1209.9 271.3C1209.9 278.997 1215.47 284.657 1223.44 284.657ZM1255.43 286.695C1247.46 286.695 1243.07 281.986 1243.07 274.56V256.493H1245.29V274.56C1245.29 280.763 1248.87 284.657 1255.43 284.657C1261.95 284.657 1265.49 280.673 1265.49 274.56V256.493H1267.66V274.56C1267.66 281.986 1263.31 286.695 1255.43 286.695ZM1281.76 286.106V258.531H1271.21V256.493H1294.53V258.531H1283.98V286.106H1281.76ZM1298.8 286.106V256.493H1301.02V270.032H1322.3V256.493H1324.52V286.106H1322.3V272.07H1301.02V286.106H1298.8ZM1342.81 286.106V256.493H1345.02V286.106H1342.81ZM1350.57 286.106V268.04C1350.57 260.614 1354.96 255.905 1362.93 255.905C1370.9 255.905 1375.29 260.614 1375.29 268.04V286.106H1373.07V268.04C1373.07 261.836 1369.54 257.942 1362.93 257.942C1356.36 257.942 1352.79 261.836 1352.79 268.04V286.106H1350.57ZM1380.7 286.106V256.493H1391.34C1401.53 256.493 1407 262.425 1407 271.3C1407 280.175 1401.53 286.106 1391.34 286.106H1380.7ZM1382.92 284.069H1391.34C1400.3 284.069 1404.79 278.952 1404.79 271.3C1404.79 263.648 1400.3 258.531 1391.34 258.531H1382.92V284.069ZM1411.74 286.106V256.493H1413.96V286.106H1411.74ZM1419.46 286.106V268.493C1419.46 260.795 1423.94 255.905 1432.14 255.905C1440.38 255.905 1444.91 260.795 1444.91 268.493V286.106H1442.69V275.692H1421.63V286.106H1419.46ZM1421.63 273.654H1442.69V268.493C1442.69 262.063 1439.02 257.942 1432.14 257.942C1425.3 257.942 1421.63 262.063 1421.63 268.493V273.654Z" fill="white"/>
<path d="M735.783 286.106V259.482H725.73V256.493H749.095V259.482H739.043V286.106H735.783ZM753.365 286.106V256.493H756.626V269.579H775.824V256.493H779.084V286.106H775.824V272.568H756.626V286.106H753.365ZM785.159 286.106V256.493H806.893V259.482H788.419V269.579H804.267V272.568H788.419V283.118H806.893V286.106H785.159ZM824.027 286.106V256.493H838.335C843.724 256.493 846.667 259.618 846.667 264.01C846.667 267.134 845.082 269.579 842.411 270.711V270.802C845.897 271.707 848.025 274.605 848.025 278.273C848.025 282.801 844.992 286.106 839.513 286.106H824.027ZM827.287 269.534H838.109C841.505 269.534 843.407 267.451 843.407 264.508C843.407 261.565 841.777 259.482 837.973 259.482H827.287V269.534ZM827.287 283.118H839.105C842.909 283.118 844.72 280.899 844.72 277.82C844.72 274.741 842.637 272.522 839.196 272.522H827.287V283.118ZM852.374 286.106V256.493H855.635V286.106H852.374ZM876.053 286.695C866.816 286.695 860.296 280.175 860.296 271.3C860.296 262.425 866.816 255.905 876.053 255.905C883.207 255.905 888.822 259.844 890.905 265.776H887.328C885.426 261.61 881.305 258.893 876.053 258.893C868.672 258.893 863.556 264.146 863.556 271.3C863.556 278.454 868.672 283.707 876.053 283.707C882.483 283.707 887.147 280.084 888.324 274.198H874.197V271.209H891.765V272.749C891.086 280.854 884.792 286.695 876.053 286.695ZM910.323 286.695C901.085 286.695 894.565 280.175 894.565 271.3C894.565 262.425 901.085 255.905 910.323 255.905C917.477 255.905 923.091 259.844 925.174 265.776H921.597C919.695 261.61 915.575 258.893 910.323 258.893C902.942 258.893 897.825 264.146 897.825 271.3C897.825 278.454 902.942 283.707 910.323 283.707C916.752 283.707 921.416 280.084 922.593 274.198H908.466V271.209H926.035V272.749C925.355 280.854 919.062 286.695 910.323 286.695ZM930.329 286.106V256.493H952.063V259.482H933.589V269.579H949.437V272.568H933.589V283.118H952.063V286.106H930.329ZM966.497 286.695C960.068 286.695 955.811 283.299 955.675 277.775H958.89C959.026 281.533 961.788 283.707 966.497 283.707C971.206 283.707 974.104 281.397 974.104 277.775C974.104 273.881 970.346 273.202 966.316 272.613C961.517 271.934 956.355 271.028 956.355 264.734C956.355 259.482 960.43 255.905 966.543 255.905C972.52 255.905 976.504 259.301 976.685 264.463H973.561C973.38 261.067 970.799 258.893 966.543 258.893C962.241 258.893 959.524 261.157 959.524 264.644C959.524 268.447 963.237 269.081 967.267 269.715C972.067 270.485 977.274 271.345 977.274 277.684C977.274 283.209 973.018 286.695 966.497 286.695ZM989.33 286.106V259.482H979.281V256.493H1002.65V259.482H992.59V286.106H989.33ZM1018.94 286.106V256.493H1040.32V259.482H1022.2V269.534H1037.69V272.522H1022.2V286.106H1018.94ZM1044.68 286.106V256.493H1066.41V259.482H1047.94V269.579H1063.79V272.568H1047.94V283.118H1066.41V286.106H1044.68ZM1080.85 286.695C1074.42 286.695 1070.16 283.299 1070.03 277.775H1073.24C1073.38 281.533 1076.14 283.707 1080.85 283.707C1085.56 283.707 1088.45 281.397 1088.45 277.775C1088.45 273.881 1084.7 273.202 1080.67 272.613C1075.87 271.934 1070.7 271.028 1070.7 264.734C1070.7 259.482 1074.78 255.905 1080.89 255.905C1086.87 255.905 1090.85 259.301 1091.03 264.463H1087.91C1087.73 261.067 1085.15 258.893 1080.89 258.893C1076.59 258.893 1073.87 261.157 1073.87 264.644C1073.87 268.447 1077.59 269.081 1081.62 269.715C1086.42 270.485 1091.62 271.345 1091.62 277.684C1091.62 283.209 1087.37 286.695 1080.85 286.695ZM1103.68 286.106V259.482H1093.63V256.493H1116.99V259.482H1106.94V286.106H1103.68ZM1133.43 286.106V256.493H1136.69V286.106H1133.43ZM1142.16 286.106V268.13C1142.16 260.659 1146.6 255.905 1154.62 255.905C1162.59 255.905 1167.02 260.659 1167.02 268.13V286.106H1163.76V268.13C1163.76 262.425 1160.59 258.893 1154.62 258.893C1148.59 258.893 1145.43 262.425 1145.43 268.13V286.106H1142.16Z" fill="black"/>
<path d="M667.791 32.0002V0.847755H690.655V3.99154H671.221V14.6139H687.892V17.7577H671.221V28.8564H690.655V32.0002H667.791ZM711.032 32.6194C701.314 32.6194 694.455 25.7602 694.455 16.424C694.455 7.08773 701.314 0.228516 711.032 0.228516C718.844 0.228516 724.845 4.65844 726.846 11.2795H723.226C721.368 6.51614 716.843 3.37234 711.032 3.37234C703.267 3.37234 697.885 8.89783 697.885 16.424C697.885 23.9501 703.267 29.4756 711.032 29.4756C716.843 29.4756 721.368 26.3318 723.226 21.5684H726.846C724.845 28.1895 718.844 32.6194 711.032 32.6194ZM731.799 32.0002V0.847755H754.663V3.99154H735.228V14.6139H751.9V17.7577H735.228V28.8564H754.663V32.0002H731.799ZM760.035 32.0002V0.847755H763.464V28.8564H782.327V32.0002H760.035ZM786.736 32.0002V0.847755H790.165V28.8564H809.028V32.0002H786.736ZM836.474 32.0002L824.089 0.847755H827.9L838.379 28.0466L848.858 0.847755H852.574L840.141 32.0002H836.474ZM857.12 32.0002V0.847755H860.55V32.0002H857.12ZM875.694 32.0002V3.99154H865.119V0.847755H889.698V3.99154H879.124V32.0002H875.694ZM906.844 32.0002V0.847755H920.324C927.85 0.847755 931.184 5.03954 931.184 10.7555C931.184 16.424 927.802 20.711 920.324 20.711H910.273V32.0002H906.844ZM910.273 17.5672H920.372C925.754 17.5672 927.707 14.6139 927.707 10.7555C927.707 6.89724 925.754 3.99154 920.372 3.99154H910.273V17.5672ZM935.359 32.0002V0.847755H949.125C956.46 0.847755 959.7 4.94424 959.7 10.4697C959.7 15.6142 956.937 19.0438 951.84 19.9965L960.843 32.0002H956.699L948.267 20.187H938.788V32.0002H935.359ZM938.788 17.0432H949.172C954.365 17.0432 956.222 14.1852 956.222 10.4697C956.222 6.75434 954.365 3.99154 949.172 3.99154H938.788V17.0432ZM965.362 32.0002V0.847755H988.23V3.99154H968.792V14.6139H985.46V17.7577H968.792V28.8564H988.23V32.0002H965.362ZM1003.41 32.6194C996.65 32.6194 992.17 29.0469 992.03 23.2356H995.41C995.55 27.1892 998.46 29.4756 1003.41 29.4756C1008.36 29.4756 1011.41 27.0463 1011.41 23.2356C1011.41 19.1391 1007.46 18.4246 1003.22 17.8053C998.17 17.0908 992.74 16.1382 992.74 9.51713C992.74 3.99153 997.03 0.228516 1003.46 0.228516C1009.75 0.228516 1013.94 3.80104 1014.13 9.23134H1010.84C1010.65 5.65874 1007.94 3.37234 1003.46 3.37234C998.93 3.37234 996.08 5.75404 996.08 9.42184C996.08 13.423 999.98 14.0899 1004.22 14.7568C1009.27 15.5666 1014.75 16.4716 1014.75 23.1403C1014.75 28.9516 1010.27 32.6194 1003.41 32.6194ZM1019.69 32.0002V0.847755H1042.56V3.99154H1023.12V14.6139H1039.8V17.7577H1023.12V28.8564H1042.56V32.0002H1019.69ZM1047.22 32.0002V13.0896C1047.22 5.23003 1051.88 0.228516 1060.32 0.228516C1068.7 0.228516 1073.37 5.23003 1073.37 13.0896V32.0002H1069.94V13.0896C1069.94 7.08773 1066.6 3.37234 1060.32 3.37234C1053.98 3.37234 1050.65 7.08773 1050.65 13.0896V32.0002H1047.22ZM1086.7 32.0002V3.99154H1076.12V0.847755H1100.7V3.99154H1090.13V32.0002H1086.7ZM1114.31 32.6194C1107.54 32.6194 1103.07 29.0469 1102.92 23.2356H1106.31C1106.45 27.1892 1109.35 29.4756 1114.31 29.4756C1119.26 29.4756 1122.31 27.0463 1122.31 23.2356C1122.31 19.1391 1118.36 18.4246 1114.12 17.8053C1109.07 17.0908 1103.64 16.1382 1103.64 9.51713C1103.64 3.99153 1107.93 0.228516 1114.36 0.228516C1120.64 0.228516 1124.84 3.80104 1125.03 9.23134H1121.74C1121.55 5.65874 1118.83 3.37234 1114.36 3.37234C1109.83 3.37234 1106.97 5.75404 1106.97 9.42184C1106.97 13.423 1110.88 14.0899 1115.12 14.7568C1120.17 15.5666 1125.65 16.4716 1125.65 23.1403C1125.65 28.9516 1121.17 32.6194 1114.31 32.6194Z" fill="#FFE5D6"/>
<path d="M0.0671997 206.606V79.671C52.5213 79.671 105.162 79.671 157.803 79.671V117.192C146.789 117.192 83.695 117.192 54.7614 117.192V128.392C86.122 128.392 117.669 128.392 149.029 128.392V158.072H54.7614V169.086H157.803V206.606C105.162 206.606 52.5213 206.606 0.0671997 206.606ZM277.705 125.219V161.059H168.69V125.219H277.705ZM494.11 130.819C526.777 130.819 546.564 137.912 546.564 165.912C546.564 200.82 523.604 209.593 494.11 209.593H412.349C374.081 209.593 358.961 194.66 358.961 161.992H411.229C411.789 169.086 419.442 169.273 425.975 169.273C445.949 169.273 480.856 169.459 490.003 169.459C495.043 169.459 496.91 167.406 496.91 162.179C496.91 158.819 494.67 157.326 489.63 157.326C463.869 156.766 437.176 156.019 411.415 155.272C378.748 155.272 359.148 148.552 359.148 120.552C359.148 85.6444 382.108 76.8709 411.602 76.8709H490.563C528.644 76.8709 543.764 91.8045 543.764 124.472H491.496C490.936 117.192 483.47 117.005 476.75 117.005C456.776 117.005 425.042 117.005 415.709 117.005C410.669 117.005 408.802 118.872 408.802 124.099C408.802 127.459 410.669 128.765 415.709 128.765C441.469 129.325 468.163 130.072 494.11 130.819ZM609.666 143.139C609.666 160.126 618.439 169.086 632.626 169.086C642.146 169.086 649.799 169.086 659.506 169.086C673.507 169.086 682.28 160.126 682.28 143.139V79.671H736.974V143.139C736.974 188.313 705.427 209.406 673.507 209.406H618.439C586.519 209.406 554.971 188.313 554.971 143.139V79.671H609.666V143.139ZM967.892 79.671V206.606H913.011V129.699L882.397 206.606H834.423L803.996 129.699V206.606H749.115V79.671C776.929 79.671 804.556 79.671 831.996 79.671L858.503 146.312L884.824 79.671C912.637 79.671 940.264 79.671 967.892 79.671ZM1198.86 79.671V206.606H1143.98V129.699L1113.36 206.606H1065.39L1034.96 129.699V206.606H980.08V79.671C1007.9 79.671 1035.52 79.671 1062.96 79.671L1089.47 146.312L1115.79 79.671C1143.6 79.671 1171.23 79.671 1198.86 79.671ZM1211.05 206.606V79.671H1265.74V206.606H1211.05ZM1464.25 79.671V121.298H1398.35V206.606H1343.66V121.298C1315.66 121.485 1290.64 121.485 1277.95 121.485V79.671C1339.93 79.671 1402.09 79.671 1464.25 79.671ZM1476.47 119.245V79.671H1514.18C1514.18 93.1108 1514.18 105.805 1514.18 119.245C1514.18 132.685 1510.44 139.405 1500.92 147.059L1487.11 133.992C1493.64 129.699 1495.32 125.779 1495.32 119.245H1476.47ZM1653.84 108.532C1653.84 113.697 1653.08 118.497 1651.56 122.933C1650.11 127.369 1648.22 131.137 1645.91 134.236C1643.66 137.335 1640.81 140.494 1637.34 143.715C1633.94 146.935 1630.63 149.731 1627.41 152.1C1624.19 154.409 1620.51 157.205 1616.38 160.486C1612.31 163.767 1608.82 166.866 1605.9 169.783C1610.03 169.783 1616.35 169.661 1624.86 169.418C1633.43 169.175 1639.93 169.054 1644.36 169.054C1648.56 169.054 1651.38 170.482 1652.84 173.338C1654.36 176.133 1655.12 180.174 1655.12 185.46C1655.12 187.101 1655.03 189.896 1654.84 193.846C1654.66 197.735 1654.57 200.712 1654.57 202.778V204.419C1654.57 205.33 1654.51 206.029 1654.39 206.515C1654.27 207.001 1653.93 207.457 1653.39 207.883C1652.84 208.308 1652.02 208.612 1650.93 208.794H1644.36C1639.74 208.672 1629.9 208.429 1614.83 208.065C1590.53 208.065 1563.97 208.551 1535.17 209.523V207.7C1534.26 207.153 1533.5 206.06 1532.89 204.419C1532.34 202.778 1532.07 200.955 1532.07 198.95V172.335C1532.07 170.938 1534.14 168.872 1538.27 166.137C1554.98 154.835 1566.95 146.632 1574.18 141.527L1579.83 137.152C1592.96 126.944 1599.52 117.829 1599.52 109.808C1599.52 107.256 1598.76 105.251 1597.24 103.792C1595.78 102.334 1593.81 101.605 1591.32 101.605C1589.19 101.605 1587.49 102.091 1586.21 103.063C1585 103.975 1584.14 105.129 1583.66 106.527C1583.23 107.864 1582.87 109.231 1582.57 110.628C1582.32 112.026 1581.93 113.302 1581.38 114.457C1580.89 115.611 1580.13 116.31 1579.1 116.553H1536.81C1533.41 116.553 1531.7 115.642 1531.7 113.819C1532.62 105.068 1534.71 97.5638 1537.99 91.305C1541.28 84.9855 1545.65 80.0028 1551.12 76.3569C1556.59 72.711 1562.76 70.0677 1569.62 68.4271C1576.49 66.7257 1584.33 65.875 1593.14 65.875C1599.52 65.875 1605.59 66.3915 1611.37 67.4245C1617.14 68.3967 1622.64 70.007 1627.87 72.2553C1633.09 74.4428 1637.59 77.1772 1641.36 80.4585C1645.18 83.679 1648.22 87.6895 1650.47 92.4898C1652.72 97.2908 1653.84 102.638 1653.84 108.532ZM1665.33 170.148C1665.33 168.811 1666.24 167.93 1668.06 167.504C1669.94 167.079 1672.68 166.866 1676.26 166.866H1691.21C1693.89 166.866 1697.84 166.957 1703.06 167.14C1708.29 167.322 1712.36 167.413 1715.28 167.413C1716.31 167.535 1717.07 168.112 1717.55 169.145C1718.1 170.178 1718.47 171.272 1718.65 172.426C1718.83 173.581 1719.32 174.644 1720.11 175.616C1720.9 176.589 1722.08 177.075 1723.66 177.075C1729.74 177.075 1732.78 171.971 1732.78 161.762C1732.78 159.574 1732.68 157.691 1732.5 156.111C1732.32 154.47 1731.96 152.769 1731.41 151.007C1730.86 149.244 1729.95 147.908 1728.67 146.996C1727.46 146.024 1725.91 145.538 1724.03 145.538C1721.84 145.538 1720.23 146.085 1719.19 147.178C1718.22 148.272 1717.71 149.488 1717.65 150.824C1717.58 152.161 1717.25 153.376 1716.64 154.47C1716.03 155.564 1714.97 156.111 1713.45 156.111H1672.98C1671.16 153.498 1670.25 149.791 1670.25 144.991V76.9949C1670.25 75.4758 1670.28 74.3516 1670.34 73.6225C1670.4 72.8325 1670.58 71.9211 1670.89 70.8881C1671.25 69.8551 1671.77 68.974 1672.44 68.2448H1772.7C1773.97 68.2448 1775.16 68.5182 1776.25 69.0651C1777.41 69.612 1778.11 70.3716 1778.35 71.3438V89.0263C1778.35 89.4517 1778.35 90.0594 1778.35 90.8493C1778.35 97.4728 1778.17 101.453 1777.8 102.79C1777.5 104.066 1776.4 104.704 1774.52 104.704C1761.4 104.704 1742.19 104.825 1716.92 105.068C1716.73 106.891 1716.52 109.656 1716.28 113.363C1716.03 117.07 1715.82 119.834 1715.64 121.657C1718.68 119.47 1722.57 117.768 1727.31 116.553C1732.05 115.338 1736.73 114.73 1741.34 114.73C1754.83 114.73 1765.65 118.862 1773.79 127.126C1781.93 135.329 1786.01 145.902 1786.01 158.845C1786.01 166.502 1784.79 173.398 1782.36 179.536C1779.99 185.673 1776.83 190.716 1772.88 194.666C1768.93 198.616 1764.25 201.928 1758.84 204.601C1753.5 207.214 1748 209.067 1742.35 210.161C1736.69 211.316 1730.83 211.893 1724.75 211.893C1720.68 211.893 1716.86 211.741 1713.27 211.437C1709.75 211.133 1706.04 210.587 1702.15 209.797C1698.26 209.007 1694.71 207.943 1691.49 206.606C1688.27 205.33 1685.11 203.629 1682.01 201.502C1678.97 199.315 1676.33 196.823 1674.08 194.028C1671.89 191.172 1670.01 187.709 1668.43 183.637C1666.85 179.566 1665.81 175.07 1665.33 170.148Z" fill="white"/>
</svg>
