<svg width="1832" height="312" viewBox="0 0 1832 312" fill="none" xmlns="http://www.w3.org/2000/svg">
<path d="M171.426 294V269.579H162.083V267.775H182.734V269.579H173.391V294H171.426ZM186.517 294V267.775H188.482V279.764H207.329V267.775H209.294V294H207.329V281.569H188.482V294H186.517ZM214.673 294V267.775H233.881V269.579H216.638V279.764H231.555V281.569H216.638V292.195H233.881V294H214.673ZM256.835 294.521C251.462 294.521 247.652 291.514 247.652 286.782C247.652 283.253 249.697 280.927 252.905 280.045V279.965C250.299 279.123 248.655 277.158 248.655 274.15C248.655 269.9 252.023 267.253 256.835 267.253C261.647 267.253 265.016 269.9 265.016 274.15C265.016 277.158 263.372 279.123 260.765 279.965V280.045C263.933 280.927 266.018 283.253 266.018 286.782C266.018 291.514 262.209 294.521 256.835 294.521ZM256.394 279.243H257.276C260.845 279.243 263.171 277.479 263.171 274.191C263.171 271.344 261.046 268.938 256.835 268.938C252.625 268.938 250.499 271.344 250.499 274.191C250.499 277.479 252.825 279.243 256.394 279.243ZM256.835 292.837C261.687 292.837 264.133 290.03 264.133 286.662C264.133 282.973 261.447 280.807 257.276 280.807H256.394C252.224 280.807 249.537 282.973 249.537 286.662C249.537 290.03 251.983 292.837 256.835 292.837ZM291.31 294V267.775H310.518V269.579H293.275V279.764H308.192V281.569H293.275V292.195H310.518V294H291.31ZM315.041 294V267.775H324.464C333.487 267.775 338.339 273.028 338.339 280.887C338.339 288.747 333.487 294 324.464 294H315.041ZM317.006 292.195H324.464C332.404 292.195 336.374 287.664 336.374 280.887C336.374 274.11 332.404 269.579 324.464 269.579H317.006V292.195ZM342.535 294V267.775H344.5V294H342.535ZM357.75 294V269.579H348.407V267.775H369.058V269.579H359.715V294H357.75ZM373.001 294V267.775H374.966V294H373.001ZM393.109 294.521C384.928 294.521 379.154 288.747 379.154 280.887C379.154 273.028 384.928 267.253 393.109 267.253C401.289 267.253 407.064 273.028 407.064 280.887C407.064 288.747 401.289 294.521 393.109 294.521ZM393.109 292.717C400.166 292.717 405.099 287.704 405.099 280.887C405.099 274.07 400.166 269.058 393.109 269.058C386.051 269.058 381.119 274.07 381.119 280.887C381.119 287.704 386.051 292.717 393.109 292.717ZM410.499 294V278C410.499 271.424 414.389 267.253 421.446 267.253C428.504 267.253 432.394 271.424 432.394 278V294H430.429V278C430.429 272.506 427.301 269.058 421.446 269.058C415.632 269.058 412.464 272.506 412.464 278V294H410.499ZM460.464 294.521C452.284 294.521 446.509 288.747 446.509 280.887C446.509 273.028 452.284 267.253 460.464 267.253C468.645 267.253 474.419 273.028 474.419 280.887C474.419 288.747 468.645 294.521 460.464 294.521ZM460.464 292.717C467.522 292.717 472.454 287.704 472.454 280.887C472.454 274.07 467.522 269.058 460.464 269.058C453.407 269.058 448.474 274.07 448.474 280.887C448.474 287.704 453.407 292.717 460.464 292.717ZM478.456 294V267.775H497.343V269.579H480.421V279.764H495.017V281.569H480.421V294H478.456ZM1356.83 294V264.387H1360.09V294H1356.83ZM1365.57 294V276.024C1365.57 268.553 1370.01 263.798 1378.02 263.798C1385.99 263.798 1390.43 268.553 1390.43 276.024V294H1387.17V276.024C1387.17 270.319 1384 266.787 1378.02 266.787C1372 266.787 1368.83 270.319 1368.83 276.024V294H1365.57ZM1417.09 294.589C1410.71 294.589 1406.54 291.283 1406.41 285.804H1408.58C1408.72 290.061 1411.98 292.551 1417.09 292.551C1422.3 292.551 1425.61 289.97 1425.61 285.804C1425.61 281.322 1421.49 280.688 1417.14 280.054C1412.25 279.375 1407.13 278.56 1407.13 272.447C1407.13 267.285 1411.12 263.798 1417.14 263.798C1423.07 263.798 1427.01 267.104 1427.19 272.175H1425.02C1424.84 268.19 1421.85 265.836 1417.14 265.836C1412.43 265.836 1409.31 268.281 1409.31 272.401C1409.31 276.794 1413.43 277.428 1417.77 278.061C1422.66 278.831 1427.83 279.601 1427.83 285.759C1427.83 291.193 1423.57 294.589 1417.09 294.589ZM1446.84 294.589C1437.6 294.589 1431.08 288.068 1431.08 279.193C1431.08 270.319 1437.6 263.798 1446.84 263.798C1456.08 263.798 1462.6 270.319 1462.6 279.193C1462.6 288.068 1456.08 294.589 1446.84 294.589ZM1446.84 292.551C1454.81 292.551 1460.38 286.891 1460.38 279.193C1460.38 271.496 1454.81 265.836 1446.84 265.836C1438.87 265.836 1433.3 271.496 1433.3 279.193C1433.3 286.891 1438.87 292.551 1446.84 292.551ZM1478.84 294.589C1470.87 294.589 1466.48 289.88 1466.48 282.454V264.387H1468.69V282.454C1468.69 288.657 1472.27 292.551 1478.84 292.551C1485.36 292.551 1488.89 288.566 1488.89 282.454V264.387H1491.06V282.454C1491.06 289.88 1486.72 294.589 1478.84 294.589ZM1505.17 294V266.424H1494.62V264.387H1517.94V266.424H1507.39V294H1505.17ZM1522.21 294V264.387H1524.43V277.926H1545.71V264.387H1547.93V294H1545.71V279.963H1524.43V294H1522.21ZM1566.21 294V264.387H1568.43V294H1566.21ZM1573.97 294V275.933C1573.97 268.507 1578.36 263.798 1586.33 263.798C1594.3 263.798 1598.69 268.507 1598.69 275.933V294H1596.48V275.933C1596.48 269.73 1592.94 265.836 1586.33 265.836C1579.77 265.836 1576.19 269.73 1576.19 275.933V294H1573.97ZM1604.1 294V264.387H1614.74C1624.93 264.387 1630.41 270.319 1630.41 279.193C1630.41 288.068 1624.93 294 1614.74 294H1604.1ZM1606.32 291.962H1614.74C1623.71 291.962 1628.19 286.846 1628.19 279.193C1628.19 271.541 1623.71 266.424 1614.74 266.424H1606.32V291.962ZM1635.15 294V264.387H1637.36V294H1635.15ZM1642.86 294V276.386C1642.86 268.688 1647.35 263.798 1655.54 263.798C1663.78 263.798 1668.31 268.688 1668.31 276.386V294H1666.09V283.586H1645.04V294H1642.86ZM1645.04 281.548H1666.09V276.386C1666.09 269.956 1662.42 265.836 1655.54 265.836C1648.7 265.836 1645.04 269.956 1645.04 276.386V281.548Z" fill="white"/>
<path d="M520.448 294V267.375H510.396V264.387H533.76V267.375H523.708V294H520.448ZM538.03 294V264.387H541.291V277.473H560.489V264.387H563.749V294H560.489V280.461H541.291V294H538.03ZM569.824 294V264.387H591.558V267.375H573.084V277.473H588.932V280.461H573.084V291.012H591.558V294H569.824ZM608.692 294V264.387H623C628.389 264.387 631.332 267.511 631.332 271.903C631.332 275.028 629.747 277.473 627.076 278.605V278.695C630.562 279.601 632.69 282.499 632.69 286.167C632.69 290.695 629.657 294 624.178 294H608.692ZM611.952 277.428H622.774C626.17 277.428 628.072 275.345 628.072 272.401C628.072 269.458 626.442 267.375 622.638 267.375H611.952V277.428ZM611.952 291.012H623.77C627.574 291.012 629.385 288.793 629.385 285.714C629.385 282.635 627.302 280.416 623.861 280.416H611.952V291.012ZM637.039 294V264.387H640.3V294H637.039ZM660.718 294.589C651.481 294.589 644.961 288.068 644.961 279.193C644.961 270.319 651.481 263.798 660.718 263.798C667.872 263.798 673.487 267.738 675.57 273.669H671.993C670.091 269.504 665.97 266.787 660.718 266.787C653.337 266.787 648.221 272.039 648.221 279.193C648.221 286.348 653.337 291.6 660.718 291.6C667.148 291.6 671.812 287.978 672.989 282.091H658.862V279.103H676.43V280.642C675.751 288.748 669.457 294.589 660.718 294.589ZM694.988 294.589C685.75 294.589 679.23 288.068 679.23 279.193C679.23 270.319 685.75 263.798 694.988 263.798C702.142 263.798 707.757 267.738 709.839 273.669H706.262C704.361 269.504 700.24 266.787 694.988 266.787C687.607 266.787 682.49 272.039 682.49 279.193C682.49 286.348 687.607 291.6 694.988 291.6C701.417 291.6 706.081 287.978 707.258 282.091H693.131V279.103H710.7V280.642C710.021 288.748 703.727 294.589 694.988 294.589ZM714.994 294V264.387H736.728V267.375H718.254V277.473H734.102V280.461H718.254V291.012H736.728V294H714.994ZM751.162 294.589C744.733 294.589 740.476 291.193 740.34 285.668H743.555C743.691 289.427 746.453 291.6 751.162 291.6C755.871 291.6 758.769 289.291 758.769 285.668C758.769 281.774 755.011 281.095 750.981 280.507C746.182 279.827 741.02 278.922 741.02 272.628C741.02 267.375 745.095 263.798 751.208 263.798C757.185 263.798 761.169 267.194 761.35 272.356H758.226C758.045 268.96 755.464 266.787 751.208 266.787C746.906 266.787 744.189 269.051 744.189 272.537C744.189 276.341 747.902 276.975 751.932 277.609C756.732 278.378 761.939 279.239 761.939 285.578C761.939 291.102 757.683 294.589 751.162 294.589ZM773.998 294V267.375H763.946V264.387H787.31V267.375H777.258V294H773.998ZM803.608 294V264.387H825.343V267.375H806.868V277.473H822.716V280.461H806.868V291.012H825.343V294H803.608ZM829.77 294V276.024C829.77 268.553 834.207 263.798 842.222 263.798C850.191 263.798 854.629 268.553 854.629 276.024V294H851.368V276.024C851.368 270.319 848.199 266.787 842.222 266.787C836.2 266.787 833.03 270.319 833.03 276.024V294H829.77ZM867.3 294V267.375H857.247V264.387H880.612V267.375H870.56V294H867.3ZM884.882 294V264.387H897.968C904.941 264.387 908.02 268.281 908.02 273.533C908.02 278.424 905.394 281.684 900.549 282.589L909.107 294H905.168L897.153 282.771H888.142V294H884.882ZM888.142 279.782H898.014C902.949 279.782 904.715 277.065 904.715 273.533C904.715 270.002 902.949 267.375 898.014 267.375H888.142V279.782ZM913.403 294V264.387H935.138V267.375H916.664V277.473H932.512V280.461H916.664V291.012H935.138V294H913.403ZM940.244 294V264.387H953.058C960.213 264.387 963.382 268.372 963.382 273.805C963.382 279.193 960.167 283.269 953.058 283.269H943.504V294H940.244ZM943.504 280.28H953.104C958.22 280.28 960.077 277.473 960.077 273.805C960.077 270.137 958.22 267.375 953.104 267.375H943.504V280.28ZM967.35 294V264.387H980.436C987.409 264.387 990.488 268.281 990.488 273.533C990.488 278.424 987.862 281.684 983.017 282.589L991.575 294H987.636L979.621 282.771H970.61V294H967.35ZM970.61 279.782H980.481C985.417 279.782 987.183 277.065 987.183 273.533C987.183 270.002 985.417 267.375 980.481 267.375H970.61V279.782ZM995.871 294V264.387H1017.61V267.375H999.132V277.473H1014.98V280.461H999.132V291.012H1017.61V294H995.871ZM1022.03 294V276.024C1022.03 268.553 1026.47 263.798 1034.48 263.798C1042.45 263.798 1046.89 268.553 1046.89 276.024V294H1043.63V276.024C1043.63 270.319 1040.46 266.787 1034.48 266.787C1028.46 266.787 1025.29 270.319 1025.29 276.024V294H1022.03ZM1052.29 294V264.387H1074.03V267.375H1055.55V277.473H1071.4V280.461H1055.55V291.012H1074.03V294H1052.29ZM1090.91 294.589C1082.89 294.589 1078.46 289.834 1078.46 282.363V264.387H1081.72V282.363C1081.72 288.068 1084.89 291.6 1090.86 291.6C1096.84 291.6 1100.01 288.023 1100.01 282.363V264.387H1103.18V282.363C1103.18 289.834 1098.79 294.589 1090.91 294.589ZM1108.54 294V264.387H1121.63C1128.6 264.387 1131.68 268.281 1131.68 273.533C1131.68 278.424 1129.05 281.684 1124.21 282.589L1132.77 294H1128.83L1120.81 282.771H1111.8V294H1108.54ZM1111.8 279.782H1121.67C1126.61 279.782 1128.37 277.065 1128.37 273.533C1128.37 270.002 1126.61 267.375 1121.67 267.375H1111.8V279.782ZM1146.39 294.589C1139.96 294.589 1135.7 291.193 1135.57 285.668H1138.78C1138.92 289.427 1141.68 291.6 1146.39 291.6C1151.1 291.6 1154 289.291 1154 285.668C1154 281.774 1150.24 281.095 1146.21 280.507C1141.41 279.827 1136.25 278.922 1136.25 272.628C1136.25 267.375 1140.32 263.798 1146.43 263.798C1152.41 263.798 1156.4 267.194 1156.58 272.356H1153.45C1153.27 268.96 1150.69 266.787 1146.43 266.787C1142.13 266.787 1139.42 269.051 1139.42 272.537C1139.42 276.341 1143.13 276.975 1147.16 277.609C1151.96 278.378 1157.17 279.239 1157.17 285.578C1157.17 291.102 1152.91 294.589 1146.39 294.589ZM1161.87 294V264.387H1165.13V277.473H1184.33V264.387H1187.59V294H1184.33V280.461H1165.13V294H1161.87ZM1193.8 294V264.387H1197.06V294H1193.8ZM1203.21 294V264.387H1216.03C1223.18 264.387 1226.35 268.372 1226.35 273.805C1226.35 279.193 1223.14 283.269 1216.03 283.269H1206.47V294H1203.21ZM1206.47 280.28H1216.07C1221.19 280.28 1223.05 277.473 1223.05 273.805C1223.05 270.137 1221.19 267.375 1216.07 267.375H1206.47V280.28ZM1242.35 294V264.387H1263.72V267.375H1245.61V277.428H1261.09V280.416H1245.61V294H1242.35ZM1268.08 294V264.387H1289.82V267.375H1271.34V277.473H1287.19V280.461H1271.34V291.012H1289.82V294H1268.08ZM1304.25 294.589C1297.82 294.589 1293.56 291.193 1293.43 285.668H1296.64C1296.78 289.427 1299.54 291.6 1304.25 291.6C1308.96 291.6 1311.86 289.291 1311.86 285.668C1311.86 281.774 1308.1 281.095 1304.07 280.507C1299.27 279.827 1294.11 278.922 1294.11 272.628C1294.11 267.375 1298.18 263.798 1304.3 263.798C1310.27 263.798 1314.26 267.194 1314.44 272.356H1311.31C1311.13 268.96 1308.55 266.787 1304.3 266.787C1299.99 266.787 1297.28 269.051 1297.28 272.537C1297.28 276.341 1300.99 276.975 1305.02 277.609C1309.82 278.378 1315.03 279.239 1315.03 285.578C1315.03 291.102 1310.77 294.589 1304.25 294.589ZM1327.09 294V267.375H1317.03V264.387H1340.4V267.375H1330.35V294H1327.09Z" fill="black"/>
<path d="M670.091 41V9.84752H692.955V12.9913H673.521V23.6137H690.193V26.7575H673.521V37.8562H692.955V41H670.091ZM698.279 29.7108V25.8048H715.999V29.7108H698.279ZM737.335 41.6192C727.617 41.6192 720.758 34.76 720.758 25.4238C720.758 16.0875 727.617 9.22828 737.335 9.22828C745.147 9.22828 751.148 13.6582 753.149 20.2793H749.529C747.671 15.5159 743.146 12.3721 737.335 12.3721C729.57 12.3721 724.188 17.8976 724.188 25.4238C724.188 32.9499 729.57 38.4754 737.335 38.4754C743.146 38.4754 747.671 35.3316 749.529 30.5682H753.149C751.148 37.1893 745.147 41.6192 737.335 41.6192ZM758.102 41V9.84752H780.966V12.9913H761.532V23.6137H778.203V26.7575H761.532V37.8562H780.966V41H758.102ZM786.338 41V9.84752H789.768V37.8562H808.631V41H786.338ZM813.039 41V9.84752H816.469V37.8562H835.331V41H813.039ZM839.93 46.9066L841.502 41.4763C840.502 41.2382 839.835 40.2855 839.835 39.1899C839.835 37.8085 840.883 36.7606 842.264 36.7606C843.598 36.7606 844.646 37.8085 844.646 39.1899C844.646 39.571 844.503 40.1426 844.36 40.5237L841.836 46.9066H839.93ZM874.173 41L861.789 9.84752H865.599L876.079 37.0464L886.558 9.84752H890.274L877.841 41H874.173ZM894.82 41V9.84752H898.249V41H894.82ZM913.394 41V12.9913H902.819V9.84752H927.398V12.9913H916.824V41H913.394ZM944.543 41V9.84752H958.024C965.55 9.84752 968.884 14.0393 968.884 19.7553C968.884 25.4238 965.502 29.7108 958.024 29.7108H947.973V41H944.543ZM947.973 26.567H958.071C963.454 26.567 965.407 23.6137 965.407 19.7553C965.407 15.897 963.454 12.9913 958.071 12.9913H947.973V26.567ZM973.059 41V9.84752H986.825C994.16 9.84752 997.399 13.944 997.399 19.4695C997.399 24.614 994.637 28.0436 989.54 28.9963L998.543 41H994.398L985.967 29.1868H976.488V41H973.059ZM976.488 26.043H986.872C992.064 26.043 993.922 23.185 993.922 19.4695C993.922 15.7541 992.064 12.9913 986.872 12.9913H976.488V26.043ZM1003.06 41V9.84752H1025.93V12.9913H1006.49V23.6137H1023.16V26.7575H1006.49V37.8562H1025.93V41H1003.06ZM1041.11 41.6192C1034.35 41.6192 1029.87 38.0467 1029.73 32.2354H1033.11C1033.25 36.189 1036.16 38.4754 1041.11 38.4754C1046.06 38.4754 1049.11 36.0461 1049.11 32.2354C1049.11 28.1389 1045.16 27.4244 1040.92 26.8051C1035.87 26.0906 1030.44 25.138 1030.44 18.5169C1030.44 12.9913 1034.73 9.22828 1041.16 9.22828C1047.45 9.22828 1051.64 12.8008 1051.83 18.2311H1048.54C1048.35 14.6585 1045.64 12.3721 1041.16 12.3721C1036.63 12.3721 1033.78 14.7538 1033.78 18.4216C1033.78 22.4228 1037.68 23.0897 1041.92 23.7566C1046.97 24.5664 1052.45 25.4714 1052.45 32.1401C1052.45 37.9514 1047.97 41.6192 1041.11 41.6192ZM1057.39 41V9.84752H1080.26V12.9913H1060.82V23.6137H1077.5V26.7575H1060.82V37.8562H1080.26V41H1057.39ZM1084.92 41V22.0894C1084.92 14.2298 1089.58 9.22828 1098.02 9.22828C1106.4 9.22828 1111.07 14.2298 1111.07 22.0894V41H1107.64V22.0894C1107.64 16.0875 1104.3 12.3721 1098.02 12.3721C1091.68 12.3721 1088.35 16.0875 1088.35 22.0894V41H1084.92ZM1124.4 41V12.9913H1113.82V9.84752H1138.4V12.9913H1127.83V41H1124.4ZM1152.01 41.6192C1145.24 41.6192 1140.77 38.0467 1140.62 32.2354H1144.01C1144.15 36.189 1147.05 38.4754 1152.01 38.4754C1156.96 38.4754 1160.01 36.0461 1160.01 32.2354C1160.01 28.1389 1156.06 27.4244 1151.82 26.8051C1146.77 26.0906 1141.34 25.138 1141.34 18.5169C1141.34 12.9913 1145.63 9.22828 1152.06 9.22828C1158.34 9.22828 1162.54 12.8008 1162.73 18.2311H1159.44C1159.25 14.6585 1156.53 12.3721 1152.06 12.3721C1147.53 12.3721 1144.67 14.7538 1144.67 18.4216C1144.67 22.4228 1148.58 23.0897 1152.82 23.7566C1157.87 24.5664 1163.35 25.4714 1163.35 32.1401C1163.35 37.9514 1158.87 41.6192 1152.01 41.6192Z" fill="#FFE5D6"/>
<path d="M55.0235 214.606V87.6712C107.478 87.6712 160.118 87.6712 212.759 87.6712V125.192C201.746 125.192 138.651 125.192 109.718 125.192V136.392C141.078 136.392 172.625 136.392 203.986 136.392V166.072H109.718V177.086H212.759V214.606C160.118 214.606 107.478 214.606 55.0235 214.606ZM332.661 133.219V169.059H223.646V133.219H332.661ZM478.154 138.819C510.821 138.819 530.608 145.912 530.608 173.912C530.608 208.82 507.647 217.593 478.154 217.593H396.392C358.125 217.593 343.005 202.66 343.005 169.992H395.272C395.832 177.086 403.486 177.273 410.019 177.273C429.993 177.273 464.9 177.459 474.047 177.459C479.087 177.459 480.954 175.406 480.954 170.179C480.954 166.819 478.714 165.326 473.674 165.326C447.913 164.766 421.219 164.019 395.459 163.272C362.792 163.272 343.192 156.552 343.192 128.552C343.192 93.6446 366.152 84.8711 395.646 84.8711H474.607C512.687 84.8711 527.808 99.8047 527.808 132.472H475.54C474.98 125.192 467.513 125.005 460.793 125.005C440.82 125.005 409.086 125.005 399.752 125.005C394.712 125.005 392.846 126.872 392.846 132.099C392.846 135.459 394.712 136.765 399.752 136.765C425.513 137.325 452.207 138.072 478.154 138.819ZM593.709 151.139C593.709 168.126 602.483 177.086 616.67 177.086C626.19 177.086 633.843 177.086 643.55 177.086C657.55 177.086 666.324 168.126 666.324 151.139V87.6712H721.018V151.139C721.018 196.313 689.471 217.406 657.55 217.406H602.483C570.562 217.406 539.015 196.313 539.015 151.139V87.6712H593.709V151.139ZM951.935 87.6712V214.606H897.055V137.699L866.441 214.606H818.467L788.04 137.699V214.606H733.159V87.6712C760.973 87.6712 788.6 87.6712 816.04 87.6712L842.547 154.312L868.867 87.6712C896.681 87.6712 924.308 87.6712 951.935 87.6712ZM1182.9 87.6712V214.606H1128.02V137.699L1097.41 214.606H1049.43L1019.01 137.699V214.606H964.126V87.6712C991.939 87.6712 1019.57 87.6712 1047.01 87.6712L1073.51 154.312L1099.83 87.6712C1127.65 87.6712 1155.28 87.6712 1182.9 87.6712ZM1195.09 214.606V87.6712H1249.79V214.606H1195.09ZM1448.29 87.6712V129.298H1382.4V214.606H1327.7V129.298C1299.7 129.485 1274.69 129.485 1261.99 129.485V87.6712C1323.97 87.6712 1386.13 87.6712 1448.29 87.6712ZM1460.51 127.245V87.6712H1498.22C1498.22 101.111 1498.22 113.805 1498.22 127.245C1498.22 140.685 1494.49 147.405 1484.97 155.059L1471.15 141.992C1477.69 137.699 1479.37 133.779 1479.37 127.245H1460.51ZM1637.89 116.532C1637.89 121.697 1637.13 126.497 1635.61 130.933C1634.15 135.369 1632.27 139.137 1629.96 142.236C1627.71 145.335 1624.85 148.494 1621.39 151.715C1617.99 154.935 1614.67 157.731 1611.45 160.1C1608.23 162.409 1604.56 165.205 1600.42 168.486C1596.35 171.767 1592.86 174.866 1589.94 177.783C1594.07 177.783 1600.39 177.661 1608.9 177.418C1617.47 177.175 1623.97 177.054 1628.41 177.054C1632.6 177.054 1635.42 178.482 1636.88 181.338C1638.4 184.133 1639.16 188.174 1639.16 193.46C1639.16 195.101 1639.07 197.896 1638.89 201.846C1638.71 205.735 1638.62 208.712 1638.62 210.778V212.419C1638.62 213.33 1638.55 214.029 1638.43 214.515C1638.31 215.001 1637.98 215.457 1637.43 215.883C1636.88 216.308 1636.06 216.612 1634.97 216.794H1628.41C1623.79 216.672 1613.94 216.429 1598.87 216.065C1574.57 216.065 1548.01 216.551 1519.21 217.523V215.7C1518.3 215.153 1517.54 214.06 1516.93 212.419C1516.39 210.778 1516.11 208.955 1516.11 206.95V180.335C1516.11 178.938 1518.18 176.872 1522.31 174.137C1539.02 162.835 1550.99 154.632 1558.22 149.527L1563.87 145.152C1577 134.944 1583.56 125.829 1583.56 117.808C1583.56 115.256 1582.8 113.251 1581.28 111.792C1579.83 110.334 1577.85 109.605 1575.36 109.605C1573.23 109.605 1571.53 110.091 1570.25 111.063C1569.04 111.975 1568.19 113.129 1567.7 114.527C1567.28 115.864 1566.91 117.231 1566.61 118.628C1566.37 120.026 1565.97 121.302 1565.42 122.457C1564.94 123.611 1564.18 124.31 1563.15 124.553H1520.85C1517.45 124.553 1515.75 123.642 1515.75 121.819C1516.66 113.068 1518.76 105.564 1522.04 99.3052C1525.32 92.9857 1529.69 88.003 1535.16 84.3571C1540.63 80.7112 1546.8 78.0679 1553.67 76.4273C1560.53 74.7259 1568.37 73.8752 1577.18 73.8752C1583.56 73.8752 1589.64 74.3917 1595.41 75.4247C1601.18 76.3969 1606.68 78.0072 1611.91 80.2555C1617.13 82.443 1621.63 85.1774 1625.4 88.4587C1629.23 91.6792 1632.27 95.6897 1634.51 100.49C1636.76 105.291 1637.89 110.638 1637.89 116.532ZM1649.37 178.148C1649.37 176.811 1650.28 175.93 1652.1 175.504C1653.99 175.079 1656.72 174.866 1660.31 174.866H1675.26C1677.93 174.866 1681.88 174.957 1687.11 175.14C1692.33 175.322 1696.4 175.413 1699.32 175.413C1700.35 175.535 1701.11 176.112 1701.6 177.145C1702.14 178.178 1702.51 179.272 1702.69 180.426C1702.87 181.581 1703.36 182.644 1704.15 183.616C1704.94 184.589 1706.12 185.075 1707.7 185.075C1713.78 185.075 1716.82 179.971 1716.82 169.762C1716.82 167.574 1716.73 165.691 1716.55 164.111C1716.36 162.47 1716 160.769 1715.45 159.007C1714.91 157.244 1713.99 155.908 1712.72 154.996C1711.5 154.024 1709.95 153.538 1708.07 153.538C1705.88 153.538 1704.27 154.085 1703.24 155.178C1702.27 156.272 1701.75 157.488 1701.69 158.824C1701.63 160.161 1701.29 161.376 1700.69 162.47C1700.08 163.564 1699.02 164.111 1697.5 164.111H1657.03C1655.2 161.498 1654.29 157.791 1654.29 152.991V84.9951C1654.29 83.476 1654.32 82.3518 1654.38 81.6227C1654.44 80.8327 1654.63 79.9213 1654.93 78.8883C1655.29 77.8553 1655.81 76.9742 1656.48 76.245H1756.74C1758.02 76.245 1759.2 76.5184 1760.3 77.0653C1761.45 77.6122 1762.15 78.3718 1762.39 79.344V97.0265C1762.39 97.4519 1762.39 98.0596 1762.39 98.8495C1762.39 105.473 1762.21 109.453 1761.85 110.79C1761.54 112.066 1760.45 112.704 1758.56 112.704C1745.44 112.704 1726.24 112.825 1700.96 113.068C1700.78 114.891 1700.56 117.656 1700.32 121.363C1700.08 125.07 1699.87 127.834 1699.68 129.657C1702.72 127.47 1706.61 125.768 1711.35 124.553C1716.09 123.338 1720.77 122.73 1725.39 122.73C1738.88 122.73 1749.69 126.862 1757.84 135.126C1765.98 143.329 1770.05 153.902 1770.05 166.845C1770.05 174.502 1768.83 181.398 1766.4 187.536C1764.03 193.673 1760.87 198.716 1756.92 202.666C1752.97 206.616 1748.3 209.928 1742.89 212.601C1737.54 215.214 1732.04 217.067 1726.39 218.161C1720.74 219.316 1714.87 219.893 1708.8 219.893C1704.73 219.893 1700.9 219.741 1697.31 219.437C1693.79 219.133 1690.08 218.587 1686.19 217.797C1682.3 217.007 1678.75 215.943 1675.53 214.606C1672.31 213.33 1669.15 211.629 1666.05 209.502C1663.01 207.315 1660.37 204.823 1658.12 202.028C1655.93 199.172 1654.05 195.709 1652.47 191.637C1650.89 187.566 1649.86 183.07 1649.37 178.148Z" fill="white"/>
<path d="M272.99 274.616C272.929 274.647 272.837 274.688 272.714 274.739C272.601 274.79 272.468 274.841 272.314 274.893C272.161 274.944 271.987 274.99 271.792 275.031C271.598 275.072 271.393 275.092 271.178 275.092C270.953 275.092 270.738 275.061 270.533 275C270.329 274.939 270.15 274.846 269.996 274.724C269.842 274.591 269.72 274.427 269.628 274.232C269.535 274.038 269.489 273.813 269.489 273.557V267.83H268.384V267.001H269.489V264.298H270.533V267.001H272.376V267.83H270.533V273.265C270.554 273.562 270.656 273.782 270.84 273.925C271.025 274.058 271.245 274.125 271.501 274.125C271.798 274.125 272.059 274.079 272.284 273.987C272.509 273.884 272.652 273.813 272.714 273.772L272.99 274.616ZM281.405 275H280.36V270.532C280.36 269.621 280.202 268.94 279.884 268.49C279.577 268.04 279.122 267.814 278.518 267.814C278.221 267.814 277.924 267.876 277.627 267.999C277.341 268.111 277.07 268.27 276.814 268.475C276.558 268.679 276.333 268.92 276.138 269.196C275.954 269.473 275.816 269.775 275.724 270.102V275H274.679V263.792H275.724V268.812C276.051 268.208 276.496 267.732 277.059 267.384C277.622 267.036 278.226 266.862 278.871 266.862C279.332 266.862 279.721 266.949 280.038 267.123C280.366 267.287 280.627 267.523 280.821 267.83C281.026 268.127 281.174 268.49 281.266 268.92C281.358 269.339 281.405 269.805 281.405 270.317V275Z" fill="white"/>
</svg>
