<svg width="390" height="329" viewBox="0 0 390 329" fill="none" xmlns="http://www.w3.org/2000/svg">
<g clip-path="url(#clip0_974_210)">
<path d="M0.404969 304.421V276.285C12.0319 276.285 23.7003 276.285 35.3686 276.285V284.602C32.9274 284.602 18.9419 284.602 12.5285 284.602V287.084C19.4798 287.084 26.4726 287.084 33.4239 287.084V293.663H12.5285V296.105H35.3686V304.421C23.7003 304.421 12.0319 304.421 0.404969 304.421ZM61.946 286.381V294.325H37.7818V286.381H61.946ZM94.1959 287.622C101.437 287.622 105.823 289.195 105.823 295.401C105.823 303.139 100.733 305.083 94.1959 305.083H76.0727C67.5904 305.083 64.2389 301.773 64.2389 294.532H75.8245C75.9486 296.105 77.6451 296.146 79.0933 296.146C83.5206 296.146 91.2581 296.187 93.2856 296.187C94.4028 296.187 94.8166 295.732 94.8166 294.574C94.8166 293.829 94.32 293.498 93.2029 293.498C87.4928 293.374 81.5759 293.208 75.8658 293.043C68.6248 293.043 64.2802 291.553 64.2802 285.347C64.2802 277.609 69.3696 275.664 75.9072 275.664H93.4097C101.851 275.664 105.202 278.974 105.202 286.215H93.6166C93.4925 284.602 91.8374 284.56 90.3478 284.56C85.9205 284.56 78.8864 284.56 76.8175 284.56C75.7003 284.56 75.2866 284.974 75.2866 286.133C75.2866 286.877 75.7003 287.167 76.8175 287.167C82.5276 287.291 88.4445 287.457 94.1959 287.622ZM119.81 290.353C119.81 294.118 121.755 296.105 124.899 296.105C127.01 296.105 128.706 296.105 130.858 296.105C133.961 296.105 135.906 294.118 135.906 290.353V276.285H148.029V290.353C148.029 300.366 141.036 305.042 133.961 305.042H121.755C114.679 305.042 107.686 300.366 107.686 290.353V276.285H119.81V290.353ZM199.214 276.285V304.421H187.049V287.374L180.264 304.421H169.63L162.885 287.374V304.421H150.72V276.285C156.885 276.285 163.009 276.285 169.092 276.285L174.967 291.057L180.801 276.285C186.967 276.285 193.09 276.285 199.214 276.285ZM250.41 276.285V304.421H238.245V287.374L231.46 304.421H220.826L214.081 287.374V304.421H201.916V276.285C208.082 276.285 214.205 276.285 220.288 276.285L226.163 291.057L231.998 276.285C238.163 276.285 244.287 276.285 250.41 276.285ZM253.112 304.421V276.285H265.236V304.421H253.112ZM309.236 276.285V285.512H294.63V304.421H282.507V285.512C276.3 285.553 270.756 285.553 267.942 285.553V276.285C281.679 276.285 295.458 276.285 309.236 276.285ZM311.946 285.057V276.285H320.304C320.304 279.264 320.304 282.078 320.304 285.057C320.304 288.036 319.476 289.526 317.366 291.222L314.304 288.326C315.752 287.374 316.125 286.505 316.125 285.057H311.946ZM357.828 285.652C357.828 291.309 351.181 293.047 345.969 294.32C343.16 294.986 340.918 295.653 340.109 296.643H357.384V304.401H323.381V299.815C323.381 293.612 332.533 291.309 339.524 289.653C343.787 288.602 347.201 287.774 347.201 286.339C347.201 285.187 345.463 284.339 341.685 284.339C337.746 284.379 334.372 284.965 334.432 287.491H323.805C323.805 278.338 330.957 276.581 341.241 276.581C351.686 276.581 357.828 279.025 357.828 285.652ZM370.334 287.087H373.062C383.891 287.087 393.104 287.814 393.104 296.097C393.104 298.926 391.629 301.128 388.699 302.704C385.77 304.28 381.648 305.068 376.314 305.068C365.788 305.068 358.656 303.25 358.656 294.198H369.263C369.223 297.087 372.597 296.966 376.739 297.027C380.719 297.027 382.477 296.38 382.477 294.946C382.477 293.208 381.406 291.875 373.062 291.875H358.656V291.814L361.97 277.247H391.104V284.541H370.9L370.334 287.087Z" fill="#200707"/>
<g opacity="0.3">
<path d="M0.404969 270.419V242.283C12.0319 242.283 23.7003 242.283 35.3686 242.283V250.599C32.9274 250.599 18.9419 250.599 12.5285 250.599V253.082C19.4798 253.082 26.4726 253.082 33.4239 253.082V259.661H12.5285V262.102H35.3686V270.419C23.7003 270.419 12.0319 270.419 0.404969 270.419ZM61.946 252.379V260.323H37.7818V252.379H61.946ZM94.1959 253.62C101.437 253.62 105.823 255.192 105.823 261.399C105.823 269.136 100.733 271.081 94.1959 271.081H76.0727C67.5904 271.081 64.2389 267.771 64.2389 260.53H75.8245C75.9486 262.102 77.6451 262.144 79.0933 262.144C83.5206 262.144 91.2581 262.185 93.2856 262.185C94.4028 262.185 94.8166 261.73 94.8166 260.571C94.8166 259.826 94.32 259.495 93.2029 259.495C87.4928 259.371 81.5759 259.206 75.8658 259.04C68.6248 259.04 64.2802 257.551 64.2802 251.344C64.2802 243.607 69.3696 241.662 75.9072 241.662H93.4097C101.851 241.662 105.202 244.972 105.202 252.213H93.6166C93.4925 250.599 91.8374 250.558 90.3478 250.558C85.9205 250.558 78.8864 250.558 76.8175 250.558C75.7003 250.558 75.2866 250.972 75.2866 252.13C75.2866 252.875 75.7003 253.165 76.8175 253.165C82.5276 253.289 88.4445 253.454 94.1959 253.62ZM119.81 256.351C119.81 260.116 121.755 262.102 124.899 262.102C127.01 262.102 128.706 262.102 130.858 262.102C133.961 262.102 135.906 260.116 135.906 256.351V242.283H148.029V256.351C148.029 266.364 141.036 271.04 133.961 271.04H121.755C114.679 271.04 107.686 266.364 107.686 256.351V242.283H119.81V256.351ZM199.214 242.283V270.419H187.049V253.372L180.264 270.419H169.63L162.885 253.372V270.419H150.72V242.283C156.885 242.283 163.009 242.283 169.092 242.283L174.967 257.054L180.801 242.283C186.967 242.283 193.09 242.283 199.214 242.283ZM250.41 242.283V270.419H238.245V253.372L231.46 270.419H220.826L214.081 253.372V270.419H201.916V242.283C208.082 242.283 214.205 242.283 220.288 242.283L226.163 257.054L231.998 242.283C238.163 242.283 244.287 242.283 250.41 242.283ZM253.112 270.419V242.283H265.236V270.419H253.112ZM309.236 242.283V251.51H294.63V270.419H282.507V251.51C276.3 251.551 270.756 251.551 267.942 251.551V242.283C281.679 242.283 295.458 242.283 309.236 242.283ZM311.946 251.054V242.283H320.304C320.304 245.262 320.304 248.075 320.304 251.054C320.304 254.034 319.476 255.523 317.366 257.22L314.304 254.323C315.752 253.372 316.125 252.503 316.125 251.054H311.946ZM357.828 251.65C357.828 257.307 351.181 259.044 345.969 260.317C343.16 260.984 340.918 261.651 340.109 262.641H357.384V270.399H323.381V265.813C323.381 259.61 332.533 257.307 339.524 255.65C343.787 254.599 347.201 253.771 347.201 252.337C347.201 251.185 345.463 250.336 341.685 250.336C337.746 250.377 334.372 250.963 334.432 253.488H323.805C323.805 244.336 330.957 242.578 341.241 242.578C351.686 242.578 357.828 245.023 357.828 251.65ZM370.334 253.084H373.062C383.891 253.084 393.104 253.812 393.104 262.095C393.104 264.924 391.629 267.126 388.699 268.702C385.77 270.278 381.648 271.065 376.314 271.065C365.788 271.065 358.656 269.247 358.656 260.196H369.263C369.223 263.085 372.597 262.964 376.739 263.024C380.719 263.024 382.477 262.378 382.477 260.943C382.477 259.206 381.406 257.872 373.062 257.872H358.656V257.812L361.97 243.245H391.104V250.539H370.9L370.334 253.084Z" fill="#111111"/>
</g>
<g opacity="0.13">
<path d="M-0.848906 235.42V207.283C10.7781 207.283 22.4464 207.283 34.1148 207.283V215.6C31.6735 215.6 17.688 215.6 11.2746 215.6V218.083C18.2259 218.083 25.2187 218.083 32.17 218.083V224.662H11.2746V227.103H34.1148V235.42C22.4464 235.42 10.7781 235.42 -0.848906 235.42ZM60.6921 217.379V225.324H36.5279V217.379H60.6921ZM92.942 218.621C100.183 218.621 104.569 220.193 104.569 226.4C104.569 234.137 99.4796 236.082 92.942 236.082H74.8189C66.3365 236.082 62.985 232.772 62.985 225.531H74.5706C74.6947 227.103 76.3912 227.144 77.8394 227.144C82.2667 227.144 90.0043 227.186 92.0317 227.186C93.1489 227.186 93.5627 226.731 93.5627 225.572C93.5627 224.827 93.0662 224.496 91.949 224.496C86.2389 224.372 80.322 224.207 74.612 224.041C67.371 224.041 63.0264 222.552 63.0264 216.345C63.0264 208.608 68.1158 206.663 74.6533 206.663H92.1559C100.597 206.663 103.948 209.973 103.948 217.214H92.3627C92.2386 215.6 90.5835 215.559 89.094 215.559C84.6666 215.559 77.6325 215.559 75.5636 215.559C74.4465 215.559 74.0327 215.973 74.0327 217.131C74.0327 217.876 74.4465 218.166 75.5636 218.166C81.2737 218.29 87.1906 218.455 92.942 218.621ZM118.556 221.352C118.556 225.117 120.501 227.103 123.645 227.103C125.756 227.103 127.452 227.103 129.604 227.103C132.707 227.103 134.652 225.117 134.652 221.352V207.283H146.775V221.352C146.775 231.365 139.783 236.041 132.707 236.041H120.501C113.425 236.041 106.433 231.365 106.433 221.352V207.283H118.556V221.352ZM197.96 207.283V235.42H185.796V218.373L179.01 235.42H168.376L161.631 218.373V235.42H149.466V207.283C155.632 207.283 161.755 207.283 167.838 207.283L173.713 222.055L179.548 207.283C185.713 207.283 191.837 207.283 197.96 207.283ZM249.156 207.283V235.42H236.992V218.373L230.206 235.42H219.572L212.827 218.373V235.42H200.663V207.283C206.828 207.283 212.952 207.283 219.034 207.283L224.909 222.055L230.744 207.283C236.909 207.283 243.033 207.283 249.156 207.283ZM251.859 235.42V207.283H263.982V235.42H251.859ZM307.982 207.283V216.511H293.376V235.42H281.253V216.511C275.046 216.552 269.502 216.552 266.688 216.552V207.283C280.425 207.283 294.204 207.283 307.982 207.283ZM310.692 216.055V207.283H319.05C319.05 210.263 319.05 213.076 319.05 216.055C319.05 219.035 318.222 220.524 316.112 222.221L313.05 219.324C314.498 218.373 314.871 217.504 314.871 216.055H310.692ZM356.574 216.651C356.574 222.308 349.927 224.045 344.715 225.318C341.906 225.985 339.664 226.652 338.856 227.642H356.13V235.4H322.127V230.813C322.127 224.611 331.279 222.308 338.27 220.651C342.533 219.6 345.947 218.772 345.947 217.338C345.947 216.186 344.21 215.337 340.431 215.337C336.492 215.378 333.118 215.964 333.178 218.489H322.551C322.551 209.337 329.703 207.579 339.987 207.579C350.432 207.579 356.574 210.024 356.574 216.651ZM369.08 218.085H371.808C382.637 218.085 391.85 218.813 391.85 227.096C391.85 229.925 390.375 232.127 387.445 233.703C384.516 235.278 380.394 236.066 375.061 236.066C364.534 236.066 357.403 234.248 357.403 225.197H368.009C367.969 228.086 371.343 227.965 375.485 228.025C379.465 228.025 381.223 227.379 381.223 225.944C381.223 224.207 380.152 222.873 371.808 222.873H357.403V222.813L360.716 208.246H389.85V215.54H369.646L369.08 218.085Z" fill="#111111"/>
</g>
<g opacity="0.13">
<path d="M-2.56151 204V175.864H32.4022V184.18H9.56199V186.663H30.4574V193.242H9.56199V195.683H32.4022V204H-2.56151ZM58.9795 185.96V193.904H34.8153V185.96H58.9795ZM91.2294 187.201C95.1189 187.201 98.0291 187.766 99.96 188.897C101.891 190.001 102.856 192.028 102.856 194.98C102.856 196.856 102.567 198.442 101.987 199.738C101.408 201.035 100.567 202.041 99.4635 202.759C98.3601 203.448 97.1464 203.931 95.8223 204.207C94.4982 204.51 92.9673 204.662 91.2294 204.662H73.1063C68.9134 204.662 65.8928 203.821 64.0447 202.138C62.1965 200.455 61.2724 197.78 61.2724 194.111H72.858C72.8856 194.607 73.0925 194.98 73.4786 195.228C73.8648 195.476 74.2372 195.628 74.5958 195.683C74.982 195.711 75.4923 195.725 76.1268 195.725C77.8094 195.725 80.4714 195.738 84.1126 195.766C87.7813 195.766 89.8502 195.766 90.3191 195.766C90.8708 195.766 91.257 195.642 91.4777 195.394C91.726 195.145 91.8501 194.732 91.8501 194.152C91.8501 193.435 91.3122 193.076 90.2364 193.076C85.878 192.994 80.099 192.842 72.8994 192.621C68.9823 192.621 66.0721 192.07 64.1688 190.966C62.2654 189.863 61.3138 187.849 61.3138 184.925C61.3138 183.049 61.6034 181.463 62.1827 180.167C62.762 178.87 63.6033 177.877 64.7067 177.188C65.8101 176.47 67.0238 175.974 68.3479 175.698C69.6719 175.395 71.2029 175.243 72.9407 175.243H90.4433C94.6086 175.243 97.6153 176.084 99.4635 177.767C101.312 179.45 102.236 182.125 102.236 185.794H90.6501C90.6226 185.298 90.4157 184.925 90.0295 184.677C89.6433 184.401 89.2709 184.249 88.9123 184.222C88.5537 184.167 88.0434 184.139 87.3814 184.139H73.851C73.2993 184.139 72.8994 184.263 72.6511 184.511C72.4304 184.732 72.3201 185.132 72.3201 185.711C72.3201 186.401 72.8304 186.746 73.851 186.746C78.0991 186.828 83.8919 186.98 91.2294 187.201ZM116.843 189.932C116.843 191.78 117.285 193.201 118.168 194.194C119.078 195.187 120.333 195.683 121.933 195.683H127.891C129.463 195.683 130.691 195.187 131.574 194.194C132.484 193.201 132.939 191.78 132.939 189.932V175.864H145.063V189.932C145.063 192.332 144.663 194.497 143.863 196.428C143.063 198.359 141.987 199.904 140.635 201.062C139.311 202.221 137.822 203.103 136.167 203.71C134.539 204.317 132.815 204.621 130.994 204.621H118.788C116.968 204.621 115.23 204.317 113.575 203.71C111.947 203.103 110.458 202.221 109.106 201.062C107.782 199.904 106.72 198.359 105.92 196.428C105.12 194.497 104.72 192.332 104.72 189.932V175.864H116.843V189.932ZM196.248 175.864V204H184.083V186.953L177.297 204H166.663L159.919 186.953V204H147.754V175.864H166.125L172.001 190.635L177.835 175.864H196.248ZM247.444 175.864V204H235.279V186.953L228.493 204H217.859L211.115 186.953V204H198.95V175.864H217.321L223.197 190.635L229.031 175.864H247.444ZM250.146 204V175.864H262.269V204H250.146ZM306.27 175.864V185.091H291.664V204H279.54V185.091C275.403 185.118 270.548 185.132 264.976 185.132V175.864H306.27ZM308.979 184.636V175.864H317.337V184.636C317.337 186.097 317.117 187.27 316.675 188.153C316.234 189.035 315.475 189.918 314.399 190.801L311.338 187.904C312.027 187.435 312.496 186.966 312.744 186.497C313.02 186.001 313.158 185.38 313.158 184.636H308.979ZM354.862 185.231C354.862 190.888 348.215 192.625 343.002 193.898C340.194 194.565 337.951 195.232 337.143 196.222H354.417V203.98H320.414V199.394C320.414 193.191 329.567 190.888 336.557 189.231C340.82 188.181 344.235 187.352 344.235 185.918C344.235 184.766 342.497 183.918 338.719 183.918C334.779 183.958 331.405 184.544 331.466 187.069H320.839C320.839 177.917 327.991 176.159 338.274 176.159C348.72 176.159 354.862 178.604 354.862 185.231ZM367.368 186.665H370.095C380.924 186.665 390.137 187.393 390.137 195.676C390.137 198.505 388.662 200.707 385.733 202.283C382.803 203.859 378.682 204.647 373.348 204.647C362.822 204.647 355.69 202.828 355.69 193.777H366.297C366.256 196.666 369.63 196.545 373.772 196.605C377.752 196.605 379.51 195.959 379.51 194.524C379.51 192.787 378.439 191.454 370.095 191.454H355.69V191.393L359.003 176.826H388.137V184.12H367.933L367.368 186.665Z" fill="#111111"/>
</g>
<g opacity="0.06">
<path d="M-1.56151 173V144.864C10.0655 144.864 21.7338 144.864 33.4022 144.864V153.18C30.9609 153.18 16.9754 153.18 10.562 153.18V155.663C17.5133 155.663 24.5061 155.663 31.4574 155.663V162.242H10.562V164.683H33.4022V173C21.7338 173 10.0655 173 -1.56151 173ZM59.9795 154.96V162.904H35.8153V154.96H59.9795ZM92.2294 156.201C99.4704 156.201 103.856 157.773 103.856 163.98C103.856 171.717 98.767 173.662 92.2294 173.662H74.1063C65.6239 173.662 62.2724 170.352 62.2724 163.111H73.858C73.9821 164.683 75.6786 164.725 77.1268 164.725C81.5541 164.725 89.2917 164.766 91.3191 164.766C92.4363 164.766 92.8501 164.311 92.8501 163.152C92.8501 162.407 92.3536 162.076 91.2364 162.076C85.5263 161.952 79.6094 161.787 73.8994 161.621C66.6584 161.621 62.3138 160.132 62.3138 153.925C62.3138 146.188 67.4032 144.243 73.9407 144.243H91.4433C99.8842 144.243 103.236 147.553 103.236 154.794H91.6501C91.526 153.18 89.8709 153.139 88.3814 153.139C83.954 153.139 76.9199 153.139 74.851 153.139C73.7339 153.139 73.3201 153.553 73.3201 154.711C73.3201 155.456 73.7339 155.746 74.851 155.746C80.5611 155.87 86.478 156.035 92.2294 156.201ZM117.843 158.932C117.843 162.697 119.788 164.683 122.933 164.683C125.043 164.683 126.74 164.683 128.891 164.683C131.994 164.683 133.939 162.697 133.939 158.932V144.864H146.063V158.932C146.063 168.945 139.07 173.621 131.994 173.621H119.788C112.713 173.621 105.72 168.945 105.72 158.932V144.864H117.843V158.932ZM197.248 144.864V173H185.083V155.953L178.297 173H167.663L160.919 155.953V173H148.754V144.864C154.919 144.864 161.043 144.864 167.125 144.864L173.001 159.635L178.835 144.864C185 144.864 191.124 144.864 197.248 144.864ZM248.444 144.864V173H236.279V155.953L229.493 173H218.859L212.115 155.953V173H199.95V144.864C206.115 144.864 212.239 144.864 218.321 144.864L224.197 159.635L230.031 144.864C236.196 144.864 242.32 144.864 248.444 144.864ZM251.146 173V144.864H263.269V173H251.146ZM307.27 144.864V154.091H292.664V173H280.54V154.091C274.334 154.132 268.789 154.132 265.976 154.132V144.864C279.713 144.864 293.491 144.864 307.27 144.864ZM309.979 153.636V144.864H318.337C318.337 147.843 318.337 150.656 318.337 153.636C318.337 156.615 317.51 158.104 315.399 159.801L312.338 156.904C313.786 155.953 314.158 155.084 314.158 153.636H309.979ZM355.862 154.231C355.862 159.888 349.215 161.625 344.002 162.898C341.194 163.565 338.951 164.232 338.143 165.222H355.417V172.98H321.414V168.394C321.414 162.191 330.567 159.888 337.557 158.231C341.82 157.181 345.235 156.352 345.235 154.918C345.235 153.766 343.497 152.918 339.719 152.918C335.779 152.958 332.405 153.544 332.466 156.069H321.839C321.839 146.917 328.991 145.159 339.274 145.159C349.72 145.159 355.862 147.604 355.862 154.231ZM368.368 155.665H371.095C381.924 155.665 391.137 156.393 391.137 164.676C391.137 167.505 389.662 169.707 386.733 171.283C383.803 172.859 379.682 173.647 374.348 173.647C363.822 173.647 356.69 171.828 356.69 162.777H367.297C367.256 165.666 370.63 165.545 374.772 165.605C378.752 165.605 380.51 164.959 380.51 163.524C380.51 161.787 379.439 160.454 371.095 160.454H356.69V160.393L360.003 145.826H389.137V153.12H368.933L368.368 155.665Z" fill="#111111"/>
</g>
<g opacity="0.06">
<path d="M-2.4005 140.957V112.821C9.22647 112.821 20.8948 112.821 32.5632 112.821V121.137C30.1219 121.137 16.1365 121.137 9.723 121.137V123.62C16.6744 123.62 23.6671 123.62 30.6184 123.62V130.199H9.723V132.64H32.5632V140.957C20.8948 140.957 9.22647 140.957 -2.4005 140.957ZM59.1405 122.917V130.861H34.9763V122.917H59.1405ZM91.3904 124.158C98.6314 124.158 103.017 125.73 103.017 131.937C103.017 139.674 97.928 141.619 91.3904 141.619H73.2673C64.785 141.619 61.4334 138.309 61.4334 131.068H73.019C73.1431 132.64 74.8396 132.682 76.2878 132.682C80.7151 132.682 88.4527 132.723 90.4801 132.723C91.5973 132.723 92.0111 132.268 92.0111 131.109C92.0111 130.364 91.5146 130.033 90.3974 130.033C84.6873 129.909 78.7704 129.744 73.0604 129.578C65.8194 129.578 61.4748 128.089 61.4748 121.882C61.4748 114.145 66.5642 112.2 73.1018 112.2H90.6043C99.0452 112.2 102.397 115.51 102.397 122.751H90.8112C90.687 121.137 89.0319 121.096 87.5424 121.096C83.115 121.096 76.0809 121.096 74.012 121.096C72.8949 121.096 72.4811 121.51 72.4811 122.668C72.4811 123.413 72.8949 123.703 74.012 123.703C79.7221 123.827 85.639 123.992 91.3904 124.158ZM117.004 126.889C117.004 130.654 118.949 132.64 122.094 132.64C124.204 132.64 125.901 132.64 128.052 132.64C131.155 132.64 133.1 130.654 133.1 126.889V112.821H145.224V126.889C145.224 136.902 138.231 141.578 131.155 141.578H118.949C111.874 141.578 104.881 136.902 104.881 126.889V112.821H117.004V126.889ZM196.409 112.821V140.957H184.244V123.91L177.458 140.957H166.824L160.08 123.91V140.957H147.915V112.821C154.08 112.821 160.204 112.821 166.286 112.821L172.162 127.592L177.996 112.821C184.161 112.821 190.285 112.821 196.409 112.821ZM247.605 112.821V140.957H235.44V123.91L228.654 140.957H218.02L211.276 123.91V140.957H199.111V112.821C205.276 112.821 211.4 112.821 217.482 112.821L223.358 127.592L229.192 112.821C235.357 112.821 241.481 112.821 247.605 112.821ZM250.307 140.957V112.821H262.431V140.957H250.307ZM306.431 112.821V122.048H291.825V140.957H279.701V122.048C273.495 122.089 267.95 122.089 265.137 122.089V112.821C278.874 112.821 292.652 112.821 306.431 112.821ZM309.14 121.593V112.821H317.498C317.498 115.8 317.498 118.613 317.498 121.593C317.498 124.572 316.671 126.061 314.56 127.758L311.499 124.861C312.947 123.91 313.319 123.041 313.319 121.593H309.14ZM355.023 122.188C355.023 127.845 348.376 129.582 343.163 130.855C340.355 131.522 338.112 132.189 337.304 133.179H354.578V140.937H320.575V136.351C320.575 130.148 329.728 127.845 336.718 126.188C340.981 125.138 344.396 124.309 344.396 122.875C344.396 121.723 342.658 120.875 338.88 120.875C334.94 120.915 331.566 121.501 331.627 124.026H321C321 114.874 328.152 113.116 338.435 113.116C348.881 113.116 355.023 115.561 355.023 122.188ZM367.529 123.622H370.256C381.085 123.622 390.298 124.35 390.298 132.633C390.298 135.462 388.823 137.664 385.894 139.24C382.964 140.816 378.843 141.604 373.509 141.604C362.983 141.604 355.851 139.785 355.851 130.734H366.458C366.417 133.623 369.792 133.502 373.933 133.562C377.913 133.562 379.671 132.916 379.671 131.482C379.671 129.744 378.6 128.411 370.256 128.411H355.851V128.35L359.164 113.783H388.298V121.077H368.094L367.529 123.622Z" fill="#111111"/>
</g>
<g opacity="0.06">
<path d="M-2.4005 109.58V81.4436C9.22647 81.4436 20.8948 81.4436 32.5632 81.4436V89.7604C30.1219 89.7604 16.1365 89.7604 9.723 89.7604V92.2431C16.6744 92.2431 23.6671 92.2431 30.6184 92.2431V98.822H9.723V101.263H32.5632V109.58C20.8948 109.58 9.22647 109.58 -2.4005 109.58ZM59.1405 91.5397V99.4841H34.9763V91.5397H59.1405ZM91.3904 92.781C98.6314 92.781 103.017 94.3533 103.017 100.56C103.017 108.297 97.928 110.242 91.3904 110.242H73.2673C64.785 110.242 61.4334 106.932 61.4334 99.6909H73.019C73.1431 101.263 74.8396 101.305 76.2878 101.305C80.7151 101.305 88.4527 101.346 90.4801 101.346C91.5973 101.346 92.0111 100.891 92.0111 99.7323C92.0111 98.9875 91.5146 98.6565 90.3974 98.6565C84.6873 98.5324 78.7704 98.3669 73.0604 98.2014C65.8194 98.2014 61.4748 96.7118 61.4748 90.5052C61.4748 82.7677 66.5642 80.823 73.1018 80.823H90.6043C99.0452 80.823 102.397 84.1332 102.397 91.3741H90.8112C90.687 89.7604 89.0319 89.7191 87.5424 89.7191C83.115 89.7191 76.0809 89.7191 74.012 89.7191C72.8949 89.7191 72.4811 90.1328 72.4811 91.2914C72.4811 92.0362 72.8949 92.3258 74.012 92.3258C79.7221 92.45 85.639 92.6155 91.3904 92.781ZM117.004 95.5119C117.004 99.2772 118.949 101.263 122.094 101.263C124.204 101.263 125.901 101.263 128.052 101.263C131.155 101.263 133.1 99.2772 133.1 95.5119V81.4436H145.224V95.5119C145.224 105.525 138.231 110.201 131.155 110.201H118.949C111.874 110.201 104.881 105.525 104.881 95.5119V81.4436H117.004V95.5119ZM196.409 81.4436V109.58H184.244V92.5327L177.458 109.58H166.824L160.08 92.5327V109.58H147.915V81.4436C154.08 81.4436 160.204 81.4436 166.286 81.4436L172.162 96.2153L177.996 81.4436C184.161 81.4436 190.285 81.4436 196.409 81.4436ZM247.605 81.4436V109.58H235.44V92.5327L228.654 109.58H218.02L211.276 92.5327V109.58H199.111V81.4436C205.276 81.4436 211.4 81.4436 217.482 81.4436L223.358 96.2153L229.192 81.4436C235.357 81.4436 241.481 81.4436 247.605 81.4436ZM250.307 109.58V81.4436H262.431V109.58H250.307ZM306.431 81.4436V90.6707H291.825V109.58H279.701V90.6707C273.495 90.7121 267.95 90.7121 265.137 90.7121V81.4436C278.874 81.4436 292.652 81.4436 306.431 81.4436ZM309.14 90.2156V81.4436H317.498C317.498 84.4228 317.498 87.2364 317.498 90.2156C317.498 93.1947 316.671 94.6843 314.56 96.3808L311.499 93.4844C312.947 92.5327 313.319 91.6638 313.319 90.2156H309.14ZM355.023 90.8109C355.023 96.4679 348.376 98.2054 343.163 99.4782C340.355 100.145 338.112 100.812 337.304 101.802H354.578V109.56H320.575V104.974C320.575 98.7711 329.728 96.4679 336.718 94.8112C340.981 93.7606 344.396 92.9323 344.396 91.4978C344.396 90.3462 342.658 89.4976 338.88 89.4976C334.94 89.538 331.566 90.1239 331.627 92.6494H321C321 83.4971 328.152 81.7394 338.435 81.7394C348.881 81.7394 355.023 84.1841 355.023 90.8109ZM367.529 92.2453H370.256C381.085 92.2453 390.298 92.9727 390.298 101.256C390.298 104.085 388.823 106.287 385.894 107.863C382.964 109.439 378.843 110.227 373.509 110.227C362.983 110.227 355.851 108.408 355.851 99.357H366.458C366.417 102.246 369.792 102.125 373.933 102.186C377.913 102.186 379.671 101.539 379.671 100.105C379.671 98.367 378.6 97.0336 370.256 97.0336H355.851V96.973L359.164 82.4061H388.298V89.6997H368.094L367.529 92.2453Z" fill="#111111"/>
</g>
<g opacity="0.025">
<path d="M-1.98099 141V112.864C9.64598 112.864 21.3143 112.864 32.9827 112.864V121.18C30.5414 121.18 16.556 121.18 10.1425 121.18V123.663C17.0939 123.663 24.0866 123.663 31.038 123.663V130.242H10.1425V132.683H32.9827V141C21.3143 141 9.64598 141 -1.98099 141ZM59.56 122.96V130.904H35.3958V122.96H59.56ZM91.8099 124.201C99.0509 124.201 103.437 125.773 103.437 131.98C103.437 139.717 98.3475 141.662 91.8099 141.662H73.6868C65.2045 141.662 61.8529 138.352 61.8529 131.111H73.4385C73.5626 132.683 75.2591 132.725 76.7073 132.725C81.1347 132.725 88.8722 132.766 90.8997 132.766C92.0168 132.766 92.4306 132.311 92.4306 131.152C92.4306 130.407 91.9341 130.076 90.8169 130.076C85.1069 129.952 79.1899 129.787 73.4799 129.621C66.2389 129.621 61.8943 128.132 61.8943 121.925C61.8943 114.188 66.9837 112.243 73.5213 112.243H91.0238C99.4647 112.243 102.816 115.553 102.816 122.794H91.2307C91.1065 121.18 89.4515 121.139 87.9619 121.139C83.5345 121.139 76.5004 121.139 74.4316 121.139C73.3144 121.139 72.9006 121.553 72.9006 122.711C72.9006 123.456 73.3144 123.746 74.4316 123.746C80.1416 123.87 86.0585 124.035 91.8099 124.201ZM117.424 126.932C117.424 130.697 119.369 132.683 122.513 132.683C124.624 132.683 126.32 132.683 128.472 132.683C131.575 132.683 133.52 130.697 133.52 126.932V112.864H145.643V126.932C145.643 136.945 138.65 141.621 131.575 141.621H119.369C112.293 141.621 105.3 136.945 105.3 126.932V112.864H117.424V126.932ZM196.828 112.864V141H184.663V123.953L177.878 141H167.244L160.499 123.953V141H148.334V112.864C154.5 112.864 160.623 112.864 166.706 112.864L172.581 127.635L178.415 112.864C184.581 112.864 190.704 112.864 196.828 112.864ZM248.024 112.864V141H235.86V123.953L229.074 141H218.44L211.695 123.953V141H199.53V112.864C205.696 112.864 211.819 112.864 217.902 112.864L223.777 127.635L229.612 112.864C235.777 112.864 241.901 112.864 248.024 112.864ZM250.727 141V112.864H262.85V141H250.727ZM306.85 112.864V122.091H292.244V141H280.121V122.091C273.914 122.132 268.37 122.132 265.556 122.132V112.864C279.293 112.864 293.072 112.864 306.85 112.864ZM309.56 121.636V112.864H317.918C317.918 115.843 317.918 118.656 317.918 121.636C317.918 124.615 317.09 126.104 314.98 127.801L311.918 124.904C313.366 123.953 313.739 123.084 313.739 121.636H309.56ZM355.442 122.231C355.442 127.888 348.795 129.625 343.583 130.898C340.774 131.565 338.532 132.232 337.724 133.222H354.998V140.98H320.995V136.394C320.995 130.191 330.147 127.888 337.138 126.231C341.401 125.181 344.815 124.352 344.815 122.918C344.815 121.766 343.078 120.918 339.299 120.918C335.36 120.958 331.986 121.544 332.046 124.069H321.419C321.419 114.917 328.571 113.159 338.855 113.159C349.3 113.159 355.442 115.604 355.442 122.231ZM367.948 123.665H370.676C381.505 123.665 390.718 124.393 390.718 132.676C390.718 135.505 389.243 137.707 386.313 139.283C383.384 140.859 379.262 141.647 373.928 141.647C363.402 141.647 356.27 139.828 356.27 130.777H366.877C366.837 133.666 370.211 133.545 374.353 133.605C378.333 133.605 380.091 132.959 380.091 131.524C380.091 129.787 379.02 128.454 370.676 128.454H356.27V128.393L359.584 113.826H388.718V121.12H368.514L367.948 123.665Z" fill="#111111"/>
</g>
<g opacity="0.025">
<path d="M-3.56151 110V81.8636C8.06546 81.8636 19.7338 81.8636 31.4022 81.8636V90.1804C28.9609 90.1804 14.9754 90.1804 8.56199 90.1804V92.663C15.5133 92.663 22.5061 92.663 29.4574 92.663V99.2419H8.56199V101.683H31.4022V110C19.7338 110 8.06546 110 -3.56151 110ZM57.9795 91.9596V99.904H33.8153V91.9596H57.9795ZM90.2294 93.2009C97.4704 93.2009 101.856 94.7732 101.856 100.98C101.856 108.717 96.767 110.662 90.2294 110.662H72.1063C63.6239 110.662 60.2724 107.352 60.2724 100.111H71.858C71.9821 101.683 73.6786 101.725 75.1268 101.725C79.5541 101.725 87.2917 101.766 89.3191 101.766C90.4363 101.766 90.8501 101.311 90.8501 100.152C90.8501 99.4075 90.3536 99.0764 89.2364 99.0764C83.5263 98.9523 77.6094 98.7868 71.8994 98.6213C64.6584 98.6213 60.3138 97.1317 60.3138 90.9251C60.3138 83.1876 65.4032 81.2429 71.9407 81.2429H89.4433C97.8842 81.2429 101.236 84.5531 101.236 91.7941H89.6501C89.526 90.1804 87.8709 90.139 86.3814 90.139C81.954 90.139 74.9199 90.139 72.851 90.139C71.7339 90.139 71.3201 90.5528 71.3201 91.7113C71.3201 92.4561 71.7339 92.7457 72.851 92.7457C78.5611 92.8699 84.478 93.0354 90.2294 93.2009ZM115.843 95.9318C115.843 99.6971 117.788 101.683 120.933 101.683C123.043 101.683 124.74 101.683 126.891 101.683C129.994 101.683 131.939 99.6971 131.939 95.9318V81.8636H144.063V95.9318C144.063 105.945 137.07 110.621 129.994 110.621H117.788C110.713 110.621 103.72 105.945 103.72 95.9318V81.8636H115.843V95.9318ZM195.248 81.8636V110H183.083V92.9526L176.297 110H165.663L158.919 92.9526V110H146.754V81.8636C152.919 81.8636 159.043 81.8636 165.125 81.8636L171.001 96.6352L176.835 81.8636C183 81.8636 189.124 81.8636 195.248 81.8636ZM246.444 81.8636V110H234.279V92.9526L227.493 110H216.859L210.115 92.9526V110H197.95V81.8636C204.115 81.8636 210.239 81.8636 216.321 81.8636L222.197 96.6352L228.031 81.8636C234.196 81.8636 240.32 81.8636 246.444 81.8636ZM249.146 110V81.8636H261.269V110H249.146ZM305.27 81.8636V91.0907H290.664V110H278.54V91.0907C272.334 91.132 266.789 91.132 263.976 91.132V81.8636C277.713 81.8636 291.491 81.8636 305.27 81.8636ZM307.979 90.6355V81.8636H316.337C316.337 84.8427 316.337 87.6564 316.337 90.6355C316.337 93.6147 315.51 95.1042 313.399 96.8007L310.338 93.9043C311.786 92.9526 312.158 92.0837 312.158 90.6355H307.979ZM353.862 91.2308C353.862 96.8878 347.215 98.6253 342.002 99.8982C339.194 100.565 336.951 101.232 336.143 102.222H353.417V109.98H319.414V105.394C319.414 99.191 328.567 96.8878 335.557 95.2311C339.82 94.1805 343.235 93.3522 343.235 91.9177C343.235 90.7661 341.497 89.9176 337.719 89.9176C333.779 89.958 330.405 90.5439 330.466 93.0693H319.839C319.839 83.9171 326.991 82.1593 337.274 82.1593C347.72 82.1593 353.862 84.604 353.862 91.2308ZM366.368 92.6653H369.095C379.924 92.6653 389.137 93.3926 389.137 101.676C389.137 104.505 387.662 106.707 384.733 108.283C381.803 109.859 377.682 110.647 372.348 110.647C361.822 110.647 354.69 108.828 354.69 99.7769H365.297C365.256 102.666 368.63 102.545 372.772 102.605C376.752 102.605 378.51 101.959 378.51 100.524C378.51 98.787 377.439 97.4535 369.095 97.4535H354.69V97.3929L358.003 82.8261H387.137V90.1196H366.933L366.368 92.6653Z" fill="#111111"/>
</g>
<g opacity="0.02">
<path d="M0.438492 81V52.8636C12.0655 52.8636 23.7338 52.8636 35.4022 52.8636V61.1804C32.9609 61.1804 18.9754 61.1804 12.562 61.1804V63.663C19.5133 63.663 26.5061 63.663 33.4574 63.663V70.2419H12.562V72.6832H35.4022V81C23.7338 81 12.0655 81 0.438492 81ZM61.9795 62.9596V70.904H37.8153V62.9596H61.9795ZM94.2294 64.2009C101.47 64.2009 105.856 65.7732 105.856 71.9798C105.856 79.7173 100.767 81.662 94.2294 81.662H76.1063C67.6239 81.662 64.2724 78.3519 64.2724 71.1109H75.858C75.9821 72.6832 77.6786 72.7246 79.1268 72.7246C83.5541 72.7246 91.2917 72.766 93.3191 72.766C94.4363 72.766 94.8501 72.3108 94.8501 71.1522C94.8501 70.4075 94.3536 70.0764 93.2364 70.0764C87.5263 69.9523 81.6094 69.7868 75.8994 69.6213C68.6584 69.6213 64.3138 68.1317 64.3138 61.9251C64.3138 54.1876 69.4032 52.2429 75.9407 52.2429H93.4433C101.884 52.2429 105.236 55.5531 105.236 62.7941H93.6501C93.526 61.1804 91.8709 61.139 90.3814 61.139C85.954 61.139 78.9199 61.139 76.851 61.139C75.7339 61.139 75.3201 61.5528 75.3201 62.7113C75.3201 63.4561 75.7339 63.7457 76.851 63.7457C82.5611 63.8699 88.478 64.0354 94.2294 64.2009ZM119.843 66.9318C119.843 70.6971 121.788 72.6832 124.933 72.6832C127.043 72.6832 128.74 72.6832 130.891 72.6832C133.994 72.6832 135.939 70.6971 135.939 66.9318V52.8636H148.063V66.9318C148.063 76.945 141.07 81.6207 133.994 81.6207H121.788C114.713 81.6207 107.72 76.945 107.72 66.9318V52.8636H119.843V66.9318ZM199.248 52.8636V81H187.083V63.9526L180.297 81H169.663L162.919 63.9526V81H150.754V52.8636C156.919 52.8636 163.043 52.8636 169.125 52.8636L175.001 67.6352L180.835 52.8636C187 52.8636 193.124 52.8636 199.248 52.8636ZM250.444 52.8636V81H238.279V63.9526L231.493 81H220.859L214.115 63.9526V81H201.95V52.8636C208.115 52.8636 214.239 52.8636 220.321 52.8636L226.197 67.6352L232.031 52.8636C238.196 52.8636 244.32 52.8636 250.444 52.8636ZM253.146 81V52.8636H265.269V81H253.146ZM309.27 52.8636V62.0907H294.664V81H282.54V62.0907C276.334 62.132 270.789 62.132 267.976 62.132V52.8636C281.713 52.8636 295.491 52.8636 309.27 52.8636ZM311.979 61.6355V52.8636H320.337C320.337 55.8427 320.337 58.6564 320.337 61.6355C320.337 64.6147 319.51 66.1042 317.399 67.8007L314.338 64.9043C315.786 63.9526 316.158 63.0837 316.158 61.6355H311.979ZM357.862 62.2308C357.862 67.8878 351.215 69.6253 346.002 70.8982C343.194 71.5649 340.951 72.2316 340.143 73.2216H357.417V80.9798H323.414V76.3936C323.414 70.191 332.567 67.8878 339.557 66.2311C343.82 65.1805 347.235 64.3522 347.235 62.9177C347.235 61.7661 345.497 60.9176 341.719 60.9176C337.779 60.958 334.405 61.5439 334.466 64.0693H323.839C323.839 54.9171 330.991 53.1593 341.274 53.1593C351.72 53.1593 357.862 55.604 357.862 62.2308ZM370.368 63.6653H373.095C383.924 63.6653 393.137 64.3926 393.137 72.6761C393.137 75.5046 391.662 77.7068 388.733 79.2827C385.803 80.8586 381.682 81.6465 376.348 81.6465C365.822 81.6465 358.69 79.8282 358.69 70.7769H369.297C369.256 73.6661 372.63 73.5448 376.772 73.6055C380.752 73.6055 382.51 72.9589 382.51 71.5245C382.51 69.787 381.439 68.4535 373.095 68.4535H358.69V68.3929L362.003 53.8261H391.137V61.1196H370.933L370.368 63.6653Z" fill="#111111"/>
</g>
<g opacity="0.01">
<path d="M-0.561508 50V21.8636H34.4022V30.1804H11.562V32.663H32.4574V39.2419H11.562V41.6832H34.4022V50H-0.561508ZM60.9795 31.9596V39.904H36.8153V31.9596H60.9795ZM93.2294 33.2009C97.1189 33.2009 100.029 33.7664 101.96 34.8974C103.891 36.0007 104.856 38.0282 104.856 40.9798C104.856 42.8556 104.567 44.4417 103.987 45.7382C103.408 47.0346 102.567 48.0415 101.463 48.7587C100.36 49.4483 99.1464 49.931 97.8223 50.2069C96.4982 50.5103 94.9673 50.662 93.2294 50.662H75.1063C70.9134 50.662 67.8928 49.8207 66.0447 48.138C64.1965 46.4554 63.2724 43.7796 63.2724 40.1109H74.858C74.8856 40.6074 75.0925 40.9798 75.4786 41.2281C75.8648 41.4763 76.2372 41.628 76.5958 41.6832C76.982 41.7108 77.4923 41.7246 78.1268 41.7246C79.8094 41.7246 82.4714 41.7384 86.1126 41.766C89.7813 41.766 91.8502 41.766 92.3191 41.766C92.8708 41.766 93.257 41.6418 93.4777 41.3936C93.726 41.1453 93.8501 40.7315 93.8501 40.1522C93.8501 39.435 93.3122 39.0764 92.2364 39.0764C87.878 38.9937 82.099 38.842 74.8994 38.6213C70.9823 38.6213 68.0721 38.0696 66.1688 36.9662C64.2654 35.8628 63.3138 33.8491 63.3138 30.9251C63.3138 29.0494 63.6034 27.4633 64.1827 26.1668C64.762 24.8703 65.6033 23.8772 66.7067 23.1876C67.8101 22.4704 69.0238 21.9739 70.3479 21.6981C71.6719 21.3946 73.2029 21.2429 74.9407 21.2429H92.4433C96.6086 21.2429 99.6153 22.0842 101.463 23.7669C103.312 25.4496 104.236 28.1253 104.236 31.7941H92.6501C92.6226 31.2975 92.4157 30.9251 92.0295 30.6769C91.6433 30.401 91.2709 30.2493 90.9123 30.2217C90.5537 30.1666 90.0434 30.139 89.3814 30.139H75.851C75.2993 30.139 74.8994 30.2631 74.6511 30.5114C74.4304 30.7321 74.3201 31.132 74.3201 31.7113C74.3201 32.4009 74.8304 32.7457 75.851 32.7457C80.0991 32.8285 85.8919 32.9802 93.2294 33.2009ZM118.843 35.9318C118.843 37.78 119.285 39.2006 120.168 40.1936C121.078 41.1867 122.333 41.6832 123.933 41.6832H129.891C131.463 41.6832 132.691 41.1867 133.574 40.1936C134.484 39.2006 134.939 37.78 134.939 35.9318V21.8636H147.063V35.9318C147.063 38.3317 146.663 40.4971 145.863 42.428C145.063 44.3589 143.987 45.9037 142.635 47.0622C141.311 48.2208 139.822 49.1035 138.167 49.7104C136.539 50.3172 134.815 50.6207 132.994 50.6207H120.788C118.968 50.6207 117.23 50.3172 115.575 49.7104C113.947 49.1035 112.458 48.2208 111.106 47.0622C109.782 45.9037 108.72 44.3589 107.92 42.428C107.12 40.4971 106.72 38.3317 106.72 35.9318V21.8636H118.843V35.9318ZM198.248 21.8636V50H186.083V32.9526L179.297 50H168.663L161.919 32.9526V50H149.754V21.8636H168.125L174.001 36.6352L179.835 21.8636H198.248ZM249.444 21.8636V50H237.279V32.9526L230.493 50H219.859L213.115 32.9526V50H200.95V21.8636H219.321L225.197 36.6352L231.031 21.8636H249.444ZM252.146 50V21.8636H264.269V50H252.146ZM308.27 21.8636V31.0907H293.664V50H281.54V31.0907C277.403 31.1182 272.548 31.132 266.976 31.132V21.8636H308.27ZM310.979 30.6355V21.8636H319.337V30.6355C319.337 32.0975 319.117 33.2699 318.675 34.1526C318.234 35.0353 317.475 35.918 316.399 36.8007L313.338 33.9043C314.027 33.4354 314.496 32.9664 314.744 32.4975C315.02 32.001 315.158 31.3803 315.158 30.6355H310.979ZM356.862 31.2308C356.862 36.8878 350.215 38.6253 345.002 39.8982C342.194 40.5649 339.951 41.2316 339.143 42.2216H356.417V49.9798H322.414V45.3936C322.414 39.191 331.567 36.8878 338.557 35.2311C342.82 34.1805 346.235 33.3522 346.235 31.9177C346.235 30.7661 344.497 29.9176 340.719 29.9176C336.779 29.958 333.405 30.5439 333.466 33.0693H322.839C322.839 23.9171 329.991 22.1593 340.274 22.1593C350.72 22.1593 356.862 24.604 356.862 31.2308ZM369.368 32.6653H372.095C382.924 32.6653 392.137 33.3926 392.137 41.6761C392.137 44.5046 390.662 46.7068 387.733 48.2827C384.803 49.8586 380.682 50.6465 375.348 50.6465C364.822 50.6465 357.69 48.8282 357.69 39.7769H368.297C368.256 42.6661 371.63 42.5448 375.772 42.6055C379.752 42.6055 381.51 41.9589 381.51 40.5245C381.51 38.787 380.439 37.4535 372.095 37.4535H357.69V37.3929L361.003 22.8261H390.137V30.1196H369.933L369.368 32.6653Z" fill="#111111"/>
</g>
<rect y="302.424" width="390" height="26.6777" fill="black"/>
</g>
<defs>
<clipPath id="clip0_974_210">
<rect width="390" height="329" rx="9.98214" fill="white"/>
</clipPath>
</defs>
</svg>
