<svg width="1440" height="560" viewBox="0 0 1440 560" fill="none" xmlns="http://www.w3.org/2000/svg">
<path d="M19.0682 384.299V283.322C60.7958 283.322 102.672 283.322 144.548 283.322V313.169C135.787 313.169 85.5948 313.169 62.5778 313.169V322.079C87.5252 322.079 112.621 322.079 137.569 322.079V345.69H62.5778V354.451H144.548V384.299C102.672 384.299 60.7958 384.299 19.0682 384.299ZM239.93 319.555V348.066H153.208V319.555H239.93ZM355.671 324.01C381.658 324.01 397.398 329.652 397.398 351.927C397.398 379.696 379.133 386.675 355.671 386.675H290.629C260.187 386.675 248.159 374.795 248.159 348.809H289.738C290.184 354.451 296.272 354.6 301.469 354.6C317.359 354.6 345.128 354.748 352.404 354.748C356.413 354.748 357.898 353.115 357.898 348.957C357.898 346.284 356.116 345.096 352.107 345.096C331.614 344.651 310.379 344.057 289.887 343.463C263.9 343.463 248.308 338.117 248.308 315.842C248.308 288.073 266.573 281.094 290.035 281.094H352.849C383.143 281.094 395.171 292.974 395.171 318.961H353.592C353.146 313.169 347.206 313.021 341.861 313.021C325.971 313.021 300.727 313.021 293.302 313.021C289.293 313.021 287.808 314.506 287.808 318.664C287.808 321.337 289.293 322.376 293.302 322.376C313.795 322.822 335.03 323.416 355.671 324.01ZM447.596 333.81C447.596 347.324 454.575 354.451 465.861 354.451C473.434 354.451 479.523 354.451 487.245 354.451C498.382 354.451 505.361 347.324 505.361 333.81V283.322H548.871V333.81C548.871 369.747 523.775 386.527 498.382 386.527H454.575C429.182 386.527 404.086 369.747 404.086 333.81V283.322H447.596V333.81ZM732.567 283.322V384.299H688.909V323.119L664.556 384.299H626.392L602.187 323.119V384.299H558.529V283.322C580.655 283.322 602.632 283.322 624.461 283.322L645.548 336.335L666.486 283.322C688.612 283.322 710.589 283.322 732.567 283.322ZM916.303 283.322V384.299H872.645V323.119L848.291 384.299H810.128L785.923 323.119V384.299H742.265V283.322C764.391 283.322 786.368 283.322 808.197 283.322L829.284 336.335L850.222 283.322C872.348 283.322 894.325 283.322 916.303 283.322ZM926 384.299V283.322H969.51V384.299H926ZM1127.42 283.322V316.436H1075V384.299H1031.49V316.436C1009.22 316.585 989.319 316.585 979.221 316.585V283.322C1028.52 283.322 1077.97 283.322 1127.42 283.322ZM1137.14 314.803V283.322H1167.14C1167.14 294.013 1167.14 304.111 1167.14 314.803C1167.14 325.495 1164.17 330.84 1156.6 336.929L1145.61 326.534C1150.81 323.119 1152.14 320 1152.14 314.803H1137.14ZM1301.81 316.939C1301.81 337.241 1277.95 343.477 1259.25 348.045C1249.17 350.438 1241.12 352.831 1238.22 356.384H1300.21V384.227H1178.18V367.767C1178.18 345.507 1211.03 337.241 1236.12 331.296C1251.42 327.525 1263.67 324.553 1263.67 319.404C1263.67 315.272 1257.43 312.226 1243.88 312.226C1229.74 312.371 1217.63 314.474 1217.85 323.537H1179.71C1179.71 290.691 1205.37 284.383 1242.28 284.383C1279.77 284.383 1301.81 293.157 1301.81 316.939ZM1346.69 322.087H1356.48C1395.35 322.087 1428.41 324.698 1428.41 354.426C1428.41 364.577 1423.12 372.48 1412.6 378.136C1402.09 383.792 1387.3 386.62 1368.15 386.62C1330.38 386.62 1304.78 380.094 1304.78 347.61H1342.85C1342.7 357.979 1354.81 357.544 1369.68 357.761C1383.96 357.761 1390.27 355.441 1390.27 350.293C1390.27 344.057 1386.43 339.272 1356.48 339.272H1304.78V339.054L1316.67 286.776H1421.23V312.951H1348.72L1346.69 322.087Z" fill="#200707"/>
<g opacity="0.3">
<path d="M19.0682 262.269V161.291C60.7958 161.291 102.672 161.291 144.548 161.291V191.139C135.787 191.139 85.5948 191.139 62.5778 191.139V200.048C87.5252 200.048 112.621 200.048 137.569 200.048V223.659H62.5778V232.421H144.548V262.269C102.672 262.269 60.7958 262.269 19.0682 262.269ZM239.93 197.524V226.035H153.208V197.524H239.93ZM355.671 201.979C381.658 201.979 397.398 207.622 397.398 229.896C397.398 257.665 379.133 264.645 355.671 264.645H290.629C260.187 264.645 248.159 252.765 248.159 226.778H289.738C290.184 232.421 296.272 232.569 301.469 232.569C317.359 232.569 345.128 232.718 352.404 232.718C356.413 232.718 357.898 231.084 357.898 226.926C357.898 224.253 356.116 223.065 352.107 223.065C331.614 222.62 310.379 222.026 289.887 221.432C263.9 221.432 248.308 216.086 248.308 193.812C248.308 166.043 266.573 159.063 290.035 159.063H352.849C383.143 159.063 395.171 170.943 395.171 196.93H353.592C353.146 191.139 347.206 190.99 341.861 190.99C325.971 190.99 300.727 190.99 293.302 190.99C289.293 190.99 287.808 192.475 287.808 196.633C287.808 199.306 289.293 200.345 293.302 200.345C313.795 200.791 335.03 201.385 355.671 201.979ZM447.596 211.78C447.596 225.293 454.575 232.421 465.861 232.421C473.434 232.421 479.523 232.421 487.245 232.421C498.382 232.421 505.361 225.293 505.361 211.78V161.291H548.871V211.78C548.871 247.716 523.775 264.496 498.382 264.496H454.575C429.182 264.496 404.086 247.716 404.086 211.78V161.291H447.596V211.78ZM732.567 161.291V262.269H688.909V201.088L664.556 262.269H626.392L602.187 201.088V262.269H558.529V161.291C580.655 161.291 602.632 161.291 624.461 161.291L645.548 214.304L666.486 161.291C688.612 161.291 710.589 161.291 732.567 161.291ZM916.303 161.291V262.269H872.645V201.088L848.291 262.269H810.128L785.923 201.088V262.269H742.265V161.291C764.391 161.291 786.368 161.291 808.197 161.291L829.284 214.304L850.222 161.291C872.348 161.291 894.325 161.291 916.303 161.291ZM926 262.269V161.291H969.51V262.269H926ZM1127.42 161.291V194.406H1075V262.269H1031.49V194.406C1009.22 194.554 989.319 194.554 979.221 194.554V161.291C1028.52 161.291 1077.97 161.291 1127.42 161.291ZM1137.14 192.772V161.291H1167.14C1167.14 171.983 1167.14 182.08 1167.14 192.772C1167.14 203.464 1164.17 208.81 1156.6 214.898L1145.61 204.503C1150.81 201.088 1152.14 197.969 1152.14 192.772H1137.14ZM1301.81 194.908C1301.81 215.211 1277.95 221.446 1259.25 226.014C1249.17 228.407 1241.12 230.8 1238.22 234.353H1300.21V262.196H1178.18V245.737C1178.18 223.477 1211.03 215.211 1236.12 209.265C1251.42 205.495 1263.67 202.522 1263.67 197.374C1263.67 193.241 1257.43 190.195 1243.88 190.195C1229.74 190.34 1217.63 192.443 1217.85 201.507H1179.71C1179.71 168.661 1205.37 162.352 1242.28 162.352C1279.77 162.352 1301.81 171.126 1301.81 194.908ZM1346.69 200.057H1356.48C1395.35 200.057 1428.41 202.667 1428.41 232.395C1428.41 242.546 1423.12 250.45 1412.6 256.105C1402.09 261.761 1387.3 264.589 1368.15 264.589C1330.38 264.589 1304.78 258.063 1304.78 225.579H1342.85C1342.7 235.948 1354.81 235.513 1369.68 235.731C1383.96 235.731 1390.27 233.41 1390.27 228.262C1390.27 222.027 1386.43 217.241 1356.48 217.241H1304.78V217.023L1316.67 164.745H1421.23V190.921H1348.72L1346.69 200.057Z" fill="#111111"/>
</g>
<g opacity="0.13">
<path d="M14.0682 137V36.0223C55.7958 36.0223 97.6719 36.0223 139.548 36.0223V65.8701C130.787 65.8701 80.5948 65.8701 57.5778 65.8701V74.7799C82.5252 74.7799 107.621 74.7799 132.569 74.7799V98.3909H57.5778V107.152H139.548V137C97.6719 137 55.7958 137 14.0682 137ZM234.93 72.2554V100.767H148.208V72.2554H234.93ZM350.671 76.7103C376.658 76.7103 392.398 82.3532 392.398 104.628C392.398 132.397 374.133 139.376 350.671 139.376H285.629C255.187 139.376 243.159 127.496 243.159 101.509H284.738C285.184 107.152 291.272 107.301 296.469 107.301C312.359 107.301 340.128 107.449 347.404 107.449C351.413 107.449 352.898 105.816 352.898 101.658C352.898 98.9848 351.116 97.7969 347.107 97.7969C326.614 97.3514 305.379 96.7574 284.887 96.1634C258.9 96.1634 243.308 90.8175 243.308 68.543C243.308 40.7741 261.573 33.7948 285.035 33.7948H347.849C378.143 33.7948 390.171 45.6745 390.171 71.6615H348.592C348.146 65.8701 342.206 65.7216 336.861 65.7216C320.971 65.7216 295.727 65.7216 288.302 65.7216C284.293 65.7216 282.808 67.2066 282.808 71.3645C282.808 74.0374 284.293 75.0769 288.302 75.0769C308.795 75.5224 330.03 76.1164 350.671 76.7103ZM442.596 86.5111C442.596 100.024 449.575 107.152 460.861 107.152C468.434 107.152 474.523 107.152 482.245 107.152C493.382 107.152 500.361 100.024 500.361 86.5111V36.0223H543.871V86.5111C543.871 122.447 518.775 139.227 493.382 139.227H449.575C424.182 139.227 399.086 122.447 399.086 86.5111V36.0223H442.596V86.5111ZM727.567 36.0223V137H683.909V75.8194L659.556 137H621.392L597.187 75.8194V137H553.529V36.0223C575.655 36.0223 597.632 36.0223 619.461 36.0223L640.548 89.0356L661.486 36.0223C683.612 36.0223 705.589 36.0223 727.567 36.0223ZM911.303 36.0223V137H867.645V75.8194L843.291 137H805.128L780.923 75.8194V137H737.265V36.0223C759.391 36.0223 781.368 36.0223 803.197 36.0223L824.284 89.0356L845.222 36.0223C867.348 36.0223 889.325 36.0223 911.303 36.0223ZM921 137V36.0223H964.51V137H921ZM1122.42 36.0223V69.137H1070V137H1026.49V69.137C1004.22 69.2855 984.319 69.2855 974.221 69.2855V36.0223C1023.52 36.0223 1072.97 36.0223 1122.42 36.0223ZM1132.14 67.5035V36.0223H1162.14C1162.14 46.714 1162.14 56.8118 1162.14 67.5035C1162.14 78.1953 1159.17 83.5412 1151.6 89.6296L1140.61 79.2348C1145.81 75.8194 1147.14 72.7009 1147.14 67.5035H1132.14ZM1296.81 69.6399C1296.81 89.9422 1272.95 96.1779 1254.25 100.746C1244.17 103.139 1236.12 105.531 1233.22 109.084H1295.21V136.927H1173.18V120.468C1173.18 98.2081 1206.03 89.9422 1231.12 83.9965C1246.42 80.2261 1258.67 77.2533 1258.67 72.1052C1258.67 67.9722 1252.43 64.9269 1238.88 64.9269C1224.74 65.0719 1212.63 67.1747 1212.85 76.2382H1174.71C1174.71 43.392 1200.37 37.0838 1237.28 37.0838C1274.77 37.0838 1296.81 45.8573 1296.81 69.6399ZM1341.69 74.788H1351.48C1390.35 74.788 1423.41 77.3983 1423.41 107.127C1423.41 117.278 1418.12 125.181 1407.6 130.837C1397.09 136.492 1382.3 139.32 1363.15 139.32C1325.38 139.32 1299.78 132.795 1299.78 100.311H1337.85C1337.7 110.68 1349.81 110.244 1364.68 110.462C1378.96 110.462 1385.27 108.142 1385.27 102.994C1385.27 96.758 1381.43 91.9724 1351.48 91.9724H1299.78V91.7549L1311.67 39.4765H1416.23V65.652H1343.72L1341.69 74.788Z" fill="#111111"/>
</g>
<line y1="527.5" x2="1440" y2="527.5" stroke="#E5E7EB"/>
<path d="M19.0682 503V402.022H144.548V431.87H62.5778V440.78H137.569V464.391H62.5778V473.152H144.548V503H19.0682ZM239.93 438.255V466.767H153.208V438.255H239.93ZM355.671 442.71C369.629 442.71 380.074 444.74 387.004 448.799C393.933 452.759 397.398 460.035 397.398 470.628C397.398 477.36 396.359 483.052 394.28 487.705C392.201 492.358 389.182 495.971 385.222 498.545C381.262 501.02 376.906 502.753 372.154 503.742C367.402 504.831 361.908 505.376 355.671 505.376H290.629C275.582 505.376 264.741 502.357 258.108 496.318C251.476 490.279 248.159 480.676 248.159 467.509H289.738C289.837 469.291 290.58 470.628 291.966 471.519C293.352 472.41 294.688 472.954 295.975 473.152C297.361 473.251 299.193 473.301 301.469 473.301C307.508 473.301 317.062 473.35 330.129 473.449C343.296 473.449 350.721 473.449 352.404 473.449C354.384 473.449 355.77 473.004 356.562 472.113C357.453 471.222 357.898 469.737 357.898 467.658C357.898 465.084 355.968 463.797 352.107 463.797C336.465 463.5 315.725 462.955 289.887 462.163C275.829 462.163 265.385 460.183 258.554 456.224C251.723 452.264 248.308 445.037 248.308 434.543C248.308 427.811 249.347 422.119 251.426 417.466C253.505 412.813 256.524 409.249 260.484 406.774C264.444 404.2 268.8 402.418 273.552 401.428C278.304 400.339 283.798 399.795 290.035 399.795H352.849C367.798 399.795 378.589 402.814 385.222 408.853C391.854 414.892 395.171 424.495 395.171 437.661H353.592C353.493 435.879 352.75 434.543 351.364 433.652C349.978 432.662 348.642 432.118 347.355 432.019C346.068 431.821 344.237 431.722 341.861 431.722H293.302C291.322 431.722 289.887 432.167 288.996 433.058C288.204 433.85 287.808 435.286 287.808 437.364C287.808 439.839 289.639 441.077 293.302 441.077C308.548 441.374 329.337 441.918 355.671 442.71ZM447.596 452.511C447.596 459.144 449.18 464.242 452.348 467.806C455.615 471.37 460.119 473.152 465.861 473.152H487.245C492.888 473.152 497.293 471.37 500.461 467.806C503.728 464.242 505.361 459.144 505.361 452.511V402.022H548.871V452.511C548.871 461.124 547.435 468.895 544.564 475.825C541.693 482.755 537.833 488.299 532.982 492.457C528.23 496.615 522.884 499.783 516.944 501.961C511.103 504.138 504.916 505.227 498.382 505.227H454.575C448.042 505.227 441.805 504.138 435.865 501.961C430.024 499.783 424.678 496.615 419.827 492.457C415.075 488.299 411.264 482.755 408.393 475.825C405.522 468.895 404.086 461.124 404.086 452.511V402.022H447.596V452.511ZM732.567 402.022V503H688.909V441.819L664.556 503H626.392L602.187 441.819V503H558.529V402.022H624.461L645.548 455.036L666.486 402.022H732.567ZM916.303 402.022V503H872.645V441.819L848.291 503H810.128L785.923 441.819V503H742.265V402.022H808.197L829.284 455.036L850.222 402.022H916.303ZM926 503V402.022H969.51V503H926ZM1127.42 402.022V435.137H1075V503H1031.49V435.137C1016.64 435.236 999.219 435.286 979.221 435.286V402.022H1127.42ZM1137.14 433.504V402.022H1167.14V433.504C1167.14 438.75 1166.35 442.958 1164.76 446.126C1163.18 449.294 1160.46 452.462 1156.6 455.63L1145.61 445.235C1148.08 443.552 1149.77 441.869 1150.66 440.186C1151.65 438.404 1152.14 436.176 1152.14 433.504H1137.14ZM1301.81 435.64C1301.81 455.942 1277.95 462.178 1259.25 466.746C1249.17 469.139 1241.12 471.531 1238.22 475.084H1300.21V502.927H1178.18V486.468C1178.18 464.208 1211.03 455.942 1236.12 449.997C1251.42 446.226 1263.67 443.253 1263.67 438.105C1263.67 433.972 1257.43 430.927 1243.88 430.927C1229.74 431.072 1217.63 433.175 1217.85 442.238H1179.71C1179.71 409.392 1205.37 403.084 1242.28 403.084C1279.77 403.084 1301.81 411.857 1301.81 435.64ZM1346.69 440.788H1356.48C1395.35 440.788 1428.41 443.398 1428.41 473.127C1428.41 483.278 1423.12 491.181 1412.6 496.837C1402.09 502.492 1387.3 505.32 1368.15 505.32C1330.38 505.32 1304.78 498.795 1304.78 466.311H1342.85C1342.7 476.68 1354.81 476.244 1369.68 476.462C1383.96 476.462 1390.27 474.142 1390.27 468.994C1390.27 462.758 1386.43 457.972 1356.48 457.972H1304.78V457.755L1316.67 405.477H1421.23V431.652H1348.72L1346.69 440.788Z" fill="white"/>
</svg>
