<svg width="1500" height="500" viewBox="0 0 1500 500" fill="none" xmlns="http://www.w3.org/2000/svg">
<g clip-path="url(#clip0_1061_44)">
<g filter="url(#filter0_d_1061_44)">
<path d="M19.9672 339.895V234.709C63.4334 234.709 107.054 234.709 150.675 234.709V265.801C141.549 265.801 89.2657 265.801 65.2897 265.801V275.082C91.2766 275.082 117.418 275.082 143.405 275.082V299.677H65.2897V308.803H150.675V339.895C107.054 339.895 63.4334 339.895 19.9672 339.895ZM250.032 272.452V302.152H159.696V272.452H250.032ZM370.595 277.093C397.665 277.093 414.061 282.971 414.061 306.174C414.061 335.099 395.035 342.37 370.595 342.37H302.843C271.133 342.37 258.604 329.995 258.604 302.925H301.915C302.379 308.803 308.721 308.958 314.135 308.958C330.686 308.958 359.612 309.113 367.192 309.113C371.368 309.113 372.915 307.411 372.915 303.08C372.915 300.296 371.059 299.058 366.882 299.058C345.536 298.594 323.416 297.975 302.07 297.357C275 297.357 258.758 291.788 258.758 268.585C258.758 239.659 277.784 232.389 302.225 232.389H367.656C399.211 232.389 411.741 244.764 411.741 271.834H368.429C367.965 265.801 361.778 265.646 356.209 265.646C339.658 265.646 313.362 265.646 305.628 265.646C301.451 265.646 299.904 267.193 299.904 271.524C299.904 274.309 301.451 275.391 305.628 275.391C326.974 275.855 349.094 276.474 370.595 277.093ZM466.35 287.302C466.35 301.378 473.621 308.803 485.376 308.803C493.265 308.803 499.607 308.803 507.651 308.803C519.252 308.803 526.522 301.378 526.522 287.302V234.709H571.845V287.302C571.845 324.736 545.703 342.215 519.252 342.215H473.621C447.17 342.215 421.028 324.736 421.028 287.302V234.709H466.35V287.302ZM763.195 234.709V339.895H717.718V276.165L692.35 339.895H652.596L627.383 276.165V339.895H581.905V234.709C604.953 234.709 627.847 234.709 650.585 234.709L672.55 289.932L694.361 234.709C717.409 234.709 740.302 234.709 763.195 234.709ZM954.586 234.709V339.895H909.109V276.165L883.741 339.895H843.987L818.774 276.165V339.895H773.297V234.709C796.345 234.709 819.238 234.709 841.976 234.709L863.942 289.932L885.752 234.709C908.8 234.709 931.693 234.709 954.586 234.709ZM964.688 339.895V234.709H1010.01V339.895H964.688ZM1174.5 234.709V269.204H1119.9V339.895H1074.58V269.204C1051.37 269.359 1030.65 269.359 1020.13 269.359V234.709C1071.48 234.709 1122.99 234.709 1174.5 234.709ZM1184.63 267.502V234.709H1215.88C1215.88 245.847 1215.88 256.365 1215.88 267.502C1215.88 278.64 1212.78 284.208 1204.89 290.55L1193.45 279.723C1198.86 276.165 1200.25 272.916 1200.25 267.502H1184.63ZM1356.16 269.728C1356.16 290.876 1331.31 297.372 1311.82 302.13C1301.32 304.622 1292.94 307.115 1289.92 310.816H1354.49V339.819H1227.38V322.674C1227.38 299.486 1261.59 290.876 1287.73 284.683C1303.66 280.755 1316.43 277.658 1316.43 272.296C1316.43 267.991 1309.93 264.818 1295.81 264.818C1281.08 264.97 1268.47 267.16 1268.69 276.601H1228.97C1228.97 242.386 1255.7 235.815 1294.15 235.815C1333.2 235.815 1356.16 244.954 1356.16 269.728ZM1402.91 275.09H1413.11C1453.59 275.09 1488.03 277.81 1488.03 308.777C1488.03 319.351 1482.52 327.583 1471.57 333.475C1460.61 339.366 1445.21 342.312 1425.27 342.312C1385.92 342.312 1359.25 335.514 1359.25 301.677H1398.91C1398.76 312.477 1411.37 312.024 1426.85 312.251C1441.73 312.251 1448.3 309.834 1448.3 304.471C1448.3 297.976 1444.3 292.991 1413.11 292.991H1359.25V292.764L1371.64 238.308H1480.55V265.574H1405.02L1402.91 275.09Z" fill="#200707"/>
</g>
<g opacity="0.3" filter="url(#filter1_d_1061_44)">
<path d="M19.9672 234.779V129.594C63.4334 129.594 107.054 129.594 150.675 129.594V160.686C141.549 160.686 89.2657 160.686 65.2897 160.686V169.967C91.2766 169.967 117.418 169.967 143.405 169.967V194.561H65.2897V203.688H150.675V234.779C107.054 234.779 63.4334 234.779 19.9672 234.779ZM250.032 167.337V197.036H159.696V167.337H250.032ZM370.595 171.978C397.665 171.978 414.061 177.856 414.061 201.058C414.061 229.984 395.035 237.254 370.595 237.254H302.843C271.133 237.254 258.604 224.88 258.604 197.81H301.915C302.379 203.688 308.721 203.843 314.135 203.843C330.686 203.843 359.612 203.997 367.192 203.997C371.368 203.997 372.915 202.296 372.915 197.965C372.915 195.18 371.059 193.943 366.882 193.943C345.536 193.479 323.416 192.86 302.07 192.241C275 192.241 258.758 186.673 258.758 163.47C258.758 134.544 277.784 127.274 302.225 127.274H367.656C399.211 127.274 411.741 139.649 411.741 166.718H368.429C367.965 160.686 361.778 160.531 356.209 160.531C339.658 160.531 313.362 160.531 305.628 160.531C301.451 160.531 299.904 162.078 299.904 166.409C299.904 169.193 301.451 170.276 305.628 170.276C326.974 170.74 349.094 171.359 370.595 171.978ZM466.35 182.187C466.35 196.263 473.621 203.688 485.376 203.688C493.265 203.688 499.607 203.688 507.651 203.688C519.252 203.688 526.522 196.263 526.522 182.187V129.594H571.845V182.187C571.845 219.62 545.703 237.1 519.252 237.1H473.621C447.17 237.1 421.028 219.62 421.028 182.187V129.594H466.35V182.187ZM763.195 129.594V234.779H717.718V171.049L692.35 234.779H652.596L627.383 171.049V234.779H581.905V129.594C604.953 129.594 627.847 129.594 650.585 129.594L672.55 184.816L694.361 129.594C717.409 129.594 740.302 129.594 763.195 129.594ZM954.586 129.594V234.779H909.109V171.049L883.741 234.779H843.987L818.774 171.049V234.779H773.297V129.594C796.345 129.594 819.238 129.594 841.976 129.594L863.942 184.816L885.752 129.594C908.8 129.594 931.693 129.594 954.586 129.594ZM964.688 234.779V129.594H1010.01V234.779H964.688ZM1174.5 129.594V164.089H1119.9V234.779H1074.58V164.089C1051.37 164.243 1030.65 164.243 1020.13 164.243V129.594C1071.48 129.594 1122.99 129.594 1174.5 129.594ZM1184.63 162.387V129.594H1215.88C1215.88 140.731 1215.88 151.25 1215.88 162.387C1215.88 173.524 1212.78 179.093 1204.89 185.435L1193.45 174.607C1198.86 171.049 1200.25 167.801 1200.25 162.387H1184.63ZM1356.16 164.613C1356.16 185.761 1331.31 192.256 1311.82 197.015C1301.32 199.507 1292.94 202 1289.92 205.701H1354.49V234.704H1227.38V217.559C1227.38 194.371 1261.59 185.761 1287.73 179.567C1303.66 175.64 1316.43 172.543 1316.43 167.181C1316.43 162.875 1309.93 159.703 1295.81 159.703C1281.08 159.854 1268.47 162.045 1268.69 171.486H1228.97C1228.97 137.271 1255.7 130.7 1294.15 130.7C1333.2 130.7 1356.16 139.839 1356.16 164.613ZM1402.91 169.975H1413.11C1453.59 169.975 1488.03 172.694 1488.03 203.661C1488.03 214.235 1482.52 222.468 1471.57 228.359C1460.61 234.251 1445.21 237.196 1425.27 237.196C1385.92 237.196 1359.25 230.399 1359.25 196.561H1398.91C1398.76 207.362 1411.37 206.909 1426.85 207.136C1441.73 207.136 1448.3 204.719 1448.3 199.356C1448.3 192.861 1444.3 187.876 1413.11 187.876H1359.25V187.649L1371.64 133.192H1480.55V160.458H1405.02L1402.91 169.975Z" fill="#111111"/>
</g>
<g opacity="0.13" filter="url(#filter2_d_1061_44)">
<path d="M16.2797 123.94V18.7551C59.7459 18.7551 103.367 18.7551 146.988 18.7551V49.8466C137.861 49.8466 85.5782 49.8466 61.6022 49.8466V59.1277C87.5891 59.1277 113.731 59.1277 139.718 59.1277V83.7224H61.6022V92.8488H146.988V123.94C103.367 123.94 59.7459 123.94 16.2797 123.94ZM246.344 56.498V86.1974H156.009V56.498H246.344ZM366.907 61.1386C393.977 61.1386 410.374 67.0166 410.374 90.2192C410.374 119.145 391.347 126.415 366.907 126.415H299.156C267.446 126.415 254.916 114.041 254.916 86.9708H298.228C298.692 92.8488 305.034 93.0035 310.448 93.0035C326.999 93.0035 355.925 93.1582 363.504 93.1582C367.681 93.1582 369.228 91.4566 369.228 87.1255C369.228 84.3412 367.371 83.1037 363.195 83.1037C341.849 82.6396 319.729 82.0209 298.382 81.4022C271.313 81.4022 255.071 75.8335 255.071 52.6309C255.071 23.705 274.097 16.4349 298.537 16.4349H363.968C395.524 16.4349 408.053 28.8096 408.053 55.8793H364.742C364.278 49.8466 358.09 49.6919 352.522 49.6919C335.971 49.6919 309.674 49.6919 301.94 49.6919C297.764 49.6919 296.217 51.2388 296.217 55.5699C296.217 58.3543 297.764 59.437 301.94 59.437C323.286 59.9011 345.406 60.5198 366.907 61.1386ZM462.663 71.3477C462.663 85.424 469.933 92.8488 481.689 92.8488C489.578 92.8488 495.92 92.8488 503.963 92.8488C515.565 92.8488 522.835 85.424 522.835 71.3477V18.7551H568.157V71.3477C568.157 108.781 542.016 126.261 515.565 126.261H469.933C443.482 126.261 417.34 108.781 417.34 71.3477V18.7551H462.663V71.3477ZM759.508 18.7551V123.94H714.03V60.2105L688.662 123.94H648.909L623.695 60.2105V123.94H578.218V18.7551C601.266 18.7551 624.159 18.7551 646.898 18.7551L668.863 73.9773L690.673 18.7551C713.721 18.7551 736.614 18.7551 759.508 18.7551ZM950.899 18.7551V123.94H905.422V60.2105L880.054 123.94H840.3L815.086 60.2105V123.94H769.609V18.7551C792.657 18.7551 815.55 18.7551 838.289 18.7551L860.254 73.9773L882.065 18.7551C905.112 18.7551 928.006 18.7551 950.899 18.7551ZM961 123.94V18.7551H1006.32V123.94H961ZM1170.81 18.7551V53.2497H1116.21V123.94H1070.89V53.2497C1047.69 53.4044 1026.96 53.4044 1016.44 53.4044V18.7551C1067.79 18.7551 1119.3 18.7551 1170.81 18.7551ZM1180.94 51.5482V18.7551H1212.19C1212.19 29.8924 1212.19 40.4109 1212.19 51.5482C1212.19 62.6854 1209.09 68.254 1201.21 74.5961L1189.76 63.7682C1195.17 60.2105 1196.56 56.9621 1196.56 51.5482H1180.94ZM1352.47 53.7736C1352.47 74.9218 1327.62 81.4173 1308.13 86.1756C1297.63 88.6681 1289.25 91.1606 1286.23 94.8615H1350.81V123.865H1223.69V106.72C1223.69 83.5321 1257.91 74.9218 1284.04 68.7284C1299.98 64.8008 1312.74 61.7041 1312.74 56.3415C1312.74 52.0364 1306.25 48.8641 1292.12 48.8641C1277.39 49.0152 1264.78 51.2056 1265.01 60.6467H1225.28C1225.28 26.4319 1252.01 19.8609 1290.46 19.8609C1329.51 19.8609 1352.47 28.9999 1352.47 53.7736ZM1399.22 59.1361H1409.42C1449.9 59.1361 1484.34 61.8552 1484.34 92.8222C1484.34 103.396 1478.83 111.629 1467.88 117.52C1456.93 123.412 1441.52 126.357 1421.58 126.357C1382.23 126.357 1355.57 119.56 1355.57 85.7225H1395.22C1395.07 96.5231 1407.68 96.07 1423.16 96.2966C1438.04 96.2966 1444.61 93.8796 1444.61 88.517C1444.61 82.0215 1440.61 77.0366 1409.42 77.0366H1355.57V76.81L1367.95 22.3534H1476.87V49.6194H1401.34L1399.22 59.1361Z" fill="#111111"/>
</g>
<line y1="468.645" x2="1500" y2="468.645" stroke="#E5E7EB" stroke-width="1.04167"/>
<g filter="url(#filter3_d_1061_44)">
<path d="M19.9672 445.541V340.356C63.4334 340.356 107.054 340.356 150.675 340.356V371.448C141.549 371.448 89.2657 371.448 65.2897 371.448V380.729C91.2766 380.729 117.418 380.729 143.405 380.729V405.323H65.2897V414.45H150.675V445.541C107.054 445.541 63.4334 445.541 19.9672 445.541ZM250.032 378.099V407.798H159.696V378.099H250.032ZM370.595 382.739C397.665 382.739 414.061 388.617 414.061 411.82C414.061 440.746 395.035 448.016 370.595 448.016H302.843C271.133 448.016 258.604 435.641 258.604 408.572H301.915C302.379 414.45 308.721 414.604 314.135 414.604C330.686 414.604 359.612 414.759 367.192 414.759C371.368 414.759 372.915 413.058 372.915 408.726C372.915 405.942 371.059 404.705 366.882 404.705C345.536 404.241 323.416 403.622 302.07 403.003C275 403.003 258.758 397.434 258.758 374.232C258.758 345.306 277.784 338.036 302.225 338.036H367.656C399.211 338.036 411.741 350.411 411.741 377.48H368.429C367.965 371.448 361.778 371.293 356.209 371.293C339.658 371.293 313.362 371.293 305.628 371.293C301.451 371.293 299.904 372.84 299.904 377.171C299.904 379.955 301.451 381.038 305.628 381.038C326.974 381.502 349.094 382.121 370.595 382.739ZM466.35 392.949C466.35 407.025 473.621 414.45 485.376 414.45C493.265 414.45 499.607 414.45 507.651 414.45C519.252 414.45 526.522 407.025 526.522 392.949V340.356H571.845V392.949C571.845 430.382 545.703 447.861 519.252 447.861H473.621C447.17 447.861 421.028 430.382 421.028 392.949V340.356H466.35V392.949ZM763.195 340.356V445.541H717.718V381.811L692.35 445.541H652.596L627.383 381.811V445.541H581.905V340.356C604.953 340.356 627.847 340.356 650.585 340.356L672.55 395.578L694.361 340.356C717.409 340.356 740.302 340.356 763.195 340.356ZM954.586 340.356V445.541H909.109V381.811L883.741 445.541H843.987L818.774 381.811V445.541H773.297V340.356C796.345 340.356 819.238 340.356 841.976 340.356L863.942 395.578L885.752 340.356C908.8 340.356 931.693 340.356 954.586 340.356ZM964.688 445.541V340.356H1010.01V445.541H964.688ZM1174.5 340.356V374.851H1119.9V445.541H1074.58V374.851C1051.37 375.005 1030.65 375.005 1020.13 375.005V340.356C1071.48 340.356 1122.99 340.356 1174.5 340.356ZM1184.63 373.149V340.356H1215.88C1215.88 351.493 1215.88 362.012 1215.88 373.149C1215.88 384.286 1212.78 389.855 1204.89 396.197L1193.45 385.369C1198.86 381.811 1200.25 378.563 1200.25 373.149H1184.63ZM1356.16 375.374C1356.16 396.523 1331.31 403.018 1311.82 407.777C1301.32 410.269 1292.94 412.761 1289.92 416.462H1354.49V445.466H1227.38V428.321C1227.38 405.133 1261.59 396.523 1287.73 390.329C1303.66 386.402 1316.43 383.305 1316.43 377.942C1316.43 373.637 1309.93 370.465 1295.81 370.465C1281.08 370.616 1268.47 372.806 1268.69 382.248H1228.97C1228.97 348.033 1255.7 341.462 1294.15 341.462C1333.2 341.462 1356.16 350.601 1356.16 375.374ZM1402.91 380.737H1413.11C1453.59 380.737 1488.03 383.456 1488.03 414.423C1488.03 424.997 1482.52 433.23 1471.57 439.121C1460.61 445.012 1445.21 447.958 1425.27 447.958C1385.92 447.958 1359.25 441.16 1359.25 407.323H1398.91C1398.76 418.124 1411.37 417.671 1426.85 417.897C1441.73 417.897 1448.3 415.481 1448.3 410.118C1448.3 403.622 1444.3 398.637 1413.11 398.637H1359.25V398.411L1371.64 343.954H1480.55V371.22H1405.02L1402.91 380.737Z" fill="white"/>
</g>
</g>
<defs>
<filter id="filter0_d_1061_44" x="15.9673" y="232.389" width="1476.06" height="117.98" filterUnits="userSpaceOnUse" color-interpolation-filters="sRGB">
<feFlood flood-opacity="0" result="BackgroundImageFix"/>
<feColorMatrix in="SourceAlpha" type="matrix" values="0 0 0 0 0 0 0 0 0 0 0 0 0 0 0 0 0 0 127 0" result="hardAlpha"/>
<feOffset dy="4"/>
<feGaussianBlur stdDeviation="2"/>
<feComposite in2="hardAlpha" operator="out"/>
<feColorMatrix type="matrix" values="0 0 0 0 0 0 0 0 0 0 0 0 0 0 0 0 0 0 0.25 0"/>
<feBlend mode="normal" in2="BackgroundImageFix" result="effect1_dropShadow_1061_44"/>
<feBlend mode="normal" in="SourceGraphic" in2="effect1_dropShadow_1061_44" result="shape"/>
</filter>
<filter id="filter1_d_1061_44" x="19.9673" y="126.874" width="1472.46" height="110.78" filterUnits="userSpaceOnUse" color-interpolation-filters="sRGB">
<feFlood flood-opacity="0" result="BackgroundImageFix"/>
<feColorMatrix in="SourceAlpha" type="matrix" values="0 0 0 0 0 0 0 0 0 0 0 0 0 0 0 0 0 0 127 0" result="hardAlpha"/>
<feOffset dx="4"/>
<feGaussianBlur stdDeviation="0.2"/>
<feComposite in2="hardAlpha" operator="out"/>
<feColorMatrix type="matrix" values="0 0 0 0 0 0 0 0 0 0 0 0 0 0 0 0 0 0 0.25 0"/>
<feBlend mode="normal" in2="BackgroundImageFix" result="effect1_dropShadow_1061_44"/>
<feBlend mode="normal" in="SourceGraphic" in2="effect1_dropShadow_1061_44" result="shape"/>
</filter>
<filter id="filter2_d_1061_44" x="16.2798" y="16.4349" width="1477.96" height="117.88" filterUnits="userSpaceOnUse" color-interpolation-filters="sRGB">
<feFlood flood-opacity="0" result="BackgroundImageFix"/>
<feColorMatrix in="SourceAlpha" type="matrix" values="0 0 0 0 0 0 0 0 0 0 0 0 0 0 0 0 0 0 127 0" result="hardAlpha"/>
<feOffset dx="7" dy="5"/>
<feGaussianBlur stdDeviation="1.45"/>
<feComposite in2="hardAlpha" operator="out"/>
<feColorMatrix type="matrix" values="0 0 0 0 0 0 0 0 0 0 0 0 0 0 0 0 0 0 0.83 0"/>
<feBlend mode="normal" in2="BackgroundImageFix" result="effect1_dropShadow_1061_44"/>
<feBlend mode="normal" in="SourceGraphic" in2="effect1_dropShadow_1061_44" result="shape"/>
</filter>
<filter id="filter3_d_1061_44" x="15.9673" y="338.036" width="1476.06" height="117.98" filterUnits="userSpaceOnUse" color-interpolation-filters="sRGB">
<feFlood flood-opacity="0" result="BackgroundImageFix"/>
<feColorMatrix in="SourceAlpha" type="matrix" values="0 0 0 0 0 0 0 0 0 0 0 0 0 0 0 0 0 0 127 0" result="hardAlpha"/>
<feOffset dy="4"/>
<feGaussianBlur stdDeviation="2"/>
<feComposite in2="hardAlpha" operator="out"/>
<feColorMatrix type="matrix" values="0 0 0 0 0 0 0 0 0 0 0 0 0 0 0 0 0 0 0.25 0"/>
<feBlend mode="normal" in2="BackgroundImageFix" result="effect1_dropShadow_1061_44"/>
<feBlend mode="normal" in="SourceGraphic" in2="effect1_dropShadow_1061_44" result="shape"/>
</filter>
<clipPath id="clip0_1061_44">
<rect width="1500" height="500" fill="white"/>
</clipPath>
</defs>
</svg>
