<svg width="584" height="598" viewBox="0 0 584 598" fill="none" xmlns="http://www.w3.org/2000/svg">
<path d="M205.236 27.1846L-172.03 246.945L66.964 389.003L324.658 237.098L359.594 260.818L101.852 407.382L201.246 470.58L583.877 253.442L344.86 108.714L89.8124 257.924L52.2056 234.228L304.606 87.7124L205.236 27.1846Z" fill="#BEBEBE" fill-opacity="0.2"/>
<path d="M191.228 481.211L-174.663 262.211V268.626V398.418L191.228 617.418V481.211Z" fill="#BEBEBE" fill-opacity="0.2"/>
<path d="M191.228 662.824L-174.663 443.824V450.238V580.031L191.228 799.031V662.824Z" fill="#BEBEBE" fill-opacity="0.2"/>
<path fill-rule="evenodd" clip-rule="evenodd" d="M204.582 482.549L581.155 271.561V769.651L204.582 979.305V482.549ZM271.355 800.365L332.781 688.194L303.403 666.829L423.586 576.024L410.233 741.609L380.855 722.914L330.111 821.731L514.391 720.243V399.755V397.085L271.355 533.292V800.365Z" fill="#BEBEBE" fill-opacity="0.2"/>
</svg>
