<svg width="78" height="104" viewBox="0 0 78 104" fill="none" xmlns="http://www.w3.org/2000/svg">
<path d="M38.9308 2.73653L0.270399 25.2566L24.7614 39.814L51.1686 24.2475L54.7487 26.6782L28.3365 41.6974L38.522 48.1737L77.7323 25.9223L53.2388 11.0913L27.1028 26.3817L23.249 23.9534L49.1139 8.93915L38.9308 2.73653Z" fill="white"/>
<path d="M37.4947 49.2631L0 26.821V27.4784V40.7789L37.4947 63.221V49.2631Z" fill="white"/>
<path d="M37.4947 67.8737L0 45.4316V46.0889V59.3895L37.4947 81.8316V67.8737Z" fill="white"/>
<path d="M37.4947 86.4842L0 64.0421V64.6995V78L37.4947 100.442V86.4842Z" fill="white"/>
<path fill-rule="evenodd" clip-rule="evenodd" d="M38.8631 49.2632L77.4526 27.6421V78.6841L38.8631 100.168V49.2632ZM45.7931 82.7056L52.0878 71.2109L49.0773 69.0214L61.3931 59.7162L60.0247 76.6846L57.0142 74.7688L51.8142 84.8951L70.6984 74.4951V41.653V41.3793L45.7931 55.3372V82.7056Z" fill="white"/>
</svg>
