<svg width="39" height="53" viewBox="0 0 39 53" fill="none" xmlns="http://www.w3.org/2000/svg">
<g id="Frame 420">
<path id="Vector 24" d="M19.1908 2.21592L0.133376 13.317L12.206 20.493L25.2233 12.8196L26.9881 14.0178L13.9684 21.4214L18.9893 24.6139L38.3177 13.6452L26.2438 6.33434L13.3602 13.8716L11.4605 12.6746L24.2105 5.27346L19.1908 2.21592Z" fill="white"/>
<path id="Vector 20" d="M18.4828 25.1509L0 14.0882L0 14.4122L0 20.9687L18.4828 32.0313V25.1509Z" fill="white"/>
<path id="Vector 21" d="M18.4828 34.3248L0 23.2621L0 23.5861L0 30.1425L18.4828 41.2052V34.3248Z" fill="white"/>
<path id="Vector 22" d="M18.4828 43.4989L0 32.4362L0 32.7602L0 39.3166L18.4828 50.3793V43.4989Z" fill="white"/>
<path id="Subtract" fill-rule="evenodd" clip-rule="evenodd" d="M19.1573 25.1508L38.1798 14.4928V39.6536L19.1573 50.2442L19.1573 25.1508ZM22.5303 41.2053L25.6332 35.5391L24.1492 34.4598L30.2202 29.8728L29.5457 38.2373L28.0616 37.2929L25.4983 42.2846L34.8072 37.158V20.9687V20.8338L22.5303 27.7143V41.2053Z" fill="white"/>
</g>
</svg>
