<svg width="350" height="106" viewBox="0 0 350 106" fill="none" xmlns="http://www.w3.org/2000/svg">
<path d="M2.22 60.4065V55.0565H0.27V53.8665H5.45V55.0565H3.5V60.4065H2.22ZM6.39266 60.4065V53.8665H7.67266V56.4965H10.8027V53.8665H12.0827V60.4065H10.8027V57.6765H7.67266V60.4065H6.39266ZM13.4239 60.4065V53.8665H18.2439V55.0565H14.7039V56.5165H17.6639V57.6565H14.7039V59.2265H18.2439V60.4065H13.4239ZM24.0074 60.5365C22.6274 60.5365 21.6874 59.7565 21.6874 58.5465C21.6874 57.7565 22.0874 57.2265 22.7774 56.9565V56.9365C22.2174 56.6865 21.9074 56.2065 21.9074 55.5365C21.9074 54.4465 22.7374 53.7365 24.0074 53.7365C25.2774 53.7365 26.1074 54.4465 26.1074 55.5365C26.1074 56.2065 25.7874 56.6865 25.2374 56.9365V56.9565C25.9274 57.2265 26.3274 57.7565 26.3274 58.5465C26.3274 59.7565 25.3874 60.5365 24.0074 60.5365ZM23.9774 56.4365H24.0374C24.6074 56.4365 24.9274 56.1265 24.9274 55.6365C24.9274 55.1865 24.6274 54.8465 24.0074 54.8465C23.3874 54.8465 23.0874 55.1865 23.0874 55.6365C23.0874 56.1265 23.4074 56.4365 23.9774 56.4365ZM24.0074 59.4265C24.7574 59.4265 25.1474 59.0365 25.1474 58.4365C25.1474 57.8165 24.7374 57.4665 24.0374 57.4665H23.9774C23.2774 57.4665 22.8674 57.8165 22.8674 58.4365C22.8674 59.0365 23.2574 59.4265 24.0074 59.4265ZM32.6427 60.4065V53.8665H37.4627V55.0565H33.9227V56.5165H36.8827V57.6565H33.9227V59.2265H37.4627V60.4065H32.6427ZM38.5899 60.4065V53.8665H40.9099C43.1999 53.8665 44.3999 55.1765 44.3999 57.1365C44.3999 59.0965 43.1999 60.4065 40.9099 60.4065H38.5899ZM39.8699 59.2265H40.9099C42.4199 59.2265 43.0999 58.4065 43.0999 57.1365C43.0999 55.8665 42.4199 55.0565 40.9099 55.0565H39.8699V59.2265ZM45.4163 60.4065V53.8665H46.6963V60.4065H45.4163ZM49.593 60.4065V55.0565H47.643V53.8665H52.823V55.0565H50.873V60.4065H49.593ZM53.7757 60.4065V53.8665H55.0557V60.4065H53.7757ZM59.5524 60.5365C57.5124 60.5365 56.0724 59.0965 56.0724 57.1365C56.0724 55.1765 57.5124 53.7365 59.5524 53.7365C61.5924 53.7365 63.0324 55.1765 63.0324 57.1365C63.0324 59.0965 61.5924 60.5365 59.5524 60.5365ZM59.5524 59.3565C60.8524 59.3565 61.7324 58.4165 61.7324 57.1365C61.7324 55.8565 60.8524 54.9265 59.5524 54.9265C58.2524 54.9265 57.3724 55.8565 57.3724 57.1365C57.3724 58.4165 58.2524 59.3565 59.5524 59.3565ZM63.8891 60.4065V56.4665C63.8891 54.7865 64.8791 53.7365 66.6691 53.7365C68.4591 53.7365 69.4491 54.7865 69.4491 56.4665V60.4065H68.1691V56.4665C68.1691 55.4965 67.6691 54.9265 66.6691 54.9265C65.6691 54.9265 65.1691 55.4965 65.1691 56.4665V60.4065H63.8891ZM76.447 60.5365C74.407 60.5365 72.967 59.0965 72.967 57.1365C72.967 55.1765 74.407 53.7365 76.447 53.7365C78.487 53.7365 79.927 55.1765 79.927 57.1365C79.927 59.0965 78.487 60.5365 76.447 60.5365ZM76.447 59.3565C77.747 59.3565 78.627 58.4165 78.627 57.1365C78.627 55.8565 77.747 54.9265 76.447 54.9265C75.147 54.9265 74.267 55.8565 74.267 57.1365C74.267 58.4165 75.147 59.3565 76.447 59.3565ZM80.9337 60.4065V53.8665H85.6737V55.0565H82.2137V56.4965H85.0937V57.6565H82.2137V60.4065H80.9337ZM277.36 60.4065V53.8665H278.64V60.4065H277.36ZM279.836 60.4065V56.4665C279.836 54.7865 280.826 53.7365 282.616 53.7365C284.406 53.7365 285.396 54.7865 285.396 56.4665V60.4065H284.116V56.4665C284.116 55.4965 283.616 54.9265 282.616 54.9265C281.616 54.9265 281.116 55.4965 281.116 56.4665V60.4065H279.836ZM291.334 60.5365C289.884 60.5365 288.934 59.7665 288.904 58.5165H290.154C290.164 59.0365 290.554 59.3865 291.334 59.3865C292.124 59.3865 292.514 59.0365 292.514 58.5165C292.514 57.9465 291.904 57.8365 291.194 57.7065C290.204 57.5265 289.034 57.3165 289.034 55.7965C289.034 54.5865 289.954 53.7365 291.344 53.7365C292.694 53.7365 293.604 54.5465 293.654 55.7465H292.444C292.434 55.2465 292.064 54.8865 291.354 54.8865C290.634 54.8865 290.274 55.2765 290.274 55.7565C290.274 56.3265 290.884 56.4365 291.594 56.5665C292.584 56.7465 293.764 56.9565 293.764 58.4765C293.764 59.7465 292.794 60.5365 291.334 60.5365ZM297.922 60.5365C295.882 60.5365 294.442 59.0965 294.442 57.1365C294.442 55.1765 295.882 53.7365 297.922 53.7365C299.962 53.7365 301.402 55.1765 301.402 57.1365C301.402 59.0965 299.962 60.5365 297.922 60.5365ZM297.922 59.3565C299.222 59.3565 300.102 58.4165 300.102 57.1365C300.102 55.8565 299.222 54.9265 297.922 54.9265C296.622 54.9265 295.742 55.8565 295.742 57.1365C295.742 58.4165 296.622 59.3565 297.922 59.3565ZM305.038 60.5365C303.248 60.5365 302.258 59.4865 302.258 57.8065V53.8665H303.538V57.8065C303.538 58.7765 304.038 59.3565 305.028 59.3565C306.038 59.3565 306.528 58.7765 306.528 57.8065V53.8665H307.778V57.8065C307.778 59.4765 306.798 60.5365 305.038 60.5365ZM310.511 60.4065V55.0565H308.561V53.8665H313.741V55.0565H311.791V60.4065H310.511ZM314.684 60.4065V53.8665H315.964V56.4965H319.094V53.8665H320.374V60.4065H319.094V57.6765H315.964V60.4065H314.684ZM324.381 60.4065V53.8665H325.661V60.4065H324.381ZM326.858 60.4065V56.4665C326.858 54.7865 327.848 53.7365 329.638 53.7365C331.428 53.7365 332.418 54.7865 332.418 56.4665V60.4065H331.138V56.4665C331.138 55.4965 330.638 54.9265 329.638 54.9265C328.638 54.9265 328.138 55.4965 328.138 56.4665V60.4065H326.858ZM333.609 60.4065V53.8665H335.929C338.219 53.8665 339.419 55.1765 339.419 57.1365C339.419 59.0965 338.219 60.4065 335.929 60.4065H333.609ZM334.889 59.2265H335.929C337.439 59.2265 338.119 58.4065 338.119 57.1365C338.119 55.8665 337.439 55.0565 335.929 55.0565H334.889V59.2265ZM340.436 60.4065V53.8665H341.716V60.4065H340.436ZM342.903 60.4065V56.5765C342.903 54.8265 343.903 53.7365 345.753 53.7365C347.603 53.7365 348.623 54.8265 348.623 56.5765V60.4065H347.343V58.4465H344.153V60.4065H342.903ZM344.153 57.2865H347.343V56.5765C347.343 55.5265 346.823 54.9265 345.743 54.9265C344.673 54.9265 344.153 55.5265 344.153 56.5765V57.2865Z" fill="white" fill-opacity="0.8"/>
<path d="M90.843 60.4065V55.0565H88.893V53.8665H94.073V55.0565H92.123V60.4065H90.843ZM95.0157 60.4065V53.8665H96.2957V56.4965H99.4257V53.8665H100.706V60.4065H99.4257V57.6765H96.2957V60.4065H95.0157ZM102.047 60.4065V53.8665H106.867V55.0565H103.327V56.5165H106.287V57.6565H103.327V59.2265H106.867V60.4065H102.047ZM110.65 60.4065V53.8665H113.78C115.02 53.8665 115.67 54.5765 115.67 55.5665C115.67 56.2265 115.36 56.7365 114.82 57.0065V57.0265C115.54 57.2565 115.97 57.8565 115.97 58.6365C115.97 59.6565 115.31 60.4065 114.04 60.4065H110.65ZM111.93 56.5165H113.62C114.15 56.5165 114.4 56.1965 114.4 55.7865C114.4 55.3665 114.2 55.0565 113.61 55.0565H111.93V56.5165ZM111.93 59.2265H113.82C114.42 59.2265 114.66 58.8765 114.66 58.4465C114.66 58.0065 114.36 57.6565 113.83 57.6565H111.93V59.2265ZM116.91 60.4065V53.8665H118.19V60.4065H116.91ZM122.687 60.5365C120.647 60.5365 119.207 59.0965 119.207 57.1365C119.207 55.1765 120.647 53.7365 122.687 53.7365C124.287 53.7365 125.517 54.6165 125.977 55.9465H124.557C124.207 55.3165 123.527 54.9265 122.687 54.9265C121.387 54.9265 120.507 55.8565 120.507 57.1365C120.507 58.4165 121.387 59.3565 122.687 59.3565C123.707 59.3565 124.457 58.8865 124.777 57.9965H122.287V56.8565H126.157V57.4665C126.007 59.2565 124.607 60.5365 122.687 60.5365ZM130.256 60.5365C128.216 60.5365 126.776 59.0965 126.776 57.1365C126.776 55.1765 128.216 53.7365 130.256 53.7365C131.856 53.7365 133.086 54.6165 133.546 55.9465H132.126C131.776 55.3165 131.096 54.9265 130.256 54.9265C128.956 54.9265 128.076 55.8565 128.076 57.1365C128.076 58.4165 128.956 59.3565 130.256 59.3565C131.276 59.3565 132.026 58.8865 132.346 57.9965H129.856V56.8565H133.726V57.4665C133.576 59.2565 132.176 60.5365 130.256 60.5365ZM134.674 60.4065V53.8665H139.494V55.0565H135.954V56.5165H138.914V57.6565H135.954V59.2265H139.494V60.4065H134.674ZM142.711 60.5365C141.261 60.5365 140.311 59.7665 140.281 58.5165H141.531C141.541 59.0365 141.931 59.3865 142.711 59.3865C143.501 59.3865 143.891 59.0365 143.891 58.5165C143.891 57.9465 143.281 57.8365 142.571 57.7065C141.581 57.5265 140.411 57.3165 140.411 55.7965C140.411 54.5865 141.331 53.7365 142.721 53.7365C144.071 53.7365 144.981 54.5465 145.031 55.7465H143.821C143.811 55.2465 143.441 54.8865 142.731 54.8865C142.011 54.8865 141.651 55.2765 141.651 55.7565C141.651 56.3265 142.261 56.4365 142.971 56.5665C143.961 56.7465 145.141 56.9565 145.141 58.4765C145.141 59.7465 144.171 60.5365 142.711 60.5365ZM147.484 60.4065V55.0565H145.534V53.8665H150.714V55.0565H148.764V60.4065H147.484ZM154.313 60.4065V53.8665H159.133V55.0565H155.593V56.5165H158.553V57.6565H155.593V59.2265H159.133V60.4065H154.313ZM160.11 60.4065V56.4665C160.11 54.7865 161.1 53.7365 162.89 53.7365C164.68 53.7365 165.67 54.7865 165.67 56.4665V60.4065H164.39V56.4665C164.39 55.4965 163.89 54.9265 162.89 54.9265C161.89 54.9265 161.39 55.4965 161.39 56.4665V60.4065H160.11ZM168.197 60.4065V55.0565H166.247V53.8665H171.427V55.0565H169.477V60.4065H168.197ZM172.369 60.4065V53.8665H175.109C176.769 53.8665 177.499 54.7765 177.499 56.0265C177.499 57.0565 177.009 57.7665 176.129 58.0565L177.739 60.4065H176.219L174.829 58.1965H173.649V60.4065H172.369ZM173.649 57.0065H175.129C175.939 57.0065 176.209 56.5865 176.209 56.0265C176.209 55.4665 175.939 55.0565 175.129 55.0565H173.649V57.0065ZM178.629 60.4065V53.8665H183.449V55.0565H179.909V56.5165H182.869V57.6565H179.909V59.2265H183.449V60.4065H178.629ZM184.576 60.4065V53.8665H187.246C188.946 53.8665 189.706 54.8065 189.706 56.0865C189.706 57.3665 188.946 58.3065 187.246 58.3065H185.856V60.4065H184.576ZM185.856 57.1265H187.266C188.116 57.1265 188.406 56.6865 188.406 56.0865C188.406 55.4965 188.116 55.0565 187.266 55.0565H185.856V57.1265ZM190.582 60.4065V53.8665H193.322C194.982 53.8665 195.712 54.7765 195.712 56.0265C195.712 57.0565 195.222 57.7665 194.342 58.0565L195.952 60.4065H194.432L193.042 58.1965H191.862V60.4065H190.582ZM191.862 57.0065H193.342C194.152 57.0065 194.422 56.5865 194.422 56.0265C194.422 55.4665 194.152 55.0565 193.342 55.0565H191.862V57.0065ZM196.842 60.4065V53.8665H201.662V55.0565H198.122V56.5165H201.082V57.6565H198.122V59.2265H201.662V60.4065H196.842ZM202.639 60.4065V56.4665C202.639 54.7865 203.629 53.7365 205.419 53.7365C207.209 53.7365 208.199 54.7865 208.199 56.4665V60.4065H206.919V56.4665C206.919 55.4965 206.419 54.9265 205.419 54.9265C204.419 54.9265 203.919 55.4965 203.919 56.4665V60.4065H202.639ZM209.391 60.4065V53.8665H214.211V55.0565H210.671V56.5165H213.631V57.6565H210.671V59.2265H214.211V60.4065H209.391ZM217.968 60.5365C216.178 60.5365 215.188 59.4865 215.188 57.8065V53.8665H216.468V57.8065C216.468 58.7765 216.968 59.3565 217.958 59.3565C218.968 59.3565 219.458 58.7765 219.458 57.8065V53.8665H220.708V57.8065C220.708 59.4765 219.728 60.5365 217.968 60.5365ZM221.891 60.4065V53.8665H224.631C226.291 53.8665 227.021 54.7765 227.021 56.0265C227.021 57.0565 226.531 57.7665 225.651 58.0565L227.261 60.4065H225.741L224.351 58.1965H223.171V60.4065H221.891ZM223.171 57.0065H224.651C225.461 57.0065 225.731 56.5865 225.731 56.0265C225.731 55.4665 225.461 55.0565 224.651 55.0565H223.171V57.0065ZM230.24 60.5365C228.79 60.5365 227.84 59.7665 227.81 58.5165H229.06C229.07 59.0365 229.46 59.3865 230.24 59.3865C231.03 59.3865 231.42 59.0365 231.42 58.5165C231.42 57.9465 230.81 57.8365 230.1 57.7065C229.11 57.5265 227.94 57.3165 227.94 55.7965C227.94 54.5865 228.86 53.7365 230.25 53.7365C231.6 53.7365 232.51 54.5465 232.56 55.7465H231.35C231.34 55.2465 230.97 54.8865 230.26 54.8865C229.54 54.8865 229.18 55.2765 229.18 55.7565C229.18 56.3265 229.79 56.4365 230.5 56.5665C231.49 56.7465 232.67 56.9565 232.67 58.4765C232.67 59.7465 231.7 60.5365 230.24 60.5365ZM233.678 60.4065V53.8665H234.958V56.4965H238.088V53.8665H239.368V60.4065H238.088V57.6765H234.958V60.4065H233.678ZM240.719 60.4065V53.8665H241.999V60.4065H240.719ZM243.346 60.4065V53.8665H246.016C247.716 53.8665 248.476 54.8065 248.476 56.0865C248.476 57.3665 247.716 58.3065 246.016 58.3065H244.626V60.4065H243.346ZM244.626 57.1265H246.036C246.886 57.1265 247.176 56.6865 247.176 56.0865C247.176 55.4965 246.886 55.0565 246.036 55.0565H244.626V57.1265ZM252.008 60.4065V53.8665H256.748V55.0565H253.288V56.4965H256.168V57.6565H253.288V60.4065H252.008ZM257.711 60.4065V53.8665H262.531V55.0565H258.991V56.5165H261.951V57.6565H258.991V59.2265H262.531V60.4065H257.711ZM265.748 60.5365C264.298 60.5365 263.348 59.7665 263.318 58.5165H264.568C264.578 59.0365 264.968 59.3865 265.748 59.3865C266.538 59.3865 266.928 59.0365 266.928 58.5165C266.928 57.9465 266.318 57.8365 265.608 57.7065C264.618 57.5265 263.448 57.3165 263.448 55.7965C263.448 54.5865 264.368 53.7365 265.758 53.7365C267.108 53.7365 268.018 54.5465 268.068 55.7465H266.858C266.848 55.2465 266.478 54.8865 265.768 54.8865C265.048 54.8865 264.688 55.2765 264.688 55.7565C264.688 56.3265 265.298 56.4365 266.008 56.5665C266.998 56.7465 268.178 56.9565 268.178 58.4765C268.178 59.7465 267.208 60.5365 265.748 60.5365ZM270.521 60.4065V55.0565H268.571V53.8665H273.751V55.0565H271.801V60.4065H270.521Z" fill="black"/>
<path d="M109.04 9V0.707279H115.126V1.54416H109.953V4.3718H114.391V5.20868H109.953V8.16312H115.126V9H109.04ZM116.543 5.99484V4.95508H121.26V5.99484H116.543ZM126.94 9.16484C124.353 9.16484 122.527 7.33892 122.527 4.85364C122.527 2.36836 124.353 0.542439 126.94 0.542439C129.019 0.542439 130.617 1.72168 131.149 3.4842H130.186C129.691 2.2162 128.487 1.37932 126.94 1.37932C124.873 1.37932 123.44 2.8502 123.44 4.85364C123.44 6.85708 124.873 8.32796 126.94 8.32796C128.487 8.32796 129.691 7.49108 130.186 6.22308H131.149C130.617 7.9856 129.019 9.16484 126.94 9.16484ZM132.468 9V0.707279H138.554V1.54416H133.381V4.3718H137.819V5.20868H133.381V8.16312H138.554V9H132.468ZM139.984 9V0.707279H140.897V8.16312H145.918V9H139.984ZM147.092 9V0.707279H148.005V8.16312H153.026V9H147.092ZM154.25 10.5723L154.669 9.1268C154.403 9.0634 154.225 8.8098 154.225 8.51816C154.225 8.15044 154.504 7.87148 154.872 7.87148C155.227 7.87148 155.506 8.15044 155.506 8.51816C155.506 8.6196 155.468 8.77176 155.43 8.8732L154.758 10.5723H154.25ZM163.366 9L160.069 0.707279H161.083L163.873 7.94756L166.663 0.707279H167.652L164.342 9H163.366ZM168.862 9V0.707279H169.775V9H168.862ZM173.806 9V1.54416H170.991V0.707279H177.534V1.54416H174.719V9H173.806ZM182.098 9V0.707279H185.687C187.69 0.707279 188.578 1.82312 188.578 3.34472C188.578 4.85364 187.677 5.99484 185.687 5.99484H183.011V9H182.098ZM183.011 5.15796H185.699C187.132 5.15796 187.652 4.3718 187.652 3.34472C187.652 2.31764 187.132 1.54416 185.699 1.54416H183.011V5.15796ZM189.689 9V0.707279H193.353C195.306 0.707279 196.168 1.79776 196.168 3.26864C196.168 4.63808 195.433 5.55104 194.076 5.80464L196.473 9H195.37L193.125 5.85536H190.602V9H189.689ZM190.602 5.01848H193.366C194.748 5.01848 195.243 4.25768 195.243 3.26864C195.243 2.2796 194.748 1.54416 193.366 1.54416H190.602V5.01848ZM197.676 9V0.707279H203.762V1.54416H198.589V4.3718H203.027V5.20868H198.589V8.16312H203.762V9H197.676ZM207.804 9.16484C206.004 9.16484 204.812 8.21384 204.774 6.66688H205.674C205.712 7.71932 206.486 8.32796 207.804 8.32796C209.123 8.32796 209.934 7.68128 209.934 6.66688C209.934 5.5764 208.882 5.3862 207.754 5.22136C206.409 5.03116 204.964 4.77756 204.964 3.01504C204.964 1.54416 206.105 0.542439 207.817 0.542439C209.491 0.542439 210.607 1.49344 210.657 2.93896H209.782C209.732 1.98796 209.009 1.37932 207.817 1.37932C206.612 1.37932 205.852 2.01332 205.852 2.98968C205.852 4.0548 206.891 4.23232 208.02 4.40984C209.364 4.6254 210.822 4.86632 210.822 6.64152C210.822 8.18848 209.63 9.16484 207.804 9.16484ZM212.139 9V0.707279H218.225V1.54416H213.052V4.3718H217.49V5.20868H213.052V8.16312H218.225V9H212.139ZM219.465 9V3.96604C219.465 1.87384 220.708 0.542439 222.952 0.542439C225.184 0.542439 226.426 1.87384 226.426 3.96604V9H225.513V3.96604C225.513 2.36836 224.626 1.37932 222.952 1.37932C221.266 1.37932 220.378 2.36836 220.378 3.96604V9H219.465ZM229.975 9V1.54416H227.16V0.707279H233.703V1.54416H230.888V9H229.975ZM237.325 9.16484C235.524 9.16484 234.332 8.21384 234.294 6.66688H235.195C235.233 7.71932 236.006 8.32796 237.325 8.32796C238.644 8.32796 239.455 7.68128 239.455 6.66688C239.455 5.5764 238.403 5.3862 237.274 5.22136C235.93 5.03116 234.485 4.77756 234.485 3.01504C234.485 1.54416 235.626 0.542439 237.338 0.542439C239.011 0.542439 240.127 1.49344 240.178 2.93896H239.303C239.252 1.98796 238.529 1.37932 237.338 1.37932C236.133 1.37932 235.372 2.01332 235.372 2.98968C235.372 4.0548 236.412 4.23232 237.54 4.40984C238.884 4.6254 240.343 4.86632 240.343 6.64152C240.343 8.18848 239.151 9.16484 237.325 9.16484Z" fill="#FFE5D6"/>
<path d="M0.00476074 43.9525V18.1527H32.0649V25.7788H11.1215V28.0553H30.2816V34.0879H11.1215V36.3264H32.0649V43.9525H0.00476074ZM56.4351 27.4103V34.6949H34.2776V27.4103H56.4351ZM86.0068 28.5485C89.5733 28.5485 92.2418 29.067 94.0124 30.1041C95.7829 31.1158 96.6682 32.9749 96.6682 35.6814C96.6682 37.4014 96.4026 38.8558 95.8715 40.0446C95.3403 41.2334 94.5688 42.1566 93.5571 42.8143C92.5453 43.4466 91.4324 43.8893 90.2183 44.1422C89.0042 44.4205 87.6003 44.5596 86.0068 44.5596H69.3887C65.544 44.5596 62.7743 43.7881 61.0796 42.2452C59.3849 40.7022 58.5376 38.2487 58.5376 34.8846H69.161C69.1863 35.3399 69.376 35.6814 69.7302 35.909C70.0843 36.1367 70.4257 36.2758 70.7546 36.3264C71.1087 36.3517 71.5766 36.3643 72.1584 36.3643C73.7013 36.3643 76.1422 36.377 79.481 36.4023C82.8451 36.4023 84.7421 36.4023 85.1721 36.4023C85.678 36.4023 86.0321 36.2884 86.2345 36.0608C86.4621 35.8332 86.5759 35.4537 86.5759 34.9226C86.5759 34.2649 86.0827 33.9361 85.0962 33.9361C81.0998 33.8602 75.8007 33.7211 69.199 33.5188C65.6072 33.5188 62.9387 33.0129 61.1934 32.0011C59.4482 30.9894 58.5755 29.1429 58.5755 26.4617C58.5755 24.7417 58.8411 23.2873 59.3723 22.0985C59.9034 20.9097 60.6749 19.9991 61.6867 19.3668C62.6984 18.7091 63.8114 18.2538 65.0255 18.0009C66.2396 17.7227 67.6434 17.5836 69.2369 17.5836H85.2859C89.1053 17.5836 91.8624 18.355 93.5571 19.898C95.2518 21.4409 96.0991 23.8944 96.0991 27.2585H85.4757C85.4504 26.8032 85.2607 26.4617 84.9065 26.2341C84.5524 25.9811 84.211 25.842 83.8821 25.8167C83.5533 25.7662 83.0854 25.7409 82.4783 25.7409H70.0716C69.5657 25.7409 69.199 25.8547 68.9713 26.0823C68.769 26.2847 68.6678 26.6514 68.6678 27.1826C68.6678 27.815 69.1357 28.1311 70.0716 28.1311C73.9669 28.207 79.2786 28.3461 86.0068 28.5485ZM109.494 31.0526C109.494 32.7473 109.898 34.0499 110.708 34.9605C111.543 35.8711 112.693 36.3264 114.16 36.3264H119.624C121.066 36.3264 122.191 35.8711 123.001 34.9605C123.835 34.0499 124.253 32.7473 124.253 31.0526V18.1527H135.369V31.0526C135.369 33.2532 135.003 35.2387 134.269 37.0093C133.536 38.7799 132.549 40.1964 131.31 41.2587C130.096 42.3211 128.73 43.1305 127.212 43.6869C125.72 44.2434 124.139 44.5216 122.47 44.5216H111.277C109.608 44.5216 108.014 44.2434 106.496 43.6869C105.004 43.1305 103.638 42.3211 102.399 41.2587C101.185 40.1964 100.211 38.7799 99.4773 37.0093C98.7438 35.2387 98.3771 33.2532 98.3771 31.0526V18.1527H109.494V31.0526ZM182.304 18.1527V43.9525H171.149V28.3208L164.927 43.9525H155.176L148.992 28.3208V43.9525H137.837V18.1527H154.683L160.071 31.6976L165.42 18.1527H182.304ZM229.248 18.1527V43.9525H218.094V28.3208L211.871 43.9525H202.121L195.936 28.3208V43.9525H184.782V18.1527H201.627L207.015 31.6976L212.365 18.1527H229.248ZM231.726 43.9525V18.1527H242.843V43.9525H231.726ZM283.189 18.1527V26.6135H269.796V43.9525H258.679V26.6135C254.885 26.6388 250.434 26.6514 245.324 26.6514V18.1527H283.189ZM285.673 26.1961V18.1527H293.338V26.1961C293.338 27.5367 293.135 28.6117 292.73 29.4211C292.326 30.2305 291.63 31.0399 290.644 31.8494L287.836 29.1935C288.468 28.7635 288.898 28.3335 289.126 27.9035C289.379 27.4482 289.505 26.8791 289.505 26.1961H285.673ZM321.725 24.0187C321.725 25.0685 321.57 26.0442 321.262 26.9458C320.965 27.8474 320.582 28.6131 320.113 29.243C319.656 29.8729 319.076 30.5151 318.372 31.1697C317.68 31.8243 317.007 32.3924 316.352 32.8741C315.698 33.3434 314.95 33.9115 314.111 34.5784C313.283 35.2454 312.573 35.8752 311.98 36.4681C312.82 36.4681 314.104 36.4434 315.834 36.394C317.575 36.3446 318.896 36.3199 319.798 36.3199C320.65 36.3199 321.225 36.6101 321.521 37.1906C321.83 37.7587 321.984 38.58 321.984 39.6545C321.984 39.988 321.966 40.5561 321.929 41.3589C321.892 42.1493 321.873 42.7545 321.873 43.1744V43.5079C321.873 43.6932 321.861 43.8352 321.836 43.934C321.811 44.0328 321.743 44.1254 321.632 44.2119C321.521 44.2983 321.354 44.3601 321.132 44.3971H319.798C318.859 44.3724 316.859 44.323 313.796 44.2489C308.855 44.2489 303.458 44.3477 297.604 44.5453V44.1748C297.419 44.0637 297.264 43.8414 297.141 43.5079C297.03 43.1744 296.974 42.8039 296.974 42.3963V36.9868C296.974 36.7027 297.394 36.2828 298.234 35.727C301.63 33.4298 304.063 31.7625 305.533 30.7251L306.682 29.8358C309.35 27.7609 310.683 25.9083 310.683 24.2781C310.683 23.7593 310.529 23.3518 310.22 23.0553C309.924 22.7589 309.522 22.6107 309.016 22.6107C308.584 22.6107 308.238 22.7095 307.979 22.9071C307.732 23.0924 307.559 23.3271 307.46 23.6111C307.373 23.8828 307.299 24.1607 307.238 24.4448C307.188 24.7289 307.108 24.9882 306.997 25.2229C306.898 25.4575 306.744 25.5996 306.534 25.649H297.938C297.246 25.649 296.9 25.4637 296.9 25.0932C297.085 23.3147 297.511 21.7894 298.178 20.5173C298.845 19.2328 299.735 18.2201 300.846 17.4791C301.958 16.738 303.211 16.2008 304.607 15.8673C306.002 15.5215 307.596 15.3486 309.387 15.3486C310.683 15.3486 311.918 15.4536 313.092 15.6635C314.265 15.8611 315.383 16.1884 316.445 16.6454C317.507 17.09 318.421 17.6458 319.187 18.3127C319.965 18.9673 320.582 19.7824 321.039 20.7581C321.496 21.7338 321.725 22.8207 321.725 24.0187ZM324.059 36.5422C324.059 36.2705 324.244 36.0914 324.615 36.0049C324.998 35.9185 325.553 35.8752 326.282 35.8752H329.32C329.864 35.8752 330.667 35.8938 331.729 35.9308C332.791 35.9679 333.618 35.9864 334.211 35.9864C334.421 36.0111 334.576 36.1284 334.674 36.3384C334.785 36.5483 334.86 36.7707 334.897 37.0053C334.934 37.24 335.032 37.4561 335.193 37.6537C335.354 37.8513 335.594 37.9501 335.916 37.9501C337.151 37.9501 337.768 36.9127 337.768 34.8378C337.768 34.3932 337.75 34.0103 337.713 33.6892C337.676 33.3557 337.601 33.0099 337.49 32.6517C337.379 32.2936 337.194 32.0219 336.934 31.8366C336.687 31.639 336.373 31.5402 335.99 31.5402C335.545 31.5402 335.218 31.6513 335.008 31.8737C334.81 32.096 334.705 32.343 334.693 32.6147C334.681 32.8864 334.613 33.1334 334.489 33.3557C334.366 33.578 334.149 33.6892 333.841 33.6892H325.615C325.245 33.1581 325.059 32.4047 325.059 31.429V17.6087C325.059 17.3 325.066 17.0715 325.078 16.9233C325.09 16.7627 325.127 16.5775 325.189 16.3675C325.263 16.1576 325.368 15.9785 325.504 15.8303H345.882C346.142 15.8303 346.383 15.8858 346.605 15.997C346.84 16.1082 346.982 16.2625 347.031 16.4601V20.0542C347.031 20.1406 347.031 20.2641 347.031 20.4247C347.031 21.7709 346.994 22.5799 346.92 22.8516C346.858 23.1109 346.636 23.2406 346.253 23.2406C343.585 23.2406 339.682 23.2653 334.545 23.3147C334.508 23.6852 334.464 24.2472 334.415 25.0006C334.366 25.7539 334.322 26.3159 334.285 26.6864C334.903 26.2418 335.693 25.896 336.657 25.649C337.62 25.402 338.571 25.2785 339.51 25.2785C342.251 25.2785 344.45 26.1183 346.105 27.798C347.76 29.4653 348.587 31.6143 348.587 34.245C348.587 35.8011 348.34 37.2029 347.846 38.4503C347.365 39.6977 346.722 40.7228 345.92 41.5256C345.117 42.3284 344.166 43.0015 343.067 43.5449C341.98 44.076 340.862 44.4527 339.713 44.675C338.565 44.9097 337.373 45.027 336.138 45.027C335.31 45.027 334.532 44.9961 333.804 44.9344C333.087 44.8726 332.334 44.7615 331.543 44.6009C330.753 44.4404 330.031 44.2242 329.376 43.9525C328.721 43.6932 328.079 43.3473 327.449 42.9151C326.832 42.4704 326.294 41.9641 325.837 41.3959C325.393 40.8155 325.01 40.1115 324.689 39.284C324.368 38.4565 324.158 37.5426 324.059 36.5422Z" fill="white"/>
<path d="M27.7934 55.9484C27.7264 55.9781 27.6433 56.0079 27.5441 56.0376C27.4474 56.0674 27.3457 56.0823 27.2391 56.0823C27.1697 56.0823 27.1039 56.0736 27.0419 56.0562C26.9824 56.0389 26.9291 56.0116 26.882 55.9744C26.8373 55.9347 26.8014 55.8851 26.7741 55.8256C26.7468 55.7636 26.7332 55.6892 26.7332 55.6024V54.4827H26.4802V54.0995H26.7332V53.4671H27.2317V54.0995H27.6446V54.4827H27.2317V55.435C27.2317 55.5044 27.2503 55.554 27.2875 55.5838C27.3247 55.6111 27.3693 55.6247 27.4214 55.6247C27.4735 55.6247 27.5243 55.616 27.5739 55.5987C27.6235 55.5813 27.6632 55.5664 27.6929 55.554L27.7934 55.9484ZM29.9652 56.0488H29.4668V54.9551C29.4668 54.8014 29.4382 54.6885 29.3812 54.6166C29.3242 54.5422 29.2436 54.505 29.1394 54.505C29.0948 54.505 29.0476 54.5149 28.998 54.5348C28.9484 54.5546 28.9013 54.5831 28.8567 54.6203C28.812 54.655 28.7711 54.6972 28.7339 54.7468C28.6967 54.7964 28.6694 54.851 28.6521 54.9105V56.0488H28.1536V53.3332H28.6521V54.4604C28.724 54.3339 28.8207 54.2372 28.9422 54.1702C29.0662 54.1008 29.2026 54.066 29.3514 54.066C29.4779 54.066 29.5808 54.0884 29.6602 54.133C29.7396 54.1752 29.8016 54.2322 29.8462 54.3041C29.8908 54.376 29.9218 54.4579 29.9392 54.5496C29.9566 54.6414 29.9652 54.7356 29.9652 54.8324V56.0488Z" fill="white" fill-opacity="0.8"/>
<g style="mix-blend-mode:hard-light">
<path d="M94.232 94.352C93.6987 94.8213 92.9307 95.056 91.928 95.056C92.1947 95.5253 92.328 95.952 92.328 96.336C92.328 97.0827 92.0773 97.6587 91.576 98.064C91.0853 98.4693 90.456 98.672 89.688 98.672C88.6853 98.672 87.8 98.3147 87.032 97.6C86.2747 96.8747 85.6613 95.84 85.192 94.496C85.1813 94.4747 85.176 94.4427 85.176 94.4C85.176 94.304 85.2293 94.2187 85.336 94.144C85.4427 94.0693 85.56 94.032 85.688 94.032C85.8267 94.032 85.912 94.064 85.944 94.128C86.36 95.3333 86.8667 96.2293 87.464 96.816C88.072 97.392 88.776 97.68 89.576 97.68C90.0347 97.68 90.3867 97.5573 90.632 97.312C90.8773 97.056 91 96.688 91 96.208C91 95.8453 90.904 95.504 90.712 95.184C90.52 94.8533 90.2107 94.528 89.784 94.208C89.4213 94.272 89.112 94.304 88.856 94.304C88.792 94.304 88.7387 94.2613 88.696 94.176C88.6533 94.0907 88.632 93.9947 88.632 93.888C88.632 93.728 88.68 93.648 88.776 93.648C89.4587 93.6267 89.9707 93.4613 90.312 93.152C90.6533 92.832 90.824 92.3573 90.824 91.728C90.824 91.1627 90.696 90.7413 90.44 90.464C90.184 90.1867 89.8587 90.048 89.464 90.048C89.0267 90.048 88.6853 90.16 88.44 90.384C88.1947 90.5973 88.072 90.88 88.072 91.232C88.072 91.456 88.088 91.6213 88.12 91.728C88.1627 91.8347 88.184 91.904 88.184 91.936C88.184 92.0107 88.1253 92.048 88.008 92.048C87.7093 92.048 87.464 91.9467 87.272 91.744C87.08 91.5413 86.984 91.264 86.984 90.912C86.984 90.4747 87.2027 90.1173 87.64 89.84C88.0773 89.5627 88.68 89.424 89.448 89.424C90.2907 89.424 90.9467 89.6373 91.416 90.064C91.896 90.4907 92.136 91.04 92.136 91.712C92.136 92.16 92.0347 92.56 91.832 92.912C91.64 93.264 91.3413 93.552 90.936 93.776C91.2347 94.0853 91.6827 94.24 92.28 94.24C92.664 94.24 93.0107 94.176 93.32 94.048C93.64 93.92 93.944 93.712 94.232 93.424V90.304H92.536V89.6H97.208V90.304H95.592V100H94.232V94.352ZM107.992 90.304H106.376V100.016H105.032V95.472H100.28C99.864 95.472 99.5813 95.392 99.432 95.232C99.8373 96.032 100.264 96.72 100.712 97.296C101.171 97.872 101.848 98.6133 102.744 99.52C102.787 99.552 102.808 99.5947 102.808 99.648C102.808 99.7333 102.755 99.84 102.648 99.968C102.552 100.096 102.477 100.16 102.424 100.16C102.392 100.16 102.36 100.144 102.328 100.112C101.88 99.7707 101.267 99.2373 100.488 98.512C99.72 97.7867 99.032 97.04 98.424 96.272C97.816 95.4933 97.512 94.8587 97.512 94.368C97.512 94.08 97.608 93.8347 97.8 93.632C97.992 93.4187 98.2587 93.312 98.6 93.312C98.8453 93.312 99.064 93.3973 99.256 93.568C99.448 93.7387 99.6293 93.9947 99.8 94.336C100.269 94.1653 100.627 93.8933 100.872 93.52C101.128 93.1467 101.256 92.7413 101.256 92.304C101.256 91.952 101.192 91.5893 101.064 91.216C100.947 90.832 100.803 90.5227 100.632 90.288L96.792 90.304V89.6H107.992V90.304ZM105.032 90.304L101.48 90.288C101.768 90.4693 102.024 90.7467 102.248 91.12C102.483 91.4933 102.6 91.8987 102.6 92.336C102.6 92.816 102.451 93.2587 102.152 93.664C101.853 94.0693 101.453 94.4 100.952 94.656H105.032V90.304ZM115.093 95.776H110.757C110.693 96.1493 110.517 96.448 110.229 96.672C109.952 96.8853 109.627 96.992 109.253 96.992C108.827 96.992 108.464 96.8587 108.165 96.592C107.877 96.3147 107.733 95.9573 107.733 95.52C107.733 95.3173 107.771 95.1467 107.845 95.008C107.931 94.8693 108.048 94.8 108.197 94.8C108.272 94.8 108.405 94.8213 108.597 94.864C108.917 94.9387 109.2 94.976 109.445 94.976V90.304H107.573V89.6H114.469V90.304H110.773V94.976H115.093V95.776ZM125.274 89.6V90.304H123.674V100H122.314V95.776H119.082C119.018 96.1493 118.842 96.448 118.554 96.672C118.277 96.8853 117.951 96.992 117.578 96.992C117.151 96.992 116.789 96.8587 116.49 96.592C116.202 96.3147 116.058 95.9573 116.058 95.52C116.058 95.3173 116.101 95.1467 116.186 95.008C116.271 94.8693 116.389 94.8 116.538 94.8C116.602 94.8 116.73 94.8213 116.922 94.864C117.242 94.9387 117.525 94.976 117.77 94.976V91.696C117.77 91.28 117.674 90.9387 117.482 90.672C117.29 90.3947 117.007 90.256 116.634 90.256C116.357 90.256 116.117 90.3413 115.914 90.512C115.711 90.6827 115.61 90.944 115.61 91.296C115.61 91.68 115.706 91.9733 115.898 92.176C116.101 92.3787 116.431 92.48 116.89 92.48C116.975 92.48 117.018 92.592 117.018 92.816C117.018 92.9653 117.002 93.0773 116.97 93.152C116.938 93.216 116.869 93.248 116.762 93.248C116.058 93.248 115.503 93.072 115.098 92.72C114.693 92.3573 114.49 91.8827 114.49 91.296C114.49 90.72 114.703 90.2667 115.13 89.936C115.567 89.5947 116.095 89.424 116.714 89.424C117.546 89.424 118.149 89.648 118.522 90.096C118.906 90.544 119.098 91.0773 119.098 91.696V94.976H122.314V90.304H119.77V89.6H125.274ZM131.095 96.752C130.316 97.4667 129.511 97.824 128.679 97.824C128.124 97.824 127.617 97.7067 127.159 97.472C126.7 97.2267 126.337 96.8853 126.071 96.448C125.804 96.0107 125.671 95.504 125.671 94.928C125.671 94.1493 125.916 93.5093 126.407 93.008C126.897 92.496 127.569 92.24 128.423 92.24C129.041 92.24 129.527 92.368 129.879 92.624C130.231 92.88 130.407 93.2107 130.407 93.616C130.407 93.9467 130.305 94.2133 130.103 94.416C129.911 94.608 129.671 94.704 129.383 94.704C129.308 94.704 129.249 94.6987 129.207 94.688C129.175 94.6667 129.159 94.6293 129.159 94.576C129.159 94.544 129.18 94.4747 129.223 94.368C129.265 94.2613 129.286 94.0853 129.286 93.84C129.286 93.5627 129.212 93.3387 129.062 93.168C128.913 92.9867 128.695 92.896 128.407 92.896C128.012 92.896 127.681 93.072 127.414 93.424C127.148 93.7653 127.015 94.2667 127.015 94.928C127.015 95.5893 127.175 96.1013 127.495 96.464C127.825 96.816 128.231 96.992 128.711 96.992C129.148 96.992 129.559 96.9067 129.943 96.736C130.327 96.5547 130.711 96.2507 131.095 95.824V90.304H124.854V89.6H134.071V90.304H132.439V100H131.095V96.752ZM131.776 87.248C131.605 87.248 131.413 87.136 131.2 86.912C130.986 86.688 130.88 86.48 130.88 86.288C130.88 86.096 130.986 85.888 131.2 85.664C131.402 85.4293 131.594 85.312 131.776 85.312C131.968 85.312 132.176 85.4293 132.4 85.664C132.613 85.888 132.72 86.096 132.72 86.288C132.72 86.48 132.613 86.688 132.4 86.912C132.176 87.136 131.968 87.248 131.776 87.248ZM148.029 94.352C147.496 94.8213 146.728 95.056 145.725 95.056C145.992 95.5253 146.125 95.952 146.125 96.336C146.125 97.0827 145.874 97.6587 145.373 98.064C144.882 98.4693 144.253 98.672 143.485 98.672C142.482 98.672 141.597 98.3147 140.829 97.6C140.072 96.8747 139.458 95.84 138.989 94.496C138.978 94.4747 138.973 94.4427 138.973 94.4C138.973 94.304 139.026 94.2187 139.133 94.144C139.24 94.0693 139.357 94.032 139.485 94.032C139.624 94.032 139.709 94.064 139.741 94.128C140.157 95.3333 140.664 96.2293 141.261 96.816C141.869 97.392 142.573 97.68 143.373 97.68C143.832 97.68 144.184 97.5573 144.429 97.312C144.674 97.056 144.797 96.688 144.797 96.208C144.797 95.8453 144.701 95.504 144.509 95.184C144.317 94.8533 144.008 94.528 143.581 94.208C143.218 94.272 142.909 94.304 142.653 94.304C142.589 94.304 142.536 94.2613 142.493 94.176C142.45 94.0907 142.429 93.9947 142.429 93.888C142.429 93.728 142.477 93.648 142.573 93.648C143.256 93.6267 143.768 93.4613 144.109 93.152C144.45 92.832 144.621 92.3573 144.621 91.728C144.621 91.1627 144.493 90.7413 144.237 90.464C143.981 90.1867 143.656 90.048 143.261 90.048C142.824 90.048 142.482 90.16 142.237 90.384C141.992 90.5973 141.869 90.88 141.869 91.232C141.869 91.456 141.885 91.6213 141.917 91.728C141.96 91.8347 141.981 91.904 141.981 91.936C141.981 92.0107 141.922 92.048 141.805 92.048C141.506 92.048 141.261 91.9467 141.069 91.744C140.877 91.5413 140.781 91.264 140.781 90.912C140.781 90.4747 141 90.1173 141.437 89.84C141.874 89.5627 142.477 89.424 143.245 89.424C144.088 89.424 144.744 89.6373 145.213 90.064C145.693 90.4907 145.933 91.04 145.933 91.712C145.933 92.16 145.832 92.56 145.629 92.912C145.437 93.264 145.138 93.552 144.733 93.776C145.032 94.0853 145.48 94.24 146.077 94.24C146.461 94.24 146.808 94.176 147.117 94.048C147.437 93.92 147.741 93.712 148.029 93.424V90.304H146.333V89.6H151.005V90.304H149.389V100H148.029V94.352ZM156.509 95.952C156.21 96.2507 155.869 96.4907 155.485 96.672C155.101 96.8427 154.701 96.928 154.285 96.928C153.464 96.928 152.824 96.672 152.365 96.16C151.917 95.648 151.693 94.928 151.693 94V90.304H150.589V89.6H159.613V90.304H157.853V100H156.509V95.952ZM154.669 96.112C154.968 96.112 155.293 96.0107 155.645 95.808C155.997 95.6053 156.285 95.3387 156.509 95.008V90.304H153.037V94.048C153.037 94.6773 153.17 95.1787 153.437 95.552C153.714 95.9253 154.125 96.112 154.669 96.112ZM160.814 90.304H159.198V89.6H160.67C160.372 89.0347 160.222 88.4693 160.222 87.904C160.222 87.3173 160.377 86.8053 160.686 86.368C160.996 85.9307 161.433 85.5947 161.998 85.36C162.564 85.1147 163.22 84.992 163.966 84.992C165.438 84.992 166.756 85.344 167.918 86.048C169.092 86.752 170.121 87.7333 171.006 88.992L170.142 89.232C168.372 86.96 166.425 85.824 164.302 85.824C163.438 85.824 162.766 86.0053 162.286 86.368C161.806 86.7307 161.566 87.2427 161.566 87.904C161.566 88.512 161.732 89.0773 162.062 89.6H163.758V90.304H162.158V100H160.814V90.304ZM169.419 100.16C169.387 100.16 169.355 100.144 169.323 100.112C168.875 99.7813 168.267 99.2533 167.499 98.528C166.731 97.792 166.043 97.04 165.435 96.272C164.827 95.4933 164.523 94.8587 164.523 94.368C164.523 94.08 164.613 93.8347 164.795 93.632C164.987 93.4187 165.253 93.312 165.595 93.312C166.075 93.312 166.475 93.6533 166.795 94.336C167.285 94.1653 167.648 93.9147 167.883 93.584C168.128 93.2427 168.251 92.816 168.251 92.304C168.251 91.5893 168.091 90.9227 167.771 90.304H163.354V89.6H170.587V90.304H168.715C168.981 90.528 169.195 90.816 169.355 91.168C169.515 91.5093 169.595 91.8987 169.595 92.336C169.595 92.816 169.445 93.2587 169.147 93.664C168.848 94.0693 168.453 94.4 167.963 94.656C167.472 94.9013 166.944 95.056 166.379 95.12C166.795 95.9627 167.232 96.6773 167.691 97.264C168.149 97.8507 168.837 98.6027 169.755 99.52C169.797 99.552 169.819 99.5947 169.819 99.648C169.819 99.7333 169.765 99.84 169.659 99.968C169.552 100.096 169.472 100.16 169.419 100.16ZM174.455 93.008C173.794 93.008 173.324 93.104 173.047 93.296C172.77 93.488 172.631 93.792 172.631 94.208C172.631 94.4427 172.684 94.656 172.791 94.848C172.898 95.0293 173.047 95.1787 173.239 95.296C173.751 95.1467 174.327 95.072 174.967 95.072C175.927 95.072 176.706 95.2907 177.303 95.728C177.911 96.1653 178.215 96.7627 178.215 97.52C178.215 98.0533 178.071 98.5067 177.783 98.88C177.495 99.2427 177.159 99.52 176.775 99.712C176.402 99.8933 176.103 99.984 175.879 99.984C175.826 99.984 175.762 99.9307 175.687 99.824C175.612 99.7173 175.575 99.6 175.575 99.472C175.575 99.408 175.596 99.3707 175.639 99.36C176.492 99.0187 176.919 98.3893 176.919 97.472C176.919 96.9813 176.727 96.5973 176.343 96.32C175.97 96.032 175.404 95.888 174.647 95.888C174.071 95.888 173.559 96.0533 173.111 96.384C172.663 96.704 172.439 97.1893 172.439 97.84C172.439 98.48 172.567 99.008 172.823 99.424C173.09 99.84 173.575 100.299 174.279 100.8C174.439 100.917 174.519 101.003 174.519 101.056C174.519 101.141 174.476 101.237 174.391 101.344C174.316 101.461 174.236 101.52 174.151 101.52C173.916 101.52 173.554 101.344 173.063 100.992C172.572 100.651 172.135 100.203 171.751 99.648C171.367 99.0827 171.175 98.48 171.175 97.84C171.175 97.4133 171.266 97.0187 171.447 96.656C171.639 96.2933 171.922 95.9893 172.295 95.744C171.986 95.5413 171.746 95.3013 171.575 95.024C171.415 94.736 171.335 94.432 171.335 94.112C171.335 93.504 171.559 93.04 172.007 92.72C172.455 92.3893 173.127 92.224 174.023 92.224H176.215V90.304H170.167V89.6H179.303V90.304H177.559V93.008H174.455ZM180.502 100V90.304H178.886V89.6H183.446V90.304H181.846V100H180.502ZM189.106 100.16C189.074 100.16 189.042 100.144 189.01 100.112C188.562 99.7813 187.954 99.2533 187.186 98.528C186.418 97.792 185.73 97.04 185.122 96.272C184.514 95.4933 184.21 94.8587 184.21 94.368C184.21 94.08 184.301 93.8347 184.482 93.632C184.674 93.4187 184.941 93.312 185.282 93.312C185.762 93.312 186.162 93.6533 186.482 94.336C186.973 94.1653 187.335 93.9147 187.57 93.584C187.815 93.2427 187.938 92.816 187.938 92.304C187.938 91.5893 187.778 90.9227 187.458 90.304H183.042V89.6H190.274V90.304H188.402C188.669 90.528 188.882 90.816 189.042 91.168C189.202 91.5093 189.282 91.8987 189.282 92.336C189.282 92.816 189.133 93.2587 188.834 93.664C188.535 94.0693 188.141 94.4 187.65 94.656C187.159 94.9013 186.631 95.056 186.066 95.12C186.482 95.9627 186.919 96.6773 187.378 97.264C187.837 97.8507 188.525 98.6027 189.442 99.52C189.485 99.552 189.506 99.5947 189.506 99.648C189.506 99.7333 189.453 99.84 189.346 99.968C189.239 100.096 189.159 100.16 189.106 100.16ZM186.828 102.416C186.946 102.501 187.004 102.587 187.004 102.672C187.004 102.821 186.919 102.997 186.748 103.2C186.588 103.403 186.444 103.504 186.316 103.504C186.22 103.504 186.114 103.451 185.996 103.344L183.276 100.848L182.924 101.312C182.85 101.419 182.786 101.488 182.732 101.52C182.679 101.552 182.62 101.568 182.556 101.568C182.45 101.568 182.322 101.472 182.172 101.28C182.023 101.088 181.948 100.933 181.948 100.816C181.948 100.731 182.028 100.635 182.188 100.528L183.244 99.888L186.828 102.416ZM199.583 90.304H197.967V100H196.623V96.944C196.303 97.2 195.94 97.4187 195.535 97.6C195.129 97.7707 194.703 97.856 194.255 97.856C193.583 97.856 192.969 97.712 192.414 97.424C191.86 97.136 191.417 96.7253 191.087 96.192C190.756 95.6587 190.59 95.04 190.59 94.336C191.401 94.2293 191.988 93.9947 192.351 93.632C192.724 93.2693 192.911 92.8267 192.911 92.304C192.911 91.9413 192.815 91.584 192.623 91.232C192.431 90.88 192.143 90.5707 191.759 90.304H189.854V89.6H199.583V90.304ZM196.623 90.304H192.783C193.231 90.5387 193.588 90.8267 193.855 91.168C194.132 91.5093 194.271 91.8987 194.271 92.336C194.271 92.9333 194.057 93.4453 193.631 93.872C193.204 94.288 192.633 94.5813 191.919 94.752C192.004 95.5413 192.271 96.1333 192.719 96.528C193.177 96.9227 193.737 97.12 194.399 97.12C194.868 97.12 195.279 97.0187 195.631 96.816C195.993 96.6133 196.324 96.368 196.623 96.08V90.304ZM197.307 87.248C197.136 87.248 196.944 87.136 196.731 86.912C196.518 86.688 196.411 86.48 196.411 86.288C196.411 86.096 196.518 85.888 196.731 85.664C196.934 85.4293 197.126 85.312 197.307 85.312C197.499 85.312 197.707 85.4293 197.931 85.664C198.144 85.888 198.251 86.096 198.251 86.288C198.251 86.48 198.144 86.688 197.931 86.912C197.707 87.136 197.499 87.248 197.307 87.248ZM210.025 95.952C209.726 96.2507 209.385 96.4907 209.001 96.672C208.617 96.8427 208.217 96.928 207.801 96.928C206.979 96.928 206.339 96.672 205.881 96.16C205.433 95.648 205.209 94.928 205.209 94V90.304H204.104V89.6H213.128V90.304H211.369V100H210.025V95.952ZM208.185 96.112C208.483 96.112 208.809 96.0107 209.161 95.808C209.513 95.6053 209.801 95.3387 210.025 95.008V90.304H206.553V94.048C206.553 94.6773 206.686 95.1787 206.953 95.552C207.23 95.9253 207.641 96.112 208.185 96.112ZM214.33 90.304H212.714V89.6H214.186C213.887 89.0347 213.738 88.4693 213.738 87.904C213.738 87.3173 213.893 86.8053 214.202 86.368C214.511 85.9307 214.949 85.5947 215.514 85.36C216.079 85.1147 216.735 84.992 217.482 84.992C218.954 84.992 220.271 85.344 221.434 86.048C222.607 86.752 223.637 87.7333 224.522 88.992L223.658 89.232C221.887 86.96 219.941 85.824 217.818 85.824C216.954 85.824 216.282 86.0053 215.802 86.368C215.322 86.7307 215.082 87.2427 215.082 87.904C215.082 88.512 215.247 89.0773 215.578 89.6H217.274V90.304H215.674V100H214.33V90.304ZM222.934 100.16C222.902 100.16 222.87 100.144 222.838 100.112C222.39 99.7813 221.782 99.2533 221.014 98.528C220.246 97.792 219.558 97.04 218.95 96.272C218.342 95.4933 218.038 94.8587 218.038 94.368C218.038 94.08 218.129 93.8347 218.31 93.632C218.502 93.4187 218.769 93.312 219.11 93.312C219.59 93.312 219.99 93.6533 220.31 94.336C220.801 94.1653 221.163 93.9147 221.398 93.584C221.643 93.2427 221.766 92.816 221.766 92.304C221.766 91.5893 221.606 90.9227 221.286 90.304H216.87V89.6H224.102V90.304H222.23C222.497 90.528 222.71 90.816 222.87 91.168C223.03 91.5093 223.11 91.8987 223.11 92.336C223.11 92.816 222.961 93.2587 222.662 93.664C222.363 94.0693 221.969 94.4 221.478 94.656C220.987 94.9013 220.459 95.056 219.894 95.12C220.31 95.9627 220.747 96.6773 221.206 97.264C221.665 97.8507 222.353 98.6027 223.27 99.52C223.313 99.552 223.334 99.5947 223.334 99.648C223.334 99.7333 223.281 99.84 223.174 99.968C223.067 100.096 222.987 100.16 222.934 100.16ZM232.931 90.304H230.723V94.624C230.723 95.552 230.488 96.272 230.019 96.784C229.56 97.296 228.851 97.552 227.891 97.552C226.877 97.552 226.141 97.2587 225.683 96.672C225.235 96.0853 225.011 95.2373 225.011 94.128V90.304H223.683V89.6H236.019V90.304H234.275V100H232.931V90.304ZM227.843 96.736C228.472 96.736 228.883 96.5333 229.075 96.128C229.277 95.7227 229.379 95.1253 229.379 94.336V90.304H226.339V94.336C226.339 95.0613 226.435 95.6427 226.627 96.08C226.819 96.5173 227.224 96.736 227.843 96.736ZM245.301 89.6V90.304H243.685V100H242.325V95.776H238.789C238.725 96.1493 238.549 96.448 238.261 96.672C237.983 96.8853 237.658 96.992 237.285 96.992C236.858 96.992 236.495 96.8587 236.197 96.592C235.909 96.3147 235.764 95.9573 235.764 95.52C235.764 95.3173 235.802 95.1467 235.877 95.008C235.962 94.8693 236.079 94.8 236.229 94.8C236.303 94.8 236.437 94.8213 236.629 94.864C236.949 94.9387 237.231 94.976 237.477 94.976V90.304H235.604V89.6H245.301ZM238.805 94.976H242.325V90.304H238.805V94.976ZM246.502 90.304H244.886V89.6H246.358C246.059 89.0347 245.91 88.4693 245.91 87.904C245.91 87.3173 246.064 86.8053 246.374 86.368C246.683 85.9307 247.12 85.5947 247.686 85.36C248.251 85.1147 248.907 84.992 249.654 84.992C251.126 84.992 252.443 85.344 253.606 86.048C254.779 86.752 255.808 87.7333 256.694 88.992L255.83 89.232C254.059 86.96 252.112 85.824 249.99 85.824C249.126 85.824 248.454 86.0053 247.974 86.368C247.494 86.7307 247.254 87.2427 247.254 87.904C247.254 88.512 247.419 89.0773 247.75 89.6H249.446V90.304H247.846V100H246.502V90.304ZM253.282 100.048C253.25 100.048 253.218 100.032 253.186 100C253.101 99.9147 252.909 99.76 252.61 99.536C252.13 99.1627 251.719 98.8213 251.378 98.512C251.047 98.2027 250.749 97.84 250.482 97.424C250.215 97.008 250.082 96.5813 250.082 96.144C250.082 95.1733 250.386 94.432 250.994 93.92C251.602 93.3973 252.535 93.136 253.794 93.136H256.002V90.304H249.042V89.6H258.962V90.304H257.362V100H256.002V93.952H254.194C253.309 93.952 252.615 94.0907 252.114 94.368C251.613 94.6347 251.362 95.168 251.362 95.968C251.362 96.64 251.543 97.232 251.906 97.744C252.269 98.2453 252.823 98.8213 253.57 99.472C253.613 99.5147 253.634 99.5573 253.634 99.6C253.634 99.6853 253.591 99.7813 253.506 99.888C253.421 99.9947 253.346 100.048 253.282 100.048ZM261.566 100V89.6H262.91V100H261.566Z" fill="white"/>
</g>
</svg>
