<svg width="350" height="106" viewBox="0 0 350 106" fill="none" xmlns="http://www.w3.org/2000/svg">
<path d="M12.442 61.4065V55.5215H10.297V54.2125H15.995V55.5215H13.85V61.4065H12.442ZM17.0319 61.4065V54.2125H18.4399V57.1055H21.8829V54.2125H23.2909V61.4065H21.8829V58.4035H18.4399V61.4065H17.0319ZM24.7663 61.4065V54.2125H30.0683V55.5215H26.1743V57.1275H29.4303V58.3815H26.1743V60.1085H30.0683V61.4065H24.7663ZM36.4082 61.5495C34.8902 61.5495 33.8562 60.6915 33.8562 59.3605C33.8562 58.4915 34.2962 57.9085 35.0552 57.6115V57.5895C34.4392 57.3145 34.0982 56.7865 34.0982 56.0495C34.0982 54.8505 35.0112 54.0695 36.4082 54.0695C37.8052 54.0695 38.7182 54.8505 38.7182 56.0495C38.7182 56.7865 38.3662 57.3145 37.7612 57.5895V57.6115C38.5202 57.9085 38.9602 58.4915 38.9602 59.3605C38.9602 60.6915 37.9262 61.5495 36.4082 61.5495ZM36.3752 57.0395H36.4412C37.0682 57.0395 37.4202 56.6985 37.4202 56.1595C37.4202 55.6645 37.0902 55.2905 36.4082 55.2905C35.7262 55.2905 35.3962 55.6645 35.3962 56.1595C35.3962 56.6985 35.7482 57.0395 36.3752 57.0395ZM36.4082 60.3285C37.2332 60.3285 37.6622 59.8995 37.6622 59.2395C37.6622 58.5575 37.2112 58.1725 36.4412 58.1725H36.3752C35.6052 58.1725 35.1542 58.5575 35.1542 59.2395C35.1542 59.8995 35.5832 60.3285 36.4082 60.3285ZM45.9069 61.4065V54.2125H51.2089V55.5215H47.3149V57.1275H50.5709V58.3815H47.3149V60.1085H51.2089V61.4065H45.9069ZM52.4489 61.4065V54.2125H55.0009C57.5199 54.2125 58.8399 55.6535 58.8399 57.8095C58.8399 59.9655 57.5199 61.4065 55.0009 61.4065H52.4489ZM53.8569 60.1085H55.0009C56.6619 60.1085 57.4099 59.2065 57.4099 57.8095C57.4099 56.4125 56.6619 55.5215 55.0009 55.5215H53.8569V60.1085ZM59.958 61.4065V54.2125H61.366V61.4065H59.958ZM64.5524 61.4065V55.5215H62.4074V54.2125H68.1054V55.5215H65.9604V61.4065H64.5524ZM69.1533 61.4065V54.2125H70.5613V61.4065H69.1533ZM75.5077 61.5495C73.2637 61.5495 71.6797 59.9655 71.6797 57.8095C71.6797 55.6535 73.2637 54.0695 75.5077 54.0695C77.7517 54.0695 79.3357 55.6535 79.3357 57.8095C79.3357 59.9655 77.7517 61.5495 75.5077 61.5495ZM75.5077 60.2515C76.9377 60.2515 77.9057 59.2175 77.9057 57.8095C77.9057 56.4015 76.9377 55.3785 75.5077 55.3785C74.0777 55.3785 73.1097 56.4015 73.1097 57.8095C73.1097 59.2175 74.0777 60.2515 75.5077 60.2515ZM80.2781 61.4065V57.0725C80.2781 55.2245 81.3671 54.0695 83.3361 54.0695C85.3051 54.0695 86.3941 55.2245 86.3941 57.0725V61.4065H84.9861V57.0725C84.9861 56.0055 84.4361 55.3785 83.3361 55.3785C82.2361 55.3785 81.6861 56.0055 81.6861 57.0725V61.4065H80.2781ZM94.0916 61.5495C91.8476 61.5495 90.2636 59.9655 90.2636 57.8095C90.2636 55.6535 91.8476 54.0695 94.0916 54.0695C96.3356 54.0695 97.9196 55.6535 97.9196 57.8095C97.9196 59.9655 96.3356 61.5495 94.0916 61.5495ZM94.0916 60.2515C95.5216 60.2515 96.4896 59.2175 96.4896 57.8095C96.4896 56.4015 95.5216 55.3785 94.0916 55.3785C92.6616 55.3785 91.6936 56.4015 91.6936 57.8095C91.6936 59.2175 92.6616 60.2515 94.0916 60.2515ZM99.027 61.4065V54.2125H104.241V55.5215H100.435V57.1055H103.603V58.3815H100.435V61.4065H99.027ZM109.927 61.4065V55.5215H107.782V54.2125H113.48V55.5215H111.335V61.4065H109.927ZM114.517 61.4065V54.2125H115.925V57.1055H119.368V54.2125H120.776V61.4065H119.368V58.4035H115.925V61.4065H114.517ZM122.252 61.4065V54.2125H127.554V55.5215H123.66V57.1275H126.916V58.3815H123.66V60.1085H127.554V61.4065H122.252ZM131.716 61.4065V54.2125H135.159C136.523 54.2125 137.238 54.9935 137.238 56.0825C137.238 56.8085 136.897 57.3695 136.303 57.6665V57.6885C137.095 57.9415 137.568 58.6015 137.568 59.4595C137.568 60.5815 136.842 61.4065 135.445 61.4065H131.716ZM133.124 57.1275H134.983C135.566 57.1275 135.841 56.7755 135.841 56.3245C135.841 55.8625 135.621 55.5215 134.972 55.5215H133.124V57.1275ZM133.124 60.1085H135.203C135.863 60.1085 136.127 59.7235 136.127 59.2505C136.127 58.7665 135.797 58.3815 135.214 58.3815H133.124V60.1085ZM138.602 61.4065V54.2125H140.01V61.4065H138.602ZM144.956 61.5495C142.712 61.5495 141.128 59.9655 141.128 57.8095C141.128 55.6535 142.712 54.0695 144.956 54.0695C146.716 54.0695 148.069 55.0375 148.575 56.5005H147.013C146.628 55.8075 145.88 55.3785 144.956 55.3785C143.526 55.3785 142.558 56.4015 142.558 57.8095C142.558 59.2175 143.526 60.2515 144.956 60.2515C146.078 60.2515 146.903 59.7345 147.255 58.7555H144.516V57.5015H148.773V58.1725C148.608 60.1415 147.068 61.5495 144.956 61.5495ZM153.281 61.5495C151.037 61.5495 149.453 59.9655 149.453 57.8095C149.453 55.6535 151.037 54.0695 153.281 54.0695C155.041 54.0695 156.394 55.0375 156.9 56.5005H155.338C154.953 55.8075 154.205 55.3785 153.281 55.3785C151.851 55.3785 150.883 56.4015 150.883 57.8095C150.883 59.2175 151.851 60.2515 153.281 60.2515C154.403 60.2515 155.228 59.7345 155.58 58.7555H152.841V57.5015H157.098V58.1725C156.933 60.1415 155.393 61.5495 153.281 61.5495ZM158.141 61.4065V54.2125H163.443V55.5215H159.549V57.1275H162.805V58.3815H159.549V60.1085H163.443V61.4065H158.141ZM166.982 61.5495C165.387 61.5495 164.342 60.7025 164.309 59.3275H165.684C165.695 59.8995 166.124 60.2845 166.982 60.2845C167.851 60.2845 168.28 59.8995 168.28 59.3275C168.28 58.7005 167.609 58.5795 166.828 58.4365C165.739 58.2385 164.452 58.0075 164.452 56.3355C164.452 55.0045 165.464 54.0695 166.993 54.0695C168.478 54.0695 169.479 54.9605 169.534 56.2805H168.203C168.192 55.7305 167.785 55.3345 167.004 55.3345C166.212 55.3345 165.816 55.7635 165.816 56.2915C165.816 56.9185 166.487 57.0395 167.268 57.1825C168.357 57.3805 169.655 57.6115 169.655 59.2835C169.655 60.6805 168.588 61.5495 166.982 61.5495ZM172.232 61.4065V55.5215H170.087V54.2125H175.785V55.5215H173.64V61.4065H172.232ZM179.744 61.4065V54.2125H183.187C184.551 54.2125 185.266 54.9935 185.266 56.0825C185.266 56.8085 184.925 57.3695 184.331 57.6665V57.6885C185.123 57.9415 185.596 58.6015 185.596 59.4595C185.596 60.5815 184.87 61.4065 183.473 61.4065H179.744ZM181.152 57.1275H183.011C183.594 57.1275 183.869 56.7755 183.869 56.3245C183.869 55.8625 183.649 55.5215 183 55.5215H181.152V57.1275ZM181.152 60.1085H183.231C183.891 60.1085 184.155 59.7235 184.155 59.2505C184.155 58.7665 183.825 58.3815 183.242 58.3815H181.152V60.1085ZM189.512 61.5495C187.543 61.5495 186.454 60.3945 186.454 58.5465V54.2125H187.862V58.5465C187.862 59.6135 188.412 60.2515 189.501 60.2515C190.612 60.2515 191.151 59.6135 191.151 58.5465V54.2125H192.526V58.5465C192.526 60.3835 191.448 61.5495 189.512 61.5495ZM196.126 61.5495C194.531 61.5495 193.486 60.7025 193.453 59.3275H194.828C194.839 59.8995 195.268 60.2845 196.126 60.2845C196.995 60.2845 197.424 59.8995 197.424 59.3275C197.424 58.7005 196.753 58.5795 195.972 58.4365C194.883 58.2385 193.596 58.0075 193.596 56.3355C193.596 55.0045 194.608 54.0695 196.137 54.0695C197.622 54.0695 198.623 54.9605 198.678 56.2805H197.347C197.336 55.7305 196.929 55.3345 196.148 55.3345C195.356 55.3345 194.96 55.7635 194.96 56.2915C194.96 56.9185 195.631 57.0395 196.412 57.1825C197.501 57.3805 198.799 57.6115 198.799 59.2835C198.799 60.6805 197.732 61.5495 196.126 61.5495ZM199.918 61.4065V54.2125H201.326V61.4065H199.918ZM202.642 61.4065V57.0725C202.642 55.2245 203.731 54.0695 205.7 54.0695C207.669 54.0695 208.758 55.2245 208.758 57.0725V61.4065H207.35V57.0725C207.35 56.0055 206.8 55.3785 205.7 55.3785C204.6 55.3785 204.05 56.0055 204.05 57.0725V61.4065H202.642ZM210.069 61.4065V54.2125H215.371V55.5215H211.477V57.1275H214.733V58.3815H211.477V60.1085H215.371V61.4065H210.069ZM218.91 61.5495C217.315 61.5495 216.27 60.7025 216.237 59.3275H217.612C217.623 59.8995 218.052 60.2845 218.91 60.2845C219.779 60.2845 220.208 59.8995 220.208 59.3275C220.208 58.7005 219.537 58.5795 218.756 58.4365C217.667 58.2385 216.38 58.0075 216.38 56.3355C216.38 55.0045 217.392 54.0695 218.921 54.0695C220.406 54.0695 221.407 54.9605 221.462 56.2805H220.131C220.12 55.7305 219.713 55.3345 218.932 55.3345C218.14 55.3345 217.744 55.7635 217.744 56.2915C217.744 56.9185 218.415 57.0395 219.196 57.1825C220.285 57.3805 221.583 57.6115 221.583 59.2835C221.583 60.6805 220.516 61.5495 218.91 61.5495ZM224.99 61.5495C223.395 61.5495 222.35 60.7025 222.317 59.3275H223.692C223.703 59.8995 224.132 60.2845 224.99 60.2845C225.859 60.2845 226.288 59.8995 226.288 59.3275C226.288 58.7005 225.617 58.5795 224.836 58.4365C223.747 58.2385 222.46 58.0075 222.46 56.3355C222.46 55.0045 223.472 54.0695 225.001 54.0695C226.486 54.0695 227.487 54.9605 227.542 56.2805H226.211C226.2 55.7305 225.793 55.3345 225.012 55.3345C224.22 55.3345 223.824 55.7635 223.824 56.2915C223.824 56.9185 224.495 57.0395 225.276 57.1825C226.365 57.3805 227.663 57.6115 227.663 59.2835C227.663 60.6805 226.596 61.5495 224.99 61.5495ZM231.693 61.4065V54.2125H236.907V55.5215H233.101V57.1055H236.269V58.3815H233.101V61.4065H231.693ZM237.966 61.4065V54.2125H243.268V55.5215H239.374V57.1275H242.63V58.3815H239.374V60.1085H243.268V61.4065H237.966ZM246.807 61.5495C245.212 61.5495 244.167 60.7025 244.134 59.3275H245.509C245.52 59.8995 245.949 60.2845 246.807 60.2845C247.676 60.2845 248.105 59.8995 248.105 59.3275C248.105 58.7005 247.434 58.5795 246.653 58.4365C245.564 58.2385 244.277 58.0075 244.277 56.3355C244.277 55.0045 245.289 54.0695 246.818 54.0695C248.303 54.0695 249.304 54.9605 249.359 56.2805H248.028C248.017 55.7305 247.61 55.3345 246.829 55.3345C246.037 55.3345 245.641 55.7635 245.641 56.2915C245.641 56.9185 246.312 57.0395 247.093 57.1825C248.182 57.3805 249.48 57.6115 249.48 59.2835C249.48 60.6805 248.413 61.5495 246.807 61.5495ZM252.057 61.4065V55.5215H249.912V54.2125H255.61V55.5215H253.465V61.4065H252.057ZM259.58 61.4065V54.2125H260.988V61.4065H259.58ZM262.304 61.4065V57.0725C262.304 55.2245 263.393 54.0695 265.362 54.0695C267.331 54.0695 268.42 55.2245 268.42 57.0725V61.4065H267.012V57.0725C267.012 56.0055 266.462 55.3785 265.362 55.3785C264.262 55.3785 263.712 56.0055 263.712 57.0725V61.4065H262.304ZM274.952 61.5495C273.357 61.5495 272.312 60.7025 272.279 59.3275H273.654C273.665 59.8995 274.094 60.2845 274.952 60.2845C275.821 60.2845 276.25 59.8995 276.25 59.3275C276.25 58.7005 275.579 58.5795 274.798 58.4365C273.709 58.2385 272.422 58.0075 272.422 56.3355C272.422 55.0045 273.434 54.0695 274.963 54.0695C276.448 54.0695 277.449 54.9605 277.504 56.2805H276.173C276.162 55.7305 275.755 55.3345 274.974 55.3345C274.182 55.3345 273.786 55.7635 273.786 56.2915C273.786 56.9185 274.457 57.0395 275.238 57.1825C276.327 57.3805 277.625 57.6115 277.625 59.2835C277.625 60.6805 276.558 61.5495 274.952 61.5495ZM282.198 61.5495C279.954 61.5495 278.37 59.9655 278.37 57.8095C278.37 55.6535 279.954 54.0695 282.198 54.0695C284.442 54.0695 286.026 55.6535 286.026 57.8095C286.026 59.9655 284.442 61.5495 282.198 61.5495ZM282.198 60.2515C283.628 60.2515 284.596 59.2175 284.596 57.8095C284.596 56.4015 283.628 55.3785 282.198 55.3785C280.768 55.3785 279.8 56.4015 279.8 57.8095C279.8 59.2175 280.768 60.2515 282.198 60.2515ZM290.026 61.5495C288.057 61.5495 286.968 60.3945 286.968 58.5465V54.2125H288.376V58.5465C288.376 59.6135 288.926 60.2515 290.015 60.2515C291.126 60.2515 291.665 59.6135 291.665 58.5465V54.2125H293.04V58.5465C293.04 60.3835 291.962 61.5495 290.026 61.5495ZM296.046 61.4065V55.5215H293.901V54.2125H299.599V55.5215H297.454V61.4065H296.046ZM300.636 61.4065V54.2125H302.044V57.1055H305.487V54.2125H306.895V61.4065H305.487V58.4035H302.044V61.4065H300.636ZM311.304 61.4065V54.2125H312.712V61.4065H311.304ZM314.028 61.4065V57.0725C314.028 55.2245 315.117 54.0695 317.086 54.0695C319.055 54.0695 320.144 55.2245 320.144 57.0725V61.4065H318.736V57.0725C318.736 56.0055 318.186 55.3785 317.086 55.3785C315.986 55.3785 315.436 56.0055 315.436 57.0725V61.4065H314.028ZM321.455 61.4065V54.2125H324.007C326.526 54.2125 327.846 55.6535 327.846 57.8095C327.846 59.9655 326.526 61.4065 324.007 61.4065H321.455ZM322.863 60.1085H324.007C325.668 60.1085 326.416 59.2065 326.416 57.8095C326.416 56.4125 325.668 55.5215 324.007 55.5215H322.863V60.1085ZM328.964 61.4065V54.2125H330.372V61.4065H328.964ZM331.677 61.4065V57.1935C331.677 55.2685 332.777 54.0695 334.812 54.0695C336.847 54.0695 337.969 55.2685 337.969 57.1935V61.4065H336.561V59.2505H333.052V61.4065H331.677ZM333.052 57.9745H336.561V57.1935C336.561 56.0385 335.989 55.3785 334.801 55.3785C333.624 55.3785 333.052 56.0385 333.052 57.1935V57.9745Z" fill="white" fill-opacity="0.8"/>
<path d="M125.307 8V1.6682H129.954V2.30719H126.004V4.46619H129.393V5.10518H126.004V7.36101H129.954V8H125.307ZM131.037 5.70545V4.91155H134.638V5.70545H131.037ZM138.975 8.12586C136.999 8.12586 135.605 6.7317 135.605 4.8341C135.605 2.93649 136.999 1.54233 138.975 1.54233C140.562 1.54233 141.782 2.44273 142.189 3.78848H141.453C141.075 2.82031 140.156 2.18132 138.975 2.18132C137.396 2.18132 136.302 3.3044 136.302 4.8341C136.302 6.3638 137.396 7.48687 138.975 7.48687C140.156 7.48687 141.075 6.84788 141.453 5.87972H142.189C141.782 7.22547 140.562 8.12586 138.975 8.12586ZM143.196 8V1.6682H147.843V2.30719H143.893V4.46619H147.281V5.10518H143.893V7.36101H147.843V8H143.196ZM148.935 8V1.6682H149.632V7.36101H153.466V8H148.935ZM154.362 8V1.6682H155.059V7.36101H158.893V8H154.362ZM159.827 9.20053L160.147 8.09682C159.944 8.04841 159.808 7.85478 159.808 7.6321C159.808 7.35133 160.021 7.13833 160.302 7.13833C160.573 7.13833 160.786 7.35133 160.786 7.6321C160.786 7.70955 160.757 7.82573 160.728 7.90318L160.215 9.20053H159.827ZM166.787 8L164.27 1.6682H165.045L167.175 7.19642L169.305 1.6682H170.06L167.533 8H166.787ZM170.984 8V1.6682H171.681V8H170.984ZM174.759 8V2.30719H172.61V1.6682H177.605V2.30719H175.456V8H174.759ZM181.09 8V1.6682H183.83C185.36 1.6682 186.037 2.52018 186.037 3.68198C186.037 4.8341 185.35 5.70545 183.83 5.70545H181.787V8H181.09ZM181.787 5.06646H183.84C184.934 5.06646 185.331 4.46619 185.331 3.68198C185.331 2.89777 184.934 2.30719 183.84 2.30719H181.787V5.06646ZM186.886 8V1.6682H189.684C191.175 1.6682 191.833 2.50082 191.833 3.62389C191.833 4.66951 191.272 5.36659 190.236 5.56022L192.066 8H191.223L189.51 5.59895H187.583V8H186.886ZM187.583 4.95996H189.694C190.749 4.95996 191.126 4.37906 191.126 3.62389C191.126 2.86872 190.749 2.30719 189.694 2.30719H187.583V4.95996ZM192.984 8V1.6682H197.631V2.30719H193.681V4.46619H197.07V5.10518H193.681V7.36101H197.631V8H192.984ZM200.718 8.12586C199.343 8.12586 198.433 7.39974 198.404 6.21857H199.091C199.12 7.02215 199.711 7.48687 200.718 7.48687C201.725 7.48687 202.344 6.99311 202.344 6.21857C202.344 5.38595 201.541 5.24073 200.679 5.11487C199.653 4.96964 198.549 4.77601 198.549 3.43026C198.549 2.30719 199.42 1.54233 200.727 1.54233C202.005 1.54233 202.857 2.26846 202.896 3.37217H202.228C202.189 2.64604 201.637 2.18132 200.727 2.18132C199.808 2.18132 199.227 2.66541 199.227 3.41089C199.227 4.22415 200.021 4.3597 200.882 4.49524C201.909 4.65983 203.022 4.84378 203.022 6.19921C203.022 7.38037 202.112 8.12586 200.718 8.12586ZM204.027 8V1.6682H208.675V2.30719H204.724V4.46619H208.113V5.10518H204.724V7.36101H208.675V8H204.027ZM209.621 8V4.15638C209.621 2.55891 210.57 1.54233 212.284 1.54233C213.988 1.54233 214.936 2.55891 214.936 4.15638V8H214.239V4.15638C214.239 2.93649 213.562 2.18132 212.284 2.18132C210.996 2.18132 210.318 2.93649 210.318 4.15638V8H209.621ZM217.646 8V2.30719H215.496V1.6682H220.492V2.30719H218.343V8H217.646ZM223.258 8.12586C221.883 8.12586 220.973 7.39974 220.944 6.21857H221.631C221.66 7.02215 222.251 7.48687 223.258 7.48687C224.265 7.48687 224.884 6.99311 224.884 6.21857C224.884 5.38595 224.081 5.24073 223.219 5.11487C222.193 4.96964 221.089 4.77601 221.089 3.43026C221.089 2.30719 221.96 1.54233 223.267 1.54233C224.545 1.54233 225.397 2.26846 225.436 3.37217H224.768C224.729 2.64604 224.178 2.18132 223.267 2.18132C222.348 2.18132 221.767 2.66541 221.767 3.41089C221.767 4.22415 222.561 4.3597 223.422 4.49524C224.449 4.65983 225.562 4.84378 225.562 6.19921C225.562 7.38037 224.652 8.12586 223.258 8.12586Z" fill="#FFE5D6"/>
<path d="M0.00476074 43.9525V18.1527H32.0649V25.7788H11.1215V28.0553H30.2816V34.0879H11.1215V36.3264H32.0649V43.9525H0.00476074ZM56.4351 27.4103V34.6949H34.2776V27.4103H56.4351ZM86.0068 28.5485C89.5733 28.5485 92.2418 29.067 94.0124 30.1041C95.7829 31.1158 96.6682 32.9749 96.6682 35.6814C96.6682 37.4014 96.4026 38.8558 95.8715 40.0446C95.3403 41.2334 94.5688 42.1566 93.5571 42.8143C92.5453 43.4466 91.4324 43.8893 90.2183 44.1422C89.0042 44.4205 87.6003 44.5596 86.0068 44.5596H69.3887C65.544 44.5596 62.7743 43.7881 61.0796 42.2452C59.3849 40.7022 58.5376 38.2487 58.5376 34.8846H69.161C69.1863 35.3399 69.376 35.6814 69.7302 35.909C70.0843 36.1367 70.4257 36.2758 70.7546 36.3264C71.1087 36.3517 71.5766 36.3643 72.1584 36.3643C73.7013 36.3643 76.1422 36.377 79.481 36.4023C82.8451 36.4023 84.7421 36.4023 85.1721 36.4023C85.678 36.4023 86.0321 36.2884 86.2345 36.0608C86.4621 35.8332 86.5759 35.4537 86.5759 34.9226C86.5759 34.2649 86.0827 33.9361 85.0962 33.9361C81.0998 33.8602 75.8007 33.7211 69.199 33.5188C65.6072 33.5188 62.9387 33.0129 61.1934 32.0011C59.4482 30.9894 58.5755 29.1429 58.5755 26.4617C58.5755 24.7417 58.8411 23.2873 59.3723 22.0985C59.9034 20.9097 60.6749 19.9991 61.6867 19.3668C62.6984 18.7091 63.8114 18.2538 65.0255 18.0009C66.2396 17.7227 67.6434 17.5836 69.2369 17.5836H85.2859C89.1053 17.5836 91.8624 18.355 93.5571 19.898C95.2518 21.4409 96.0991 23.8944 96.0991 27.2585H85.4757C85.4504 26.8032 85.2607 26.4617 84.9065 26.2341C84.5524 25.9811 84.211 25.842 83.8821 25.8167C83.5533 25.7662 83.0854 25.7409 82.4783 25.7409H70.0716C69.5657 25.7409 69.199 25.8547 68.9713 26.0823C68.769 26.2847 68.6678 26.6514 68.6678 27.1826C68.6678 27.815 69.1357 28.1311 70.0716 28.1311C73.9669 28.207 79.2786 28.3461 86.0068 28.5485ZM109.494 31.0526C109.494 32.7473 109.898 34.0499 110.708 34.9605C111.543 35.8711 112.693 36.3264 114.16 36.3264H119.624C121.066 36.3264 122.191 35.8711 123.001 34.9605C123.835 34.0499 124.253 32.7473 124.253 31.0526V18.1527H135.369V31.0526C135.369 33.2532 135.003 35.2387 134.269 37.0093C133.536 38.7799 132.549 40.1964 131.31 41.2587C130.096 42.3211 128.73 43.1305 127.212 43.6869C125.72 44.2434 124.139 44.5216 122.47 44.5216H111.277C109.608 44.5216 108.014 44.2434 106.496 43.6869C105.004 43.1305 103.638 42.3211 102.399 41.2587C101.185 40.1964 100.211 38.7799 99.4773 37.0093C98.7438 35.2387 98.3771 33.2532 98.3771 31.0526V18.1527H109.494V31.0526ZM182.304 18.1527V43.9525H171.149V28.3208L164.927 43.9525H155.176L148.992 28.3208V43.9525H137.837V18.1527H154.683L160.071 31.6976L165.42 18.1527H182.304ZM229.248 18.1527V43.9525H218.094V28.3208L211.871 43.9525H202.121L195.936 28.3208V43.9525H184.782V18.1527H201.627L207.015 31.6976L212.365 18.1527H229.248ZM231.726 43.9525V18.1527H242.843V43.9525H231.726ZM283.189 18.1527V26.6135H269.796V43.9525H258.679V26.6135C254.885 26.6388 250.434 26.6514 245.324 26.6514V18.1527H283.189ZM285.673 26.1961V18.1527H293.338V26.1961C293.338 27.5367 293.135 28.6117 292.73 29.4211C292.326 30.2305 291.63 31.0399 290.644 31.8494L287.836 29.1935C288.468 28.7635 288.898 28.3335 289.126 27.9035C289.379 27.4482 289.505 26.8791 289.505 26.1961H285.673ZM321.725 24.0187C321.725 25.0685 321.57 26.0442 321.262 26.9458C320.965 27.8474 320.582 28.6131 320.113 29.243C319.656 29.8729 319.076 30.5151 318.372 31.1697C317.68 31.8243 317.007 32.3924 316.352 32.8741C315.698 33.3434 314.95 33.9115 314.111 34.5784C313.283 35.2454 312.573 35.8752 311.98 36.4681C312.82 36.4681 314.104 36.4434 315.834 36.394C317.575 36.3446 318.896 36.3199 319.798 36.3199C320.65 36.3199 321.225 36.6101 321.521 37.1906C321.83 37.7587 321.984 38.58 321.984 39.6545C321.984 39.988 321.966 40.5561 321.929 41.3589C321.892 42.1493 321.873 42.7545 321.873 43.1744V43.5079C321.873 43.6932 321.861 43.8352 321.836 43.934C321.811 44.0328 321.743 44.1254 321.632 44.2119C321.521 44.2983 321.354 44.3601 321.132 44.3971H319.798C318.859 44.3724 316.859 44.323 313.796 44.2489C308.855 44.2489 303.458 44.3477 297.604 44.5453V44.1748C297.419 44.0637 297.264 43.8414 297.141 43.5079C297.03 43.1744 296.974 42.8039 296.974 42.3963V36.9868C296.974 36.7027 297.394 36.2828 298.234 35.727C301.63 33.4298 304.063 31.7625 305.533 30.7251L306.682 29.8358C309.35 27.7609 310.683 25.9083 310.683 24.2781C310.683 23.7593 310.529 23.3518 310.22 23.0553C309.924 22.7589 309.522 22.6107 309.016 22.6107C308.584 22.6107 308.238 22.7095 307.979 22.9071C307.732 23.0924 307.559 23.3271 307.46 23.6111C307.373 23.8828 307.299 24.1607 307.238 24.4448C307.188 24.7289 307.108 24.9882 306.997 25.2229C306.898 25.4575 306.744 25.5996 306.534 25.649H297.938C297.246 25.649 296.9 25.4637 296.9 25.0932C297.085 23.3147 297.511 21.7894 298.178 20.5173C298.845 19.2328 299.735 18.2201 300.846 17.4791C301.958 16.738 303.211 16.2008 304.607 15.8673C306.002 15.5215 307.596 15.3486 309.387 15.3486C310.683 15.3486 311.918 15.4536 313.092 15.6635C314.265 15.8611 315.383 16.1884 316.445 16.6454C317.507 17.09 318.421 17.6458 319.187 18.3127C319.965 18.9673 320.582 19.7824 321.039 20.7581C321.496 21.7338 321.725 22.8207 321.725 24.0187ZM324.059 36.5422C324.059 36.2705 324.244 36.0914 324.615 36.0049C324.998 35.9185 325.553 35.8752 326.282 35.8752H329.32C329.864 35.8752 330.667 35.8938 331.729 35.9308C332.791 35.9679 333.618 35.9864 334.211 35.9864C334.421 36.0111 334.576 36.1284 334.674 36.3384C334.785 36.5483 334.86 36.7707 334.897 37.0053C334.934 37.24 335.032 37.4561 335.193 37.6537C335.354 37.8513 335.594 37.9501 335.916 37.9501C337.151 37.9501 337.768 36.9127 337.768 34.8378C337.768 34.3932 337.75 34.0103 337.713 33.6892C337.676 33.3557 337.601 33.0099 337.49 32.6517C337.379 32.2936 337.194 32.0219 336.934 31.8366C336.687 31.639 336.373 31.5402 335.99 31.5402C335.545 31.5402 335.218 31.6513 335.008 31.8737C334.81 32.096 334.705 32.343 334.693 32.6147C334.681 32.8864 334.613 33.1334 334.489 33.3557C334.366 33.578 334.149 33.6892 333.841 33.6892H325.615C325.245 33.1581 325.059 32.4047 325.059 31.429V17.6087C325.059 17.3 325.066 17.0715 325.078 16.9233C325.09 16.7627 325.127 16.5775 325.189 16.3675C325.263 16.1576 325.368 15.9785 325.504 15.8303H345.882C346.142 15.8303 346.383 15.8858 346.605 15.997C346.84 16.1082 346.982 16.2625 347.031 16.4601V20.0542C347.031 20.1406 347.031 20.2641 347.031 20.4247C347.031 21.7709 346.994 22.5799 346.92 22.8516C346.858 23.1109 346.636 23.2406 346.253 23.2406C343.585 23.2406 339.682 23.2653 334.545 23.3147C334.508 23.6852 334.464 24.2472 334.415 25.0006C334.366 25.7539 334.322 26.3159 334.285 26.6864C334.903 26.2418 335.693 25.896 336.657 25.649C337.62 25.402 338.571 25.2785 339.51 25.2785C342.251 25.2785 344.45 26.1183 346.105 27.798C347.76 29.4653 348.587 31.6143 348.587 34.245C348.587 35.8011 348.34 37.2029 347.846 38.4503C347.365 39.6977 346.722 40.7228 345.92 41.5256C345.117 42.3284 344.166 43.0015 343.067 43.5449C341.98 44.076 340.862 44.4527 339.713 44.675C338.565 44.9097 337.373 45.027 336.138 45.027C335.31 45.027 334.532 44.9961 333.804 44.9344C333.087 44.8726 332.334 44.7615 331.543 44.6009C330.753 44.4404 330.031 44.2242 329.376 43.9525C328.721 43.6932 328.079 43.3473 327.449 42.9151C326.832 42.4704 326.294 41.9641 325.837 41.3959C325.393 40.8155 325.01 40.1115 324.689 39.284C324.368 38.4565 324.158 37.5426 324.059 36.5422Z" fill="white"/>
<path d="M40.7934 55.9484C40.7264 55.9781 40.6433 56.0079 40.5441 56.0376C40.4474 56.0674 40.3457 56.0823 40.2391 56.0823C40.1697 56.0823 40.1039 56.0736 40.0419 56.0562C39.9824 56.0389 39.9291 56.0116 39.882 55.9744C39.8373 55.9347 39.8014 55.8851 39.7741 55.8256C39.7468 55.7636 39.7332 55.6892 39.7332 55.6024V54.4827H39.4802V54.0995H39.7332V53.4671H40.2317V54.0995H40.6446V54.4827H40.2317V55.435C40.2317 55.5044 40.2503 55.554 40.2875 55.5838C40.3247 55.6111 40.3693 55.6247 40.4214 55.6247C40.4735 55.6247 40.5243 55.616 40.5739 55.5987C40.6235 55.5813 40.6632 55.5664 40.6929 55.554L40.7934 55.9484ZM42.9652 56.0488H42.4668V54.9551C42.4668 54.8014 42.4382 54.6885 42.3812 54.6166C42.3242 54.5422 42.2436 54.505 42.1394 54.505C42.0948 54.505 42.0476 54.5149 41.998 54.5348C41.9484 54.5546 41.9013 54.5831 41.8567 54.6203C41.812 54.655 41.7711 54.6972 41.7339 54.7468C41.6967 54.7964 41.6694 54.851 41.6521 54.9105V56.0488H41.1536V53.3332H41.6521V54.4604C41.724 54.3339 41.8207 54.2372 41.9422 54.1702C42.0662 54.1008 42.2026 54.066 42.3514 54.066C42.4779 54.066 42.5808 54.0884 42.6602 54.133C42.7396 54.1752 42.8016 54.2322 42.8462 54.3041C42.8908 54.376 42.9218 54.4579 42.9392 54.5496C42.9566 54.6414 42.9652 54.7356 42.9652 54.8324V56.0488Z" fill="white" fill-opacity="0.8"/>
<g style="mix-blend-mode:hard-light">
<path d="M94.232 94.352C93.6987 94.8213 92.9307 95.056 91.928 95.056C92.1947 95.5253 92.328 95.952 92.328 96.336C92.328 97.0827 92.0773 97.6587 91.576 98.064C91.0853 98.4693 90.456 98.672 89.688 98.672C88.6853 98.672 87.8 98.3147 87.032 97.6C86.2747 96.8747 85.6613 95.84 85.192 94.496C85.1813 94.4747 85.176 94.4427 85.176 94.4C85.176 94.304 85.2293 94.2187 85.336 94.144C85.4427 94.0693 85.56 94.032 85.688 94.032C85.8267 94.032 85.912 94.064 85.944 94.128C86.36 95.3333 86.8667 96.2293 87.464 96.816C88.072 97.392 88.776 97.68 89.576 97.68C90.0347 97.68 90.3867 97.5573 90.632 97.312C90.8773 97.056 91 96.688 91 96.208C91 95.8453 90.904 95.504 90.712 95.184C90.52 94.8533 90.2107 94.528 89.784 94.208C89.4213 94.272 89.112 94.304 88.856 94.304C88.792 94.304 88.7387 94.2613 88.696 94.176C88.6533 94.0907 88.632 93.9947 88.632 93.888C88.632 93.728 88.68 93.648 88.776 93.648C89.4587 93.6267 89.9707 93.4613 90.312 93.152C90.6533 92.832 90.824 92.3573 90.824 91.728C90.824 91.1627 90.696 90.7413 90.44 90.464C90.184 90.1867 89.8587 90.048 89.464 90.048C89.0267 90.048 88.6853 90.16 88.44 90.384C88.1947 90.5973 88.072 90.88 88.072 91.232C88.072 91.456 88.088 91.6213 88.12 91.728C88.1627 91.8347 88.184 91.904 88.184 91.936C88.184 92.0107 88.1253 92.048 88.008 92.048C87.7093 92.048 87.464 91.9467 87.272 91.744C87.08 91.5413 86.984 91.264 86.984 90.912C86.984 90.4747 87.2027 90.1173 87.64 89.84C88.0773 89.5627 88.68 89.424 89.448 89.424C90.2907 89.424 90.9467 89.6373 91.416 90.064C91.896 90.4907 92.136 91.04 92.136 91.712C92.136 92.16 92.0347 92.56 91.832 92.912C91.64 93.264 91.3413 93.552 90.936 93.776C91.2347 94.0853 91.6827 94.24 92.28 94.24C92.664 94.24 93.0107 94.176 93.32 94.048C93.64 93.92 93.944 93.712 94.232 93.424V90.304H92.536V89.6H97.208V90.304H95.592V100H94.232V94.352ZM107.992 90.304H106.376V100.016H105.032V95.472H100.28C99.864 95.472 99.5813 95.392 99.432 95.232C99.8373 96.032 100.264 96.72 100.712 97.296C101.171 97.872 101.848 98.6133 102.744 99.52C102.787 99.552 102.808 99.5947 102.808 99.648C102.808 99.7333 102.755 99.84 102.648 99.968C102.552 100.096 102.477 100.16 102.424 100.16C102.392 100.16 102.36 100.144 102.328 100.112C101.88 99.7707 101.267 99.2373 100.488 98.512C99.72 97.7867 99.032 97.04 98.424 96.272C97.816 95.4933 97.512 94.8587 97.512 94.368C97.512 94.08 97.608 93.8347 97.8 93.632C97.992 93.4187 98.2587 93.312 98.6 93.312C98.8453 93.312 99.064 93.3973 99.256 93.568C99.448 93.7387 99.6293 93.9947 99.8 94.336C100.269 94.1653 100.627 93.8933 100.872 93.52C101.128 93.1467 101.256 92.7413 101.256 92.304C101.256 91.952 101.192 91.5893 101.064 91.216C100.947 90.832 100.803 90.5227 100.632 90.288L96.792 90.304V89.6H107.992V90.304ZM105.032 90.304L101.48 90.288C101.768 90.4693 102.024 90.7467 102.248 91.12C102.483 91.4933 102.6 91.8987 102.6 92.336C102.6 92.816 102.451 93.2587 102.152 93.664C101.853 94.0693 101.453 94.4 100.952 94.656H105.032V90.304ZM115.093 95.776H110.757C110.693 96.1493 110.517 96.448 110.229 96.672C109.952 96.8853 109.627 96.992 109.253 96.992C108.827 96.992 108.464 96.8587 108.165 96.592C107.877 96.3147 107.733 95.9573 107.733 95.52C107.733 95.3173 107.771 95.1467 107.845 95.008C107.931 94.8693 108.048 94.8 108.197 94.8C108.272 94.8 108.405 94.8213 108.597 94.864C108.917 94.9387 109.2 94.976 109.445 94.976V90.304H107.573V89.6H114.469V90.304H110.773V94.976H115.093V95.776ZM125.274 89.6V90.304H123.674V100H122.314V95.776H119.082C119.018 96.1493 118.842 96.448 118.554 96.672C118.277 96.8853 117.951 96.992 117.578 96.992C117.151 96.992 116.789 96.8587 116.49 96.592C116.202 96.3147 116.058 95.9573 116.058 95.52C116.058 95.3173 116.101 95.1467 116.186 95.008C116.271 94.8693 116.389 94.8 116.538 94.8C116.602 94.8 116.73 94.8213 116.922 94.864C117.242 94.9387 117.525 94.976 117.77 94.976V91.696C117.77 91.28 117.674 90.9387 117.482 90.672C117.29 90.3947 117.007 90.256 116.634 90.256C116.357 90.256 116.117 90.3413 115.914 90.512C115.711 90.6827 115.61 90.944 115.61 91.296C115.61 91.68 115.706 91.9733 115.898 92.176C116.101 92.3787 116.431 92.48 116.89 92.48C116.975 92.48 117.018 92.592 117.018 92.816C117.018 92.9653 117.002 93.0773 116.97 93.152C116.938 93.216 116.869 93.248 116.762 93.248C116.058 93.248 115.503 93.072 115.098 92.72C114.693 92.3573 114.49 91.8827 114.49 91.296C114.49 90.72 114.703 90.2667 115.13 89.936C115.567 89.5947 116.095 89.424 116.714 89.424C117.546 89.424 118.149 89.648 118.522 90.096C118.906 90.544 119.098 91.0773 119.098 91.696V94.976H122.314V90.304H119.77V89.6H125.274ZM131.095 96.752C130.316 97.4667 129.511 97.824 128.679 97.824C128.124 97.824 127.617 97.7067 127.159 97.472C126.7 97.2267 126.337 96.8853 126.071 96.448C125.804 96.0107 125.671 95.504 125.671 94.928C125.671 94.1493 125.916 93.5093 126.407 93.008C126.897 92.496 127.569 92.24 128.423 92.24C129.041 92.24 129.527 92.368 129.879 92.624C130.231 92.88 130.407 93.2107 130.407 93.616C130.407 93.9467 130.305 94.2133 130.103 94.416C129.911 94.608 129.671 94.704 129.383 94.704C129.308 94.704 129.249 94.6987 129.207 94.688C129.175 94.6667 129.159 94.6293 129.159 94.576C129.159 94.544 129.18 94.4747 129.223 94.368C129.265 94.2613 129.286 94.0853 129.286 93.84C129.286 93.5627 129.212 93.3387 129.062 93.168C128.913 92.9867 128.695 92.896 128.407 92.896C128.012 92.896 127.681 93.072 127.414 93.424C127.148 93.7653 127.015 94.2667 127.015 94.928C127.015 95.5893 127.175 96.1013 127.495 96.464C127.825 96.816 128.231 96.992 128.711 96.992C129.148 96.992 129.559 96.9067 129.943 96.736C130.327 96.5547 130.711 96.2507 131.095 95.824V90.304H124.854V89.6H134.071V90.304H132.439V100H131.095V96.752ZM131.776 87.248C131.605 87.248 131.413 87.136 131.2 86.912C130.986 86.688 130.88 86.48 130.88 86.288C130.88 86.096 130.986 85.888 131.2 85.664C131.402 85.4293 131.594 85.312 131.776 85.312C131.968 85.312 132.176 85.4293 132.4 85.664C132.613 85.888 132.72 86.096 132.72 86.288C132.72 86.48 132.613 86.688 132.4 86.912C132.176 87.136 131.968 87.248 131.776 87.248ZM148.029 94.352C147.496 94.8213 146.728 95.056 145.725 95.056C145.992 95.5253 146.125 95.952 146.125 96.336C146.125 97.0827 145.874 97.6587 145.373 98.064C144.882 98.4693 144.253 98.672 143.485 98.672C142.482 98.672 141.597 98.3147 140.829 97.6C140.072 96.8747 139.458 95.84 138.989 94.496C138.978 94.4747 138.973 94.4427 138.973 94.4C138.973 94.304 139.026 94.2187 139.133 94.144C139.24 94.0693 139.357 94.032 139.485 94.032C139.624 94.032 139.709 94.064 139.741 94.128C140.157 95.3333 140.664 96.2293 141.261 96.816C141.869 97.392 142.573 97.68 143.373 97.68C143.832 97.68 144.184 97.5573 144.429 97.312C144.674 97.056 144.797 96.688 144.797 96.208C144.797 95.8453 144.701 95.504 144.509 95.184C144.317 94.8533 144.008 94.528 143.581 94.208C143.218 94.272 142.909 94.304 142.653 94.304C142.589 94.304 142.536 94.2613 142.493 94.176C142.45 94.0907 142.429 93.9947 142.429 93.888C142.429 93.728 142.477 93.648 142.573 93.648C143.256 93.6267 143.768 93.4613 144.109 93.152C144.45 92.832 144.621 92.3573 144.621 91.728C144.621 91.1627 144.493 90.7413 144.237 90.464C143.981 90.1867 143.656 90.048 143.261 90.048C142.824 90.048 142.482 90.16 142.237 90.384C141.992 90.5973 141.869 90.88 141.869 91.232C141.869 91.456 141.885 91.6213 141.917 91.728C141.96 91.8347 141.981 91.904 141.981 91.936C141.981 92.0107 141.922 92.048 141.805 92.048C141.506 92.048 141.261 91.9467 141.069 91.744C140.877 91.5413 140.781 91.264 140.781 90.912C140.781 90.4747 141 90.1173 141.437 89.84C141.874 89.5627 142.477 89.424 143.245 89.424C144.088 89.424 144.744 89.6373 145.213 90.064C145.693 90.4907 145.933 91.04 145.933 91.712C145.933 92.16 145.832 92.56 145.629 92.912C145.437 93.264 145.138 93.552 144.733 93.776C145.032 94.0853 145.48 94.24 146.077 94.24C146.461 94.24 146.808 94.176 147.117 94.048C147.437 93.92 147.741 93.712 148.029 93.424V90.304H146.333V89.6H151.005V90.304H149.389V100H148.029V94.352ZM156.509 95.952C156.21 96.2507 155.869 96.4907 155.485 96.672C155.101 96.8427 154.701 96.928 154.285 96.928C153.464 96.928 152.824 96.672 152.365 96.16C151.917 95.648 151.693 94.928 151.693 94V90.304H150.589V89.6H159.613V90.304H157.853V100H156.509V95.952ZM154.669 96.112C154.968 96.112 155.293 96.0107 155.645 95.808C155.997 95.6053 156.285 95.3387 156.509 95.008V90.304H153.037V94.048C153.037 94.6773 153.17 95.1787 153.437 95.552C153.714 95.9253 154.125 96.112 154.669 96.112ZM160.814 90.304H159.198V89.6H160.67C160.372 89.0347 160.222 88.4693 160.222 87.904C160.222 87.3173 160.377 86.8053 160.686 86.368C160.996 85.9307 161.433 85.5947 161.998 85.36C162.564 85.1147 163.22 84.992 163.966 84.992C165.438 84.992 166.756 85.344 167.918 86.048C169.092 86.752 170.121 87.7333 171.006 88.992L170.142 89.232C168.372 86.96 166.425 85.824 164.302 85.824C163.438 85.824 162.766 86.0053 162.286 86.368C161.806 86.7307 161.566 87.2427 161.566 87.904C161.566 88.512 161.732 89.0773 162.062 89.6H163.758V90.304H162.158V100H160.814V90.304ZM169.419 100.16C169.387 100.16 169.355 100.144 169.323 100.112C168.875 99.7813 168.267 99.2533 167.499 98.528C166.731 97.792 166.043 97.04 165.435 96.272C164.827 95.4933 164.523 94.8587 164.523 94.368C164.523 94.08 164.613 93.8347 164.795 93.632C164.987 93.4187 165.253 93.312 165.595 93.312C166.075 93.312 166.475 93.6533 166.795 94.336C167.285 94.1653 167.648 93.9147 167.883 93.584C168.128 93.2427 168.251 92.816 168.251 92.304C168.251 91.5893 168.091 90.9227 167.771 90.304H163.354V89.6H170.587V90.304H168.715C168.981 90.528 169.195 90.816 169.355 91.168C169.515 91.5093 169.595 91.8987 169.595 92.336C169.595 92.816 169.445 93.2587 169.147 93.664C168.848 94.0693 168.453 94.4 167.963 94.656C167.472 94.9013 166.944 95.056 166.379 95.12C166.795 95.9627 167.232 96.6773 167.691 97.264C168.149 97.8507 168.837 98.6027 169.755 99.52C169.797 99.552 169.819 99.5947 169.819 99.648C169.819 99.7333 169.765 99.84 169.659 99.968C169.552 100.096 169.472 100.16 169.419 100.16ZM174.455 93.008C173.794 93.008 173.324 93.104 173.047 93.296C172.77 93.488 172.631 93.792 172.631 94.208C172.631 94.4427 172.684 94.656 172.791 94.848C172.898 95.0293 173.047 95.1787 173.239 95.296C173.751 95.1467 174.327 95.072 174.967 95.072C175.927 95.072 176.706 95.2907 177.303 95.728C177.911 96.1653 178.215 96.7627 178.215 97.52C178.215 98.0533 178.071 98.5067 177.783 98.88C177.495 99.2427 177.159 99.52 176.775 99.712C176.402 99.8933 176.103 99.984 175.879 99.984C175.826 99.984 175.762 99.9307 175.687 99.824C175.612 99.7173 175.575 99.6 175.575 99.472C175.575 99.408 175.596 99.3707 175.639 99.36C176.492 99.0187 176.919 98.3893 176.919 97.472C176.919 96.9813 176.727 96.5973 176.343 96.32C175.97 96.032 175.404 95.888 174.647 95.888C174.071 95.888 173.559 96.0533 173.111 96.384C172.663 96.704 172.439 97.1893 172.439 97.84C172.439 98.48 172.567 99.008 172.823 99.424C173.09 99.84 173.575 100.299 174.279 100.8C174.439 100.917 174.519 101.003 174.519 101.056C174.519 101.141 174.476 101.237 174.391 101.344C174.316 101.461 174.236 101.52 174.151 101.52C173.916 101.52 173.554 101.344 173.063 100.992C172.572 100.651 172.135 100.203 171.751 99.648C171.367 99.0827 171.175 98.48 171.175 97.84C171.175 97.4133 171.266 97.0187 171.447 96.656C171.639 96.2933 171.922 95.9893 172.295 95.744C171.986 95.5413 171.746 95.3013 171.575 95.024C171.415 94.736 171.335 94.432 171.335 94.112C171.335 93.504 171.559 93.04 172.007 92.72C172.455 92.3893 173.127 92.224 174.023 92.224H176.215V90.304H170.167V89.6H179.303V90.304H177.559V93.008H174.455ZM180.502 100V90.304H178.886V89.6H183.446V90.304H181.846V100H180.502ZM189.106 100.16C189.074 100.16 189.042 100.144 189.01 100.112C188.562 99.7813 187.954 99.2533 187.186 98.528C186.418 97.792 185.73 97.04 185.122 96.272C184.514 95.4933 184.21 94.8587 184.21 94.368C184.21 94.08 184.301 93.8347 184.482 93.632C184.674 93.4187 184.941 93.312 185.282 93.312C185.762 93.312 186.162 93.6533 186.482 94.336C186.973 94.1653 187.335 93.9147 187.57 93.584C187.815 93.2427 187.938 92.816 187.938 92.304C187.938 91.5893 187.778 90.9227 187.458 90.304H183.042V89.6H190.274V90.304H188.402C188.669 90.528 188.882 90.816 189.042 91.168C189.202 91.5093 189.282 91.8987 189.282 92.336C189.282 92.816 189.133 93.2587 188.834 93.664C188.535 94.0693 188.141 94.4 187.65 94.656C187.159 94.9013 186.631 95.056 186.066 95.12C186.482 95.9627 186.919 96.6773 187.378 97.264C187.837 97.8507 188.525 98.6027 189.442 99.52C189.485 99.552 189.506 99.5947 189.506 99.648C189.506 99.7333 189.453 99.84 189.346 99.968C189.239 100.096 189.159 100.16 189.106 100.16ZM186.828 102.416C186.946 102.501 187.004 102.587 187.004 102.672C187.004 102.821 186.919 102.997 186.748 103.2C186.588 103.403 186.444 103.504 186.316 103.504C186.22 103.504 186.114 103.451 185.996 103.344L183.276 100.848L182.924 101.312C182.85 101.419 182.786 101.488 182.732 101.52C182.679 101.552 182.62 101.568 182.556 101.568C182.45 101.568 182.322 101.472 182.172 101.28C182.023 101.088 181.948 100.933 181.948 100.816C181.948 100.731 182.028 100.635 182.188 100.528L183.244 99.888L186.828 102.416ZM199.583 90.304H197.967V100H196.623V96.944C196.303 97.2 195.94 97.4187 195.535 97.6C195.129 97.7707 194.703 97.856 194.255 97.856C193.583 97.856 192.969 97.712 192.414 97.424C191.86 97.136 191.417 96.7253 191.087 96.192C190.756 95.6587 190.59 95.04 190.59 94.336C191.401 94.2293 191.988 93.9947 192.351 93.632C192.724 93.2693 192.911 92.8267 192.911 92.304C192.911 91.9413 192.815 91.584 192.623 91.232C192.431 90.88 192.143 90.5707 191.759 90.304H189.854V89.6H199.583V90.304ZM196.623 90.304H192.783C193.231 90.5387 193.588 90.8267 193.855 91.168C194.132 91.5093 194.271 91.8987 194.271 92.336C194.271 92.9333 194.057 93.4453 193.631 93.872C193.204 94.288 192.633 94.5813 191.919 94.752C192.004 95.5413 192.271 96.1333 192.719 96.528C193.177 96.9227 193.737 97.12 194.399 97.12C194.868 97.12 195.279 97.0187 195.631 96.816C195.993 96.6133 196.324 96.368 196.623 96.08V90.304ZM197.307 87.248C197.136 87.248 196.944 87.136 196.731 86.912C196.518 86.688 196.411 86.48 196.411 86.288C196.411 86.096 196.518 85.888 196.731 85.664C196.934 85.4293 197.126 85.312 197.307 85.312C197.499 85.312 197.707 85.4293 197.931 85.664C198.144 85.888 198.251 86.096 198.251 86.288C198.251 86.48 198.144 86.688 197.931 86.912C197.707 87.136 197.499 87.248 197.307 87.248ZM210.025 95.952C209.726 96.2507 209.385 96.4907 209.001 96.672C208.617 96.8427 208.217 96.928 207.801 96.928C206.979 96.928 206.339 96.672 205.881 96.16C205.433 95.648 205.209 94.928 205.209 94V90.304H204.104V89.6H213.128V90.304H211.369V100H210.025V95.952ZM208.185 96.112C208.483 96.112 208.809 96.0107 209.161 95.808C209.513 95.6053 209.801 95.3387 210.025 95.008V90.304H206.553V94.048C206.553 94.6773 206.686 95.1787 206.953 95.552C207.23 95.9253 207.641 96.112 208.185 96.112ZM214.33 90.304H212.714V89.6H214.186C213.887 89.0347 213.738 88.4693 213.738 87.904C213.738 87.3173 213.893 86.8053 214.202 86.368C214.511 85.9307 214.949 85.5947 215.514 85.36C216.079 85.1147 216.735 84.992 217.482 84.992C218.954 84.992 220.271 85.344 221.434 86.048C222.607 86.752 223.637 87.7333 224.522 88.992L223.658 89.232C221.887 86.96 219.941 85.824 217.818 85.824C216.954 85.824 216.282 86.0053 215.802 86.368C215.322 86.7307 215.082 87.2427 215.082 87.904C215.082 88.512 215.247 89.0773 215.578 89.6H217.274V90.304H215.674V100H214.33V90.304ZM222.934 100.16C222.902 100.16 222.87 100.144 222.838 100.112C222.39 99.7813 221.782 99.2533 221.014 98.528C220.246 97.792 219.558 97.04 218.95 96.272C218.342 95.4933 218.038 94.8587 218.038 94.368C218.038 94.08 218.129 93.8347 218.31 93.632C218.502 93.4187 218.769 93.312 219.11 93.312C219.59 93.312 219.99 93.6533 220.31 94.336C220.801 94.1653 221.163 93.9147 221.398 93.584C221.643 93.2427 221.766 92.816 221.766 92.304C221.766 91.5893 221.606 90.9227 221.286 90.304H216.87V89.6H224.102V90.304H222.23C222.497 90.528 222.71 90.816 222.87 91.168C223.03 91.5093 223.11 91.8987 223.11 92.336C223.11 92.816 222.961 93.2587 222.662 93.664C222.363 94.0693 221.969 94.4 221.478 94.656C220.987 94.9013 220.459 95.056 219.894 95.12C220.31 95.9627 220.747 96.6773 221.206 97.264C221.665 97.8507 222.353 98.6027 223.27 99.52C223.313 99.552 223.334 99.5947 223.334 99.648C223.334 99.7333 223.281 99.84 223.174 99.968C223.067 100.096 222.987 100.16 222.934 100.16ZM232.931 90.304H230.723V94.624C230.723 95.552 230.488 96.272 230.019 96.784C229.56 97.296 228.851 97.552 227.891 97.552C226.877 97.552 226.141 97.2587 225.683 96.672C225.235 96.0853 225.011 95.2373 225.011 94.128V90.304H223.683V89.6H236.019V90.304H234.275V100H232.931V90.304ZM227.843 96.736C228.472 96.736 228.883 96.5333 229.075 96.128C229.277 95.7227 229.379 95.1253 229.379 94.336V90.304H226.339V94.336C226.339 95.0613 226.435 95.6427 226.627 96.08C226.819 96.5173 227.224 96.736 227.843 96.736ZM245.301 89.6V90.304H243.685V100H242.325V95.776H238.789C238.725 96.1493 238.549 96.448 238.261 96.672C237.983 96.8853 237.658 96.992 237.285 96.992C236.858 96.992 236.495 96.8587 236.197 96.592C235.909 96.3147 235.764 95.9573 235.764 95.52C235.764 95.3173 235.802 95.1467 235.877 95.008C235.962 94.8693 236.079 94.8 236.229 94.8C236.303 94.8 236.437 94.8213 236.629 94.864C236.949 94.9387 237.231 94.976 237.477 94.976V90.304H235.604V89.6H245.301ZM238.805 94.976H242.325V90.304H238.805V94.976ZM246.502 90.304H244.886V89.6H246.358C246.059 89.0347 245.91 88.4693 245.91 87.904C245.91 87.3173 246.064 86.8053 246.374 86.368C246.683 85.9307 247.12 85.5947 247.686 85.36C248.251 85.1147 248.907 84.992 249.654 84.992C251.126 84.992 252.443 85.344 253.606 86.048C254.779 86.752 255.808 87.7333 256.694 88.992L255.83 89.232C254.059 86.96 252.112 85.824 249.99 85.824C249.126 85.824 248.454 86.0053 247.974 86.368C247.494 86.7307 247.254 87.2427 247.254 87.904C247.254 88.512 247.419 89.0773 247.75 89.6H249.446V90.304H247.846V100H246.502V90.304ZM253.282 100.048C253.25 100.048 253.218 100.032 253.186 100C253.101 99.9147 252.909 99.76 252.61 99.536C252.13 99.1627 251.719 98.8213 251.378 98.512C251.047 98.2027 250.749 97.84 250.482 97.424C250.215 97.008 250.082 96.5813 250.082 96.144C250.082 95.1733 250.386 94.432 250.994 93.92C251.602 93.3973 252.535 93.136 253.794 93.136H256.002V90.304H249.042V89.6H258.962V90.304H257.362V100H256.002V93.952H254.194C253.309 93.952 252.615 94.0907 252.114 94.368C251.613 94.6347 251.362 95.168 251.362 95.968C251.362 96.64 251.543 97.232 251.906 97.744C252.269 98.2453 252.823 98.8213 253.57 99.472C253.613 99.5147 253.634 99.5573 253.634 99.6C253.634 99.6853 253.591 99.7813 253.506 99.888C253.421 99.9947 253.346 100.048 253.282 100.048ZM261.566 100V89.6H262.91V100H261.566Z" fill="white"/>
</g>
</svg>
