<svg width="300" height="90" viewBox="0 0 300 90" fill="none" xmlns="http://www.w3.org/2000/svg">
<path d="M18.7784 59.9731V14.0202H38.4725C50.092 14.0202 57.5758 19.994 57.5758 30.1693V30.3006C57.5758 41.1324 49.2386 46.8437 37.816 46.8437H31.5139V59.9731H18.7784ZM31.5139 36.8653H37.5534C42.0831 36.8653 44.8402 34.502 44.8402 30.8914V30.7602C44.8402 26.8213 42.0831 24.7206 37.4878 24.7206H31.5139V36.8653ZM98.5523 60.8265C87.1954 60.8265 78.9895 52.4893 78.9895 42.3797V42.2484C78.9895 32.1387 87.261 23.6703 98.6836 23.6703C110.041 23.6703 118.246 32.0074 118.246 42.1171V42.2484C118.246 52.358 109.975 60.8265 98.5523 60.8265ZM98.6836 50.2573C103.213 50.2573 106.102 46.6467 106.102 42.3797V42.2484C106.102 37.9157 102.951 34.2394 98.5523 34.2394C94.0227 34.2394 91.1342 37.85 91.1342 42.1171V42.2484C91.1342 46.5811 94.2853 50.2573 98.6836 50.2573ZM123.515 59.9731V24.458H135.988V29.4472C138.285 26.4931 141.568 23.6703 146.622 23.6703C154.172 23.6703 158.701 28.6595 158.701 36.734V59.9731H146.228V40.7385C146.228 36.8653 144.193 34.7646 141.239 34.7646C138.22 34.7646 135.988 36.8653 135.988 40.7385V59.9731H123.515ZM182.714 60.8265C171.554 60.8265 163.677 53.4084 163.677 42.3797V42.2484C163.677 31.8762 171.095 23.6703 181.598 23.6703C193.874 23.6703 199.52 32.6639 199.52 43.1018C199.52 43.8896 199.52 44.8086 199.454 45.662H175.69C176.675 49.5352 179.498 51.5046 183.371 51.5046C186.325 51.5046 188.688 50.3886 191.249 47.894L198.141 53.6053C194.728 57.938 189.804 60.8265 182.714 60.8265ZM175.493 39.2943H187.835C187.375 35.3554 185.078 32.8609 181.664 32.8609C178.382 32.8609 176.15 35.4211 175.493 39.2943ZM223.075 59.9731V24.458H235.548V31.6136C237.583 26.7557 240.865 23.6046 246.774 23.8672V36.9966H245.723C239.224 36.9966 235.548 40.7385 235.548 48.9444V59.9731H223.075ZM259.663 60.7608C252.901 60.7608 247.715 56.8877 247.715 49.7978V49.6665C247.715 42.314 253.295 38.5065 261.632 38.5065C264.915 38.5065 268.131 39.163 270.166 39.8851V39.2943C270.166 35.618 267.869 33.5173 263.077 33.5173C259.335 33.5173 256.446 34.2394 253.295 35.4867L250.735 26.69C254.739 25.0489 259.006 23.9329 265.112 23.9329C271.479 23.9329 275.812 25.4427 278.635 28.2656C281.326 30.8914 282.442 34.5677 282.442 39.5569V59.9731H270.101V56.2968C267.672 58.9884 264.324 60.7608 259.663 60.7608ZM264.127 52.9489C267.738 52.9489 270.298 50.6512 270.298 47.1063V45.4651C269.05 44.9399 267.278 44.546 265.44 44.546C261.829 44.546 259.729 46.3185 259.729 48.9444V49.0757C259.729 51.5046 261.567 52.9489 264.127 52.9489Z" fill="url(#paint0_linear_485_43)"/>
<ellipse cx="98.8043" cy="43.4213" rx="11.0676" ry="11.0676" fill="url(#paint1_linear_485_43)"/>
<path d="M82.259 76.7378V75.3491H84.4882C84.8942 75.3491 85.2028 75.2395 85.4139 75.0202C85.6251 74.7928 85.7307 74.4842 85.7307 74.0944C85.7307 73.7046 85.6251 73.4042 85.4139 73.193C85.2028 72.9738 84.8942 72.8641 84.4882 72.8641H82.259V71.8044H84.3663C84.9592 71.8044 85.487 71.8774 85.9499 72.0236C86.4209 72.1617 86.7864 72.3972 87.0462 72.7301C87.3142 73.0631 87.4482 73.5097 87.4482 74.0701V74.2406C87.4482 74.7685 87.3305 75.2192 87.095 75.5927C86.8676 75.9582 86.5224 76.2424 86.0595 76.4454C85.6048 76.6403 85.0404 76.7378 84.3663 76.7378H82.259ZM80.8094 76.7378V67.7236H82.5026V76.7378H80.8094ZM82.259 72.584V71.5242H84.1593C84.5734 71.5242 84.878 71.4146 85.0729 71.1953C85.2678 70.976 85.3652 70.6837 85.3652 70.3182C85.3652 69.9528 85.2678 69.6604 85.0729 69.4412C84.878 69.2219 84.5734 69.1123 84.1593 69.1123H82.259V67.7236H84.0009C85.0079 67.7236 85.7713 67.9348 86.291 68.357C86.8189 68.7793 87.0828 69.3843 87.0828 70.1721V70.3426C87.0828 70.8948 86.9488 71.3374 86.6808 71.6704C86.4209 71.9952 86.0595 72.2307 85.5967 72.3769C85.1338 72.5149 84.6019 72.584 84.0009 72.584H82.259ZM91.3155 76.884C90.5521 76.884 89.9593 76.6322 89.537 76.1287C89.1229 75.6252 88.9158 74.8781 88.9158 73.8874V70.0502H90.609V74.0335C90.609 74.4396 90.7227 74.7644 90.9501 75.008C91.1774 75.2435 91.486 75.3613 91.8758 75.3613C92.2656 75.3613 92.5824 75.2354 92.826 74.9837C93.0777 74.7319 93.2036 74.3909 93.2036 73.9604V70.0502H94.8968V76.6769H93.5569V73.863H93.6909C93.6909 74.5289 93.6056 75.0852 93.4351 75.5318C93.2645 75.9785 93.0087 76.3155 92.6676 76.5429C92.3266 76.7703 91.9002 76.884 91.3886 76.884H91.3155ZM97.1585 76.6769V70.0624H98.8517V76.6769H97.1585ZM96.2328 71.3293V70.0624H98.8517V71.3293H96.2328ZM97.7798 69.2706C97.4468 69.2706 97.1991 69.1854 97.0367 69.0148C96.8824 68.8362 96.8053 68.6169 96.8053 68.357C96.8053 68.0809 96.8824 67.8576 97.0367 67.6871C97.1991 67.5165 97.4468 67.4313 97.7798 67.4313C98.1127 67.4313 98.3564 67.5165 98.5107 67.6871C98.665 67.8576 98.7421 68.0809 98.7421 68.357C98.7421 68.6169 98.665 68.8362 98.5107 69.0148C98.3564 69.1854 98.1127 69.2706 97.7798 69.2706ZM100.888 76.6769V67.7845H102.582V76.6769H100.888ZM100.06 69.0514V67.7845H102.582V69.0514H100.06ZM107.255 76.8961C106.793 76.8961 106.366 76.8109 105.976 76.6403C105.587 76.4698 105.25 76.2302 104.965 75.9216C104.681 75.613 104.462 75.2557 104.308 74.8497C104.153 74.4355 104.076 73.9889 104.076 73.5097V73.2539C104.076 72.7829 104.149 72.3403 104.295 71.9262C104.45 71.512 104.661 71.1506 104.929 70.842C105.205 70.5334 105.534 70.2939 105.915 70.1233C106.305 69.9447 106.736 69.8553 107.207 69.8553C107.726 69.8553 108.181 69.969 108.571 70.1964C108.969 70.4157 109.286 70.7486 109.521 71.1953C109.757 71.6419 109.887 72.2023 109.911 72.8763L109.412 72.2916V67.7845H111.105V76.6769H109.765V73.863H110.057C110.033 74.537 109.895 75.1014 109.643 75.5562C109.391 76.0028 109.058 76.3399 108.644 76.5672C108.238 76.7865 107.775 76.8961 107.255 76.8961ZM107.633 75.4709C107.966 75.4709 108.271 75.3978 108.547 75.2517C108.823 75.0974 109.042 74.8781 109.204 74.5939C109.375 74.3015 109.46 73.9604 109.46 73.5706V73.0834C109.46 72.6936 109.375 72.3688 109.204 72.1089C109.034 71.8409 108.811 71.6379 108.534 71.4998C108.258 71.3536 107.958 71.2806 107.633 71.2806C107.268 71.2806 106.943 71.3699 106.659 71.5485C106.382 71.7191 106.163 71.9627 106.001 72.2794C105.846 72.5961 105.769 72.9656 105.769 73.3879C105.769 73.8102 105.851 74.1797 106.013 74.4964C106.175 74.805 106.395 75.0446 106.671 75.2151C106.955 75.3857 107.276 75.4709 107.633 75.4709ZM112.764 76.6769V74.7279H114.664V76.6769H112.764ZM123.074 76.9083C122.27 76.9083 121.58 76.7662 121.003 76.482C120.427 76.1977 119.956 75.8282 119.59 75.3735C119.233 74.9187 118.969 74.4233 118.798 73.8874C118.628 73.3514 118.543 72.8357 118.543 72.3403V72.0723C118.543 71.5201 118.628 70.976 118.798 70.44C118.977 69.9041 119.249 69.4168 119.615 68.9783C119.98 68.5398 120.443 68.1906 121.003 67.9307C121.572 67.6627 122.242 67.5287 123.013 67.5287C123.817 67.5287 124.515 67.6749 125.108 67.9672C125.709 68.2515 126.188 68.6575 126.546 69.1854C126.903 69.7051 127.118 70.3142 127.191 71.0126H125.449C125.384 70.6065 125.238 70.2654 125.011 69.9893C124.792 69.7051 124.511 69.494 124.17 69.3559C123.829 69.2097 123.444 69.1366 123.013 69.1366C122.575 69.1366 122.185 69.2138 121.844 69.3681C121.503 69.5143 121.218 69.7254 120.991 70.0015C120.764 70.2776 120.589 70.6025 120.467 70.976C120.354 71.3496 120.297 71.7637 120.297 72.2185C120.297 72.657 120.354 73.0631 120.467 73.4366C120.589 73.8102 120.768 74.1391 121.003 74.4233C121.239 74.6994 121.527 74.9146 121.868 75.0689C122.217 75.2232 122.619 75.3004 123.074 75.3004C123.74 75.3004 124.3 75.138 124.755 74.8131C125.218 74.4802 125.498 74.0173 125.596 73.4245H127.337C127.256 74.0579 127.041 74.6385 126.692 75.1664C126.343 75.6943 125.864 76.1165 125.254 76.4333C124.645 76.75 123.919 76.9083 123.074 76.9083ZM131.842 76.9083C131.258 76.9083 130.742 76.8149 130.295 76.6282C129.849 76.4414 129.471 76.1896 129.163 75.8729C128.854 75.5481 128.618 75.1826 128.456 74.7766C128.302 74.3706 128.225 73.9483 128.225 73.5097V73.2539C128.225 72.7992 128.306 72.3688 128.468 71.9627C128.639 71.5485 128.878 71.1831 129.187 70.8664C129.504 70.5416 129.885 70.2898 130.332 70.1111C130.779 69.9244 131.282 69.831 131.842 69.831C132.403 69.831 132.906 69.9244 133.353 70.1111C133.8 70.2898 134.177 70.5416 134.486 70.8664C134.803 71.1831 135.042 71.5485 135.205 71.9627C135.367 72.3688 135.448 72.7992 135.448 73.2539V73.5097C135.448 73.9483 135.367 74.3706 135.205 74.7766C135.05 75.1826 134.819 75.5481 134.51 75.8729C134.202 76.1896 133.824 76.4414 133.377 76.6282C132.931 76.8149 132.419 76.9083 131.842 76.9083ZM131.842 75.4587C132.257 75.4587 132.606 75.3694 132.89 75.1908C133.174 75.004 133.389 74.7563 133.536 74.4477C133.682 74.131 133.755 73.7737 133.755 73.3757C133.755 72.9697 133.678 72.6124 133.523 72.3038C133.377 71.9871 133.158 71.7394 132.866 71.5607C132.581 71.3739 132.24 71.2806 131.842 71.2806C131.445 71.2806 131.099 71.3739 130.807 71.5607C130.523 71.7394 130.304 71.9871 130.149 72.3038C129.995 72.6124 129.918 72.9697 129.918 73.3757C129.918 73.7737 129.991 74.131 130.137 74.4477C130.291 74.7563 130.511 75.004 130.795 75.1908C131.079 75.3694 131.428 75.4587 131.842 75.4587ZM136.931 76.6769V70.0624H138.271V72.9007H138.149C138.149 72.2266 138.238 71.6663 138.417 71.2196C138.596 70.7649 138.859 70.4238 139.209 70.1964C139.566 69.969 140.009 69.8553 140.536 69.8553H140.609C141.397 69.8553 141.994 70.1111 142.4 70.6228C142.806 71.1263 143.009 71.8815 143.009 72.8885V76.6769H141.316V72.7423C141.316 72.3363 141.198 72.0074 140.963 71.7556C140.735 71.5039 140.419 71.378 140.013 71.378C139.598 71.378 139.261 71.5079 139.002 71.7678C138.75 72.0196 138.624 72.3606 138.624 72.791V76.6769H136.931ZM144.83 76.6769V70.0624H146.169V72.9007H146.048C146.048 72.2266 146.137 71.6663 146.316 71.2196C146.494 70.7649 146.758 70.4238 147.107 70.1964C147.465 69.969 147.907 69.8553 148.435 69.8553H148.508C149.296 69.8553 149.893 70.1111 150.299 70.6228C150.705 71.1263 150.908 71.8815 150.908 72.8885V76.6769H149.215V72.7423C149.215 72.3363 149.097 72.0074 148.862 71.7556C148.634 71.5039 148.317 71.378 147.911 71.378C147.497 71.378 147.16 71.5079 146.9 71.7678C146.649 72.0196 146.523 72.3606 146.523 72.791V76.6769H144.83ZM155.688 76.9083C155.12 76.9083 154.621 76.8109 154.19 76.616C153.768 76.4211 153.415 76.1612 153.13 75.8364C152.854 75.5034 152.643 75.1339 152.497 74.7279C152.359 74.3218 152.29 73.9077 152.29 73.4854V73.2539C152.29 72.8154 152.359 72.3931 152.497 71.9871C152.643 71.5729 152.854 71.2075 153.13 70.8908C153.415 70.5659 153.764 70.3101 154.178 70.1233C154.592 69.9284 155.071 69.831 155.615 69.831C156.33 69.831 156.927 69.9893 157.406 70.3061C157.893 70.6146 158.259 71.0247 158.502 71.5364C158.746 72.0399 158.868 72.584 158.868 73.1687V73.7777H153.009V72.7423H157.808L157.284 73.2539C157.284 72.8316 157.223 72.4703 157.101 72.1698C156.98 71.8693 156.793 71.6379 156.541 71.4755C156.298 71.313 155.989 71.2318 155.615 71.2318C155.242 71.2318 154.925 71.3171 154.665 71.4876C154.405 71.6582 154.206 71.9059 154.068 72.2307C153.938 72.5474 153.873 72.9291 153.873 73.3757C153.873 73.7899 153.938 74.1594 154.068 74.4842C154.198 74.801 154.397 75.0527 154.665 75.2395C154.933 75.4181 155.274 75.5075 155.688 75.5075C156.103 75.5075 156.44 75.4263 156.699 75.2638C156.959 75.0933 157.126 74.8862 157.199 74.6426H158.758C158.661 75.0974 158.474 75.4953 158.198 75.8364C157.922 76.1774 157.568 76.4414 157.138 76.6282C156.716 76.8149 156.233 76.9083 155.688 76.9083ZM163.218 76.9083C162.641 76.9083 162.142 76.8109 161.72 76.616C161.305 76.4211 160.956 76.1612 160.672 75.8364C160.396 75.5115 160.189 75.1461 160.051 74.7401C159.913 74.334 159.844 73.9198 159.844 73.4976V73.2661C159.844 72.8195 159.913 72.3931 160.051 71.9871C160.197 71.5729 160.412 71.2075 160.696 70.8908C160.981 70.5659 161.33 70.3101 161.744 70.1233C162.166 69.9284 162.654 69.831 163.206 69.831C163.782 69.831 164.298 69.9447 164.753 70.1721C165.208 70.3913 165.569 70.6999 165.837 71.0978C166.113 71.4958 166.267 71.9586 166.3 72.4865H164.655C164.615 72.1454 164.469 71.8612 164.217 71.6338C163.973 71.4064 163.636 71.2927 163.206 71.2927C162.832 71.2927 162.52 71.3821 162.268 71.5607C162.024 71.7394 161.841 71.9871 161.72 72.3038C161.598 72.6124 161.537 72.9697 161.537 73.3757C161.537 73.7655 161.594 74.1188 161.707 74.4355C161.829 74.7522 162.012 74.9999 162.256 75.1786C162.507 75.3572 162.828 75.4466 163.218 75.4466C163.51 75.4466 163.762 75.3938 163.973 75.2882C164.184 75.1826 164.351 75.0365 164.473 74.8497C164.603 74.6629 164.684 74.4518 164.716 74.2163H166.361C166.328 74.7522 166.17 75.2232 165.886 75.6293C165.61 76.0272 165.24 76.3399 164.777 76.5672C164.322 76.7946 163.803 76.9083 163.218 76.9083ZM170.592 76.7621C169.983 76.7621 169.479 76.685 169.081 76.5307C168.692 76.3683 168.399 76.1003 168.204 75.7267C168.009 75.3451 167.912 74.8334 167.912 74.1919L167.924 68.1987H169.508L169.496 74.3015C169.496 74.6264 169.581 74.8781 169.751 75.0568C169.93 75.2273 170.182 75.3126 170.507 75.3126H171.542V76.7621H170.592ZM166.864 71.3049V70.0624H171.542V71.3049H166.864ZM172.695 76.6769V74.7279H174.595V76.6769H172.695ZM180.447 76.7378V75.3491H182.676C183.082 75.3491 183.391 75.2395 183.602 75.0202C183.813 74.7928 183.919 74.4842 183.919 74.0944C183.919 73.7046 183.813 73.4042 183.602 73.193C183.391 72.9738 183.082 72.8641 182.676 72.8641H180.447V71.8044H182.554C183.147 71.8044 183.675 71.8774 184.138 72.0236C184.609 72.1617 184.974 72.3972 185.234 72.7301C185.502 73.0631 185.636 73.5097 185.636 74.0701V74.2406C185.636 74.7685 185.519 75.2192 185.283 75.5927C185.056 75.9582 184.711 76.2424 184.248 76.4454C183.793 76.6403 183.228 76.7378 182.554 76.7378H180.447ZM178.997 76.7378V67.7236H180.691V76.7378H178.997ZM180.447 72.584V71.5242H182.347C182.762 71.5242 183.066 71.4146 183.261 71.1953C183.456 70.976 183.553 70.6837 183.553 70.3182C183.553 69.9528 183.456 69.6604 183.261 69.4412C183.066 69.2219 182.762 69.1123 182.347 69.1123H180.447V67.7236H182.189C183.196 67.7236 183.959 67.9348 184.479 68.357C185.007 68.7793 185.271 69.3843 185.271 70.1721V70.3426C185.271 70.8948 185.137 71.3374 184.869 71.6704C184.609 71.9952 184.248 72.2307 183.785 72.3769C183.322 72.5149 182.79 72.584 182.189 72.584H180.447ZM187.25 76.6769V70.0624H188.59V72.8641H188.553C188.553 71.914 188.756 71.1953 189.163 70.708C189.569 70.2208 190.165 69.9772 190.953 69.9772H191.197V71.4511H190.734C190.165 71.4511 189.723 71.6054 189.406 71.914C189.098 72.2145 188.943 72.653 188.943 73.2296V76.6769H187.25ZM195.242 76.9083C194.674 76.9083 194.174 76.8109 193.744 76.616C193.321 76.4211 192.968 76.1612 192.684 75.8364C192.408 75.5034 192.197 75.1339 192.051 74.7279C191.912 74.3218 191.843 73.9077 191.843 73.4854V73.2539C191.843 72.8154 191.912 72.3931 192.051 71.9871C192.197 71.5729 192.408 71.2075 192.684 70.8908C192.968 70.5659 193.317 70.3101 193.732 70.1233C194.146 69.9284 194.625 69.831 195.169 69.831C195.884 69.831 196.48 69.9893 196.96 70.3061C197.447 70.6146 197.812 71.0247 198.056 71.5364C198.3 72.0399 198.421 72.584 198.421 73.1687V73.7777H192.562V72.7423H197.362L196.838 73.2539C196.838 72.8316 196.777 72.4703 196.655 72.1698C196.533 71.8693 196.346 71.6379 196.095 71.4755C195.851 71.313 195.542 71.2318 195.169 71.2318C194.795 71.2318 194.479 71.3171 194.219 71.4876C193.959 71.6582 193.76 71.9059 193.622 72.2307C193.492 72.5474 193.427 72.9291 193.427 73.3757C193.427 73.7899 193.492 74.1594 193.622 74.4842C193.752 74.801 193.951 75.0527 194.219 75.2395C194.487 75.4181 194.828 75.5075 195.242 75.5075C195.656 75.5075 195.993 75.4263 196.253 75.2638C196.513 75.0933 196.679 74.8862 196.753 74.6426H198.312C198.214 75.0974 198.027 75.4953 197.751 75.8364C197.475 76.1774 197.122 76.4414 196.692 76.6282C196.269 76.8149 195.786 76.9083 195.242 76.9083ZM203.843 76.6769V74.7157H203.563V72.5352C203.563 72.1536 203.47 71.8693 203.283 71.6825C203.096 71.4958 202.808 71.4024 202.418 71.4024C202.215 71.4024 201.972 71.4064 201.687 71.4146C201.403 71.4227 201.115 71.4349 200.823 71.4511C200.538 71.4592 200.282 71.4714 200.055 71.4876V70.0502C200.242 70.034 200.453 70.0178 200.689 70.0015C200.924 69.9853 201.164 69.9772 201.407 69.9772C201.659 69.969 201.894 69.965 202.114 69.965C202.796 69.965 203.36 70.0543 203.807 70.233C204.262 70.4116 204.603 70.6918 204.83 71.0735C205.066 71.4552 205.183 71.9546 205.183 72.5718V76.6769H203.843ZM201.712 76.8474C201.233 76.8474 200.81 76.7621 200.445 76.5916C200.088 76.4211 199.807 76.1774 199.604 75.8607C199.409 75.544 199.312 75.1623 199.312 74.7157C199.312 74.2284 199.43 73.8305 199.665 73.5219C199.909 73.2133 200.246 72.9819 200.676 72.8276C201.115 72.6733 201.626 72.5961 202.211 72.5961H203.746V73.6072H202.187C201.797 73.6072 201.497 73.7046 201.285 73.8995C201.082 74.0863 200.981 74.3299 200.981 74.6304C200.981 74.9309 201.082 75.1745 201.285 75.3613C201.497 75.5481 201.797 75.6415 202.187 75.6415C202.422 75.6415 202.638 75.6009 202.832 75.5197C203.035 75.4303 203.202 75.2841 203.332 75.0811C203.47 74.87 203.547 74.5858 203.563 74.2284L203.977 74.7035C203.937 75.1664 203.823 75.5562 203.636 75.8729C203.458 76.1896 203.206 76.4333 202.881 76.6038C202.564 76.7662 202.175 76.8474 201.712 76.8474ZM211.626 76.6769L209.409 73.5828H208.422L211.236 70.0624H213.002L210.408 73.3148L210.444 72.4621L213.538 76.6769H211.626ZM206.997 76.6769V67.7845H208.69V76.6769H206.997ZM217.39 76.7621C216.781 76.7621 216.277 76.685 215.88 76.5307C215.49 76.3683 215.197 76.1003 215.003 75.7267C214.808 75.3451 214.71 74.8334 214.71 74.1919L214.722 68.1987H216.306L216.294 74.3015C216.294 74.6264 216.379 74.8781 216.55 75.0568C216.728 75.2273 216.98 75.3126 217.305 75.3126H218.34V76.7621H217.39ZM213.663 71.3049V70.0624H218.34V71.3049H213.663ZM219.761 76.6769V67.7845H221.455V72.9738H221.162C221.162 72.3078 221.247 71.7434 221.418 71.2806C221.589 70.8177 221.84 70.4644 222.173 70.2208C222.514 69.9772 222.945 69.8553 223.464 69.8553H223.538C224.293 69.8553 224.865 70.1152 225.255 70.6349C225.645 71.1547 225.84 71.9099 225.84 72.9007V76.6769H224.147V72.7423C224.147 72.32 224.025 71.9871 223.781 71.7434C223.546 71.4998 223.233 71.378 222.843 71.378C222.429 71.378 222.092 71.5161 221.832 71.7922C221.58 72.0602 221.455 72.4134 221.455 72.8519V76.6769H219.761ZM227.66 76.6769V70.0624H229V72.8641H228.964C228.964 71.914 229.167 71.1953 229.573 70.708C229.979 70.2208 230.576 69.9772 231.363 69.9772H231.607V71.4511H231.144C230.576 71.4511 230.133 71.6054 229.816 71.914C229.508 72.2145 229.353 72.653 229.353 73.2296V76.6769H227.66ZM235.871 76.9083C235.287 76.9083 234.771 76.8149 234.324 76.6282C233.878 76.4414 233.5 76.1896 233.191 75.8729C232.883 75.5481 232.647 75.1826 232.485 74.7766C232.331 74.3706 232.254 73.9483 232.254 73.5097V73.2539C232.254 72.7992 232.335 72.3688 232.497 71.9627C232.668 71.5485 232.907 71.1831 233.216 70.8664C233.533 70.5416 233.914 70.2898 234.361 70.1111C234.808 69.9244 235.311 69.831 235.871 69.831C236.432 69.831 236.935 69.9244 237.382 70.1111C237.829 70.2898 238.206 70.5416 238.515 70.8664C238.831 71.1831 239.071 71.5485 239.233 71.9627C239.396 72.3688 239.477 72.7992 239.477 73.2539V73.5097C239.477 73.9483 239.396 74.3706 239.233 74.7766C239.079 75.1826 238.848 75.5481 238.539 75.8729C238.23 76.1896 237.853 76.4414 237.406 76.6282C236.96 76.8149 236.448 76.9083 235.871 76.9083ZM235.871 75.4587C236.286 75.4587 236.635 75.3694 236.919 75.1908C237.203 75.004 237.418 74.7563 237.565 74.4477C237.711 74.131 237.784 73.7737 237.784 73.3757C237.784 72.9697 237.707 72.6124 237.552 72.3038C237.406 71.9871 237.187 71.7394 236.895 71.5607C236.61 71.3739 236.269 71.2806 235.871 71.2806C235.473 71.2806 235.128 71.3739 234.836 71.5607C234.552 71.7394 234.332 71.9871 234.178 72.3038C234.024 72.6124 233.947 72.9697 233.947 73.3757C233.947 73.7737 234.02 74.131 234.166 74.4477C234.32 74.7563 234.54 75.004 234.824 75.1908C235.108 75.3694 235.457 75.4587 235.871 75.4587ZM243.213 76.884C242.45 76.884 241.857 76.6322 241.435 76.1287C241.021 75.6252 240.813 74.8781 240.813 73.8874V70.0502H242.507V74.0335C242.507 74.4396 242.62 74.7644 242.848 75.008C243.075 75.2435 243.384 75.3613 243.774 75.3613C244.163 75.3613 244.48 75.2354 244.724 74.9837C244.975 74.7319 245.101 74.3909 245.101 73.9604V70.0502H246.795V76.6769H245.455V73.863H245.589C245.589 74.5289 245.503 75.0852 245.333 75.5318C245.162 75.9785 244.906 76.3155 244.565 76.5429C244.224 76.7703 243.798 76.884 243.286 76.884H243.213ZM251.322 79.2837C251.005 79.2837 250.68 79.2715 250.347 79.2471C250.023 79.2228 249.718 79.1903 249.434 79.1497V77.7367C249.726 77.7691 250.039 77.7976 250.372 77.8219C250.705 77.8544 251.017 77.8706 251.31 77.8706C251.854 77.8706 252.292 77.8057 252.625 77.6757C252.966 77.5458 253.214 77.3387 253.368 77.0545C253.531 76.7784 253.612 76.4251 253.612 75.9947V74.6913L253.977 73.863C253.953 74.4721 253.827 74.9918 253.6 75.4222C253.372 75.8445 253.064 76.1693 252.674 76.3967C252.284 76.616 251.834 76.7256 251.322 76.7256C250.867 76.7256 250.453 76.6403 250.079 76.4698C249.714 76.2993 249.397 76.0638 249.129 75.7633C248.869 75.4628 248.666 75.1096 248.52 74.7035C248.374 74.2975 248.301 73.863 248.301 73.4001V73.1443C248.301 72.6814 248.374 72.251 248.52 71.8531C248.675 71.447 248.89 71.0938 249.166 70.7933C249.442 70.4928 249.771 70.2614 250.153 70.099C250.534 69.9366 250.957 69.8553 251.419 69.8553C251.964 69.8553 252.435 69.9731 252.832 70.2086C253.238 70.4441 253.555 70.7852 253.783 71.2318C254.01 71.6785 254.136 72.2266 254.16 72.8763L253.868 72.925V70.0624H255.208V75.8973C255.208 76.7012 255.07 77.3509 254.794 77.8463C254.518 78.3417 254.091 78.703 253.515 78.9304C252.946 79.1659 252.215 79.2837 251.322 79.2837ZM251.809 75.276C252.134 75.276 252.43 75.2029 252.698 75.0568C252.966 74.9106 253.182 74.6994 253.344 74.4233C253.506 74.1472 253.588 73.8143 253.588 73.4245V72.9981C253.588 72.6246 253.502 72.3078 253.332 72.048C253.169 71.7881 252.954 71.5932 252.686 71.4633C252.418 71.3252 252.126 71.2562 251.809 71.2562C251.452 71.2562 251.135 71.3415 250.859 71.512C250.591 71.6744 250.38 71.9059 250.226 72.2063C250.071 72.5068 249.994 72.8641 249.994 73.2783C249.994 73.6843 250.071 74.0376 250.226 74.3381C250.38 74.6385 250.591 74.87 250.859 75.0324C251.135 75.1948 251.452 75.276 251.809 75.276ZM257.055 76.6769V67.7845H258.748V72.9738H258.456C258.456 72.3078 258.541 71.7434 258.711 71.2806C258.882 70.8177 259.134 70.4644 259.467 70.2208C259.808 69.9772 260.238 69.8553 260.758 69.8553H260.831C261.586 69.8553 262.159 70.1152 262.548 70.6349C262.938 71.1547 263.133 71.9099 263.133 72.9007V76.6769H261.44V72.7423C261.44 72.32 261.318 71.9871 261.075 71.7434C260.839 71.4998 260.526 71.378 260.137 71.378C259.722 71.378 259.385 71.5161 259.126 71.7922C258.874 72.0602 258.748 72.4134 258.748 72.8519V76.6769H257.055ZM264.686 76.6769V74.7279H266.586V76.6769H264.686Z" fill="url(#paint2_linear_485_43)"/>
<path d="M115.055 33.1796C115.336 32.825 115.468 32.3745 115.421 31.9243C115.375 31.474 115.154 31.0598 114.806 30.77C114.459 30.4803 114.012 30.338 113.56 30.3735C113.109 30.4091 112.69 30.6197 112.392 30.9604L108.238 35.9444C107.382 36.9731 106.853 37.5996 106.421 37.9902C106.307 38.0999 106.181 38.1947 106.044 38.2723L106.018 38.2838L105.993 38.2723C105.855 38.1949 105.728 38.1001 105.614 37.9902C105.181 37.5973 104.654 36.9731 103.797 35.9444L103.122 35.1353C102.364 34.2222 101.677 33.4015 101.039 32.8236C100.343 32.1948 99.4669 31.6354 98.3111 31.6354C97.1553 31.6354 96.2814 32.1948 95.5833 32.8236C94.9453 33.4015 94.261 34.2222 93.5028 35.1353L89.2724 40.2072C89.1266 40.3822 89.0168 40.5842 88.9492 40.8016C88.8815 41.0191 88.8574 41.2477 88.8781 41.4745C88.9199 41.9325 89.142 42.3552 89.4954 42.6495C89.8489 42.9438 90.3048 43.0856 90.7628 43.0438C91.2208 43.0019 91.6435 42.7798 91.9377 42.4264L96.0919 37.4424C96.9472 36.4137 97.4766 35.7872 97.9089 35.3965C98.0219 35.2868 98.1486 35.1921 98.2857 35.1145L98.3111 35.1029L98.3365 35.1145C98.4744 35.1919 98.6019 35.2867 98.7156 35.3965C99.1479 35.7895 99.675 36.4137 100.533 37.4424L101.208 38.2515C101.968 39.1646 102.652 39.9852 103.291 40.5632C103.986 41.1919 104.862 41.7514 106.018 41.7514C107.174 41.7514 108.048 41.1919 108.746 40.5632C109.384 39.9852 110.068 39.1646 110.827 38.2515L115.055 33.1796Z" fill="#353535"/>
<rect x="61.9228" y="32.0701" width="12.7648" height="28.3663" fill="url(#paint3_linear_485_43)"/>
<rect x="61.9228" y="21.8582" width="12.7575" height="5.98819" fill="url(#paint4_linear_485_43)"/>
<path fill-rule="evenodd" clip-rule="evenodd" d="M217.652 32.07V32.8331L217.652 60.4363H210.277H204.887V47.1902V32.8331V32.3537V24.4111H208.795L208.819 21.9146H210.574V19.3854H211.19V17.8869H211.269L211.349 17.8868V19.3854H211.965V21.9146H213.72V24.4111H217.652V29.2334H204.887V32.07H217.652ZM206.441 37.1397H208.268V38.995H206.441V37.1397ZM208.268 40.7266H206.441V42.5819H208.268V40.7266ZM206.441 44.3135H208.268V46.1688H206.441V44.3135ZM208.268 47.9005H206.441V49.8795H208.268V47.9005ZM206.441 51.3636H208.268V53.2189H206.441V51.3636ZM208.268 55.0513H206.441V56.9066H208.268V55.0513ZM210.695 55.0513H212.522V56.9066H210.695V55.0513ZM216.211 55.0513H214.384V56.9066H216.211V55.0513ZM210.529 37.1397H212.356V38.995H210.529V37.1397ZM212.356 40.7266H210.529V42.5819H212.356V40.7266ZM210.529 44.3135H212.356V46.1688H210.529V44.3135ZM212.356 47.9005H210.529V49.8795H212.356V47.9005ZM210.529 51.3636H212.356V53.2189H210.529V51.3636ZM216.336 37.1397H214.51V38.995H216.336V37.1397ZM214.51 40.7266H216.336V42.5819H214.51V40.7266ZM216.336 44.3135H214.51V46.1688H216.336V44.3135ZM214.51 47.9005H216.336V49.8795H214.51V47.9005ZM216.336 51.3636H214.51V53.2189H216.336V51.3636Z" fill="url(#paint5_linear_485_43)"/>
<rect x="207.101" y="23.5601" width="2.27303" height="0.850988" fill="url(#paint6_linear_485_43)"/>
<rect x="213.397" y="23.5601" width="2.2693" height="0.850988" fill="url(#paint7_linear_485_43)"/>
<rect x="18.8056" y="70.3645" width="56.1652" height="6.52424" fill="url(#paint8_linear_485_43)"/>
<rect x="270.131" y="70.3645" width="12.4812" height="6.52424" fill="url(#paint9_linear_485_43)"/>
<defs>
<linearGradient id="paint0_linear_485_43" x1="150.073" y1="5.97308" x2="150.073" y2="63.5186" gradientUnits="userSpaceOnUse">
<stop offset="0.0366666" stop-color="#6F0F0F"/>
<stop offset="0.386667" stop-color="#C72423"/>
<stop offset="0.656667" stop-color="#981B1B"/>
<stop offset="1" stop-color="#510D0D"/>
</linearGradient>
<linearGradient id="paint1_linear_485_43" x1="98.8043" y1="32.3536" x2="98.8043" y2="54.4889" gradientUnits="userSpaceOnUse">
<stop offset="0.0366666" stop-color="#6F0F0F"/>
<stop offset="0.386667" stop-color="#C72423"/>
<stop offset="0.656667" stop-color="#981B1B"/>
<stop offset="1" stop-color="#510D0D"/>
</linearGradient>
<linearGradient id="paint2_linear_485_43" x1="172.173" y1="66.6769" x2="172.173" y2="79.6769" gradientUnits="userSpaceOnUse">
<stop offset="0.0366666" stop-color="#6F0F0F"/>
<stop offset="0.386667" stop-color="#C72423"/>
<stop offset="0.656667" stop-color="#981B1B"/>
<stop offset="1" stop-color="#510D0D"/>
</linearGradient>
<linearGradient id="paint3_linear_485_43" x1="68.3053" y1="32.0701" x2="68.3053" y2="60.4364" gradientUnits="userSpaceOnUse">
<stop offset="0.0366666" stop-color="#6F0F0F"/>
<stop offset="0.386667" stop-color="#C72423"/>
<stop offset="0.656667" stop-color="#981B1B"/>
<stop offset="1" stop-color="#510D0D"/>
</linearGradient>
<linearGradient id="paint4_linear_485_43" x1="68.3016" y1="21.8582" x2="68.3016" y2="27.8464" gradientUnits="userSpaceOnUse">
<stop offset="0.0366666" stop-color="#6F0F0F"/>
<stop offset="0.386667" stop-color="#C72423"/>
<stop offset="0.656667" stop-color="#981B1B"/>
<stop offset="1" stop-color="#510D0D"/>
</linearGradient>
<linearGradient id="paint5_linear_485_43" x1="211.269" y1="17.8868" x2="211.269" y2="60.4363" gradientUnits="userSpaceOnUse">
<stop offset="0.0366666" stop-color="#6F0F0F"/>
<stop offset="0.386667" stop-color="#C72423"/>
<stop offset="0.656667" stop-color="#981B1B"/>
<stop offset="1" stop-color="#510D0D"/>
</linearGradient>
<linearGradient id="paint6_linear_485_43" x1="208.238" y1="23.5601" x2="208.238" y2="24.4111" gradientUnits="userSpaceOnUse">
<stop offset="0.0366666" stop-color="#6F0F0F"/>
<stop offset="0.386667" stop-color="#C72423"/>
<stop offset="0.656667" stop-color="#981B1B"/>
<stop offset="1" stop-color="#510D0D"/>
</linearGradient>
<linearGradient id="paint7_linear_485_43" x1="214.532" y1="23.5601" x2="214.532" y2="24.4111" gradientUnits="userSpaceOnUse">
<stop offset="0.0366666" stop-color="#6F0F0F"/>
<stop offset="0.386667" stop-color="#C72423"/>
<stop offset="0.656667" stop-color="#981B1B"/>
<stop offset="1" stop-color="#510D0D"/>
</linearGradient>
<linearGradient id="paint8_linear_485_43" x1="46.8882" y1="70.3645" x2="46.8882" y2="76.8887" gradientUnits="userSpaceOnUse">
<stop offset="0.0366666" stop-color="#6F0F0F"/>
<stop offset="0.386667" stop-color="#C72423"/>
<stop offset="0.656667" stop-color="#981B1B"/>
<stop offset="1" stop-color="#510D0D"/>
</linearGradient>
<linearGradient id="paint9_linear_485_43" x1="276.372" y1="70.3645" x2="276.372" y2="76.8887" gradientUnits="userSpaceOnUse">
<stop offset="0.0366666" stop-color="#6F0F0F"/>
<stop offset="0.386667" stop-color="#C72423"/>
<stop offset="0.656667" stop-color="#981B1B"/>
<stop offset="1" stop-color="#510D0D"/>
</linearGradient>
</defs>
</svg>
