<svg width="1920" height="1080" viewBox="0 0 1920 1080" fill="none" xmlns="http://www.w3.org/2000/svg">
<g clip-path="url(#clip0_864_26)">
<g opacity="0.45">
<path d="M143.342 -301.696L-620.658 143.341L-136.673 431.02L385.182 123.398L455.931 171.435L-66.0216 468.24L135.262 596.223L910.127 156.497L426.092 -136.591L-90.4023 165.574L-166.56 117.586L344.576 -179.121L143.342 -301.696Z" fill="#E5E5E5"/>
<path d="M114.963 617.753L-626 174.257V187.247V450.09L114.963 893.586V617.753Z" fill="#E5E5E5"/>
<path d="M114.963 985.53L-626 542.034V555.024V817.867L114.963 1261.36V985.53Z" fill="#E5E5E5"/>
<path d="M114.963 1353.31L-626 909.811V922.802V1185.64L114.963 1629.14V1353.31Z" fill="#E5E5E5"/>
<path fill-rule="evenodd" clip-rule="evenodd" d="M142.005 617.753L904.602 190.483V1199.16L142.005 1623.73V617.753ZM278.953 1278.64L403.348 1051.48L343.855 1008.21L587.237 824.323L560.195 1159.65L500.701 1121.79L397.94 1321.9L771.126 1116.38V467.363V461.954L278.953 737.787V1278.64Z" fill="#E5E5E5"/>
</g>
<g opacity="0.38">
<path d="M1790.34 -318.696L1026.34 126.341L1510.33 414.02L2032.18 106.398L2102.93 154.435L1580.98 451.24L1782.26 579.223L2557.13 139.497L2073.09 -153.591L1556.6 148.574L1480.44 100.586L1991.58 -196.121L1790.34 -318.696Z" fill="#E5E5E5"/>
<path d="M1761.96 600.753L1021 157.257V170.247V433.09L1761.96 876.586V600.753Z" fill="#E5E5E5"/>
<path d="M1761.96 968.53L1021 525.034V538.024V800.867L1761.96 1244.36V968.53Z" fill="#E5E5E5"/>
<path d="M1761.96 1336.31L1021 892.811V905.802V1168.64L1761.96 1612.14V1336.31Z" fill="#E5E5E5"/>
<path fill-rule="evenodd" clip-rule="evenodd" d="M1789 600.753L2551.6 173.483V1182.16L1789 1606.73V600.753ZM1925.95 1261.64L2050.35 1034.48L1990.86 991.211L2234.24 807.323L2207.19 1142.65L2147.7 1104.79L2044.94 1304.9L2418.13 1099.38V450.363V444.954L1925.95 720.787V1261.64Z" fill="#E5E5E5"/>
</g>
</g>
<defs>
<clipPath id="clip0_864_26">
<rect width="1920" height="1080" fill="white"/>
</clipPath>
</defs>
</svg>
