<svg width="491" height="491" viewBox="0 0 491 491" fill="none" xmlns="http://www.w3.org/2000/svg">
<rect width="490.48" height="490.48" rx="13.8815" fill="url(#paint0_linear_1321_101)"/>
<g clip-path="url(#clip0_1321_101)">
<rect x="5" y="4" width="480.943" height="481.407" rx="13.8815" fill="url(#paint1_linear_1321_101)"/>
<g style="mix-blend-mode:soft-light">
<path d="M47.0331 -13.5556L-150.228 101.351L-25.2654 175.629L109.475 96.2019L127.742 108.605L-7.02364 185.239L44.9469 218.283L245.014 104.748L120.038 29.0738L-13.3186 107.091L-32.9821 94.7013L98.991 18.0927L47.0331 -13.5556Z" fill="#9A9A9A"/>
<path d="M39.7058 223.843L-151.608 109.334V112.688V180.553L39.7058 295.062V223.843Z" fill="#9A9A9A"/>
<path d="M39.7058 318.801L-151.608 204.293V207.647V275.512L39.7058 390.02V318.801Z" fill="#9A9A9A"/>
<path d="M39.7058 413.76L-151.608 299.251V302.605V370.47L39.7058 484.979V413.76Z" fill="#9A9A9A"/>
<path fill-rule="evenodd" clip-rule="evenodd" d="M46.6882 223.843L243.588 113.523V373.96L46.6882 483.582V223.843ZM81.5994 390.02L113.718 331.369L98.3568 320.197L161.197 272.718L154.215 359.298L138.854 349.523L112.321 401.191L208.676 348.126V180.552V179.156L81.5994 250.375V390.02Z" fill="#9A9A9A"/>
</g>
<g style="mix-blend-mode:soft-light">
<path d="M443.186 -13.463L245.924 101.444L370.887 175.721L505.628 96.2946L523.895 108.697L389.129 185.331L441.099 218.376L641.166 104.84L516.191 29.1664L382.834 107.184L363.17 94.794L495.143 18.1853L443.186 -13.463Z" fill="#9A9A9A"/>
<path d="M435.858 223.936L244.545 109.427V112.781V180.646L435.858 295.155V223.936Z" fill="#9A9A9A"/>
<path d="M435.858 318.894L244.545 204.385V207.739V275.604L435.858 390.113V318.894Z" fill="#9A9A9A"/>
<path d="M435.858 413.853L244.545 299.344V302.698V370.563L435.858 485.072V413.853Z" fill="#9A9A9A"/>
<path fill-rule="evenodd" clip-rule="evenodd" d="M442.841 223.936L639.74 113.616V374.053L442.841 483.675V223.936ZM477.752 390.112L509.87 331.462L494.51 320.29L557.35 272.811L550.368 359.391L535.007 349.615L508.474 401.284L604.829 348.219V180.645V179.249L477.752 250.467V390.112Z" fill="#9A9A9A"/>
</g>
<rect x="-112.693" y="329.753" width="811.364" height="221.85" fill="url(#paint2_linear_1321_101)"/>
<path d="M135.509 215.744C135.509 215.744 110.583 244.031 98.6979 304.125C98.6979 304.125 96.7174 318.983 102.385 319.644C107.996 320.303 111.408 311.829 113.389 306.655C114.215 304.455 150.86 219.707 144.202 215.083C144.202 215.083 167.091 213.817 169.568 229.392C172.1 244.91 147.999 256.962 140.955 258.393C133.858 259.769 134.023 262.631 134.464 263.015C134.904 263.399 136.444 265.437 145.579 264.062C154.713 262.631 175.732 256.302 184.865 236.876C184.865 236.876 193.67 218.496 177.272 205.013C160.82 191.476 136.72 198.299 127.696 204.188C118.618 210.076 121.864 216.515 122.744 217.395C123.678 218.33 125.769 219.486 135.509 215.744ZM214.159 198.954C214.159 198.954 214.433 195.596 216.855 195.266C219.331 194.936 221.037 195.596 221.532 202.751C222.083 209.96 218.561 220.416 212.839 230.487C210.253 235.109 205.356 246.445 205.465 247.601C205.465 247.601 207.171 252.334 201.669 252.279C196.167 252.225 192.755 243.474 193.636 236.54C194.515 229.607 196.551 222.122 214.158 198.953M260.841 203.054C260.841 203.054 246.039 206.135 237.951 205.31C237.951 205.31 225.681 203.714 229.037 196.67C229.037 196.67 230.468 193.754 233.879 193.973C237.29 194.192 241.637 194.744 247.635 193.754C253.632 192.818 271.57 192.323 273.936 192.598C276.301 192.874 279.768 195.295 278.227 200.248C276.632 205.2 264.196 218.848 264.196 218.848L244.388 237.614C244.388 237.614 257.593 234.973 273.331 237.668C289.068 240.366 297.485 241.081 301.227 240.64C304.913 240.2 311.351 238.824 313.057 238.108C314.763 237.392 316.249 237.943 316.853 238.989C317.514 240.035 317.239 241.576 314.653 243.171C312.066 244.766 303.097 250.601 286.206 249.996C269.314 249.39 259.464 249.5 259.464 249.5C259.464 249.5 240.48 249.225 230.081 252.252C230.081 252.252 221.883 256.599 218.362 252.582C214.84 248.565 217.536 243.337 219.352 240.42C221.994 236.238 235.53 223.746 260.841 203.054Z" fill="#221E1F"/>
<path d="M282.554 189.224C282.554 189.224 281.013 185.317 283.379 183.116C284.038 182.456 285.524 181.741 286.625 181.685C287.725 181.685 288.496 182.126 290.146 182.345C291.632 182.621 318.979 178.657 318.979 178.657C318.979 178.657 327.452 177.337 332.074 182.126C335.982 186.253 328.884 193.847 328.884 193.847C328.884 193.847 305.222 218.116 304.397 218.39C304.397 218.39 311.056 219.107 312.927 219.327C314.798 219.546 325.527 221.362 329.214 220.812C332.9 220.262 333.726 220.152 334.165 220.042C334.66 219.877 336.971 219.217 337.576 221.142C338.236 223.123 335.871 226.04 329.268 228.957C322.61 231.874 312.871 232.149 308.745 231.984C304.671 231.709 293.173 231.214 288.992 231.544C284.754 231.873 280.297 233.03 279.803 233.03C279.197 233.084 274.961 232.81 277.381 226.205C279.802 219.602 286.625 214.704 286.625 214.704L313.916 192.415C313.916 192.415 290.751 195.333 286.955 193.736C285.194 193.022 283.049 191.095 282.554 189.224ZM155.835 306.672C161.557 305.627 171.241 304.416 171.241 304.416C171.241 304.416 190.94 259.455 199.138 259.179C207.337 258.905 191.105 300.233 191.105 300.233L215.205 295.116C215.205 295.116 220.817 275.469 226.155 266.554C231.436 257.64 233.198 257.309 234.078 257.309C234.958 257.309 238.48 257.474 237.82 261.601C237.16 265.729 232.922 290.272 232.922 290.272L239.581 287.796C239.581 287.796 241.121 287.026 242.001 288.457C242.881 289.942 240.46 291.814 240.46 291.814L231.051 297.922C231.051 297.922 224.559 326.208 222.028 330.006C219.496 333.802 216.415 336.004 213.389 335.784C210.418 335.564 207.447 332.592 207.721 325.713C207.941 318.834 210.747 309.039 210.913 308.268C210.913 308.268 189.013 317.018 185.657 317.348C185.657 317.348 178.338 346.789 176.138 350.587C173.991 354.384 169.37 356.86 165.684 356.42C160.676 355.815 159.961 348.881 159.906 344.753C159.85 340.626 163.043 327.143 165.573 319.384C165.573 319.384 154.294 318.173 152.368 315.477C152.368 315.477 150.718 313.55 151.157 310.468C151.652 307.333 155.835 306.672 155.835 306.672Z" fill="#221E1F"/>
<path d="M297.645 322.676C297.645 322.676 330.549 312.549 350.412 310.293C370.276 307.982 379.355 307.377 379.355 307.377C379.355 307.377 381.336 306.936 381.776 309.139C382.162 311.174 379.079 311.615 379.079 311.615C318.334 329.83 275.471 348.155 270.408 350.302C265.621 352.228 203.885 379.358 203.885 379.358C203.885 379.358 196.291 382.11 190.129 381.009C183.911 379.909 182.701 377.047 182.205 374.24C182.205 374.24 180.39 367.911 189.359 364.885C197.611 362.079 219.732 352.173 219.732 352.173L277.892 329.115L297.645 322.676Z" fill="#FCC607"/>
<path d="M375.277 197.22C374.782 198.54 374.617 200.523 374.617 200.523C374.617 200.523 366.859 204.981 363.338 206.357C359.705 207.788 355.249 207.512 355.249 207.512C359.705 192.379 378.689 189.407 378.689 189.407C378.689 189.407 375.773 195.955 375.277 197.221M403.615 206.741C403.339 205.64 397.342 204.925 395.141 204.704C392.94 204.539 391.015 203.439 390.079 200.908C389.198 198.487 392.389 190.837 393.82 185.444C395.306 180.05 392.333 178.124 390.629 177.959C388.978 177.794 386.887 179.335 386.887 179.335C364.823 174.713 339.842 198.045 338.411 208.391C337.366 215.931 339.512 221.269 345.784 222.59C352.002 223.91 357.67 221.654 362.567 219.728C367.409 217.912 377.094 210.428 377.094 210.428C378.028 212.794 383.256 215.16 388.043 215.326C392.829 215.546 401.139 211.694 402.57 210.703C403.999 209.768 403.945 207.842 403.615 206.741Z" fill="#221E1F"/>
<path d="M234.995 156.668C234.995 156.668 237.526 155.402 238.571 156.503C239.616 157.603 239.012 159.254 238.185 160.74C237.36 162.226 225.75 180.166 221.844 183.632C219.367 185.78 215.846 186.164 213.095 184.513C210.289 182.917 210.674 177.524 211.664 175.268C212.654 173.012 215.955 166.683 222.778 162.446C229.548 158.264 234.995 156.668 234.995 156.668Z" fill="#009867"/>
<path d="M386.084 132.955L381.187 129.543C367.321 118.702 311.087 96.4143 311.087 96.4143C311.087 96.4143 307.126 87.4998 304.869 83.1516C298.541 70.9349 289.023 61.3045 288.582 60.9744C288.088 60.699 287.647 60.699 287.647 60.699L287.207 60.8093L270.699 65.2114L232.843 76.1623C232.843 76.1623 206.872 84.3079 205.661 84.7484C204.451 85.2436 203.571 86.0689 203.571 86.0689C203.571 86.0689 194.712 101.312 193.996 103.073C193.226 104.834 183.047 124.536 183.047 124.536L157.736 136.477C155.426 137.743 155.426 137.633 137.928 148.199L116.744 163.002C116.744 163.002 96.6598 178.191 95.0094 179.731C93.3581 181.216 91.4879 184.463 93.2478 187.27C94.9538 190.076 99.3006 189.581 99.3006 189.581L119.604 184.242L160.377 173.897L208.908 163.771L215.566 162.616C216.996 161.295 218.647 159.975 220.517 158.819C227.01 154.801 232.348 153.041 233.558 152.655C236.089 151.5 239.39 151.225 241.646 153.536C242.582 154.471 243.407 155.957 243.352 157.993L246.103 157.498H246.213L298.1 150.784C298.1 150.784 331.225 147.426 342.339 147.096C369.191 146.272 382.121 142.254 382.121 142.254C383.221 141.759 386.852 140.493 387.568 137.522C388.284 134.551 386.084 132.954 386.084 132.954" fill="#EE1C23"/>
<path d="M315.087 275.366C315.087 275.366 300.947 275.421 300.617 270.138C300.286 264.854 306.284 263.699 308.981 265.074C308.981 265.074 310.522 265.404 312.008 265.185C313.493 264.965 320.866 263.644 320.866 263.644C320.866 263.644 331.982 245.648 334.017 243.778C334.017 243.778 336.217 240.807 339.74 243.172C343.26 245.594 340.729 251.151 340.729 251.151L336.107 260.507L369.396 254.288C369.396 254.288 371.432 253.793 371.818 255.445C372.148 256.82 368.626 258.36 368.626 258.36C368.626 258.36 334.347 272.118 330.715 272.724L321.25 298.314L313.493 321.316C313.493 321.316 312.558 323.187 310.631 323.077C308.705 323.023 307.769 319.666 307.714 318.84C307.604 318.015 306.89 305.908 308.32 297.763C309.75 289.619 315.087 275.531 315.087 275.531M247.064 285.116C247.064 285.116 245.963 282.585 243.652 281.43C241.341 280.219 240.955 279.063 242.056 277.853C243.046 276.697 247.669 275.432 252.29 276.367C256.967 277.248 260.159 282.86 260.544 286.713C260.93 290.566 260.434 296.894 257.847 303.552C257.847 303.552 278.426 290.73 282.608 283.741C282.608 283.741 287.725 273.285 290.092 271.413C290.092 271.413 294.879 267.781 296.915 273.23C296.915 273.23 297.08 277.521 295.54 286.161C293.999 294.801 293.888 311.532 294.163 312.027C294.439 312.578 296.42 315.329 293.283 317.144C293.283 317.144 291.082 317.86 287.945 315.329C284.809 312.797 279.362 308.065 279.636 298.544C279.636 298.544 269.789 312.742 261.48 316.483C253.171 320.226 249.593 320.611 244.367 316.703C239.14 312.852 242.772 300.91 242.772 300.91C242.772 300.91 246.899 288.473 246.954 288.198C247.008 287.868 247.558 286.162 247.064 285.116ZM183.275 119.555C183.22 119.775 182.78 119.83 182.394 119.665C181.954 119.5 181.459 119.005 181.899 117.849C182.285 116.638 191.968 96.7174 198.296 86.041C198.296 86.041 198.9 84.2253 201.378 83.4547C203.799 82.6841 265.645 64.9645 265.645 64.9645L281.656 60.837C281.656 60.837 284.684 60.3418 285.783 63.4781C286.829 66.616 283.803 67.9366 283.143 68.1564C282.537 68.4302 245.342 80.0977 245.342 80.0977L203.524 89.9496C203.523 89.9487 183.385 119.39 183.275 119.555ZM295.936 59.1903C295.936 59.1903 295.716 58.6403 296.209 58.4205C296.705 58.2007 297.091 58.9157 297.091 58.9157C297.091 58.9157 301.328 66.6756 301.878 68.381C302.428 70.0865 311.506 95.181 311.506 95.181C311.506 95.181 342.32 104.151 343.916 104.592C345.566 105.031 378.965 116.754 395.968 125.559C395.968 125.559 397.563 126.329 397.729 126.439C397.895 126.548 399.709 128.31 398.829 130.512C398.005 132.658 395.802 133.043 395.088 132.988C394.374 132.934 390.521 131.447 390.521 131.447C390.521 131.447 329.281 109.434 313.378 105.638C313.378 105.638 305.4 102.996 304.244 100.465C303.144 97.9333 301.108 84.5611 301.108 84.5611L295.936 59.1903ZM368.941 135.745C367.784 129.747 357.66 129.416 356.176 129.582C354.689 129.692 253.667 143.01 246.954 144.11C210.419 150.108 147.692 165.848 147.692 165.848L109.231 177.184C109.946 175.753 140.704 154.016 142.52 152.64C144.335 151.265 179.991 129.362 179.991 129.362C179.991 129.362 182.852 128.262 181.917 126.501C181.146 124.906 179.661 125.4 179.661 125.4C179.661 125.4 177.46 126.336 171.077 129.032C158.697 134.315 138.833 146.257 138.833 146.257C123.152 154.952 90.2472 181.643 90.2472 181.643C90.2472 181.643 87.0011 183.844 88.7063 187.806C90.3567 191.823 94.8137 191.328 94.8137 191.328L142.574 178.451C146.095 176.855 208.437 164.142 208.437 164.142L215.204 162.932C216.745 161.501 218.451 160.07 220.541 158.805C226.979 154.787 232.316 153.027 233.527 152.641C236.058 151.541 239.415 151.21 241.616 153.522C242.606 154.513 243.486 156.054 243.376 158.2L246.127 157.759L246.182 157.704C281.673 151.596 359.805 146.423 359.805 146.423C362.668 145.981 370.426 143.395 368.941 135.745ZM380.115 323.027H380.831C381.656 323.027 382.425 322.697 382.425 321.927C382.425 321.377 381.986 320.827 380.831 320.827C380.501 320.827 380.28 320.827 380.115 320.881V323.028L380.115 323.027ZM380.115 326.549H379.125V320.22C379.62 320.111 380.115 320.056 380.887 320.056C381.876 320.056 382.481 320.221 382.866 320.497C383.252 320.827 383.472 321.212 383.472 321.817C383.472 322.699 382.921 323.194 382.206 323.359V323.414C382.757 323.524 383.142 324.018 383.307 325.008C383.417 325.999 383.582 326.385 383.692 326.549H382.646C382.482 326.385 382.316 325.78 382.206 324.954C382.042 324.129 381.656 323.798 380.832 323.798H380.115V326.549ZM381.16 318.405C378.685 318.405 376.593 320.551 376.593 323.248C376.593 325.945 378.685 328.091 381.214 328.091C383.744 328.091 385.782 325.945 385.782 323.248C385.782 320.551 383.746 318.405 381.215 318.405H381.16ZM381.216 317.525C384.353 317.525 386.829 320.056 386.829 323.247C386.829 326.494 384.353 328.971 381.161 328.971C378.08 328.971 375.548 326.494 375.548 323.247C375.548 320.055 378.08 317.525 381.161 317.525H381.216Z" fill="#221E1F"/>
</g>
<rect x="6.39001" y="5.39001" width="478.163" height="478.627" rx="12.4915" stroke="url(#paint3_linear_1321_101)" stroke-width="2.78002"/>
<path d="M166.08 433.34C164.075 433.34 162.225 432.875 160.531 431.945C158.857 430.994 157.524 429.682 156.532 428.008C155.56 426.313 155.075 424.412 155.075 422.304C155.075 420.196 155.56 418.305 156.532 416.631C157.524 414.957 158.857 413.655 160.531 412.725C162.225 411.774 164.075 411.299 166.08 411.299C168.105 411.299 169.955 411.774 171.629 412.725C173.323 413.655 174.656 414.957 175.628 416.631C176.599 418.305 177.085 420.196 177.085 422.304C177.085 424.412 176.599 426.313 175.628 428.008C174.656 429.682 173.323 430.994 171.629 431.945C169.955 432.875 168.105 433.34 166.08 433.34ZM166.08 430.271C167.506 430.271 168.777 429.95 169.893 429.31C171.009 428.648 171.877 427.718 172.497 426.52C173.137 425.3 173.458 423.895 173.458 422.304C173.458 420.712 173.137 419.317 172.497 418.119C171.877 416.92 171.009 416 169.893 415.36C168.777 414.719 167.506 414.399 166.08 414.399C164.654 414.399 163.383 414.719 162.267 415.36C161.151 416 160.272 416.92 159.632 418.119C159.012 419.317 158.702 420.712 158.702 422.304C158.702 423.895 159.012 425.3 159.632 426.52C160.272 427.718 161.151 428.648 162.267 429.31C163.383 429.95 164.654 430.271 166.08 430.271ZM198.511 411.578V414.461H189.366V420.816H196.496V423.699H189.366V433.123H185.832V411.578H198.511ZM219.735 411.578V414.461H210.59V420.816H217.72V423.699H210.59V433.123H207.056V411.578H219.735ZM231.815 411.578V433.123H228.281V411.578H231.815ZM240.546 422.304C240.546 420.196 241.032 418.305 242.003 416.631C242.995 414.957 244.328 413.655 246.002 412.725C247.697 411.774 249.547 411.299 251.551 411.299C253.845 411.299 255.881 411.867 257.658 413.004C259.456 414.12 260.758 415.711 261.564 417.778H257.317C256.759 416.641 255.984 415.794 254.992 415.236C254 414.678 252.853 414.399 251.551 414.399C250.125 414.399 248.854 414.719 247.738 415.36C246.622 416 245.744 416.92 245.103 418.119C244.483 419.317 244.173 420.712 244.173 422.304C244.173 423.895 244.483 425.29 245.103 426.489C245.744 427.687 246.622 428.617 247.738 429.279C248.854 429.919 250.125 430.24 251.551 430.24C252.853 430.24 254 429.961 254.992 429.403C255.984 428.845 256.759 427.997 257.317 426.861H261.564C260.758 428.927 259.456 430.519 257.658 431.635C255.881 432.751 253.845 433.309 251.551 433.309C249.526 433.309 247.676 432.844 246.002 431.914C244.328 430.963 242.995 429.651 242.003 427.977C241.032 426.303 240.546 424.412 240.546 422.304ZM274.505 411.578V433.123H270.971V411.578H274.505ZM297.404 428.721H288.383L286.833 433.123H283.144L290.863 411.547H294.955L302.674 433.123H298.954L297.404 428.721ZM296.412 425.838L292.909 415.825L289.375 425.838H296.412ZM314.834 430.271H322.119V433.123H311.3V411.578H314.834V430.271ZM117.685 450.995C117.685 452.09 117.426 453.123 116.91 454.095C116.393 455.066 115.566 455.862 114.43 456.482C113.293 457.081 111.836 457.381 110.059 457.381H106.153V466.123H102.619V444.578H110.059C111.712 444.578 113.107 444.867 114.244 445.446C115.401 446.004 116.259 446.768 116.817 447.74C117.395 448.711 117.685 449.796 117.685 450.995ZM110.059 454.498C111.402 454.498 112.404 454.198 113.066 453.599C113.727 452.979 114.058 452.111 114.058 450.995C114.058 448.639 112.725 447.461 110.059 447.461H106.153V454.498H110.059ZM129.859 444.578V466.123H126.325V444.578H129.859ZM143.179 463.054H153.192V466.123H138.994V463.364L148.976 447.647H138.994V444.578H153.192V447.337L143.179 463.054ZM165.735 463.054H175.748V466.123H161.55V463.364L171.532 447.647H161.55V444.578H175.748V447.337L165.735 463.054ZM197.87 461.721H188.849L187.299 466.123H183.61L191.329 444.547H195.421L203.14 466.123H199.42L197.87 461.721ZM196.878 458.838L193.375 448.825L189.841 458.838H196.878ZM240.155 450.995C240.155 452.09 239.897 453.123 239.38 454.095C238.864 455.066 238.037 455.862 236.9 456.482C235.764 457.081 234.307 457.381 232.529 457.381H228.623V466.123H225.089V444.578H232.529C234.183 444.578 235.578 444.867 236.714 445.446C237.872 446.004 238.729 446.768 239.287 447.74C239.866 448.711 240.155 449.796 240.155 450.995ZM232.529 454.498C233.873 454.498 234.875 454.198 235.536 453.599C236.198 452.979 236.528 452.111 236.528 450.995C236.528 448.639 235.195 447.461 232.529 447.461H228.623V454.498H232.529ZM261.785 461.721H252.764L251.214 466.123H247.525L255.244 444.547H259.336L267.055 466.123H263.335L261.785 461.721ZM260.793 458.838L257.29 448.825L253.756 458.838H260.793ZM286.872 466.123L281.912 457.505H279.215V466.123H275.681V444.578H283.121C284.774 444.578 286.169 444.867 287.306 445.446C288.463 446.024 289.321 446.799 289.879 447.771C290.458 448.742 290.747 449.827 290.747 451.026C290.747 452.431 290.334 453.712 289.507 454.87C288.701 456.006 287.451 456.781 285.756 457.195L291.088 466.123H286.872ZM279.215 454.684H283.121C284.444 454.684 285.436 454.353 286.097 453.692C286.779 453.03 287.12 452.142 287.12 451.026C287.12 449.91 286.789 449.042 286.128 448.422C285.467 447.781 284.464 447.461 283.121 447.461H279.215V454.684ZM314.457 444.578V447.461H308.722V466.123H305.188V447.461H299.422V444.578H314.457ZM341.007 466.123H337.473L326.84 450.034V466.123H323.306V444.547H326.84L337.473 460.605V444.547H341.007V466.123ZM354.452 447.43V453.754H361.892V456.637H354.452V463.24H362.822V466.123H350.918V444.547H362.822V447.43H354.452ZM383.636 466.123L378.676 457.505H375.979V466.123H372.445V444.578H379.885C381.538 444.578 382.933 444.867 384.07 445.446C385.227 446.024 386.085 446.799 386.643 447.771C387.221 448.742 387.511 449.827 387.511 451.026C387.511 452.431 387.097 453.712 386.271 454.87C385.465 456.006 384.214 456.781 382.52 457.195L387.852 466.123H383.636ZM375.979 454.684H379.885C381.207 454.684 382.199 454.353 382.861 453.692C383.543 453.03 383.884 452.142 383.884 451.026C383.884 449.91 383.553 449.042 382.892 448.422C382.23 447.781 381.228 447.461 379.885 447.461H375.979V454.684Z" fill="url(#paint4_linear_1321_101)"/>
<defs>
<linearGradient id="paint0_linear_1321_101" x1="245.24" y1="0" x2="245.24" y2="490.48" gradientUnits="userSpaceOnUse">
<stop offset="0.0366666" stop-color="#6F0F0F"/>
<stop offset="0.386667" stop-color="#C72423"/>
<stop offset="0.656667" stop-color="#981B1B"/>
<stop offset="1" stop-color="#510D0D"/>
</linearGradient>
<linearGradient id="paint1_linear_1321_101" x1="245.472" y1="4" x2="245.244" y2="506.241" gradientUnits="userSpaceOnUse">
<stop offset="0.121237" stop-color="#EEEDED"/>
<stop offset="0.689612" stop-color="#E7E7E7"/>
<stop offset="1" stop-color="#B9B9B9"/>
</linearGradient>
<linearGradient id="paint2_linear_1321_101" x1="292.989" y1="259.164" x2="292.989" y2="551.603" gradientUnits="userSpaceOnUse">
<stop offset="0.306667" stop-color="white" stop-opacity="0"/>
<stop offset="0.71865" stop-color="white"/>
</linearGradient>
<linearGradient id="paint3_linear_1321_101" x1="245.472" y1="4" x2="245.472" y2="485.407" gradientUnits="userSpaceOnUse">
<stop offset="0.0366666" stop-color="#6F0F0F"/>
<stop offset="0.386667" stop-color="#C72423"/>
<stop offset="0.656667" stop-color="#981B1B"/>
<stop offset="1" stop-color="#510D0D"/>
</linearGradient>
<linearGradient id="paint4_linear_1321_101" x1="245" y1="405.123" x2="245" y2="473.123" gradientUnits="userSpaceOnUse">
<stop offset="0.0366666" stop-color="#6F0F0F"/>
<stop offset="0.386667" stop-color="#C72423"/>
<stop offset="0.656667" stop-color="#981B1B"/>
<stop offset="1" stop-color="#510D0D"/>
</linearGradient>
<clipPath id="clip0_1321_101">
<rect x="5" y="4" width="480.943" height="481.407" rx="13.8815" fill="white"/>
</clipPath>
</defs>
</svg>
