<svg width="1832" height="312" viewBox="0 0 1832 312" fill="none" xmlns="http://www.w3.org/2000/svg">
<path d="M265.426 294V269.579H256.083V267.775H276.734V269.579H267.391V294H265.426ZM280.517 294V267.775H282.482V279.764H301.329V267.775H303.294V294H301.329V281.569H282.482V294H280.517ZM308.673 294V267.775H327.881V269.579H310.638V279.764H325.555V281.569H310.638V292.195H327.881V294H308.673ZM350.835 294.521C345.462 294.521 341.652 291.514 341.652 286.782C341.652 283.253 343.697 280.927 346.905 280.045V279.965C344.299 279.123 342.655 277.158 342.655 274.15C342.655 269.9 346.023 267.253 350.835 267.253C355.647 267.253 359.016 269.9 359.016 274.15C359.016 277.158 357.372 279.123 354.765 279.965V280.045C357.933 280.927 360.018 283.253 360.018 286.782C360.018 291.514 356.209 294.521 350.835 294.521ZM350.394 279.243H351.276C354.845 279.243 357.171 277.479 357.171 274.191C357.171 271.344 355.046 268.938 350.835 268.938C346.625 268.938 344.499 271.344 344.499 274.191C344.499 277.479 346.825 279.243 350.394 279.243ZM350.835 292.837C355.687 292.837 358.133 290.03 358.133 286.662C358.133 282.973 355.447 280.807 351.276 280.807H350.394C346.224 280.807 343.537 282.973 343.537 286.662C343.537 290.03 345.983 292.837 350.835 292.837ZM385.31 294V267.775H404.518V269.579H387.275V279.764H402.192V281.569H387.275V292.195H404.518V294H385.31ZM409.041 294V267.775H418.464C427.487 267.775 432.339 273.028 432.339 280.887C432.339 288.747 427.487 294 418.464 294H409.041ZM411.006 292.195H418.464C426.404 292.195 430.374 287.664 430.374 280.887C430.374 274.11 426.404 269.579 418.464 269.579H411.006V292.195ZM436.535 294V267.775H438.5V294H436.535ZM451.75 294V269.579H442.407V267.775H463.058V269.579H453.715V294H451.75ZM467.001 294V267.775H468.966V294H467.001ZM487.109 294.521C478.928 294.521 473.154 288.747 473.154 280.887C473.154 273.028 478.928 267.253 487.109 267.253C495.289 267.253 501.064 273.028 501.064 280.887C501.064 288.747 495.289 294.521 487.109 294.521ZM487.109 292.717C494.166 292.717 499.099 287.704 499.099 280.887C499.099 274.07 494.166 269.058 487.109 269.058C480.051 269.058 475.119 274.07 475.119 280.887C475.119 287.704 480.051 292.717 487.109 292.717ZM504.499 294V278C504.499 271.424 508.389 267.253 515.446 267.253C522.504 267.253 526.394 271.424 526.394 278V294H524.429V278C524.429 272.506 521.301 269.058 515.446 269.058C509.632 269.058 506.464 272.506 506.464 278V294H504.499ZM554.464 294.521C546.284 294.521 540.509 288.747 540.509 280.887C540.509 273.028 546.284 267.253 554.464 267.253C562.645 267.253 568.419 273.028 568.419 280.887C568.419 288.747 562.645 294.521 554.464 294.521ZM554.464 292.717C561.522 292.717 566.454 287.704 566.454 280.887C566.454 274.07 561.522 269.058 554.464 269.058C547.407 269.058 542.474 274.07 542.474 280.887C542.474 287.704 547.407 292.717 554.464 292.717ZM572.456 294V267.775H591.343V269.579H574.421V279.764H589.017V281.569H574.421V294H572.456ZM1282.4 294.589C1276.01 294.589 1271.84 291.283 1271.71 285.804H1273.88C1274.02 290.061 1277.28 292.551 1282.4 292.551C1287.6 292.551 1290.91 289.97 1290.91 285.804C1290.91 281.322 1286.79 280.688 1282.44 280.054C1277.55 279.375 1272.43 278.56 1272.43 272.447C1272.43 267.285 1276.42 263.798 1282.44 263.798C1288.37 263.798 1292.31 267.104 1292.49 272.175H1290.32C1290.14 268.19 1287.15 265.836 1282.44 265.836C1277.73 265.836 1274.61 268.281 1274.61 272.401C1274.61 276.794 1278.73 277.428 1283.07 278.061C1287.96 278.831 1293.13 279.601 1293.13 285.759C1293.13 291.193 1288.87 294.589 1282.4 294.589ZM1312.14 294.589C1302.9 294.589 1296.38 288.068 1296.38 279.193C1296.38 270.319 1302.9 263.798 1312.14 263.798C1321.38 263.798 1327.9 270.319 1327.9 279.193C1327.9 288.068 1321.38 294.589 1312.14 294.589ZM1312.14 292.551C1320.11 292.551 1325.68 286.891 1325.68 279.193C1325.68 271.496 1320.11 265.836 1312.14 265.836C1304.17 265.836 1298.6 271.496 1298.6 279.193C1298.6 286.891 1304.17 292.551 1312.14 292.551ZM1344.14 294.589C1336.17 294.589 1331.78 289.88 1331.78 282.454V264.387H1333.99V282.454C1333.99 288.657 1337.57 292.551 1344.14 292.551C1350.66 292.551 1354.19 288.566 1354.19 282.454V264.387H1356.36V282.454C1356.36 289.88 1352.02 294.589 1344.14 294.589ZM1370.47 294V266.424H1359.92V264.387H1383.24V266.424H1372.69V294H1370.47ZM1387.51 294V264.387H1389.73V277.926H1411.01V264.387H1413.23V294H1411.01V279.963H1389.73V294H1387.51ZM1431.51 294V264.387H1433.73V294H1431.51ZM1439.27 294V275.933C1439.27 268.507 1443.66 263.798 1451.63 263.798C1459.6 263.798 1463.99 268.507 1463.99 275.933V294H1461.78V275.933C1461.78 269.73 1458.24 265.836 1451.63 265.836C1445.07 265.836 1441.49 269.73 1441.49 275.933V294H1439.27ZM1469.4 294V264.387H1480.04C1490.23 264.387 1495.71 270.319 1495.71 279.193C1495.71 288.068 1490.23 294 1480.04 294H1469.4ZM1471.62 291.962H1480.04C1489.01 291.962 1493.49 286.846 1493.49 279.193C1493.49 271.541 1489.01 266.424 1480.04 266.424H1471.62V291.962ZM1500.45 294V264.387H1502.67V294H1500.45ZM1508.16 294V276.386C1508.16 268.688 1512.65 263.798 1520.84 263.798C1529.08 263.798 1533.61 268.688 1533.61 276.386V294H1531.39V283.586H1510.34V294H1508.16ZM1510.34 281.548H1531.39V276.386C1531.39 269.956 1527.72 265.836 1520.84 265.836C1514 265.836 1510.34 269.956 1510.34 276.386V281.548Z" fill="white"/>
<path d="M614.448 294V267.375H604.396V264.387H627.76V267.375H617.708V294H614.448ZM632.03 294V264.387H635.291V277.473H654.489V264.387H657.749V294H654.489V280.461H635.291V294H632.03ZM663.824 294V264.387H685.558V267.375H667.084V277.473H682.932V280.461H667.084V291.012H685.558V294H663.824ZM702.692 294V264.387H717C722.389 264.387 725.332 267.511 725.332 271.903C725.332 275.028 723.747 277.473 721.076 278.605V278.695C724.562 279.601 726.69 282.499 726.69 286.167C726.69 290.695 723.657 294 718.178 294H702.692ZM705.952 277.428H716.774C720.17 277.428 722.072 275.345 722.072 272.401C722.072 269.458 720.442 267.375 716.638 267.375H705.952V277.428ZM705.952 291.012H717.77C721.574 291.012 723.385 288.793 723.385 285.714C723.385 282.635 721.302 280.416 717.861 280.416H705.952V291.012ZM731.039 294V264.387H734.3V294H731.039ZM754.718 294.589C745.481 294.589 738.961 288.068 738.961 279.193C738.961 270.319 745.481 263.798 754.718 263.798C761.872 263.798 767.487 267.738 769.57 273.669H765.993C764.091 269.504 759.97 266.787 754.718 266.787C747.337 266.787 742.221 272.039 742.221 279.193C742.221 286.348 747.337 291.6 754.718 291.6C761.148 291.6 765.812 287.978 766.989 282.091H752.862V279.103H770.43V280.642C769.751 288.748 763.457 294.589 754.718 294.589ZM788.988 294.589C779.75 294.589 773.23 288.068 773.23 279.193C773.23 270.319 779.75 263.798 788.988 263.798C796.142 263.798 801.757 267.738 803.839 273.669H800.262C798.361 269.504 794.24 266.787 788.988 266.787C781.607 266.787 776.49 272.039 776.49 279.193C776.49 286.348 781.607 291.6 788.988 291.6C795.417 291.6 800.081 287.978 801.258 282.091H787.131V279.103H804.7V280.642C804.021 288.748 797.727 294.589 788.988 294.589ZM808.994 294V264.387H830.728V267.375H812.254V277.473H828.102V280.461H812.254V291.012H830.728V294H808.994ZM845.162 294.589C838.733 294.589 834.476 291.193 834.34 285.668H837.555C837.691 289.427 840.453 291.6 845.162 291.6C849.871 291.6 852.769 289.291 852.769 285.668C852.769 281.774 849.011 281.095 844.981 280.507C840.182 279.827 835.02 278.922 835.02 272.628C835.02 267.375 839.095 263.798 845.208 263.798C851.185 263.798 855.169 267.194 855.35 272.356H852.226C852.045 268.96 849.464 266.787 845.208 266.787C840.906 266.787 838.189 269.051 838.189 272.537C838.189 276.341 841.902 276.975 845.932 277.609C850.732 278.378 855.939 279.239 855.939 285.578C855.939 291.102 851.683 294.589 845.162 294.589ZM867.998 294V267.375H857.946V264.387H881.31V267.375H871.258V294H867.998ZM897.608 294V264.387H911.917C917.305 264.387 920.248 267.511 920.248 271.903C920.248 275.028 918.663 277.473 915.992 278.605V278.695C919.478 279.601 921.607 282.499 921.607 286.167C921.607 290.695 918.573 294 913.094 294H897.608ZM900.868 277.428H911.69C915.086 277.428 916.988 275.345 916.988 272.401C916.988 269.458 915.358 267.375 911.554 267.375H900.868V277.428ZM900.868 291.012H912.686C916.49 291.012 918.301 288.793 918.301 285.714C918.301 282.635 916.218 280.416 912.777 280.416H900.868V291.012ZM937.593 294.589C929.578 294.589 925.141 289.834 925.141 282.363V264.387H928.401V282.363C928.401 288.068 931.57 291.6 937.547 291.6C943.524 291.6 946.694 288.023 946.694 282.363V264.387H949.864V282.363C949.864 289.834 945.471 294.589 937.593 294.589ZM964.553 294.589C958.123 294.589 953.867 291.193 953.731 285.668H956.946C957.082 289.427 959.844 291.6 964.553 291.6C969.262 291.6 972.16 289.291 972.16 285.668C972.16 281.774 968.402 281.095 964.372 280.507C959.572 279.827 954.41 278.922 954.41 272.628C954.41 267.375 958.485 263.798 964.598 263.798C970.575 263.798 974.56 267.194 974.741 272.356H971.617C971.436 268.96 968.855 266.787 964.598 266.787C960.297 266.787 957.58 269.051 957.58 272.537C957.58 276.341 961.293 276.975 965.323 277.609C970.122 278.378 975.33 279.239 975.33 285.578C975.33 291.102 971.073 294.589 964.553 294.589ZM980.168 294V264.387H983.428V294H980.168ZM988.904 294V276.024C988.904 268.553 993.341 263.798 1001.36 263.798C1009.33 263.798 1013.76 268.553 1013.76 276.024V294H1010.5V276.024C1010.5 270.319 1007.33 266.787 1001.36 266.787C995.334 266.787 992.164 270.319 992.164 276.024V294H988.904ZM1019.17 294V264.387H1040.9V267.375H1022.43V277.473H1038.27V280.461H1022.43V291.012H1040.9V294H1019.17ZM1055.33 294.589C1048.9 294.589 1044.65 291.193 1044.51 285.668H1047.73C1047.86 289.427 1050.62 291.6 1055.33 291.6C1060.04 291.6 1062.94 289.291 1062.94 285.668C1062.94 281.774 1059.18 281.095 1055.15 280.507C1050.35 279.827 1045.19 278.922 1045.19 272.628C1045.19 267.375 1049.27 263.798 1055.38 263.798C1061.36 263.798 1065.34 267.194 1065.52 272.356H1062.4C1062.22 268.96 1059.64 266.787 1055.38 266.787C1051.08 266.787 1048.36 269.051 1048.36 272.537C1048.36 276.341 1052.07 276.975 1056.1 277.609C1060.9 278.378 1066.11 279.239 1066.11 285.578C1066.11 291.102 1061.85 294.589 1055.33 294.589ZM1080.14 294.589C1073.71 294.589 1069.45 291.193 1069.32 285.668H1072.53C1072.67 289.427 1075.43 291.6 1080.14 291.6C1084.85 291.6 1087.75 289.291 1087.75 285.668C1087.75 281.774 1083.99 281.095 1079.96 280.507C1075.16 279.827 1070 278.922 1070 272.628C1070 267.375 1074.07 263.798 1080.19 263.798C1086.16 263.798 1090.15 267.194 1090.33 272.356H1087.2C1087.02 268.96 1084.44 266.787 1080.19 266.787C1075.88 266.787 1073.17 269.051 1073.17 272.537C1073.17 276.341 1076.88 276.975 1080.91 277.609C1085.71 278.378 1090.92 279.239 1090.92 285.578C1090.92 291.102 1086.66 294.589 1080.14 294.589ZM1107.65 294V264.387H1129.02V267.375H1110.91V277.428H1126.39V280.416H1110.91V294H1107.65ZM1133.38 294V264.387H1155.12V267.375H1136.64V277.473H1152.49V280.461H1136.64V291.012H1155.12V294H1133.38ZM1169.55 294.589C1163.12 294.589 1158.86 291.193 1158.73 285.668H1161.94C1162.08 289.427 1164.84 291.6 1169.55 291.6C1174.26 291.6 1177.16 289.291 1177.16 285.668C1177.16 281.774 1173.4 281.095 1169.37 280.507C1164.57 279.827 1159.41 278.922 1159.41 272.628C1159.41 267.375 1163.48 263.798 1169.6 263.798C1175.57 263.798 1179.56 267.194 1179.74 272.356H1176.61C1176.43 268.96 1173.85 266.787 1169.6 266.787C1165.29 266.787 1162.58 269.051 1162.58 272.537C1162.58 276.341 1166.29 276.975 1170.32 277.609C1175.12 278.378 1180.33 279.239 1180.33 285.578C1180.33 291.102 1176.07 294.589 1169.55 294.589ZM1192.39 294V267.375H1182.33V264.387H1205.7V267.375H1195.65V294H1192.39ZM1222.13 294V264.387H1225.39V294H1222.13ZM1230.87 294V276.024C1230.87 268.553 1235.31 263.798 1243.32 263.798C1251.29 263.798 1255.73 268.553 1255.73 276.024V294H1252.47V276.024C1252.47 270.319 1249.3 266.787 1243.32 266.787C1237.3 266.787 1234.13 270.319 1234.13 276.024V294H1230.87Z" fill="black"/>
<path d="M670.091 41V9.84752H692.955V12.9913H673.521V23.6137H690.193V26.7575H673.521V37.8562H692.955V41H670.091ZM698.279 29.7108V25.8048H715.999V29.7108H698.279ZM737.335 41.6192C727.617 41.6192 720.758 34.76 720.758 25.4238C720.758 16.0875 727.617 9.22828 737.335 9.22828C745.147 9.22828 751.148 13.6582 753.149 20.2793H749.529C747.671 15.5159 743.146 12.3721 737.335 12.3721C729.57 12.3721 724.188 17.8976 724.188 25.4238C724.188 32.9499 729.57 38.4754 737.335 38.4754C743.146 38.4754 747.671 35.3316 749.529 30.5682H753.149C751.148 37.1893 745.147 41.6192 737.335 41.6192ZM758.102 41V9.84752H780.966V12.9913H761.532V23.6137H778.203V26.7575H761.532V37.8562H780.966V41H758.102ZM786.338 41V9.84752H789.768V37.8562H808.631V41H786.338ZM813.039 41V9.84752H816.469V37.8562H835.331V41H813.039ZM839.93 46.9066L841.502 41.4763C840.502 41.2382 839.835 40.2855 839.835 39.1899C839.835 37.8085 840.883 36.7606 842.264 36.7606C843.598 36.7606 844.646 37.8085 844.646 39.1899C844.646 39.571 844.503 40.1426 844.36 40.5237L841.836 46.9066H839.93ZM874.173 41L861.789 9.84752H865.599L876.079 37.0464L886.558 9.84752H890.274L877.841 41H874.173ZM894.82 41V9.84752H898.249V41H894.82ZM913.394 41V12.9913H902.819V9.84752H927.398V12.9913H916.824V41H913.394ZM944.543 41V9.84752H958.024C965.55 9.84752 968.884 14.0393 968.884 19.7553C968.884 25.4238 965.502 29.7108 958.024 29.7108H947.973V41H944.543ZM947.973 26.567H958.071C963.454 26.567 965.407 23.6137 965.407 19.7553C965.407 15.897 963.454 12.9913 958.071 12.9913H947.973V26.567ZM973.059 41V9.84752H986.825C994.16 9.84752 997.399 13.944 997.399 19.4695C997.399 24.614 994.637 28.0436 989.54 28.9963L998.543 41H994.398L985.967 29.1868H976.488V41H973.059ZM976.488 26.043H986.872C992.064 26.043 993.922 23.185 993.922 19.4695C993.922 15.7541 992.064 12.9913 986.872 12.9913H976.488V26.043ZM1003.06 41V9.84752H1025.93V12.9913H1006.49V23.6137H1023.16V26.7575H1006.49V37.8562H1025.93V41H1003.06ZM1041.11 41.6192C1034.35 41.6192 1029.87 38.0467 1029.73 32.2354H1033.11C1033.25 36.189 1036.16 38.4754 1041.11 38.4754C1046.06 38.4754 1049.11 36.0461 1049.11 32.2354C1049.11 28.1389 1045.16 27.4244 1040.92 26.8051C1035.87 26.0906 1030.44 25.138 1030.44 18.5169C1030.44 12.9913 1034.73 9.22828 1041.16 9.22828C1047.45 9.22828 1051.64 12.8008 1051.83 18.2311H1048.54C1048.35 14.6585 1045.64 12.3721 1041.16 12.3721C1036.63 12.3721 1033.78 14.7538 1033.78 18.4216C1033.78 22.4228 1037.68 23.0897 1041.92 23.7566C1046.97 24.5664 1052.45 25.4714 1052.45 32.1401C1052.45 37.9514 1047.97 41.6192 1041.11 41.6192ZM1057.39 41V9.84752H1080.26V12.9913H1060.82V23.6137H1077.5V26.7575H1060.82V37.8562H1080.26V41H1057.39ZM1084.92 41V22.0894C1084.92 14.2298 1089.58 9.22828 1098.02 9.22828C1106.4 9.22828 1111.07 14.2298 1111.07 22.0894V41H1107.64V22.0894C1107.64 16.0875 1104.3 12.3721 1098.02 12.3721C1091.68 12.3721 1088.35 16.0875 1088.35 22.0894V41H1084.92ZM1124.4 41V12.9913H1113.82V9.84752H1138.4V12.9913H1127.83V41H1124.4ZM1152.01 41.6192C1145.24 41.6192 1140.77 38.0467 1140.62 32.2354H1144.01C1144.15 36.189 1147.05 38.4754 1152.01 38.4754C1156.96 38.4754 1160.01 36.0461 1160.01 32.2354C1160.01 28.1389 1156.06 27.4244 1151.82 26.8051C1146.77 26.0906 1141.34 25.138 1141.34 18.5169C1141.34 12.9913 1145.63 9.22828 1152.06 9.22828C1158.34 9.22828 1162.54 12.8008 1162.73 18.2311H1159.44C1159.25 14.6585 1156.53 12.3721 1152.06 12.3721C1147.53 12.3721 1144.67 14.7538 1144.67 18.4216C1144.67 22.4228 1148.58 23.0897 1152.82 23.7566C1157.87 24.5664 1163.35 25.4714 1163.35 32.1401C1163.35 37.9514 1158.87 41.6192 1152.01 41.6192Z" fill="#FFE5D6"/>
<path d="M55.0235 214.606V87.6712C107.478 87.6712 160.118 87.6712 212.759 87.6712V125.192C201.746 125.192 138.651 125.192 109.718 125.192V136.392C141.078 136.392 172.625 136.392 203.986 136.392V166.072H109.718V177.086H212.759V214.606C160.118 214.606 107.478 214.606 55.0235 214.606ZM332.661 133.219V169.059H223.646V133.219H332.661ZM478.154 138.819C510.821 138.819 530.608 145.912 530.608 173.912C530.608 208.82 507.647 217.593 478.154 217.593H396.392C358.125 217.593 343.005 202.66 343.005 169.992H395.272C395.832 177.086 403.486 177.273 410.019 177.273C429.993 177.273 464.9 177.459 474.047 177.459C479.087 177.459 480.954 175.406 480.954 170.179C480.954 166.819 478.714 165.326 473.674 165.326C447.913 164.766 421.219 164.019 395.459 163.272C362.792 163.272 343.192 156.552 343.192 128.552C343.192 93.6446 366.152 84.8711 395.646 84.8711H474.607C512.687 84.8711 527.808 99.8047 527.808 132.472H475.54C474.98 125.192 467.513 125.005 460.793 125.005C440.82 125.005 409.086 125.005 399.752 125.005C394.712 125.005 392.846 126.872 392.846 132.099C392.846 135.459 394.712 136.765 399.752 136.765C425.513 137.325 452.207 138.072 478.154 138.819ZM593.709 151.139C593.709 168.126 602.483 177.086 616.67 177.086C626.19 177.086 633.843 177.086 643.55 177.086C657.55 177.086 666.324 168.126 666.324 151.139V87.6712H721.018V151.139C721.018 196.313 689.471 217.406 657.55 217.406H602.483C570.562 217.406 539.015 196.313 539.015 151.139V87.6712H593.709V151.139ZM951.935 87.6712V214.606H897.055V137.699L866.441 214.606H818.467L788.04 137.699V214.606H733.159V87.6712C760.973 87.6712 788.6 87.6712 816.04 87.6712L842.547 154.312L868.867 87.6712C896.681 87.6712 924.308 87.6712 951.935 87.6712ZM1182.9 87.6712V214.606H1128.02V137.699L1097.41 214.606H1049.43L1019.01 137.699V214.606H964.126V87.6712C991.939 87.6712 1019.57 87.6712 1047.01 87.6712L1073.51 154.312L1099.83 87.6712C1127.65 87.6712 1155.28 87.6712 1182.9 87.6712ZM1195.09 214.606V87.6712H1249.79V214.606H1195.09ZM1448.29 87.6712V129.298H1382.4V214.606H1327.7V129.298C1299.7 129.485 1274.69 129.485 1261.99 129.485V87.6712C1323.97 87.6712 1386.13 87.6712 1448.29 87.6712ZM1460.51 127.245V87.6712H1498.22C1498.22 101.111 1498.22 113.805 1498.22 127.245C1498.22 140.685 1494.49 147.405 1484.97 155.059L1471.15 141.992C1477.69 137.699 1479.37 133.779 1479.37 127.245H1460.51ZM1637.89 116.532C1637.89 121.697 1637.13 126.497 1635.61 130.933C1634.15 135.369 1632.27 139.137 1629.96 142.236C1627.71 145.335 1624.85 148.494 1621.39 151.715C1617.99 154.935 1614.67 157.731 1611.45 160.1C1608.23 162.409 1604.56 165.205 1600.42 168.486C1596.35 171.767 1592.86 174.866 1589.94 177.783C1594.07 177.783 1600.39 177.661 1608.9 177.418C1617.47 177.175 1623.97 177.054 1628.41 177.054C1632.6 177.054 1635.42 178.482 1636.88 181.338C1638.4 184.133 1639.16 188.174 1639.16 193.46C1639.16 195.101 1639.07 197.896 1638.89 201.846C1638.71 205.735 1638.62 208.712 1638.62 210.778V212.419C1638.62 213.33 1638.55 214.029 1638.43 214.515C1638.31 215.001 1637.98 215.457 1637.43 215.883C1636.88 216.308 1636.06 216.612 1634.97 216.794H1628.41C1623.79 216.672 1613.94 216.429 1598.87 216.065C1574.57 216.065 1548.01 216.551 1519.21 217.523V215.7C1518.3 215.153 1517.54 214.06 1516.93 212.419C1516.39 210.778 1516.11 208.955 1516.11 206.95V180.335C1516.11 178.938 1518.18 176.872 1522.31 174.137C1539.02 162.835 1550.99 154.632 1558.22 149.527L1563.87 145.152C1577 134.944 1583.56 125.829 1583.56 117.808C1583.56 115.256 1582.8 113.251 1581.28 111.792C1579.83 110.334 1577.85 109.605 1575.36 109.605C1573.23 109.605 1571.53 110.091 1570.25 111.063C1569.04 111.975 1568.19 113.129 1567.7 114.527C1567.28 115.864 1566.91 117.231 1566.61 118.628C1566.37 120.026 1565.97 121.302 1565.42 122.457C1564.94 123.611 1564.18 124.31 1563.15 124.553H1520.85C1517.45 124.553 1515.75 123.642 1515.75 121.819C1516.66 113.068 1518.76 105.564 1522.04 99.3052C1525.32 92.9857 1529.69 88.003 1535.16 84.3571C1540.63 80.7112 1546.8 78.0679 1553.67 76.4273C1560.53 74.7259 1568.37 73.8752 1577.18 73.8752C1583.56 73.8752 1589.64 74.3917 1595.41 75.4247C1601.18 76.3969 1606.68 78.0072 1611.91 80.2555C1617.13 82.443 1621.63 85.1774 1625.4 88.4587C1629.23 91.6792 1632.27 95.6897 1634.51 100.49C1636.76 105.291 1637.89 110.638 1637.89 116.532ZM1649.37 178.148C1649.37 176.811 1650.28 175.93 1652.1 175.504C1653.99 175.079 1656.72 174.866 1660.31 174.866H1675.26C1677.93 174.866 1681.88 174.957 1687.11 175.14C1692.33 175.322 1696.4 175.413 1699.32 175.413C1700.35 175.535 1701.11 176.112 1701.6 177.145C1702.14 178.178 1702.51 179.272 1702.69 180.426C1702.87 181.581 1703.36 182.644 1704.15 183.616C1704.94 184.589 1706.12 185.075 1707.7 185.075C1713.78 185.075 1716.82 179.971 1716.82 169.762C1716.82 167.574 1716.73 165.691 1716.55 164.111C1716.36 162.47 1716 160.769 1715.45 159.007C1714.91 157.244 1713.99 155.908 1712.72 154.996C1711.5 154.024 1709.95 153.538 1708.07 153.538C1705.88 153.538 1704.27 154.085 1703.24 155.178C1702.27 156.272 1701.75 157.488 1701.69 158.824C1701.63 160.161 1701.29 161.376 1700.69 162.47C1700.08 163.564 1699.02 164.111 1697.5 164.111H1657.03C1655.2 161.498 1654.29 157.791 1654.29 152.991V84.9951C1654.29 83.476 1654.32 82.3518 1654.38 81.6227C1654.44 80.8327 1654.63 79.9213 1654.93 78.8883C1655.29 77.8553 1655.81 76.9742 1656.48 76.245H1756.74C1758.02 76.245 1759.2 76.5184 1760.3 77.0653C1761.45 77.6122 1762.15 78.3718 1762.39 79.344V97.0265C1762.39 97.4519 1762.39 98.0596 1762.39 98.8495C1762.39 105.473 1762.21 109.453 1761.85 110.79C1761.54 112.066 1760.45 112.704 1758.56 112.704C1745.44 112.704 1726.24 112.825 1700.96 113.068C1700.78 114.891 1700.56 117.656 1700.32 121.363C1700.08 125.07 1699.87 127.834 1699.68 129.657C1702.72 127.47 1706.61 125.768 1711.35 124.553C1716.09 123.338 1720.77 122.73 1725.39 122.73C1738.88 122.73 1749.69 126.862 1757.84 135.126C1765.98 143.329 1770.05 153.902 1770.05 166.845C1770.05 174.502 1768.83 181.398 1766.4 187.536C1764.03 193.673 1760.87 198.716 1756.92 202.666C1752.97 206.616 1748.3 209.928 1742.89 212.601C1737.54 215.214 1732.04 217.067 1726.39 218.161C1720.74 219.316 1714.87 219.893 1708.8 219.893C1704.73 219.893 1700.9 219.741 1697.31 219.437C1693.79 219.133 1690.08 218.587 1686.19 217.797C1682.3 217.007 1678.75 215.943 1675.53 214.606C1672.31 213.33 1669.15 211.629 1666.05 209.502C1663.01 207.315 1660.37 204.823 1658.12 202.028C1655.93 199.172 1654.05 195.709 1652.47 191.637C1650.89 187.566 1649.86 183.07 1649.37 178.148Z" fill="white"/>
<path d="M366.99 277.616C366.929 277.647 366.837 277.688 366.714 277.739C366.601 277.79 366.468 277.841 366.314 277.893C366.161 277.944 365.987 277.99 365.792 278.031C365.598 278.072 365.393 278.092 365.178 278.092C364.953 278.092 364.738 278.061 364.533 278C364.329 277.939 364.15 277.846 363.996 277.724C363.842 277.591 363.72 277.427 363.628 277.232C363.535 277.038 363.489 276.813 363.489 276.557V270.83H362.384V270.001H363.489V267.298H364.533V270.001H366.376V270.83H364.533V276.265C364.554 276.562 364.656 276.782 364.84 276.925C365.025 277.058 365.245 277.125 365.501 277.125C365.798 277.125 366.059 277.079 366.284 276.987C366.509 276.884 366.652 276.813 366.714 276.772L366.99 277.616ZM375.405 278H374.36V273.532C374.36 272.621 374.202 271.94 373.884 271.49C373.577 271.04 373.122 270.814 372.518 270.814C372.221 270.814 371.924 270.876 371.627 270.999C371.341 271.111 371.07 271.27 370.814 271.475C370.558 271.679 370.333 271.92 370.138 272.196C369.954 272.473 369.816 272.775 369.724 273.102V278H368.679V266.792H369.724V271.812C370.051 271.208 370.496 270.732 371.059 270.384C371.622 270.036 372.226 269.862 372.871 269.862C373.332 269.862 373.721 269.949 374.038 270.123C374.366 270.287 374.627 270.523 374.821 270.83C375.026 271.127 375.174 271.49 375.266 271.92C375.358 272.339 375.405 272.805 375.405 273.317V278Z" fill="white"/>
</svg>
