<svg width="1920" height="1132" viewBox="0 0 1920 1132" fill="none" xmlns="http://www.w3.org/2000/svg">
<g clip-path="url(#clip0_50_500)">
<rect width="1920" height="1132" fill="#BB2121"/>
<g opacity="0.1">
<path d="M-22.543 633V492.57C35.4874 492.57 93.7244 492.57 151.961 492.57V534.08C139.777 534.08 69.9753 534.08 37.9656 534.08V546.471C72.66 546.471 107.561 546.471 142.255 546.471V579.306H37.9656V591.491H151.961V633C93.7244 633 35.4874 633 -22.543 633ZM284.61 542.96V582.611H164.005V542.96H284.61ZM445.57 549.155C481.71 549.155 503.6 557.003 503.6 587.98C503.6 626.598 478.199 636.304 445.57 636.304H355.117C312.781 636.304 296.053 619.783 296.053 583.643H353.877C354.497 591.491 362.964 591.697 370.192 591.697C392.289 591.697 430.907 591.904 441.026 591.904C446.602 591.904 448.667 589.632 448.667 583.85C448.667 580.132 446.189 578.48 440.613 578.48C412.114 577.861 382.583 577.035 354.084 576.209C317.944 576.209 296.26 568.774 296.26 537.797C296.26 499.179 321.661 489.473 354.29 489.473H441.646C483.775 489.473 500.502 505.994 500.502 542.134H442.679C442.059 534.08 433.798 533.873 426.364 533.873C404.267 533.873 369.159 533.873 358.834 533.873C353.258 533.873 351.193 535.938 351.193 541.721C351.193 545.438 353.258 546.884 358.834 546.884C387.333 547.503 416.864 548.329 445.57 549.155ZM573.41 562.785C573.41 581.578 583.116 591.491 598.811 591.491C609.343 591.491 617.811 591.491 628.549 591.491C644.038 591.491 653.744 581.578 653.744 562.785V492.57H714.253V562.785C714.253 612.762 679.352 636.098 644.038 636.098H583.116C547.802 636.098 512.901 612.762 512.901 562.785V492.57H573.41V562.785ZM969.719 492.57V633H909.004V547.916L875.135 633H822.061L788.399 547.916V633H727.684V492.57C758.455 492.57 789.019 492.57 819.376 492.57L848.701 566.296L877.82 492.57C908.591 492.57 939.155 492.57 969.719 492.57ZM1225.24 492.57V633H1164.52V547.916L1130.66 633H1077.58L1043.92 547.916V633H983.205V492.57C1013.98 492.57 1044.54 492.57 1074.9 492.57L1104.22 566.296L1133.34 492.57C1164.11 492.57 1194.68 492.57 1225.24 492.57ZM1238.73 633V492.57H1299.23V633H1238.73ZM1518.84 492.57V538.623H1445.94V633H1385.43V538.623C1354.46 538.83 1326.78 538.83 1312.74 538.83V492.57C1381.3 492.57 1450.07 492.57 1518.84 492.57ZM1532.36 536.351V492.57H1574.08C1574.08 507.439 1574.08 521.482 1574.08 536.351C1574.08 551.22 1569.95 558.655 1559.42 567.122L1544.13 552.666C1551.36 547.916 1553.22 543.579 1553.22 536.351H1532.36ZM1761.36 539.322C1761.36 567.557 1728.19 576.229 1702.17 582.582C1688.16 585.909 1676.96 589.237 1672.93 594.178H1759.15V632.899H1589.44V610.009C1589.44 579.052 1635.12 567.557 1670.01 559.288C1691.28 554.045 1708.32 549.91 1708.32 542.751C1708.32 537.003 1699.65 532.768 1680.8 532.768C1661.13 532.97 1644.29 535.894 1644.59 548.499H1591.55C1591.55 502.819 1627.25 494.047 1678.58 494.047C1730.71 494.047 1761.36 506.248 1761.36 539.322ZM1823.78 546.482H1837.4C1891.44 546.482 1937.43 550.112 1937.43 591.455C1937.43 605.572 1930.06 616.564 1915.44 624.429C1900.82 632.294 1880.25 636.227 1853.63 636.227C1801.09 636.227 1765.5 627.151 1765.5 581.976H1818.44C1818.24 596.396 1835.08 595.791 1855.75 596.094C1875.61 596.094 1884.39 592.867 1884.39 585.707C1884.39 577.035 1879.04 570.38 1837.4 570.38H1765.5V570.078L1782.04 497.374H1927.44V533.776H1826.61L1823.78 546.482Z" fill="#111111"/>
</g>
<path d="M-22.543 228V87.5704C35.4874 87.5704 93.7244 87.5704 151.961 87.5704V129.08C139.777 129.08 69.9753 129.08 37.9656 129.08V141.471C72.66 141.471 107.561 141.471 142.255 141.471V174.306H37.9656V186.491H151.961V228C93.7244 228 35.4874 228 -22.543 228ZM284.61 137.96V177.611H164.005V137.96H284.61ZM445.57 144.155C481.71 144.155 503.6 152.003 503.6 182.98C503.6 221.598 478.199 231.304 445.57 231.304H355.117C312.781 231.304 296.053 214.783 296.053 178.643H353.877C354.497 186.491 362.964 186.697 370.192 186.697C392.289 186.697 430.907 186.904 441.026 186.904C446.602 186.904 448.667 184.632 448.667 178.85C448.667 175.132 446.189 173.48 440.613 173.48C412.114 172.861 382.583 172.035 354.084 171.209C317.944 171.209 296.26 163.774 296.26 132.797C296.26 94.1788 321.661 84.4727 354.29 84.4727H441.646C483.775 84.4727 500.502 100.994 500.502 137.134H442.679C442.059 129.08 433.798 128.873 426.364 128.873C404.267 128.873 369.159 128.873 358.834 128.873C353.258 128.873 351.193 130.938 351.193 136.721C351.193 140.438 353.258 141.884 358.834 141.884C387.333 142.503 416.864 143.329 445.57 144.155ZM573.41 157.785C573.41 176.578 583.116 186.491 598.811 186.491C609.343 186.491 617.811 186.491 628.549 186.491C644.038 186.491 653.744 176.578 653.744 157.785V87.5704H714.253V157.785C714.253 207.762 679.352 231.098 644.038 231.098H583.116C547.802 231.098 512.901 207.762 512.901 157.785V87.5704H573.41V157.785ZM969.719 87.5704V228H909.004V142.916L875.135 228H822.061L788.399 142.916V228H727.684V87.5704C758.455 87.5704 789.019 87.5704 819.376 87.5704L848.701 161.296L877.82 87.5704C908.591 87.5704 939.155 87.5704 969.719 87.5704ZM1225.24 87.5704V228H1164.52V142.916L1130.66 228H1077.58L1043.92 142.916V228H983.205V87.5704C1013.98 87.5704 1044.54 87.5704 1074.9 87.5704L1104.22 161.296L1133.34 87.5704C1164.11 87.5704 1194.68 87.5704 1225.24 87.5704ZM1238.73 228V87.5704H1299.23V228H1238.73ZM1518.84 87.5704V133.623H1445.94V228H1385.43V133.623C1354.46 133.83 1326.78 133.83 1312.74 133.83V87.5704C1381.3 87.5704 1450.07 87.5704 1518.84 87.5704ZM1532.36 131.351V87.5704H1574.08C1574.08 102.439 1574.08 116.482 1574.08 131.351C1574.08 146.22 1569.95 153.655 1559.42 162.122L1544.13 147.666C1551.36 142.916 1553.22 138.579 1553.22 131.351H1532.36ZM1761.36 134.322C1761.36 162.557 1728.19 171.229 1702.17 177.582C1688.16 180.909 1676.96 184.237 1672.93 189.178H1759.15V227.899H1589.44V205.009C1589.44 174.052 1635.12 162.557 1670.01 154.288C1691.28 149.045 1708.32 144.91 1708.32 137.751C1708.32 132.003 1699.65 127.768 1680.8 127.768C1661.13 127.97 1644.29 130.894 1644.59 143.499H1591.55C1591.55 97.8195 1627.25 89.0466 1678.58 89.0466C1730.71 89.0466 1761.36 101.248 1761.36 134.322ZM1823.78 141.482H1837.4C1891.44 141.482 1937.43 145.112 1937.43 186.455C1937.43 200.572 1930.06 211.564 1915.44 219.429C1900.82 227.294 1880.25 231.227 1853.63 231.227C1801.09 231.227 1765.5 222.151 1765.5 176.976H1818.44C1818.24 191.396 1835.08 190.791 1855.75 191.094C1875.61 191.094 1884.39 187.867 1884.39 180.707C1884.39 172.035 1879.04 165.38 1837.4 165.38H1765.5V165.078L1782.04 92.3743H1927.44V128.776H1826.61L1823.78 141.482Z" fill="#200707"/>
<path d="M-22.543 1050V909.57C35.4874 909.57 93.7244 909.57 151.961 909.57V951.08C139.777 951.08 69.9753 951.08 37.9656 951.08V963.471C72.66 963.471 107.561 963.471 142.255 963.471V996.306H37.9656V1008.49H151.961V1050C93.7244 1050 35.4874 1050 -22.543 1050ZM284.61 959.96V999.611H164.005V959.96H284.61ZM445.57 966.155C481.71 966.155 503.6 974.003 503.6 1004.98C503.6 1043.6 478.199 1053.3 445.57 1053.3H355.117C312.781 1053.3 296.053 1036.78 296.053 1000.64H353.877C354.497 1008.49 362.964 1008.7 370.192 1008.7C392.289 1008.7 430.907 1008.9 441.026 1008.9C446.602 1008.9 448.667 1006.63 448.667 1000.85C448.667 997.132 446.189 995.48 440.613 995.48C412.114 994.861 382.583 994.035 354.084 993.209C317.944 993.209 296.26 985.774 296.26 954.797C296.26 916.179 321.661 906.473 354.29 906.473H441.646C483.775 906.473 500.502 922.994 500.502 959.134H442.679C442.059 951.08 433.798 950.873 426.364 950.873C404.267 950.873 369.159 950.873 358.834 950.873C353.258 950.873 351.193 952.938 351.193 958.721C351.193 962.438 353.258 963.884 358.834 963.884C387.333 964.503 416.864 965.329 445.57 966.155ZM573.41 979.785C573.41 998.578 583.116 1008.49 598.811 1008.49C609.343 1008.49 617.811 1008.49 628.549 1008.49C644.038 1008.49 653.744 998.578 653.744 979.785V909.57H714.253V979.785C714.253 1029.76 679.352 1053.1 644.038 1053.1H583.116C547.802 1053.1 512.901 1029.76 512.901 979.785V909.57H573.41V979.785ZM969.719 909.57V1050H909.004V964.916L875.135 1050H822.061L788.399 964.916V1050H727.684V909.57C758.455 909.57 789.019 909.57 819.376 909.57L848.701 983.296L877.82 909.57C908.591 909.57 939.155 909.57 969.719 909.57ZM1225.24 909.57V1050H1164.52V964.916L1130.66 1050H1077.58L1043.92 964.916V1050H983.205V909.57C1013.98 909.57 1044.54 909.57 1074.9 909.57L1104.22 983.296L1133.34 909.57C1164.11 909.57 1194.68 909.57 1225.24 909.57ZM1238.73 1050V909.57H1299.23V1050H1238.73ZM1518.84 909.57V955.623H1445.94V1050H1385.43V955.623C1354.46 955.83 1326.78 955.83 1312.74 955.83V909.57C1381.3 909.57 1450.07 909.57 1518.84 909.57ZM1532.36 953.351V909.57H1574.08C1574.08 924.439 1574.08 938.482 1574.08 953.351C1574.08 968.22 1569.95 975.655 1559.42 984.122L1544.13 969.666C1551.36 964.916 1553.22 960.579 1553.22 953.351H1532.36ZM1761.36 956.322C1761.36 984.557 1728.19 993.229 1702.17 999.582C1688.16 1002.91 1676.96 1006.24 1672.93 1011.18H1759.15V1049.9H1589.44V1027.01C1589.44 996.052 1635.12 984.557 1670.01 976.288C1691.28 971.045 1708.32 966.91 1708.32 959.751C1708.32 954.003 1699.65 949.768 1680.8 949.768C1661.13 949.97 1644.29 952.894 1644.59 965.499H1591.55C1591.55 919.819 1627.25 911.047 1678.58 911.047C1730.71 911.047 1761.36 923.248 1761.36 956.322ZM1823.78 963.482H1837.4C1891.44 963.482 1937.43 967.112 1937.43 1008.46C1937.43 1022.57 1930.06 1033.56 1915.44 1041.43C1900.82 1049.29 1880.25 1053.23 1853.63 1053.23C1801.09 1053.23 1765.5 1044.15 1765.5 998.976H1818.44C1818.24 1013.4 1835.08 1012.79 1855.75 1013.09C1875.61 1013.09 1884.39 1009.87 1884.39 1002.71C1884.39 994.035 1879.04 987.38 1837.4 987.38H1765.5V987.078L1782.04 914.374H1927.44V950.776H1826.61L1823.78 963.482Z" fill="#200707"/>
<g opacity="0.3">
<path d="M-22.543 356.221V215.792C35.4874 215.792 93.7244 215.792 151.961 215.792V257.301C139.777 257.301 69.9753 257.301 37.9656 257.301V269.692C72.66 269.692 107.561 269.692 142.255 269.692V302.528H37.9656V314.712H151.961V356.221C93.7244 356.221 35.4874 356.221 -22.543 356.221ZM284.61 266.181V305.832H164.005V266.181H284.61ZM445.57 272.376C481.71 272.376 503.6 280.224 503.6 311.201C503.6 349.819 478.199 359.525 445.57 359.525H355.117C312.781 359.525 296.053 343.004 296.053 306.864H353.877C354.497 314.712 362.964 314.918 370.192 314.918C392.289 314.918 430.907 315.125 441.026 315.125C446.602 315.125 448.667 312.853 448.667 307.071C448.667 303.354 446.189 301.701 440.613 301.701C412.114 301.082 382.583 300.256 354.084 299.43C317.944 299.43 296.26 291.995 296.26 261.018C296.26 222.4 321.661 212.694 354.29 212.694H441.646C483.775 212.694 500.502 229.215 500.502 265.355H442.679C442.059 257.301 433.798 257.094 426.364 257.094C404.267 257.094 369.159 257.094 358.834 257.094C353.258 257.094 351.193 259.16 351.193 264.942C351.193 268.659 353.258 270.105 358.834 270.105C387.333 270.724 416.864 271.55 445.57 272.376ZM573.41 286.006C573.41 304.799 583.116 314.712 598.811 314.712C609.343 314.712 617.811 314.712 628.549 314.712C644.038 314.712 653.744 304.799 653.744 286.006V215.792H714.253V286.006C714.253 335.983 679.352 359.319 644.038 359.319H583.116C547.802 359.319 512.901 335.983 512.901 286.006V215.792H573.41V286.006ZM969.719 215.792V356.221H909.004V271.137L875.135 356.221H822.061L788.399 271.137V356.221H727.684V215.792C758.455 215.792 789.019 215.792 819.376 215.792L848.701 289.517L877.82 215.792C908.591 215.792 939.155 215.792 969.719 215.792ZM1225.24 215.792V356.221H1164.52V271.137L1130.66 356.221H1077.58L1043.92 271.137V356.221H983.205V215.792C1013.98 215.792 1044.54 215.792 1074.9 215.792L1104.22 289.517L1133.34 215.792C1164.11 215.792 1194.68 215.792 1225.24 215.792ZM1238.73 356.221V215.792H1299.23V356.221H1238.73ZM1518.84 215.792V261.844H1445.94V356.221H1385.43V261.844C1354.46 262.051 1326.78 262.051 1312.74 262.051V215.792C1381.3 215.792 1450.07 215.792 1518.84 215.792ZM1532.36 259.573V215.792H1574.08C1574.08 230.661 1574.08 244.704 1574.08 259.573C1574.08 274.442 1569.95 281.876 1559.42 290.343L1544.13 275.887C1551.36 271.137 1553.22 266.801 1553.22 259.573H1532.36ZM1761.36 262.544C1761.36 290.778 1728.19 299.45 1702.17 305.803C1688.16 309.13 1676.96 312.458 1672.93 317.399H1759.15V356.12H1589.44V333.23C1589.44 302.273 1635.12 290.778 1670.01 282.509C1691.28 277.266 1708.32 273.132 1708.32 265.972C1708.32 260.224 1699.65 255.989 1680.8 255.989C1661.13 256.191 1644.29 259.115 1644.59 271.72H1591.55C1591.55 226.041 1627.25 217.268 1678.58 217.268C1730.71 217.268 1761.36 229.469 1761.36 262.544ZM1823.78 269.703H1837.4C1891.44 269.703 1937.43 273.333 1937.43 314.676C1937.43 328.794 1930.06 339.785 1915.44 347.65C1900.82 355.515 1880.25 359.448 1853.63 359.448C1801.09 359.448 1765.5 350.373 1765.5 305.198H1818.44C1818.24 319.617 1835.08 319.012 1855.75 319.315C1875.61 319.315 1884.39 316.088 1884.39 308.929C1884.39 300.257 1879.04 293.601 1837.4 293.601H1765.5V293.299L1782.04 220.595H1927.44V256.998H1826.61L1823.78 269.703Z" fill="#111111"/>
</g>
<g opacity="0.3">
<path d="M-22.543 913V772.57C35.4874 772.57 93.7244 772.57 151.961 772.57V814.08C139.777 814.08 69.9753 814.08 37.9656 814.08V826.471C72.66 826.471 107.561 826.471 142.255 826.471V859.306H37.9656V871.491H151.961V913C93.7244 913 35.4874 913 -22.543 913ZM284.61 822.96V862.611H164.005V822.96H284.61ZM445.57 829.155C481.71 829.155 503.6 837.003 503.6 867.98C503.6 906.598 478.199 916.304 445.57 916.304H355.117C312.781 916.304 296.053 899.783 296.053 863.643H353.877C354.497 871.491 362.964 871.697 370.192 871.697C392.289 871.697 430.907 871.904 441.026 871.904C446.602 871.904 448.667 869.632 448.667 863.85C448.667 860.132 446.189 858.48 440.613 858.48C412.114 857.861 382.583 857.035 354.084 856.209C317.944 856.209 296.26 848.774 296.26 817.797C296.26 779.179 321.661 769.473 354.29 769.473H441.646C483.775 769.473 500.502 785.994 500.502 822.134H442.679C442.059 814.08 433.798 813.873 426.364 813.873C404.267 813.873 369.159 813.873 358.834 813.873C353.258 813.873 351.193 815.938 351.193 821.721C351.193 825.438 353.258 826.884 358.834 826.884C387.333 827.503 416.864 828.329 445.57 829.155ZM573.41 842.785C573.41 861.578 583.116 871.491 598.811 871.491C609.343 871.491 617.811 871.491 628.549 871.491C644.038 871.491 653.744 861.578 653.744 842.785V772.57H714.253V842.785C714.253 892.762 679.352 916.098 644.038 916.098H583.116C547.802 916.098 512.901 892.762 512.901 842.785V772.57H573.41V842.785ZM969.719 772.57V913H909.004V827.916L875.135 913H822.061L788.399 827.916V913H727.684V772.57C758.455 772.57 789.019 772.57 819.376 772.57L848.701 846.296L877.82 772.57C908.591 772.57 939.155 772.57 969.719 772.57ZM1225.24 772.57V913H1164.52V827.916L1130.66 913H1077.58L1043.92 827.916V913H983.205V772.57C1013.98 772.57 1044.54 772.57 1074.9 772.57L1104.22 846.296L1133.34 772.57C1164.11 772.57 1194.68 772.57 1225.24 772.57ZM1238.73 913V772.57H1299.23V913H1238.73ZM1518.84 772.57V818.623H1445.94V913H1385.43V818.623C1354.46 818.83 1326.78 818.83 1312.74 818.83V772.57C1381.3 772.57 1450.07 772.57 1518.84 772.57ZM1532.36 816.351V772.57H1574.08C1574.08 787.439 1574.08 801.482 1574.08 816.351C1574.08 831.22 1569.95 838.655 1559.42 847.122L1544.13 832.666C1551.36 827.916 1553.22 823.579 1553.22 816.351H1532.36ZM1761.36 819.322C1761.36 847.557 1728.19 856.229 1702.17 862.582C1688.16 865.909 1676.96 869.237 1672.93 874.178H1759.15V912.899H1589.44V890.009C1589.44 859.052 1635.12 847.557 1670.01 839.288C1691.28 834.045 1708.32 829.91 1708.32 822.751C1708.32 817.003 1699.65 812.768 1680.8 812.768C1661.13 812.97 1644.29 815.894 1644.59 828.499H1591.55C1591.55 782.819 1627.25 774.047 1678.58 774.047C1730.71 774.047 1761.36 786.248 1761.36 819.322ZM1823.78 826.482H1837.4C1891.44 826.482 1937.43 830.112 1937.43 871.455C1937.43 885.572 1930.06 896.564 1915.44 904.429C1900.82 912.294 1880.25 916.227 1853.63 916.227C1801.09 916.227 1765.5 907.151 1765.5 861.976H1818.44C1818.24 876.396 1835.08 875.791 1855.75 876.094C1875.61 876.094 1884.39 872.867 1884.39 865.707C1884.39 857.035 1879.04 850.38 1837.4 850.38H1765.5V850.078L1782.04 777.374H1927.44V813.776H1826.61L1823.78 826.482Z" fill="#111111"/>
</g>
<g opacity="0.21">
<path d="M-22.543 496.795V356.366C35.4874 356.366 93.7244 356.366 151.961 356.366V397.875C139.777 397.875 69.9753 397.875 37.9656 397.875V410.266C72.66 410.266 107.561 410.266 142.255 410.266V443.102H37.9656V455.286H151.961V496.795C93.7244 496.795 35.4874 496.795 -22.543 496.795ZM284.61 406.755V446.406H164.005V406.755H284.61ZM445.57 412.951C481.71 412.951 503.6 420.798 503.6 451.775C503.6 490.393 478.199 500.1 445.57 500.1H355.117C312.781 500.1 296.053 483.578 296.053 447.438H353.877C354.497 455.286 362.964 455.493 370.192 455.493C392.289 455.493 430.907 455.699 441.026 455.699C446.602 455.699 448.667 453.427 448.667 447.645C448.667 443.928 446.189 442.276 440.613 442.276C412.114 441.656 382.583 440.83 354.084 440.004C317.944 440.004 296.26 432.569 296.26 401.592C296.26 362.974 321.661 353.268 354.29 353.268H441.646C483.775 353.268 500.502 369.789 500.502 405.929H442.679C442.059 397.875 433.798 397.669 426.364 397.669C404.267 397.669 369.159 397.669 358.834 397.669C353.258 397.669 351.193 399.734 351.193 405.516C351.193 409.233 353.258 410.679 358.834 410.679C387.333 411.298 416.864 412.125 445.57 412.951ZM573.41 426.581C573.41 445.373 583.116 455.286 598.811 455.286C609.343 455.286 617.811 455.286 628.549 455.286C644.038 455.286 653.744 445.373 653.744 426.581V356.366H714.253V426.581C714.253 476.557 679.352 499.893 644.038 499.893H583.116C547.802 499.893 512.901 476.557 512.901 426.581V356.366H573.41V426.581ZM969.719 356.366V496.795H909.004V411.712L875.135 496.795H822.061L788.399 411.712V496.795H727.684V356.366C758.455 356.366 789.019 356.366 819.376 356.366L848.701 430.091L877.82 356.366C908.591 356.366 939.155 356.366 969.719 356.366ZM1225.24 356.366V496.795H1164.52V411.712L1130.66 496.795H1077.58L1043.92 411.712V496.795H983.205V356.366C1013.98 356.366 1044.54 356.366 1074.9 356.366L1104.22 430.091L1133.34 356.366C1164.11 356.366 1194.68 356.366 1225.24 356.366ZM1238.73 496.795V356.366H1299.23V496.795H1238.73ZM1518.84 356.366V402.418H1445.94V496.795H1385.43V402.418C1354.46 402.625 1326.78 402.625 1312.74 402.625V356.366C1381.3 356.366 1450.07 356.366 1518.84 356.366ZM1532.36 400.147V356.366H1574.08C1574.08 371.235 1574.08 385.278 1574.08 400.147C1574.08 415.016 1569.95 422.45 1559.42 430.917L1544.13 416.461C1551.36 411.712 1553.22 407.375 1553.22 400.147H1532.36ZM1761.36 403.118C1761.36 431.352 1728.19 440.024 1702.17 446.377C1688.16 449.704 1676.96 453.032 1672.93 457.973H1759.15V496.695H1589.44V473.805C1589.44 442.848 1635.12 431.352 1670.01 423.084C1691.28 417.84 1708.32 413.706 1708.32 406.546C1708.32 400.799 1699.65 396.563 1680.8 396.563C1661.13 396.765 1644.29 399.689 1644.59 412.294H1591.55C1591.55 366.615 1627.25 357.842 1678.58 357.842C1730.71 357.842 1761.36 370.043 1761.36 403.118ZM1823.78 410.277H1837.4C1891.44 410.277 1937.43 413.907 1937.43 455.251C1937.43 469.368 1930.06 480.359 1915.44 488.224C1900.82 496.089 1880.25 500.022 1853.63 500.022C1801.09 500.022 1765.5 490.947 1765.5 445.772H1818.44C1818.24 460.192 1835.08 459.587 1855.75 459.889C1875.61 459.889 1884.39 456.662 1884.39 449.503C1884.39 440.831 1879.04 434.176 1837.4 434.176H1765.5V433.873L1782.04 361.17H1927.44V397.572H1826.61L1823.78 410.277Z" fill="#111111"/>
</g>
<g opacity="0.21">
<path d="M-23.543 773V632.57C34.4874 632.57 92.7244 632.57 150.961 632.57V674.08C138.777 674.08 68.9753 674.08 36.9656 674.08V686.471C71.66 686.471 106.561 686.471 141.255 686.471V719.306H36.9656V731.491H150.961V773C92.7244 773 34.4874 773 -23.543 773ZM283.61 682.96V722.611H163.005V682.96H283.61ZM444.57 689.155C480.71 689.155 502.6 697.003 502.6 727.98C502.6 766.598 477.199 776.304 444.57 776.304H354.117C311.781 776.304 295.053 759.783 295.053 723.643H352.877C353.497 731.491 361.964 731.697 369.192 731.697C391.289 731.697 429.907 731.904 440.026 731.904C445.602 731.904 447.667 729.632 447.667 723.85C447.667 720.132 445.189 718.48 439.613 718.48C411.114 717.861 381.583 717.035 353.084 716.209C316.944 716.209 295.26 708.774 295.26 677.797C295.26 639.179 320.661 629.473 353.29 629.473H440.646C482.775 629.473 499.502 645.994 499.502 682.134H441.679C441.059 674.08 432.798 673.873 425.364 673.873C403.267 673.873 368.159 673.873 357.834 673.873C352.258 673.873 350.193 675.938 350.193 681.721C350.193 685.438 352.258 686.884 357.834 686.884C386.333 687.503 415.864 688.329 444.57 689.155ZM572.41 702.785C572.41 721.578 582.116 731.491 597.811 731.491C608.343 731.491 616.811 731.491 627.549 731.491C643.038 731.491 652.744 721.578 652.744 702.785V632.57H713.253V702.785C713.253 752.762 678.352 776.098 643.038 776.098H582.116C546.802 776.098 511.901 752.762 511.901 702.785V632.57H572.41V702.785ZM968.719 632.57V773H908.004V687.916L874.135 773H821.061L787.399 687.916V773H726.684V632.57C757.455 632.57 788.019 632.57 818.376 632.57L847.701 706.296L876.82 632.57C907.591 632.57 938.155 632.57 968.719 632.57ZM1224.24 632.57V773H1163.52V687.916L1129.66 773H1076.58L1042.92 687.916V773H982.205V632.57C1012.98 632.57 1043.54 632.57 1073.9 632.57L1103.22 706.296L1132.34 632.57C1163.11 632.57 1193.68 632.57 1224.24 632.57ZM1237.73 773V632.57H1298.23V773H1237.73ZM1517.84 632.57V678.623H1444.94V773H1384.43V678.623C1353.46 678.83 1325.78 678.83 1311.74 678.83V632.57C1380.3 632.57 1449.07 632.57 1517.84 632.57ZM1531.36 676.351V632.57H1573.08C1573.08 647.439 1573.08 661.482 1573.08 676.351C1573.08 691.22 1568.95 698.655 1558.42 707.122L1543.13 692.666C1550.36 687.916 1552.22 683.579 1552.22 676.351H1531.36ZM1760.36 679.322C1760.36 707.557 1727.19 716.229 1701.17 722.582C1687.16 725.909 1675.96 729.237 1671.93 734.178H1758.15V772.899H1588.44V750.009C1588.44 719.052 1634.12 707.557 1669.01 699.288C1690.28 694.045 1707.32 689.91 1707.32 682.751C1707.32 677.003 1698.65 672.768 1679.8 672.768C1660.13 672.97 1643.29 675.894 1643.59 688.499H1590.55C1590.55 642.819 1626.25 634.047 1677.58 634.047C1729.71 634.047 1760.36 646.248 1760.36 679.322ZM1822.78 686.482H1836.4C1890.44 686.482 1936.43 690.112 1936.43 731.455C1936.43 745.572 1929.06 756.564 1914.44 764.429C1899.82 772.294 1879.25 776.227 1852.63 776.227C1800.09 776.227 1764.5 767.151 1764.5 721.976H1817.44C1817.24 736.396 1834.08 735.791 1854.75 736.094C1874.61 736.094 1883.39 732.867 1883.39 725.707C1883.39 717.035 1878.04 710.38 1836.4 710.38H1764.5V710.078L1781.04 637.374H1926.44V673.776H1825.61L1822.78 686.482Z" fill="#111111"/>
</g>
<path d="M-22.543 92.6912V-47.7385C35.4874 -47.7385 93.7244 -47.7385 151.961 -47.7385V-6.22912C139.777 -6.22912 69.9753 -6.22912 37.9656 -6.22912V6.16173C72.66 6.16173 107.561 6.16173 142.255 6.16173V38.9975H37.9656V51.1818H151.961V92.6912C93.7244 92.6912 35.4874 92.6912 -22.543 92.6912ZM284.61 2.65099V42.3017H164.005V2.65099H284.61ZM445.57 8.84642C481.71 8.84642 503.6 16.694 503.6 47.6711C503.6 86.2892 478.199 95.9954 445.57 95.9954H355.117C312.781 95.9954 296.053 79.4743 296.053 43.3343H353.877C354.497 51.1818 362.964 51.3883 370.192 51.3883C392.289 51.3883 430.907 51.5948 441.026 51.5948C446.602 51.5948 448.667 49.3232 448.667 43.5408C448.667 39.8235 446.189 38.1714 440.613 38.1714C412.114 37.5519 382.583 36.7258 354.084 35.8998C317.944 35.8998 296.26 28.4653 296.26 -2.51186C296.26 -41.13 321.661 -50.8362 354.29 -50.8362H441.646C483.775 -50.8362 500.502 -34.315 500.502 1.82493H442.679C442.059 -6.22912 433.798 -6.43563 426.364 -6.43563C404.267 -6.43563 369.159 -6.43563 358.834 -6.43563C353.258 -6.43563 351.193 -4.37049 351.193 1.4119C351.193 5.12916 353.258 6.57476 358.834 6.57476C387.333 7.1943 416.864 8.02036 445.57 8.84642ZM573.41 22.4764C573.41 41.2691 583.116 51.1818 598.811 51.1818C609.343 51.1818 617.811 51.1818 628.549 51.1818C644.038 51.1818 653.744 41.2691 653.744 22.4764V-47.7385H714.253V22.4764C714.253 72.4528 679.352 95.7889 644.038 95.7889H583.116C547.802 95.7889 512.901 72.4528 512.901 22.4764V-47.7385H573.41V22.4764ZM969.719 -47.7385V92.6912H909.004V7.60733L875.135 92.6912H822.061L788.399 7.60733V92.6912H727.684V-47.7385C758.455 -47.7385 789.019 -47.7385 819.376 -47.7385L848.701 25.9871L877.82 -47.7385C908.591 -47.7385 939.155 -47.7385 969.719 -47.7385ZM1225.24 -47.7385V92.6912H1164.52V7.60733L1130.66 92.6912H1077.58L1043.92 7.60733V92.6912H983.205V-47.7385C1013.98 -47.7385 1044.54 -47.7385 1074.9 -47.7385L1104.22 25.9871L1133.34 -47.7385C1164.11 -47.7385 1194.68 -47.7385 1225.24 -47.7385ZM1238.73 92.6912V-47.7385H1299.23V92.6912H1238.73ZM1518.84 -47.7385V-1.68581H1445.94V92.6912H1385.43V-1.68581C1354.46 -1.47929 1326.78 -1.47929 1312.74 -1.47929V-47.7385C1381.3 -47.7385 1450.07 -47.7385 1518.84 -47.7385ZM1532.36 -3.95746V-47.7385H1574.08C1574.08 -32.8694 1574.08 -18.8265 1574.08 -3.95746C1574.08 10.9116 1569.95 18.3461 1559.42 26.8131L1544.13 12.3572C1551.36 7.60733 1553.22 3.27053 1553.22 -3.95746H1532.36ZM1761.36 -0.986397C1761.36 27.248 1728.19 35.9199 1702.17 42.2727C1688.16 45.6003 1676.96 48.9279 1672.93 53.8689H1759.15V92.5903H1589.44V69.7003C1589.44 38.7434 1635.12 27.248 1670.01 18.9793C1691.28 13.7358 1708.32 9.60149 1708.32 2.44206C1708.32 -3.30565 1699.65 -7.5408 1680.8 -7.5408C1661.13 -7.33913 1644.29 -4.41485 1644.59 8.18977H1591.55C1591.55 -37.4894 1627.25 -46.2622 1678.58 -46.2622C1730.71 -46.2622 1761.36 -34.0609 1761.36 -0.986397ZM1823.78 6.17303H1837.4C1891.44 6.17303 1937.43 9.80316 1937.43 51.1463C1937.43 65.2635 1930.06 76.2547 1915.44 84.12C1900.82 91.9853 1880.25 95.9179 1853.63 95.9179C1801.09 95.9179 1765.5 86.8426 1765.5 41.6676H1818.44C1818.24 56.0873 1835.08 55.4823 1855.75 55.7848C1875.61 55.7848 1884.39 52.558 1884.39 45.3986C1884.39 36.7266 1879.04 30.0714 1837.4 30.0714H1765.5V29.7689L1782.04 -42.9346H1927.44V-6.53243H1826.61L1823.78 6.17303Z" fill="white"/>
<path d="M-22.543 1191V1050.57C35.4874 1050.57 93.7244 1050.57 151.961 1050.57V1092.08C139.777 1092.08 69.9753 1092.08 37.9656 1092.08V1104.47C72.66 1104.47 107.561 1104.47 142.255 1104.47V1137.31H37.9656V1149.49H151.961V1191C93.7244 1191 35.4874 1191 -22.543 1191ZM284.61 1100.96V1140.61H164.005V1100.96H284.61ZM445.57 1107.16C481.71 1107.16 503.6 1115 503.6 1145.98C503.6 1184.6 478.199 1194.3 445.57 1194.3H355.117C312.781 1194.3 296.053 1177.78 296.053 1141.64H353.877C354.497 1149.49 362.964 1149.7 370.192 1149.7C392.289 1149.7 430.907 1149.9 441.026 1149.9C446.602 1149.9 448.667 1147.63 448.667 1141.85C448.667 1138.13 446.189 1136.48 440.613 1136.48C412.114 1135.86 382.583 1135.03 354.084 1134.21C317.944 1134.21 296.26 1126.77 296.26 1095.8C296.26 1057.18 321.661 1047.47 354.29 1047.47H441.646C483.775 1047.47 500.502 1063.99 500.502 1100.13H442.679C442.059 1092.08 433.798 1091.87 426.364 1091.87C404.267 1091.87 369.159 1091.87 358.834 1091.87C353.258 1091.87 351.193 1093.94 351.193 1099.72C351.193 1103.44 353.258 1104.88 358.834 1104.88C387.333 1105.5 416.864 1106.33 445.57 1107.16ZM573.41 1120.79C573.41 1139.58 583.116 1149.49 598.811 1149.49C609.343 1149.49 617.811 1149.49 628.549 1149.49C644.038 1149.49 653.744 1139.58 653.744 1120.79V1050.57H714.253V1120.79C714.253 1170.76 679.352 1194.1 644.038 1194.1H583.116C547.802 1194.1 512.901 1170.76 512.901 1120.79V1050.57H573.41V1120.79ZM969.719 1050.57V1191H909.004V1105.92L875.135 1191H822.061L788.399 1105.92V1191H727.684V1050.57C758.455 1050.57 789.019 1050.57 819.376 1050.57L848.701 1124.3L877.82 1050.57C908.591 1050.57 939.155 1050.57 969.719 1050.57ZM1225.24 1050.57V1191H1164.52V1105.92L1130.66 1191H1077.58L1043.92 1105.92V1191H983.205V1050.57C1013.98 1050.57 1044.54 1050.57 1074.9 1050.57L1104.22 1124.3L1133.34 1050.57C1164.11 1050.57 1194.68 1050.57 1225.24 1050.57ZM1238.73 1191V1050.57H1299.23V1191H1238.73ZM1518.84 1050.57V1096.62H1445.94V1191H1385.43V1096.62C1354.46 1096.83 1326.78 1096.83 1312.74 1096.83V1050.57C1381.3 1050.57 1450.07 1050.57 1518.84 1050.57ZM1532.36 1094.35V1050.57H1574.08C1574.08 1065.44 1574.08 1079.48 1574.08 1094.35C1574.08 1109.22 1569.95 1116.65 1559.42 1125.12L1544.13 1110.67C1551.36 1105.92 1553.22 1101.58 1553.22 1094.35H1532.36ZM1761.36 1097.32C1761.36 1125.56 1728.19 1134.23 1702.17 1140.58C1688.16 1143.91 1676.96 1147.24 1672.93 1152.18H1759.15V1190.9H1589.44V1168.01C1589.44 1137.05 1635.12 1125.56 1670.01 1117.29C1691.28 1112.04 1708.32 1107.91 1708.32 1100.75C1708.32 1095 1699.65 1090.77 1680.8 1090.77C1661.13 1090.97 1644.29 1093.89 1644.59 1106.5H1591.55C1591.55 1060.82 1627.25 1052.05 1678.58 1052.05C1730.71 1052.05 1761.36 1064.25 1761.36 1097.32ZM1823.78 1104.48H1837.4C1891.44 1104.48 1937.43 1108.11 1937.43 1149.46C1937.43 1163.57 1930.06 1174.56 1915.44 1182.43C1900.82 1190.29 1880.25 1194.23 1853.63 1194.23C1801.09 1194.23 1765.5 1185.15 1765.5 1139.98H1818.44C1818.24 1154.4 1835.08 1153.79 1855.75 1154.09C1875.61 1154.09 1884.39 1150.87 1884.39 1143.71C1884.39 1135.04 1879.04 1128.38 1837.4 1128.38H1765.5V1128.08L1782.04 1055.37H1927.44V1091.78H1826.61L1823.78 1104.48Z" fill="white"/>
<path d="M642.231 421.802H658.008V472H642.231V421.802ZM666.532 421.802H683.742L706.69 453.642V421.802H722.395V472H705.184L682.308 440.232V472H666.532V421.802ZM730.96 421.802H748.171L771.118 453.642V421.802H786.823V472H769.612L746.736 440.232V472H730.96V421.802ZM823.858 473.219C804.424 473.219 793.38 463.681 793.38 446.973C793.38 430.264 804.424 420.726 823.858 420.726C843.22 420.726 854.263 430.264 854.263 446.973C854.263 463.681 843.22 473.219 823.858 473.219ZM809.874 446.973C809.874 455.937 814.965 461.028 823.858 461.028C832.678 461.028 837.77 455.937 837.77 446.973C837.77 438.009 832.678 432.917 823.858 432.917C814.965 432.917 809.874 438.009 809.874 446.973ZM853.835 421.802H870.687L886.105 456.223L901.595 421.802H918.375L895.929 472H876.352L853.835 421.802ZM922.704 421.802H973.548V433.993H938.409V440.805H968.528V452.996H938.409V459.809H973.548V472H922.704V421.802ZM980.69 421.802H997.9L1020.85 453.642V421.802H1036.55V472H1019.34L996.466 440.232V472H980.69V421.802ZM1097.54 433.993L1097.61 434.065H1077.46V472H1061.76V434.065H1041.68V421.802H1097.54V433.993ZM1129.65 473.147L1129.72 473.219C1111.93 473.219 1101.75 463.681 1101.75 446.973V421.802H1117.53V446.901C1117.53 455.865 1121.97 460.956 1129.65 460.956C1137.39 460.956 1141.84 455.865 1141.84 446.901V421.802H1157.61V446.901C1157.61 463.61 1147.43 473.147 1129.65 473.147ZM1181 472H1165.22V421.802H1199.57C1214.63 421.802 1220.73 425.89 1220.73 435.929C1220.73 442.813 1216.92 447.475 1209.97 448.694C1216.64 449.985 1220.44 454.359 1220.44 461.172V472H1203.94V458.733C1203.94 456.152 1202.01 454.789 1198.57 454.789H1181V472ZM1181 442.598H1198.85C1202.3 442.598 1204.23 441.021 1204.23 438.296C1204.23 435.571 1202.3 433.993 1198.85 433.993H1181V442.598ZM1228.18 421.802H1279.02V433.993H1243.88V440.805H1274V452.996H1243.88V459.809H1279.02V472H1228.18V421.802Z" fill="#97211F"/>
</g>
<defs>
<clipPath id="clip0_50_500">
<rect width="1920" height="1132" fill="white"/>
</clipPath>
</defs>
</svg>
