<svg width="68" height="68" viewBox="0 0 68 68" fill="none" xmlns="http://www.w3.org/2000/svg">
<circle cx="34" cy="34" r="34" fill="url(#paint0_linear_224_693)"/>
<path d="M44.0003 25.9629L23.9496 25.9815C22.8511 25.9815 21.9575 25.0879 21.9575 23.9895C21.9575 22.8911 22.8511 21.9975 23.9496 21.9975L43.9817 21.9788C45.0801 21.9788 45.9737 22.8725 45.9737 23.9709C45.9924 25.0693 45.0987 25.9629 44.0003 25.9629ZM44.0003 33.9497L23.9496 33.9683C22.8511 33.9683 21.9575 33.0747 21.9575 31.9763C21.9575 30.8779 22.8511 29.9842 23.9496 29.9842L43.9817 29.9656C45.0801 29.9656 45.9737 30.8593 45.9737 31.9577C45.9924 33.0561 45.0987 33.9497 44.0003 33.9497ZM51.0562 41.6014C51.019 41.62 51.0004 41.6572 50.9632 41.6759L37.6332 55.043C37.2795 55.5829 36.6651 55.9367 35.9763 55.9367C35.697 55.9367 35.4364 55.8808 35.1944 55.7691C35.1757 55.7691 35.1757 55.7505 35.1571 55.7505C34.822 55.6016 34.3194 55.1175 34.5241 55.3223C34.4869 55.2851 34.3007 55.0058 34.2449 54.9127C34.0215 54.5404 33.9284 54.1122 33.9842 53.7026L33.9656 43.9286H33.9842V41.9365C33.9842 39.7397 35.7715 37.9524 37.9683 37.9524H40.0907H47.9472L47.9286 19.5958C47.9286 16.0213 47.9099 16.0213 45.769 16.0213L22.7208 16.0027C20.0027 16.0027 20.0213 16.0027 20.0213 20.024V47.8754C20.0213 51.8595 20.0213 51.8595 24.0054 51.8595L27.8964 51.9153C28.9948 51.9153 29.8885 52.809 29.8885 53.9074C29.8885 55.0058 28.9948 55.8994 27.8964 55.8994L22.0134 55.918V55.8994H20.0213C17.8245 55.8994 16.0372 54.1122 16.0372 51.9153V49.793L16 18.1065H16.0186V15.9841C16.0186 13.8431 17.7128 12.1117 19.8351 12.0186L47.9658 12C50.1068 12 51.8382 13.6942 51.9313 15.8165L51.9499 39.4977C51.7823 38.753 52.5456 40.6705 51.0562 41.6014ZM42.0269 41.9365C37.5588 41.8993 38.0242 41.4525 37.9683 45.8275V49.0669L45.0801 41.9365H42.0269Z" fill="#A12F2F"/>
<defs>
<linearGradient id="paint0_linear_224_693" x1="34" y1="0" x2="34" y2="68" gradientUnits="userSpaceOnUse">
<stop stop-color="white"/>
<stop offset="1" stop-color="#DDDDDD"/>
</linearGradient>
</defs>
</svg>
