<svg width="307" height="144" viewBox="0 0 307 144" fill="none" xmlns="http://www.w3.org/2000/svg">
<path d="M177.232 126.714C178.533 125.21 196.647 112.563 198.007 111.616L194.915 111.084C194.915 111.084 178.356 125.151 177.232 126.714Z" fill="#FFC727"/>
<path opacity="0.5" d="M177.232 126.714C178.533 125.21 196.647 112.563 198.007 111.616L194.915 111.084C194.915 111.084 178.356 125.151 177.232 126.714Z" fill="white"/>
<path d="M177.173 126.828C177.173 126.837 177.173 126.845 177.173 126.845C177.173 126.862 177.181 126.879 177.19 126.904C177.334 127.225 178.575 127.504 179.961 127.69C179.978 127.69 179.995 127.69 180.012 127.698C181.71 127.909 183.594 127.977 183.899 127.774C184.288 127.504 197.357 120.965 205.358 116.968C205.468 116.917 205.569 116.867 205.671 116.816C205.705 116.799 205.73 116.782 205.739 116.782H205.747V116.774C206.136 116.58 206.516 116.394 206.879 116.208C208.239 115.532 209.371 114.966 210.174 114.569C210.993 114.163 211.458 113.927 211.458 113.927L198.008 111.621C197.239 112.153 191.123 116.42 185.715 120.314C185.529 120.441 185.344 120.576 185.158 120.711C184.651 121.074 184.161 121.429 183.671 121.776C180.385 124.167 177.706 126.169 177.233 126.718C177.216 126.743 177.199 126.769 177.191 126.786C177.182 126.802 177.173 126.819 177.173 126.828Z" fill="#FFC727"/>
<g opacity="0.1">
<path d="M177.173 126.828C177.173 126.837 177.173 126.845 177.173 126.845C177.173 126.862 177.181 126.879 177.19 126.904C177.334 127.225 178.575 127.504 179.961 127.69C179.978 127.69 179.995 127.69 180.012 127.698C181.71 127.909 183.594 127.977 183.899 127.774C184.296 127.504 197.704 120.795 205.671 116.816C204.362 117.45 187.169 125.721 183.671 121.775C180.385 124.166 177.706 126.168 177.233 126.717C177.216 126.742 177.199 126.768 177.191 126.785C177.182 126.802 177.173 126.819 177.173 126.828Z" fill="black"/>
</g>
<path d="M-0.000152588 141.587V141.595C-0.000152588 143.395 9.90984 143.978 11.2618 143.589C12.7398 143.166 120.611 100.713 120.611 100.713L80.9199 84.9993C80.6159 85.2103 80.2358 85.4813 79.7788 85.7933C79.6188 85.9033 79.4499 86.0213 79.2719 86.1393C71.9558 91.2083 50.1079 106.356 31.0229 119.688C30.6429 119.95 30.2709 120.212 29.8989 120.474C29.3919 120.82 28.8938 121.175 28.3948 121.522C15.1648 130.765 3.69185 138.833 -0.000152588 141.587Z" fill="#FFC727"/>
<path d="M-9.15527e-05 141.587C9.66491 134.372 72.6739 90.7104 80.9199 84.9994L75.8929 83.0054C75.8929 83.0054 2.4919 138.833 0.2789 141.055C0.0929031 141.249 -9.15527e-05 141.418 -9.15527e-05 141.587Z" fill="#FFC727"/>
<path opacity="0.5" d="M-9.15527e-05 141.587C9.66491 134.372 72.6739 90.7104 80.9199 84.9994L75.8929 83.0054C75.8929 83.0054 2.4919 138.833 0.2789 141.055C0.0929031 141.249 -9.15527e-05 141.418 -9.15527e-05 141.587Z" fill="white"/>
<g opacity="0.5">
<path opacity="0.1" d="M-0.000152588 141.587V141.595C-0.000152588 143.395 9.90984 143.978 11.2618 143.589C12.7398 143.166 120.611 100.713 120.611 100.713L80.9199 84.9993C80.9199 84.9993 90.7369 96.2273 67.4449 113.496C51.5699 125.265 34.6728 127.706 28.3958 121.522C15.1648 130.765 3.69185 138.833 -0.000152588 141.587Z" fill="black"/>
</g>
<path d="M89.9569 114.64C93.0229 116.129 96.3579 117.299 96.5989 114.218C96.6979 112.955 95.7189 111.605 90.7869 109.231C89.6299 108.674 86.8049 107.436 85.9729 109.998C85.1729 112.465 88.8029 114.078 89.9569 114.64Z" fill="#FFC727"/>
<path opacity="0.1" d="M89.9569 114.64C93.0229 116.129 96.3579 117.299 96.5989 114.218C96.6979 112.955 95.7189 111.605 90.7869 109.231C89.6299 108.674 86.8049 107.436 85.9729 109.998C85.1729 112.465 88.8029 114.078 89.9569 114.64Z" fill="black"/>
<path d="M64.9287 124.884C67.9947 126.373 71.3297 127.543 71.5707 124.462C71.6687 123.198 70.6907 121.848 65.7577 119.474C64.6007 118.917 61.7757 117.68 60.9437 120.242C60.1437 122.709 63.7737 124.323 64.9287 124.884Z" fill="#FFC727"/>
<path opacity="0.1" d="M64.9287 124.884C67.9947 126.373 71.3297 127.543 71.5707 124.462C71.6687 123.198 70.6907 121.848 65.7577 119.474C64.6007 118.917 61.7757 117.68 60.9437 120.242C60.1437 122.709 63.7737 124.323 64.9287 124.884Z" fill="black"/>
<path d="M39.8999 135.127C42.9659 136.616 46.3009 137.786 46.5419 134.705C46.6399 133.441 45.6619 132.091 40.7289 129.717C39.5719 129.16 36.7469 127.923 35.9149 130.485C35.1149 132.953 38.7449 134.566 39.8999 135.127Z" fill="#FFC727"/>
<path opacity="0.1" d="M39.8999 135.127C42.9659 136.616 46.3009 137.786 46.5419 134.705C46.6399 133.441 45.6619 132.091 40.7289 129.717C39.5719 129.16 36.7469 127.923 35.9149 130.485C35.1149 132.953 38.7449 134.566 39.8999 135.127Z" fill="black"/>
<path d="M48.0806 108.215C51.0966 113.58 57.9396 115.514 62.2746 117.246C73.7816 121.842 82.1286 124.427 86.2426 113.977C86.7746 112.625 87.0706 111.366 87.1636 110.192C87.8396 102.31 79.6776 98.3724 75.5296 96.1934C75.5216 96.1854 75.5216 96.1854 75.5216 96.1854C70.5196 93.5494 66.9796 91.8434 64.3446 90.7364C60.0446 88.9194 58.1266 88.6914 56.1496 88.6244C53.8266 88.5484 48.5716 89.1314 46.8476 98.7714C46.1376 102.783 46.7286 105.833 48.0806 108.215Z" fill="#FFC727"/>
<path d="M47.9437 100.721C47.9437 106.593 51.6157 111.352 56.1457 111.352C60.6757 111.352 64.3477 106.592 64.3477 100.721C64.3477 94.8503 60.6757 90.0903 56.1457 90.0903C51.6157 90.0903 47.9437 94.8503 47.9437 100.721Z" fill="#263238"/>
<path d="M48.8986 100.721C48.8986 105.909 52.1426 110.114 56.1456 110.114C60.1476 110.114 63.3926 105.908 63.3926 100.721C63.3926 95.5344 60.1476 91.3284 56.1456 91.3284C52.1426 91.3284 48.8986 95.5344 48.8986 100.721Z" fill="#455A64"/>
<path d="M219.804 97.9095L221.705 98.6024L225.98 100.157C229.815 98.4925 235.087 96.2204 240.782 93.7704C255.119 87.6114 272.084 80.3795 275.353 79.2725C275.235 79.3065 275.091 79.3484 274.939 79.3994C274.829 79.4334 274.703 79.4755 274.567 79.5175C274.415 79.5685 274.246 79.6185 274.069 79.6775C273.976 79.7115 273.883 79.7364 273.782 79.7704C273.444 79.8804 273.064 79.9985 272.65 80.1335C272.287 80.2515 271.907 80.3785 271.493 80.5135C270.53 80.8255 269.44 81.1895 268.24 81.5865C267.877 81.7135 267.505 81.8315 267.125 81.9585C266.787 82.0685 266.441 82.1864 266.086 82.3044C265.892 82.3724 265.706 82.4314 265.512 82.4904C264.938 82.6844 264.355 82.8795 263.746 83.0815C263.358 83.2165 262.969 83.3435 262.572 83.4785C257.985 85.0165 252.653 86.8074 247.348 88.5984L245.903 89.0804C243.994 89.7304 242.084 90.3734 240.234 90.9984C236.719 92.1894 233.374 93.3135 230.45 94.3015C229.977 94.4625 229.521 94.6224 229.073 94.7744C227.493 95.3064 226.057 95.7884 224.815 96.2104L224.798 96.2195C224.418 96.3455 224.055 96.4725 223.708 96.5915C223.531 96.6505 223.362 96.7095 223.201 96.7605C223.116 96.7945 223.032 96.8195 222.948 96.8445C220.962 97.5205 219.804 97.9095 219.804 97.9095Z" fill="#FFC727"/>
<path opacity="0.5" d="M219.804 97.9095L221.705 98.6024L225.98 100.157C229.815 98.4925 235.087 96.2204 240.782 93.7704C255.119 87.6114 272.084 80.3795 275.353 79.2725C275.235 79.3065 275.091 79.3484 274.939 79.3994C274.829 79.4334 274.703 79.4755 274.567 79.5175C274.415 79.5685 274.246 79.6185 274.069 79.6775C273.976 79.7115 273.883 79.7364 273.782 79.7704C273.444 79.8804 273.064 79.9985 272.65 80.1335C272.287 80.2515 271.907 80.3785 271.493 80.5135C270.53 80.8255 269.44 81.1895 268.24 81.5865C267.877 81.7135 267.505 81.8315 267.125 81.9585C266.787 82.0685 266.441 82.1864 266.086 82.3044C265.892 82.3724 265.706 82.4314 265.512 82.4904C264.938 82.6844 264.355 82.8795 263.746 83.0815C263.358 83.2165 262.969 83.3435 262.572 83.4785C257.985 85.0165 252.653 86.8074 247.348 88.5984L245.903 89.0804C243.994 89.7304 242.084 90.3734 240.234 90.9984C236.719 92.1894 233.374 93.3135 230.45 94.3015C229.977 94.4625 229.521 94.6224 229.073 94.7744C227.493 95.3064 226.057 95.7884 224.815 96.2104L224.798 96.2195C224.418 96.3455 224.055 96.4725 223.708 96.5915C223.531 96.6505 223.362 96.7095 223.201 96.7605C223.116 96.7945 223.032 96.8195 222.948 96.8445C220.962 97.5205 219.804 97.9095 219.804 97.9095Z" fill="white"/>
<path d="M225.98 100.156L237.445 104.329C237.445 104.329 263.044 92.4504 278.31 85.0074C278.42 84.9564 278.479 84.9314 278.479 84.9314C278.547 84.8974 278.614 84.8634 278.682 84.8304C280.279 84.0534 281.757 83.3264 283.075 82.6764C287.02 80.6994 289.521 79.3564 289.428 79.1704C289.006 78.3254 279.501 78.1144 275.699 79.1704C275.665 79.1784 275.64 79.1874 275.597 79.1954C275.529 79.2124 275.445 79.2374 275.352 79.2714C272.192 80.3444 256.241 87.1284 242.234 93.1434C242.124 93.1934 242.023 93.2364 241.913 93.2784C241.533 93.4474 241.153 93.6074 240.781 93.7684C235.088 96.2194 229.816 98.4914 225.98 100.156Z" fill="#FFC727"/>
<g opacity="0.1">
<path d="M225.98 100.156L237.445 104.329C237.445 104.329 263.044 92.4503 278.31 85.0073C275.784 86.0803 249.879 97.4923 243.489 95.9083C241.982 95.5343 241.119 94.6643 240.781 93.7683C235.088 96.2193 229.816 98.4913 225.98 100.156Z" fill="black"/>
</g>
<path d="M196.495 83.8162L224.307 97.1902C224.307 97.1902 224.02 73.3492 223.809 56.1982C223.801 55.6072 223.792 55.0242 223.784 54.4492C223.775 53.9762 223.775 53.5112 223.767 53.0552C223.691 47.1832 223.623 42.4522 223.598 40.3062C223.496 33.4042 222.753 32.0012 220.928 33.1252C219.095 34.2492 210.976 41.3122 208.534 44.4632C206.532 47.0482 202.096 62.7032 199.207 73.4672C199.182 73.5602 199.157 73.6442 199.139 73.7372C198.97 74.3622 198.801 74.9712 198.649 75.5532C197.365 80.3952 196.495 83.8162 196.495 83.8162Z" fill="#FFC727"/>
<g opacity="0.1">
<path d="M196.495 83.8163L224.307 97.1902C224.307 97.1902 224.02 73.3492 223.809 56.1982C219.711 65.3312 211.626 77.8093 198.649 75.5533C197.365 80.3953 196.495 83.8163 196.495 83.8163Z" fill="black"/>
</g>
<path d="M243.736 111.775C246.599 104.618 234.443 98.1162 220.643 91.9212C206.844 85.7252 70.823 25.7413 51.11 20.3903C31.397 15.0393 8.438 22.3673 4.556 33.6263C-1.271 50.5233 23.263 64.6802 111.376 101.214C122.922 106.001 174.565 118.4 203.605 118.493C234.654 118.593 242.328 115.295 243.736 111.775Z" fill="#FFC727"/>
<path opacity="0.5" d="M243.736 111.775C246.599 104.618 234.443 98.1162 220.643 91.9212C206.844 85.7252 70.823 25.7413 51.11 20.3903C31.397 15.0393 8.438 22.3673 4.556 33.6263C-1.271 50.5233 23.263 64.6802 111.376 101.214C122.922 106.001 174.565 118.4 203.605 118.493C234.654 118.593 242.328 115.295 243.736 111.775Z" fill="white"/>
<path opacity="0.1" d="M111.374 101.215C122.923 106.005 174.569 118.399 203.606 118.492C234.654 118.594 242.325 115.299 243.736 111.776C245.231 108.033 242.621 104.468 237.813 101.029C237.847 101.73 237.729 102.431 237.441 103.141C236.157 106.343 229.195 109.334 201.028 109.241C174.677 109.157 136.777 87.8173 126.301 83.4753C46.3531 50.3233 15.1271 47.5673 20.4161 32.2333C22.7141 25.5593 32.4041 20.4053 43.8441 18.9943C26.1191 16.8733 7.96309 23.7253 4.55809 33.6273C-1.26991 50.5243 23.2641 64.6833 111.374 101.215Z" fill="black"/>
<path d="M200.618 88.1694L197.492 86.8174V91.4134L200.618 92.7654V88.1694Z" fill="#455A64"/>
<path d="M194.915 85.7023L191.578 84.2573V88.8533L194.915 90.2983V85.7023Z" fill="#455A64"/>
<path d="M189.001 83.1422L185.664 81.6982V86.2932L189.001 87.7383V83.1422Z" fill="#455A64"/>
<path d="M183.087 80.5824L179.75 79.1384V83.7334L183.087 85.1784V80.5824Z" fill="#455A64"/>
<path d="M177.173 78.0224L173.836 76.5784V81.1744L177.173 82.6184V78.0224Z" fill="#455A64"/>
<path d="M171.259 75.4623L167.922 74.0183V78.6143L171.259 80.0593V75.4623Z" fill="#455A64"/>
<path d="M165.345 72.9025L162.008 71.4585V76.0545L165.345 77.4995V72.9025Z" fill="#455A64"/>
<path d="M159.431 70.3434L156.094 68.8984V73.4944L159.431 74.9394V70.3434Z" fill="#455A64"/>
<path d="M153.517 67.7834L150.18 66.3384V70.9344L153.517 72.3794V67.7834Z" fill="#455A64"/>
<path d="M147.603 65.2233L144.266 63.7783V68.3743L147.603 69.8193V65.2233Z" fill="#455A64"/>
<path d="M141.689 62.6633L138.352 61.2183V65.8143L141.689 67.2593V62.6633Z" fill="#455A64"/>
<path d="M135.775 60.1034L132.438 58.6594V63.2544L135.775 64.6994V60.1034Z" fill="#455A64"/>
<path d="M129.862 57.5434L126.524 56.0994V60.6944L129.862 62.1394V57.5434Z" fill="#455A64"/>
<path d="M123.947 54.9833L120.61 53.5393V58.1353L123.947 59.5793V54.9833Z" fill="#455A64"/>
<path d="M118.034 52.4235L114.696 50.9795V55.5755L118.034 57.0195V52.4235Z" fill="#455A64"/>
<path d="M112.12 49.8644L108.782 48.4194V53.0154L112.12 54.4604V49.8644Z" fill="#455A64"/>
<path d="M106.206 47.3044L102.869 45.8594V50.4554L106.206 51.9004V47.3044Z" fill="#455A64"/>
<path d="M100.292 44.7443L96.955 43.2993V47.8953L100.292 49.3403V44.7443Z" fill="#455A64"/>
<path d="M94.3779 42.1843L91.041 40.7393V45.3353L94.3779 46.7803V42.1843Z" fill="#455A64"/>
<path d="M88.4644 39.6245L85.1274 38.1794V42.7755L88.4644 44.2205V39.6245Z" fill="#455A64"/>
<path d="M82.5503 37.0644L79.2133 35.6194V40.2154L82.5503 41.6604V37.0644Z" fill="#455A64"/>
<path d="M73.2992 33.0593V37.6553L76.6362 39.1003V34.5043L73.2992 33.0593Z" fill="#455A64"/>
<path d="M67.3852 30.5005V35.0955L70.7222 36.5405V31.9445L67.3852 30.5005Z" fill="#455A64"/>
<path d="M61.4711 27.9404V32.5364L64.8081 33.9804V29.3844L61.4711 27.9404Z" fill="#455A64"/>
<path d="M55.557 25.3804V29.9764L58.894 31.4204V26.8244L55.557 25.3804Z" fill="#455A64"/>
<path d="M40.0962 23.5003C38.2712 22.0473 36.1082 21.1773 33.8952 20.6113V23.6693C35.8892 23.5933 37.9252 23.5423 40.0962 23.5003Z" fill="#455A64"/>
<path d="M26.6383 19.8844V24.1084C28.1933 23.9644 29.7473 23.8714 31.3193 23.7954V20.1034C29.7723 19.8844 28.2013 19.8084 26.6383 19.8844Z" fill="#455A64"/>
<path d="M11.76 25.8493C13.07 25.8153 14.269 25.5873 15.477 25.4433C16.693 25.3253 17.843 25.0883 19.017 24.9783C20.715 24.7163 22.396 24.5303 24.061 24.3703V20.1543C22.025 20.4503 20.023 20.9563 18.147 21.7683C16.956 22.2163 15.849 22.8583 14.759 23.5003C14.218 23.8043 13.711 24.2103 13.204 24.6073C12.706 25.0043 12.216 25.4013 11.76 25.8493Z" fill="#455A64"/>
<path d="M118.034 63.2973L157.231 82.1583C157.231 82.1583 219.535 48.7573 264.244 24.3503C264.295 24.3253 264.328 24.3083 264.346 24.2993L264.363 24.2913C288.229 11.2543 306.444 1.1333 306.148 0.744297C305.396 -0.269703 293.391 -0.142713 288.643 0.499287C288.077 0.567287 287.612 0.651297 287.283 0.744297C285.272 1.2933 214.778 27.4073 165.413 45.7153C138.606 55.6603 118.034 63.2973 118.034 63.2973Z" fill="#FFC727"/>
<g opacity="0.1">
<path d="M118.034 63.2973L157.231 82.1583C157.231 82.1583 219.535 48.7573 264.244 24.3503C260.746 26.1163 180.595 66.5083 170.128 60.4423C166.174 58.1523 165.143 52.2474 165.414 45.7164C138.606 55.6604 118.034 63.2973 118.034 63.2973Z" fill="black"/>
</g>
<path d="M112.312 60.7033L123.952 66.3043C153.733 53.8253 277.601 4.85028 287.975 0.744278C288.093 0.693278 288.203 0.651279 288.296 0.617279C288.398 0.583279 288.482 0.549279 288.549 0.533279C288.591 0.516279 288.617 0.508268 288.642 0.499268C288.076 0.567268 287.611 0.651278 287.282 0.744278C284.182 1.58928 112.312 60.7033 112.312 60.7033Z" fill="#FFC727"/>
<path opacity="0.5" d="M112.312 60.7033L123.952 66.3043C153.733 53.8253 277.601 4.85028 287.975 0.744278C288.093 0.693278 288.203 0.651279 288.296 0.617279C288.398 0.583279 288.482 0.549279 288.549 0.533279C288.591 0.516279 288.617 0.508268 288.642 0.499268C288.076 0.567268 287.611 0.651278 287.282 0.744278C284.182 1.58928 112.312 60.7033 112.312 60.7033Z" fill="white"/>
<path d="M196.261 61.6112C200.094 63.4722 204.262 64.9342 204.562 61.0842C204.685 59.5052 203.462 57.8172 197.297 54.8502C195.851 54.1542 192.32 52.6072 191.281 55.8102C190.281 58.8932 194.818 60.9102 196.261 61.6112Z" fill="#FFC727"/>
<path opacity="0.1" d="M196.261 61.6112C200.094 63.4722 204.262 64.9342 204.562 61.0842C204.685 59.5052 203.462 57.8172 197.297 54.8502C195.851 54.1542 192.32 52.6072 191.281 55.8102C190.281 58.8932 194.818 60.9102 196.261 61.6112Z" fill="black"/>
<path d="M229.43 44.8554C233.263 46.7174 237.431 48.1784 237.731 44.3274C237.854 42.7484 236.631 41.0604 230.466 38.0934C229.02 37.3974 225.489 35.8504 224.45 39.0534C223.45 42.1374 227.986 44.1544 229.43 44.8554Z" fill="#FFC727"/>
<path opacity="0.1" d="M229.43 44.8554C233.263 46.7174 237.431 48.1784 237.731 44.3274C237.854 42.7484 236.631 41.0604 230.466 38.0934C229.02 37.3974 225.489 35.8504 224.45 39.0534C223.45 42.1374 227.986 44.1544 229.43 44.8554Z" fill="black"/>
<path d="M262.708 27.8983C266.278 29.6323 270.161 30.9933 270.441 27.4063C270.556 25.9353 269.416 24.3633 263.673 21.5993C262.326 20.9503 259.036 19.5103 258.068 22.4943C257.137 25.3663 261.364 27.2453 262.708 27.8983Z" fill="#FFC727"/>
<path opacity="0.1" d="M262.708 27.8983C266.278 29.6323 270.161 30.9933 270.441 27.4063C270.556 25.9353 269.416 24.3633 263.673 21.5993C262.326 20.9503 259.036 19.5103 258.068 22.4943C257.137 25.3663 261.364 27.2453 262.708 27.8983Z" fill="black"/>
<path d="M146.772 57.8172C149.788 63.1822 156.631 65.1172 160.965 66.8482C172.472 71.4442 180.819 74.0292 184.933 63.5782C185.465 62.2262 185.761 60.9682 185.854 59.7932C186.53 51.9102 178.369 47.9732 174.221 45.7942C174.213 45.7852 174.213 45.7852 174.213 45.7852C169.211 43.1492 165.671 41.4422 163.036 40.3362C158.736 38.5202 156.818 38.2912 154.841 38.2242C152.518 38.1482 147.263 38.7312 145.539 48.3712C144.828 52.3852 145.42 55.4352 146.772 57.8172Z" fill="#FFC727"/>
<path d="M154.836 60.9542C150.306 60.9542 146.634 56.1945 146.634 50.3232C146.634 44.4518 150.306 39.6921 154.836 39.6921C159.366 39.6921 163.038 44.4518 163.038 50.3232C163.038 56.1945 159.366 60.9542 154.836 60.9542Z" fill="#263238"/>
<path d="M147.589 50.3232C147.589 55.5112 150.834 59.7162 154.836 59.7162C158.838 59.7162 162.083 55.5102 162.083 50.3232C162.083 45.1362 158.838 40.9302 154.836 40.9302C150.834 40.9302 147.589 45.1352 147.589 50.3232Z" fill="#455A64"/>
<path d="M271.492 80.5133C271.897 80.3783 272.286 80.2513 272.649 80.1333C272.286 80.2513 271.906 80.3783 271.492 80.5133Z" fill="#FFC727"/>
</svg>
